<?xml version="1.0" encoding="utf-8"?>
<!-- Generator: Adobe Illustrator 25.2.1, SVG Export Plug-In . SVG Version: 6.00 Build 0)  -->
<svg version="1.1" xmlns="http://www.w3.org/2000/svg" xmlns:xlink="http://www.w3.org/1999/xlink" x="0px" y="0px"
	 viewBox="0 0 500 500" style="enable-background:new 0 0 500 500;" xml:space="preserve">
<style type="text/css">
	.st0{fill:#F5F5F5;}
	.st1{fill:#E6E6E6;}
	.st2{fill:#E0E0E0;}
	.st3{fill:#F0F0F0;}
	.st4{fill:#FFFFFF;}
	.st5{fill:#FAFAFA;}
	.st6{display:none;}
	.st7{display:inline;}
	.st8{fill:#407BFF;}
	.st9{opacity:0.9;fill:#FFFFFF;}
	.st10{opacity:0.7;fill:#FFFFFF;}
	.st11{fill:#263238;}
	.st12{fill:#EBC0BB;}
	.st13{opacity:0.2;}
	.st14{fill:#EEC1BB;}
	.st15{opacity:0.2;fill:#FFFFFF;}
	.st16{fill:#D4827D;}
	.st17{opacity:0.1;}
	.st18{opacity:0.2;enable-background:new    ;}
	.st19{opacity:0.5;enable-background:new    ;}
	.st20{opacity:0.6;fill:#FFFFFF;enable-background:new    ;}
	.st21{opacity:0.4;}
	.st22{opacity:0.4;fill:#FFFFFF;enable-background:new    ;}
	.st23{opacity:0.5;fill:#FFFFFF;}
	.st24{opacity:0.6;fill:#FFFFFF;}
	.st25{opacity:0.7;fill:#FFFFFF;enable-background:new    ;}
	.st26{opacity:0.4;enable-background:new    ;}
</style>
<g id="Background_Complete">
	<g>
		<rect x="320.09" y="109.29" class="st0" width="84.71" height="87.44"/>
		<rect x="403.83" y="109.29" class="st1" width="0.97" height="87.44"/>
		<g>
			<circle class="st2" cx="137.04" cy="108.07" r="24.35"/>
			<circle class="st3" cx="137.04" cy="108.07" r="20.7"/>
			<g>
				<polyline class="st3" points="136.06,93.87 136.06,108.34 126.47,102.91 				"/>
				<path class="st2" d="M136.06,109.34c-0.17,0-0.34-0.04-0.49-0.13l-9.59-5.43c-0.48-0.27-0.65-0.88-0.38-1.36
					c0.27-0.48,0.88-0.65,1.36-0.38l8.1,4.58V93.87c0-0.55,0.45-1,1-1c0.55,0,1,0.45,1,1v14.47c0,0.36-0.19,0.68-0.5,0.86
					C136.41,109.29,136.23,109.34,136.06,109.34z"/>
			</g>
		</g>
		<g>
			<rect x="79.65" y="162.61" class="st2" width="128.86" height="142.52"/>
			<rect x="78.97" y="162.61" class="st3" width="133.65" height="142.52"/>
			<rect x="84.41" y="167.16" class="st4" width="122.56" height="131.43"/>
			<rect x="203.43" y="167.16" class="st2" width="3.54" height="131.43"/>
			
				<rect x="142.18" y="203.59" transform="matrix(6.123234e-17 -1 1 6.123234e-17 -119.4901 407.3926)" class="st2" width="3.54" height="119.71"/>
			<rect x="82.51" y="255.72" class="st3" width="124.46" height="5.95"/>
		</g>
		<rect x="323.94" y="143.01" class="st5" width="75" height="50.12"/>
		<rect x="393.47" y="143.01" class="st3" width="5.48" height="50.12"/>
		<rect x="323.94" y="143.01" class="st2" width="75" height="7.9"/>
		<rect x="323.94" y="143.01" class="st1" width="69.53" height="7.9"/>
		<g>
			<g>
				<rect x="335.96" y="155.72" class="st4" width="7.91" height="5.74"/>
				<rect x="345.35" y="155.72" class="st4" width="7.91" height="5.74"/>
				<rect x="354.75" y="155.72" class="st4" width="7.91" height="5.74"/>
				<rect x="364.14" y="155.72" class="st4" width="7.91" height="5.74"/>
				<rect x="373.54" y="155.72" class="st4" width="7.91" height="5.74"/>
				<rect x="382.94" y="155.72" class="st4" width="7.91" height="5.74"/>
			</g>
			<g>
				<rect x="326.56" y="163" class="st4" width="7.91" height="5.74"/>
				<rect x="335.96" y="163" class="st4" width="7.91" height="5.74"/>
				<rect x="345.35" y="163" class="st4" width="7.91" height="5.74"/>
				<rect x="354.75" y="163" class="st4" width="7.91" height="5.74"/>
				<rect x="364.14" y="163" class="st4" width="7.91" height="5.74"/>
				<rect x="373.54" y="163" class="st4" width="7.91" height="5.74"/>
				<rect x="382.94" y="163" class="st4" width="7.91" height="5.74"/>
			</g>
			<g>
				<rect x="326.56" y="170.28" class="st4" width="7.91" height="5.74"/>
				<rect x="335.96" y="170.28" class="st4" width="7.91" height="5.74"/>
				<rect x="345.35" y="170.28" class="st4" width="7.91" height="5.74"/>
				<rect x="354.75" y="170.28" class="st4" width="7.91" height="5.74"/>
				<rect x="364.14" y="170.28" class="st4" width="7.91" height="5.74"/>
				<rect x="373.54" y="170.28" class="st1" width="7.91" height="5.74"/>
				<rect x="382.94" y="170.28" class="st4" width="7.91" height="5.74"/>
			</g>
			<g>
				<rect x="326.56" y="177.55" class="st4" width="7.91" height="5.74"/>
				<rect x="335.96" y="177.55" class="st4" width="7.91" height="5.74"/>
				<rect x="345.35" y="177.55" class="st4" width="7.91" height="5.74"/>
				<rect x="354.75" y="177.55" class="st4" width="7.91" height="5.74"/>
				<rect x="364.14" y="177.55" class="st4" width="7.91" height="5.74"/>
				<rect x="373.54" y="177.55" class="st4" width="7.91" height="5.74"/>
				<rect x="382.94" y="177.55" class="st4" width="7.91" height="5.74"/>
			</g>
			<g>
				<rect x="326.56" y="184.83" class="st4" width="7.91" height="5.74"/>
				<rect x="335.96" y="184.83" class="st4" width="7.91" height="5.74"/>
				<rect x="345.35" y="184.83" class="st4" width="7.91" height="5.74"/>
				<rect x="354.75" y="184.83" class="st4" width="7.91" height="5.74"/>
				<rect x="364.14" y="184.83" class="st4" width="7.91" height="5.74"/>
			</g>
		</g>
		<g>
			
				<rect x="339.41" y="153.71" transform="matrix(0.5874 -0.8093 0.8093 0.5874 11.9004 340.5334)" class="st1" width="1" height="9.78"/>
			
				<rect x="335.02" y="158.1" transform="matrix(0.8096 -0.587 0.587 0.8096 -28.374 229.7167)" class="st1" width="9.78" height="1"/>
		</g>
		<g>
			
				<rect x="348.81" y="153.71" transform="matrix(0.5874 -0.8093 0.8093 0.5874 15.7773 348.1377)" class="st1" width="1" height="9.78"/>
			
				<rect x="344.42" y="158.1" transform="matrix(0.8096 -0.587 0.587 0.8096 -26.5851 235.2319)" class="st1" width="9.78" height="1"/>
		</g>
		<g>
			
				<rect x="358.21" y="153.71" transform="matrix(0.5874 -0.8093 0.8093 0.5874 19.6543 355.7419)" class="st1" width="1" height="9.78"/>
			
				<rect x="353.82" y="158.1" transform="matrix(0.8096 -0.587 0.587 0.8096 -24.7961 240.7471)" class="st1" width="9.78" height="1"/>
		</g>
		<g>
			
				<rect x="367.6" y="153.71" transform="matrix(0.5874 -0.8093 0.8093 0.5874 23.5312 363.3462)" class="st1" width="1" height="9.78"/>
			
				<rect x="363.21" y="158.1" transform="matrix(0.8096 -0.587 0.587 0.8096 -23.0072 246.2624)" class="st1" width="9.78" height="1"/>
		</g>
		<g>
			
				<rect x="377" y="153.71" transform="matrix(0.5874 -0.8093 0.8093 0.5874 27.4081 370.9504)" class="st1" width="1" height="9.78"/>
			
				<rect x="372.61" y="158.1" transform="matrix(0.8096 -0.587 0.587 0.8096 -21.2182 251.7776)" class="st1" width="9.78" height="1"/>
		</g>
		<g>
			
				<rect x="386.39" y="153.71" transform="matrix(0.5874 -0.8093 0.8093 0.5874 31.2851 378.5547)" class="st1" width="1" height="9.78"/>
			
				<rect x="382" y="158.1" transform="matrix(0.8096 -0.587 0.587 0.8096 -19.4293 257.2928)" class="st1" width="9.78" height="1"/>
		</g>
		<g>
			
				<rect x="386.39" y="160.98" transform="matrix(0.5874 -0.8093 0.8093 0.5874 25.3962 381.557)" class="st1" width="1" height="9.78"/>
			
				<rect x="382" y="165.37" transform="matrix(0.8096 -0.5869 0.5869 0.8096 -23.7058 258.6541)" class="st1" width="9.78" height="1"/>
		</g>
		<g>
			
				<rect x="377" y="160.98" transform="matrix(0.5874 -0.8093 0.8093 0.5874 21.5193 373.9528)" class="st1" width="1" height="9.78"/>
			
				<rect x="372.61" y="165.37" transform="matrix(0.8096 -0.5869 0.5869 0.8096 -25.4944 253.1393)" class="st1" width="9.78" height="1"/>
		</g>
		<g>
			
				<rect x="367.6" y="160.98" transform="matrix(0.5874 -0.8093 0.8093 0.5874 17.6424 366.3485)" class="st1" width="1" height="9.78"/>
			
				<rect x="363.21" y="165.37" transform="matrix(0.8096 -0.5869 0.5869 0.8096 -27.283 247.6245)" class="st1" width="9.78" height="1"/>
		</g>
		<g>
			
				<rect x="358.21" y="160.98" transform="matrix(0.5874 -0.8093 0.8093 0.5874 13.7654 358.7443)" class="st1" width="1" height="9.78"/>
			
				<rect x="353.82" y="165.37" transform="matrix(0.8096 -0.5869 0.5869 0.8096 -29.0717 242.1098)" class="st1" width="9.78" height="1"/>
		</g>
		<g>
			
				<rect x="348.81" y="160.98" transform="matrix(0.5874 -0.8093 0.8093 0.5874 9.8885 351.14)" class="st1" width="1" height="9.78"/>
			
				<rect x="344.42" y="165.37" transform="matrix(0.8096 -0.5869 0.5869 0.8096 -30.8603 236.595)" class="st1" width="9.78" height="1"/>
		</g>
		<g>
			
				<rect x="339.41" y="160.98" transform="matrix(0.5874 -0.8093 0.8093 0.5874 6.0116 343.5358)" class="st1" width="1" height="9.78"/>
			
				<rect x="335.02" y="165.37" transform="matrix(0.8096 -0.5869 0.5869 0.8096 -32.6489 231.0802)" class="st1" width="9.78" height="1"/>
		</g>
		<g>
			
				<rect x="330.02" y="160.98" transform="matrix(0.5874 -0.8093 0.8093 0.5874 2.1357 335.9335)" class="st1" width="1" height="9.78"/>
			
				<rect x="325.63" y="165.37" transform="matrix(0.8096 -0.5869 0.5869 0.8096 -34.4376 225.5654)" class="st1" width="9.78" height="1"/>
		</g>
		<g>
			
				<rect x="330.02" y="168.26" transform="matrix(0.5874 -0.8093 0.8093 0.5874 -3.7603 338.9222)" class="st1" width="1" height="9.78"/>
			
				<rect x="325.63" y="172.65" transform="matrix(0.8092 -0.5876 0.5876 0.8092 -38.6648 227.2494)" class="st1" width="9.78" height="1"/>
		</g>
		<g>
			
				<rect x="339.41" y="168.26" transform="matrix(0.5874 -0.8093 0.8093 0.5874 0.1164 346.5262)" class="st1" width="1" height="9.78"/>
			
				<rect x="335.02" y="172.65" transform="matrix(0.8092 -0.5876 0.5876 0.8092 -36.8717 232.7703)" class="st1" width="9.78" height="1"/>
		</g>
		<g>
			
				<rect x="348.81" y="168.26" transform="matrix(0.5874 -0.8093 0.8093 0.5874 3.9931 354.1303)" class="st1" width="1" height="9.78"/>
			
				<rect x="344.42" y="172.65" transform="matrix(0.8092 -0.5876 0.5876 0.8092 -35.0786 238.2912)" class="st1" width="9.78" height="1"/>
		</g>
		<g>
			
				<rect x="358.2" y="168.26" transform="matrix(0.5874 -0.8093 0.8093 0.5874 7.8697 361.7343)" class="st1" width="1" height="9.78"/>
			
				<rect x="353.81" y="172.65" transform="matrix(0.8092 -0.5876 0.5876 0.8092 -33.2855 243.8122)" class="st1" width="9.78" height="1"/>
		</g>
		<g>
			
				<rect x="367.6" y="168.26" transform="matrix(0.5874 -0.8093 0.8093 0.5874 11.7452 369.3362)" class="st1" width="1" height="9.78"/>
			
				<rect x="363.21" y="172.65" transform="matrix(0.8092 -0.5876 0.5876 0.8092 -31.4924 249.3331)" class="st1" width="9.78" height="1"/>
		</g>
		<rect x="341.33" y="119.94" class="st1" width="40.63" height="10.04"/>
		<rect x="353.71" y="114.66" class="st1" width="15.88" height="2.69"/>
	</g>
</g>
<g id="Background_Simple" class="st6">
	<g class="st7">
		<path class="st8" d="M295.52,230.72c-68.39-16.87-89.69-161.28-192.92-80.1c-73.23,57.6-32,193.54,58.74,175.73
			c54.92-10.78,46.5-11.59,92.31,13.48c46.43,25.41,97.88,37.58,149.06-10.22c26.49-24.74,37.92-83.92,13.32-113.92
			C385.27,178.18,337.3,241.03,295.52,230.72z"/>
		<path class="st9" d="M295.52,230.72c-68.39-16.87-89.69-161.28-192.92-80.1c-73.23,57.6-32,193.54,58.74,175.73
			c54.92-10.78,46.5-11.59,92.31,13.48c46.43,25.41,97.88,37.58,149.06-10.22c26.49-24.74,37.92-83.92,13.32-113.92
			C385.27,178.18,337.3,241.03,295.52,230.72z"/>
	</g>
</g>
<g id="Shadow_1_">
	<ellipse id="_x3C_Path_x3E__359_" class="st0" cx="250" cy="416.24" rx="193.89" ry="11.32"/>
</g>
<g id="Speech_bubble">
	<g>
		<g>
			<path class="st8" d="M258.95,99.35h-45.58c-8.66,0-15.67,7.02-15.67,15.67v44.3c0,8.66,7.02,15.67,15.67,15.67h30.12l10.81,16.55
				v-16.55h4.65c8.66,0,15.67-7.02,15.67-15.67v-44.3C274.62,106.37,267.61,99.35,258.95,99.35z"/>
			<path class="st10" d="M258.95,99.35h-45.58c-8.66,0-15.67,7.02-15.67,15.67v44.3c0,8.66,7.02,15.67,15.67,15.67h30.12
				l10.81,16.55v-16.55h4.65c8.66,0,15.67-7.02,15.67-15.67v-44.3C274.62,106.37,267.61,99.35,258.95,99.35z"/>
		</g>
		<path class="st11" d="M231.36,165.86c-3.35,0-6.92-0.82-10.36-2.46c-4.37-2.08-7.29-5.09-8.23-8.4c-0.34-0.16-0.67-0.34-1-0.53
			c-3.28-1.96-5.62-5.6-6.4-9.98c-1.05-5.88,0.18-11.86,2.61-17.19c-0.24-1.3-0.32-2.63-0.24-3.98c0.28-4.72,2.64-8.94,6.15-11.01
			c2.29-1.35,5.08-1.64,7.53-1c3.26-2.14,7.53-4.1,12.49-4.42c4.55-0.29,9.01,0.99,12.41,3.45c4.03-1.13,8.65-0.35,11.88,2.33
			c2.62,2.17,4.43,5.52,4.97,9.19c0.25,1.74,0.23,3.55-0.05,5.41c3.4,4.26,4.9,9.61,3.87,14.42c-0.84,3.94-3.41,7.65-7.08,10.38
			c0.41,1.02,0.61,2.1,0.53,3.15c-0.26,3.57-3.25,6.17-6.1,7.16c-3.21,1.11-6.61,0.73-9.27,0.24c-2.58,1.8-5.68,2.03-7.13,2.03
			c-0.01,0-0.01,0-0.02,0C235.92,165.46,233.69,165.86,231.36,165.86z M214.23,155.58c1.49,3.63,5.44,5.87,7.28,6.74
			c5.56,2.65,11.44,3.07,16.02,1.21c0.02-0.01,0.05-0.02,0.08-0.03c0.4-0.17,0.79-0.35,1.17-0.55c0.74-0.39,1.46-0.85,2.15-1.39
			c-1.42-0.52-2.83-1.25-4.02-2.32c-0.47-0.42-0.91-0.89-1.31-1.41c-2.92-0.09-5.97-0.48-8.88-1.57c-0.65-0.24-1.28-0.51-1.87-0.8
			C221.85,156.25,217.89,156.77,214.23,155.58z M242.29,162c-0.52,0.44-1.05,0.83-1.59,1.2c0.86-0.18,1.78-0.46,2.66-0.92
			C243.02,162.19,242.66,162.1,242.29,162z M246.28,161.62c2.33,0.36,5.1,0.53,7.67-0.37c2.48-0.86,5.08-3.09,5.3-6.12
			c0.06-0.79-0.07-1.59-0.34-2.36c-0.73,0.48-1.49,0.92-2.29,1.33c-2.52,1.27-5.18,2.09-7.78,2.63
			C248.37,158.9,247.43,160.47,246.28,161.62z M243.34,161.04c0.5,0.12,0.98,0.23,1.45,0.32c1.2-0.97,2.22-2.37,2.75-4.38
			c-0.34,0.06-0.68,0.12-1.02,0.17C245.52,158.65,244.46,159.94,243.34,161.04z M237.19,157.85c0.17,0.18,0.34,0.34,0.52,0.5
			c1.24,1.11,2.77,1.82,4.29,2.31c1.02-0.93,1.99-2.02,2.91-3.3c-1.49,0.18-2.91,0.29-4.22,0.36
			C239.57,157.79,238.4,157.84,237.19,157.85z M236.22,156.65c1.52,0.02,3-0.03,4.4-0.12c1.6-0.09,3.36-0.23,5.19-0.49
			c0.53-0.83,1.05-1.72,1.56-2.68c0.15-0.28,0.29-0.55,0.43-0.83c-0.2-1.44-0.65-2.97-1.37-4.64c-2.03,0.8-4.16,1.31-6.3,1.53
			c-1.91,0.72-3.79,1.55-5.63,2.36c-0.11,0.05-0.21,0.1-0.32,0.14C234.66,153.8,235.34,155.37,236.22,156.65z M226.62,154.94
			c0.17,0.07,0.34,0.14,0.52,0.2c2.48,0.93,5.09,1.33,7.63,1.46c-0.71-1.2-1.28-2.59-1.7-4.19
			C230.97,153.33,228.82,154.23,226.62,154.94z M247.89,154.91c-0.17,0.3-0.34,0.6-0.51,0.88c0.14-0.02,0.28-0.05,0.42-0.08
			c0.01-0.05,0.02-0.11,0.02-0.16C247.86,155.34,247.88,155.13,247.89,154.91z M249.04,152.74c0.1,0.94,0.11,1.85,0.01,2.73
			c2.36-0.52,4.76-1.28,7.03-2.43c0.81-0.41,1.59-0.87,2.32-1.36c-0.74-1.31-1.93-2.45-3.39-3.18c-1.11-0.55-2.36-0.91-3.74-1.06
			C250.62,149.25,249.88,151.02,249.04,152.74z M213.8,154.14c3.12,1.29,6.63,1.07,9.5,0.46c-3.63-2.26-5.84-5.56-6.5-9.75
			c-1.91,2.72-3.44,5.54-3.1,8.64C213.72,153.71,213.75,153.93,213.8,154.14z M217.83,143.43c0.37,4.81,2.83,8.49,7.15,10.76
			c2.66-0.75,5.27-1.84,7.81-2.95c-0.16-0.76-0.29-1.52-0.38-2.29c-1.44-0.34-2.84-0.82-4.16-1.45c-1.83-0.87-6.11-3.34-6.26-7.61
			c-0.01-0.14-0.01-0.29,0-0.43c-0.41,0.01-0.83,0-1.25-0.03c-0.59,0.86-1.21,1.73-1.88,2.62l-0.37,0.49
			C218.28,142.83,218.05,143.13,217.83,143.43z M208.45,129.21c-1.92,4.75-2.81,9.95-1.9,15.07c0.71,3.98,2.89,7.41,5.83,9.16
			c0.04,0.02,0.07,0.04,0.11,0.06c-0.38-3.94,1.91-7.46,4.24-10.6c0,0,0-0.01,0.01-0.01c0.27-0.36,0.54-0.72,0.8-1.07l0.37-0.49
			c0.52-0.7,1.02-1.38,1.49-2.06c-2.16-0.37-4.26-1.27-6.03-2.67C211.06,134.76,209.36,132.15,208.45,129.21z M251.65,146.28
			c1.42,0.18,2.72,0.56,3.89,1.15c1.63,0.82,2.97,2.09,3.83,3.56c3.35-2.55,5.68-5.94,6.45-9.54c0.89-4.16-0.27-8.77-3.01-12.6
			c-0.45,1.94-1.19,3.92-2.2,5.88c-2.09,4.06-5.02,7.49-8.51,10.04C251.97,145.27,251.81,145.78,251.65,146.28z M233.65,149.2
			c0.07,0.52,0.16,1.03,0.26,1.54c0.04-0.02,0.07-0.03,0.11-0.05c0.88-0.39,1.77-0.78,2.66-1.16
			C235.66,149.48,234.65,149.37,233.65,149.2z M247.56,147.48c0.48,1.12,0.85,2.2,1.11,3.23c0.49-1.1,0.94-2.22,1.35-3.35
			C249.24,147.35,248.42,147.38,247.56,147.48z M233.52,147.96c2.06,0.4,4.2,0.5,6.34,0.29c1.93-0.72,3.91-1.33,5.95-1.71
			c-0.8-1.59-1.8-3.17-2.96-4.68c-2.94,1.04-6.15,1.31-9.23,0.79C233.4,144.4,233.37,146.19,233.52,147.96z M223.2,139.37
			c-0.01,0.16-0.01,0.32-0.01,0.48c0.13,3.71,4.3,5.97,5.58,6.57c1.13,0.53,2.31,0.96,3.53,1.27c-0.12-1.76-0.07-3.53,0.15-5.28
			c-1.25-0.3-2.47-0.73-3.63-1.3c-1.26-0.62-2.39-1.37-3.37-2.23C224.71,139.11,223.96,139.27,223.2,139.37z M244,141.4
			c1.19,1.6,2.23,3.27,3.04,4.94c1.41-0.63,2.76-1.41,4.03-2.31c1.66-5.98,2.19-12.32,1.47-18.53c-0.19-1.69-0.48-3.23-0.85-4.64
			c-2.67-0.97-5.67-1.63-8.95-1.99c-1.42-0.15-2.77-0.23-4.04-0.23c-1.08,2.08-1.9,4.37-2.71,6.62l-0.14,0.39
			c-0.84,2.33-1.81,4.8-3.14,7.01c0.82,0.2,1.65,0.49,2.47,0.86c0.11-0.22,0.23-0.45,0.35-0.67c1.63-2.94,3.49-4.89,5.7-5.96
			c2.85-1.37,6.2-0.96,8.14,1.01c1.81,1.83,2.27,4.97,1.11,7.62c-1.2,2.75-3.65,4.46-5.5,5.42C244.66,141.1,244.33,141.26,244,141.4
			z M249.98,146.16c0.15,0,0.3,0.01,0.44,0.01c0.04-0.12,0.08-0.23,0.11-0.35C250.36,145.94,250.17,146.05,249.98,146.16z
			 M253.06,121.39c0.29,1.23,0.51,2.56,0.67,3.98c0.67,5.84,0.28,11.8-1.11,17.48c2.81-2.31,5.18-5.27,6.94-8.68
			c1.13-2.2,1.9-4.42,2.29-6.57c-0.67-0.79-1.41-1.54-2.22-2.23C257.75,123.76,255.55,122.44,253.06,121.39z M233.79,141.46
			c2.75,0.47,5.62,0.27,8.27-0.6c-1.18-1.43-2.5-2.78-3.9-3.98c-0.79-0.68-1.61-1.26-2.45-1.74
			C234.8,137.15,234.16,139.28,233.79,141.46z M226.71,138.38c0.79,0.63,1.67,1.18,2.63,1.65c1.05,0.51,2.15,0.91,3.28,1.19
			c0.39-2.29,1.07-4.52,2.03-6.62c-0.88-0.41-1.77-0.7-2.64-0.87c-1.18,1.69-2.62,3.16-4.45,4.21
			C227.28,138.09,227,138.24,226.71,138.38z M236.24,134.06c0.93,0.52,1.84,1.16,2.71,1.91c1.55,1.33,3.01,2.84,4.3,4.45
			c0.4-0.17,0.8-0.35,1.18-0.55c1.68-0.86,3.9-2.4,4.95-4.83c0.97-2.22,0.61-4.81-0.86-6.3c-1.77-1.79-4.75-1.74-6.77-0.77
			c-1.98,0.95-3.67,2.74-5.17,5.46C236.46,133.64,236.35,133.85,236.24,134.06z M221.52,138.27c0.21,0,0.42,0,0.63-0.01
			c0.18-0.76,0.49-1.48,0.91-2.12c-0.04-0.06-0.08-0.12-0.11-0.18C222.5,136.72,222.02,137.49,221.52,138.27z M209.23,127.43
			c0.68,3.29,2.4,6.25,4.89,8.23c1.76,1.4,3.88,2.25,6.03,2.52c0.78-1.18,1.49-2.33,2.13-3.46c-0.37-0.8-0.63-1.64-0.78-2.49
			c-0.71-4.11,1.34-8.53,5.1-11.35c0.05-2.44-0.48-4.42-1.57-5.91c-0.83-1.12-2.02-1.92-3.39-2.38c-0.95,0.64-1.8,1.3-2.54,1.92
			C215.34,117.64,211.69,122.2,209.23,127.43z M223.83,137.21c-0.16,0.3-0.29,0.61-0.4,0.92c0.34-0.05,0.68-0.12,1.02-0.21
			C224.23,137.69,224.03,137.45,223.83,137.21z M224.54,136.17c0.35,0.46,0.75,0.91,1.18,1.33c0.43-0.17,0.85-0.37,1.25-0.61
			c1.47-0.84,2.67-2,3.69-3.34c-0.56-0.03-1.1,0-1.64,0.07C227.36,133.87,225.67,134.81,224.54,136.17z M223.62,134.75
			c0.07,0.13,0.14,0.25,0.21,0.38c1.33-1.45,3.19-2.42,5.01-2.69c0.84-0.12,1.71-0.13,2.59-0.02c1.42-2.21,2.42-4.77,3.29-7.18
			l0.14-0.39c0.75-2.09,1.51-4.21,2.48-6.18c-3.27,0.15-6.04,0.85-8.39,2.12c-0.4,0.22-0.8,0.46-1.19,0.74
			c-0.03,0.55-0.08,1.11-0.17,1.7C227.08,127,225.79,130.77,223.62,134.75z M226.48,122.55c-2.59,2.34-4.44,5.85-3.81,9.47
			c0.08,0.45,0.19,0.89,0.34,1.32c1.83-3.55,2.94-6.92,3.41-10.29C226.44,122.89,226.46,122.72,226.48,122.55z M252.69,119.96
			c2.95,1.14,5.53,2.64,7.71,4.51c0.59,0.5,1.14,1.04,1.66,1.59c0.13-1.38,0.11-2.72-0.08-4.02c-0.5-3.38-2.15-6.46-4.55-8.44
			c-2.71-2.24-6.5-3.02-9.95-2.32c0.71,0.62,1.35,1.29,1.93,2.02C250.84,115.1,251.93,117.3,252.69,119.96z M218.88,112.16
			c-1.51,0-3.04,0.38-4.38,1.17c-3.17,1.87-5.3,5.72-5.56,10.06c-0.04,0.65-0.04,1.31,0.01,1.96c2.5-4.73,5.9-8.84,9.38-11.74
			c0.53-0.44,1.12-0.9,1.75-1.36C219.68,112.18,219.28,112.16,218.88,112.16z M222.86,111.81c1.24,0.56,2.33,1.39,3.13,2.46
			c1.12,1.53,1.73,3.47,1.8,5.81c0.2-0.12,0.4-0.23,0.6-0.34c2.67-1.44,5.84-2.2,9.59-2.28c1.08-1.93,2.41-3.68,4.2-5.06
			c0.84-0.65,1.76-1.17,2.73-1.57c-3.07-1.98-6.95-3-10.92-2.74C229.65,108.36,225.86,109.96,222.86,111.81z M239.37,117.45
			c1.12,0.02,2.29,0.1,3.51,0.23c3.05,0.33,5.86,0.92,8.41,1.77c-0.7-2.13-1.63-3.92-2.8-5.42c-0.7-0.88-1.5-1.68-2.4-2.38
			c-1.14,0.38-2.22,0.95-3.17,1.68C241.45,114.46,240.31,115.87,239.37,117.45z"/>
	</g>
</g>
<g id="Character">
	<g>
		<path class="st12" d="M287.28,314.91c-25.04-5.95-53.73-19.45-67.93-42c-1.19-1.82-2.16-3.83-2.75-5.94
			c-5.56-22.19,25.08-35.27,41.34-41.59c5.84-2.16,11.61-4.05,17.74-5.58l4.16,11.26c-10.01,5.48-39.43,20.9-42.58,30.68
			c0.11-0.04,0.17-0.59,0.11-0.99c-0.02-0.13-0.03-0.23-0.06-0.33c0.01-0.03,0.02-0.04,0.01-0.07
			c12.16,16.13,34.64,24.78,53.54,30.42c0,0,1.74,0.47,1.74,0.47L287.28,314.91L287.28,314.91z"/>
		<path class="st8" d="M286.85,329.29l-6.27-3.76l-3.87-2.32l-31.13-18.65l6.31-33.16c0,0,18.2,11.16,27.53,14.32
			c0,0,5.71,5.36,7.58,16.16c0.28,1.59,0.47,3.3,0.55,5.12c0.04,1.02,0.08,2.01,0.1,2.97C287.97,322.34,286.85,329.29,286.85,329.29
			z"/>
		<path class="st13" d="M286.85,329.29l-6.27-3.76c1.21-5.99,4.39-11.63,7.07-15.56C287.97,322.34,286.85,329.29,286.85,329.29z"/>
		<path class="st11" d="M283.35,201.04c-0.12,0-0.23-0.09-0.25-0.22c-0.01-0.05-0.71-5.26-4.13-7.22c-0.12-0.07-0.16-0.22-0.09-0.34
			c0.07-0.12,0.22-0.16,0.34-0.09c3.65,2.08,4.35,7.37,4.38,7.59c0.02,0.14-0.08,0.26-0.22,0.28
			C283.37,201.04,283.36,201.04,283.35,201.04z"/>
		<path class="st8" d="M382.95,397.44c1.01-31.42-1.85-59.09-5.47-80.53c-1.05-6.25-2.17-11.96-3.28-17.09
			c-4.04-18.74-7.93-29.61-7.93-29.61s-27.63,20.04-49.77,20.04c-20.47,0-37.08-4.53-37.08-4.53c8.41,40.15,9.74,88.24,9.83,111.72
			H382.95z"/>
		<g>
			<path class="st14" d="M271.16,226.37l-0.53-18.42l16.92,5.24c0,0-2.27,17.36-7.73,17.74L271.16,226.37z"/>
			<polygon class="st14" points="282.67,196.67 293.48,203.37 287.55,213.18 270.63,207.94 			"/>
		</g>
		<g>
			<path class="st8" d="M307.23,281.89c2.31-1.9,26.3-8.39,29.43-7.35s-9.21,23.57-21.21,19.42S304.54,284.1,307.23,281.89z"/>
			<path class="st14" d="M338.76,279.94c0,0-0.38,9.8-20.07,14.96c-0.83,0.9-3.23,3.69-4.47,7.02c-1.1-1.72-1.97-4.45-2.3-5.58
				c-18.44,2.94-8.22-8.1-8.22-8.1c6.26-3.19,8.58-7.15,8.79-11.4c0.12-2.32-0.4-4.72-1.24-7.13c-0.56-1.66-1.28-3.35-2.08-5
				l2.91-3.92l15.1-14.52c0.23,4.22,0.71,8.97,1.57,13.58C330.39,268.53,333.4,276.72,338.76,279.94z"/>
			<path class="st13" d="M328.75,259.85c-2.87,6.76-9.56,13.31-16.26,16.99c0.12-2.32-0.4-4.72-1.24-7.13
				c-0.56-1.66-1.28-3.35-2.08-5l2.91-3.92l15.1-14.52C327.41,250.49,327.89,255.24,328.75,259.85z"/>
			<path class="st8" d="M318.69,294.9l8.16,7.99c0,0,16.7-8.69,19.83-21.86l-10.02-6.49C336.66,274.54,333.39,287.06,318.69,294.9z"
				/>
			<path class="st8" d="M311.92,296.34l-10.33,9.68c0,0-3.58-9.87-2.52-17.31l8.16-6.83C307.23,281.89,306.51,290.49,311.92,296.34z
				"/>
			<path class="st15" d="M318.69,294.9l8.16,7.99c0,0,16.7-8.69,19.83-21.86l-10.02-6.49C336.66,274.54,333.39,287.06,318.69,294.9z
				"/>
			<path class="st15" d="M311.92,296.34l-10.33,9.68c0,0-3.58-9.87-2.52-17.31l8.16-6.83C307.23,281.89,306.51,290.49,311.92,296.34
				z"/>
		</g>
		<g>
			<path class="st11" d="M288.65,216.52c-6.79,5.37-5.67,27.98,5.23,30.18C304.77,248.91,301.5,206.36,288.65,216.52z"/>
			<path class="st14" d="M329.37,231.12c0.49,15.91,1.57,25.17-5.62,34.28c-10.82,13.7-30.89,8.94-36.08-6.34
				c-4.68-13.76-4.69-37.46,10.12-45.7C312.38,205.24,328.89,215.21,329.37,231.12z"/>
			<path class="st11" d="M319.76,223.3c-1.64,9.09,4.49,21.23,9.47,22.35c6.02,2.84,13.23-7.62,14.22-13
				c0.89-4.82-0.45-15.27-3.54-19.27L319.76,223.3z"/>
			<path class="st14" d="M336.78,246c-1.89,3.92-5.13,6.76-8.15,8.09c-4.56,2-6.73-2.14-5.37-7c1.22-4.38,5.06-10.69,9.59-10.63
				C337.31,236.52,338.94,241.52,336.78,246z"/>
			<path class="st16" d="M296.13,240.45c0,0-2.23,7.79-5.1,11.77c2.46,1.83,6.22,0.38,6.22,0.38L296.13,240.45z"/>
			<path class="st11" d="M304.23,230.9c-0.12,0.03-0.23,0.1-0.33,0.19c-0.3,0.29-0.31,0.77-0.01,1.07c2.89,2.96,6.33,2.24,6.48,2.21
				c0.39-0.05,0.67-0.49,0.58-0.9c-0.09-0.41-0.49-0.67-0.9-0.58c-0.14,0.03-2.79,0.54-5.07-1.79
				C304.78,230.9,304.49,230.83,304.23,230.9z"/>
			<path class="st11" d="M291.7,231.03c-0.24-0.01-0.48,0.1-0.63,0.32c-2.01,2.8-4.83,2.79-4.85,2.79
				c-0.42-0.01-0.76,0.33-0.77,0.74c-0.01,0.42,0.32,0.76,0.74,0.77c0,0,0,0,0,0c0.15,0,3.65,0.02,6.11-3.42
				c0.24-0.34,0.17-0.81-0.17-1.06C291.99,231.08,291.84,231.03,291.7,231.03z"/>
			<path class="st11" d="M307.99,239.93c-0.1,0-0.2-0.04-0.28-0.12c-0.47-0.52-2.03-0.52-2.9-0.4c-0.15,0.03-0.31-0.06-0.38-0.2
				c-0.07-0.14-0.05-0.31,0.05-0.43c1.54-1.72,3.25-1.65,3.32-1.64c0.21,0.01,0.36,0.19,0.35,0.4c-0.01,0.21-0.21,0.37-0.4,0.35
				c-0.06,0-0.94-0.03-1.95,0.69c0.84,0,1.92,0.12,2.46,0.71c0.14,0.15,0.13,0.39-0.03,0.53
				C308.17,239.9,308.08,239.93,307.99,239.93z"/>
			<path class="st11" d="M288.51,241.96c-0.06,0-0.13-0.02-0.19-0.05c-0.18-0.1-0.24-0.33-0.13-0.51c0.4-0.69,1.44-1.03,2.26-1.2
				c-1.14-0.5-2.01-0.29-2.05-0.28c-0.19,0.06-0.4-0.07-0.46-0.27c-0.05-0.2,0.06-0.4,0.26-0.46c0.07-0.02,1.72-0.45,3.59,0.92
				c0.13,0.09,0.18,0.26,0.14,0.41c-0.04,0.15-0.18,0.26-0.33,0.27c-0.88,0.06-2.41,0.39-2.76,0.99
				C288.76,241.89,288.64,241.96,288.51,241.96z"/>
			<g>
				<path class="st4" d="M313.67,255.19L313.67,255.19c-0.09,1.11-0.87,2.18-2.48,2.61c-3.83,1.02-9,3.89-9,3.89
					s-0.03-0.05-0.08-0.14l-0.01-0.03c-0.32-0.57-1.42-2.47-2.49-3.24c-0.18-0.14-0.36-0.24-0.54-0.29c0,0,0.01-0.02,0.04-0.06
					c0.47-0.64,4.7-6.25,11.46-5.92c0.79,0.04,1.45,0.29,1.96,0.69C313.33,253.31,313.74,254.26,313.67,255.19z"/>
				<path class="st13" d="M299.11,257.93l0.5,0.35c-0.18-0.14-0.36-0.24-0.54-0.29C299.07,257.99,299.08,257.97,299.11,257.93z"/>
				<path class="st17" d="M313.24,254.69c-1.08,0.12-2.81,0.4-4.78,1.02l0.12,0.81l-0.48-0.69c-1.2,0.4-2.48,0.93-3.76,1.63
					l0.28,0.67l-0.54-0.52c-0.97,0.56-1.93,1.2-2.84,1.97l0.86,1.94c-0.32-0.57-1.42-2.47-2.49-3.24l1.34,0.92
					c0,0,0.82-0.98,2.58-2.1v-0.01l-0.47-1.11l0.89,0.86c0.98-0.59,2.23-1.18,3.74-1.69l-0.37-0.99l1.03,0.77
					c1.29-0.38,2.76-0.7,4.42-0.87l-0.24-1.36c0.8,0.61,1.21,1.56,1.14,2.49L313.24,254.69z"/>
			</g>
			<path class="st11" d="M342.35,228.95c0,0,11.48-14.81-0.77-19.66c0,0-3.19-10.6-9.06-13.15c-5.87-2.55-10.6,3.45-10.6,3.45
				s-3.19-7.76-12.13-7.39c-8.94,0.37-10.18,7.77-10.18,7.77s-6.86-2.94-12.77,1.02c-5.9,3.96-2.43,9.58-2.43,9.58
				s-8.84,4.85-6.16,10.98c2.68,6.13,10.04,3.19,10.04,3.19s-0.2,3.45,4.14,3.57c4.34,0.13,11.34-4.72,11.34-4.72
				s1.81,2.69,5.89,2.81c4.09,0.12,7.87-2.69,7.87-2.69s1.79,4.65,6.81,6.03C329.37,231.12,342.35,228.95,342.35,228.95z"/>
		</g>
		<g>
			<path class="st14" d="M351.06,209.96l-6.75-17.15l-13.5,11.46c0,0,8.9,15.08,14.08,13.28L351.06,209.96z"/>
			<polygon class="st14" points="328.82,187.16 321.5,197.57 330.81,204.27 344.31,192.81 			"/>
		</g>
		<path class="st11" d="M299.61,203.08c-0.02,0-0.03,0-0.05,0c-0.14-0.03-0.22-0.16-0.2-0.29c0.01-0.05,0.96-5.23-3.44-8.29
			c-0.15,0.99-0.72,1.81-1.66,2.4c-1.03,0.64-1.62,0.12-1.82-0.13c-0.62-0.75-0.53-2.19,0.18-2.97c0.32-0.35,1.2-1,2.83-0.17
			c-0.12-1.29-0.93-2.74-2.14-3.75c-0.11-0.09-0.12-0.25-0.03-0.35c0.09-0.11,0.25-0.12,0.35-0.03c1.41,1.18,2.32,2.92,2.33,4.43
			c0.08,0.05,0.16,0.1,0.23,0.16c4.68,3.25,3.66,8.75,3.65,8.81C299.83,203,299.73,203.08,299.61,203.08z M293.98,193.71
			c-0.4,0-0.73,0.14-0.99,0.42c-0.59,0.64-0.58,1.81-0.16,2.31c0.34,0.41,0.83,0.24,1.17,0.02c0.89-0.55,1.38-1.31,1.46-2.27
			C294.91,193.87,294.41,193.71,293.98,193.71z"/>
		<path class="st11" d="M286.1,211.45c-1.52,0-8.93-0.43-11.6-8.54c-0.04-0.13,0.03-0.27,0.16-0.32c0.13-0.05,0.27,0.03,0.32,0.16
			c2.84,8.65,11.28,8.19,11.36,8.19c0.15-0.02,0.26,0.1,0.27,0.23c0.01,0.14-0.1,0.26-0.23,0.27
			C286.37,211.44,286.27,211.45,286.1,211.45z"/>
		<path class="st11" d="M277.75,229.99c-0.12,0-0.22-0.08-0.25-0.2c-0.03-0.14,0.06-0.27,0.2-0.29c5.38-1.01,8.4-6.68,8.43-6.74
			c0.07-0.12,0.22-0.17,0.34-0.11c0.12,0.06,0.17,0.22,0.11,0.34c-0.13,0.24-3.17,5.95-8.78,7
			C277.78,229.99,277.77,229.99,277.75,229.99z"/>
		<path class="st11" d="M337.88,195.52c-0.3,0-0.6-0.06-0.89-0.19c-0.43-0.19-1.16-0.68-1.5-1.89c-1.3,0.69-2.38,1.88-2.39,1.89
			c-0.09,0.1-0.25,0.11-0.35,0.02c-0.1-0.09-0.11-0.25-0.02-0.35c0.07-0.07,1.22-1.35,2.65-2.06c-0.13-0.81-0.1-1.87,0.22-3.27
			c0.03-0.13,0.16-0.22,0.3-0.19c0.13,0.03,0.22,0.16,0.19,0.3c-0.26,1.13-0.33,2.13-0.22,2.95c0.4-0.16,0.82-0.26,1.23-0.27
			c0.72-0.02,1.34,0.24,1.85,0.75c0.55,0.55,0.67,1.18,0.33,1.67C338.99,195.29,338.46,195.52,337.88,195.52z M335.95,193.22
			c0.2,0.81,0.62,1.38,1.24,1.65c0.68,0.3,1.41,0.1,1.67-0.28c0.2-0.29,0.1-0.66-0.28-1.04c-0.42-0.42-0.91-0.62-1.48-0.6
			C336.72,192.96,336.33,193.07,335.95,193.22z"/>
		<path class="st11" d="M322.23,202.47c-0.1,0-0.19-0.06-0.23-0.15c-0.02-0.05-2.17-5.47,2.98-11.65c0.09-0.11,0.25-0.12,0.35-0.03
			c0.11,0.09,0.12,0.25,0.03,0.35c-4.94,5.93-2.92,11.09-2.9,11.14c0.05,0.13-0.01,0.27-0.14,0.33
			C322.3,202.46,322.27,202.47,322.23,202.47z"/>
		<path class="st11" d="M348.02,231.79c-0.12,0-0.22-0.08-0.24-0.2c-0.85-4.27-6.84-5.9-6.91-5.91c-0.13-0.04-0.21-0.17-0.18-0.31
			c0.04-0.13,0.17-0.22,0.31-0.18c0.26,0.07,6.36,1.72,7.27,6.3c0.03,0.14-0.06,0.27-0.2,0.29
			C348.05,231.79,348.04,231.79,348.02,231.79z"/>
		<path class="st13" d="M377.48,316.91c-11.01-4.78-12.32-17.82-12.32-17.82c3.12-0.59,6.2-0.24,9.04,0.73
			C375.31,304.95,376.43,310.66,377.48,316.91z"/>
		<path class="st12" d="M356.84,278.05c15.52-12.54,33.87-30.26,38.71-50.12c0.08,0.35,0.35,1.22,0.59,1.25
			c0.12,0.01-0.09-0.34-0.58-0.77c-10.84-7.6-36.65-9.25-50.63-10.73c0,0-0.6-11.99-0.6-11.99c17.59-2.51,40.74-3.83,57.6,2.71
			c10.74,4.32,17.52,13.13,14.83,25.37c-4.68,24.82-22.69,45.45-41.64,60.86c0,0-1.95,1.5-1.95,1.5l-1.01,0.75l-1.15,0.83
			L356.84,278.05L356.84,278.05z"/>
		<path class="st8" d="M353.89,277.96c0,0,23.68-19.49,32.11-31.83l19.4,24.08l-29.3,40.25c0,0-10.78-2.44-16.91-12.11
			C353.07,288.69,353.89,277.96,353.89,277.96z"/>
	</g>
</g>
<g id="Lamp">
	<g>
		<g>
			<path class="st8" d="M102.86,384.1c-2.8-53.3,12.7-88.43,26.19-108.51c14.74-21.94,30.08-31.09,30.73-31.47l3.54,6.04l-1.77-3.02
				l1.77,3.02c-0.15,0.09-14.84,8.91-28.69,29.67c-12.79,19.17-27.47,52.75-24.78,103.9L102.86,384.1z"/>
		</g>
		<g class="st13">
			<path d="M102.86,384.1c-2.8-53.3,12.7-88.43,26.19-108.51c14.74-21.94,30.08-31.09,30.73-31.47l3.54,6.04l-1.77-3.02l1.77,3.02
				c-0.15,0.09-14.84,8.91-28.69,29.67c-12.79,19.17-27.47,52.75-24.78,103.9L102.86,384.1z"/>
		</g>
		<g class="st13">
			<g>
				<path d="M163,250.36l-3.74-5.92c0.35-0.22,0.54-0.33,0.54-0.33l3.51,6.06l-1.75-3.03l1.76,3.02
					C163.29,250.18,163.18,250.24,163,250.36z"/>
			</g>
			<g>
				<path d="M102.6,377.48l-0.02-1.02l7-0.15l0.02,0.98L102.6,377.48z M102.53,370.37l0.01-1.01l7,0.06l-0.01,0.98L102.53,370.37z
					 M109.67,363.51l-7-0.25l0.04-1.02l6.99,0.29L109.67,363.51z M110.03,356.64l-6.98-0.49l0.07-1.01l6.98,0.52L110.03,356.64z
					 M110.63,349.78l-6.96-0.72l0.11-1.02l6.96,0.77L110.63,349.78z M111.47,342.97l-6.93-0.98l0.15-1.01l6.92,1.02L111.47,342.97z
					 M112.56,336.19l-6.89-1.24l0.18-1l6.88,1.28L112.56,336.19z M113.92,329.46l-6.83-1.51l0.22-1l6.82,1.56L113.92,329.46z
					 M115.54,322.8l-6.77-1.79l0.27-0.99l6.75,1.84L115.54,322.8z M117.44,316.23l-6.68-2.08l0.31-0.98l6.67,2.13L117.44,316.23z
					 M119.63,309.75l-6.58-2.39l0.35-0.96l6.57,2.43L119.63,309.75z M122.11,303.37l-6.47-2.68l0.4-0.95l6.45,2.73L122.11,303.37z
					 M124.87,297.12l-6.33-2.99l0.44-0.93l6.31,3.03L124.87,297.12z M127.94,291.02l-6.18-3.3l0.49-0.91l6.15,3.35L127.94,291.02z
					 M131.3,285.09l-6-3.61l0.53-0.88l5.97,3.65L131.3,285.09z M134.96,279.34l-5.8-3.92l0.57-0.84l5.78,3.95L134.96,279.34z
					 M138.92,273.79l-5.58-4.23l0.62-0.81l5.55,4.26L138.92,273.79z M143.17,268.47l-5.34-4.52l0.67-0.78l5.3,4.57L143.17,268.47z
					 M147.71,263.41l-5.07-4.82c0.24-0.25,0.48-0.5,0.72-0.75l5.02,4.88L147.71,263.41z M152.54,258.65l-4.75-5.14l0.76-0.7
					l4.71,5.18L152.54,258.65z M157.65,254.24l-4.37-5.47c0.28-0.22,0.55-0.44,0.82-0.65l4.31,5.52
					C158.16,253.83,157.91,254.03,157.65,254.24z"/>
			</g>
			<g>
				<polygon points="102.86,384.1 102.84,383.58 109.83,383.25 109.85,383.69 				"/>
			</g>
		</g>
		<g>
			<path class="st8" d="M171.96,228.05c0,0-6.11-3.25-12.78,0.95c-6.67,4.19-6.39,11.1-6.39,11.1l7.51,16.51l11.64-7.32l11.64-7.32
				L171.96,228.05z"/>
			<path class="st15" d="M171.96,228.05c0,0-6.11-3.25-12.78,0.95c-6.67,4.19-6.39,11.1-6.39,11.1l7.51,16.51l11.64-7.32l11.64-7.32
				L171.96,228.05z"/>
			<path class="st8" d="M194.98,247c-3.06-4.86-8.9-6.36-10.54-6.69c-0.03-0.01-0.05-0.01-0.08-0.02c-0.23-0.05-0.37-0.07-0.37-0.07
				l-0.03,0.01c-3.5-0.52-9.17,1.17-14.77,4.69c-5.61,3.52-9.59,7.91-10.63,11.28l-0.02,0.02c0,0-0.04,0.13-0.1,0.36
				c-0.01,0.03-0.01,0.05-0.02,0.08c-0.41,1.61-1.59,7.53,1.46,12.39c0,0,0,0,0,0c2.5,3.98,12.39,2.27,22.08-3.82
				C191.65,259.15,197.48,250.98,194.98,247C194.98,247,194.98,247,194.98,247z"/>
			<path class="st15" d="M159.88,269.06c2.5,3.98,12.39,2.27,22.08-3.82c9.69-6.09,15.52-14.26,13.01-18.24
				c-2.5-3.98-12.39-2.27-22.08,3.82C163.21,256.91,157.38,265.08,159.88,269.06z"/>
			<path class="st13" d="M194.18,247.49c2.16,3.44-3.59,10.93-12.85,16.75c-9.25,5.82-18.5,7.76-20.66,4.32
				c-1.3-2.07,0.28-5.61,3.77-9.37c2.29-2.48,5.41-5.05,9.08-7.36c3.67-2.31,7.35-4,10.57-4.99
				C189.01,245.31,192.89,245.43,194.18,247.49z"/>
			<path class="st4" d="M184.31,247.13c3.42,5.44,1.77,12.61-3.65,16.02c-5.44,3.42-12.6,1.78-16.02-3.65
				c-0.06-0.1-0.13-0.21-0.19-0.32c2.29-2.48,5.41-5.05,9.08-7.36c3.67-2.31,7.35-4,10.57-4.99
				C184.17,246.92,184.24,247.03,184.31,247.13z"/>
		</g>
		<path class="st8" d="M132.61,395.85v-6.67c0-3.54-2.87-6.41-6.41-6.41H86.67c-3.54,0-6.41,2.87-6.41,6.41v6.67H132.61z"/>
		<rect x="80.26" y="392.4" width="52.35" height="3.45"/>
		<path class="st18" d="M80.26,389.82v6.04h52.35v-6.04c0-0.94-0.77-1.71-1.71-1.71H81.97C81.03,388.11,80.26,388.87,80.26,389.82z"
			/>
	</g>
</g>
<g id="Mugs">
	<g>
		<g>
			<g>
				<path class="st8" d="M80.79,353.26c-0.34,5.08,3.52,9.5,8.6,9.86l1.34,0.08l0.28,0.02l0.66,0.04l0.04-0.52l0.14-2.06l-2.12-0.14
					l-0.16-0.02c-3.66-0.26-6.42-3.44-6.18-7.08l0.16-2.42c0.06-0.78,0.76-1.4,1.56-1.34l2.64,0.18l3.22,0.22l0.18-2.6l-3.54-0.24
					l-2.32-0.16c-2.24-0.14-4.18,1.54-4.32,3.78L80.79,353.26z"/>
			</g>
			<g class="st19">
				<path class="st4" d="M80.79,353.26c-0.34,5.08,3.52,9.5,8.6,9.86l1.34,0.08l0.28,0.02l0.66,0.04l0.04-0.52l0.14-2.06l-2.12-0.14
					l-0.16-0.02c-3.66-0.26-6.42-3.44-6.18-7.08l0.16-2.42c0.06-0.78,0.76-1.4,1.56-1.34l2.64,0.18l3.22,0.22l0.18-2.6l-3.54-0.24
					l-2.32-0.16c-2.24-0.14-4.18,1.54-4.32,3.78L80.79,353.26z"/>
			</g>
			<path class="st8" d="M87.57,346.04v0.24c0,0.32,0.02,0.64,0.04,0.96c0.02,0.9,0.06,1.78,0.14,2.62c0.3,4.3,1,7.96,1.98,10.68
				c0.38,0.98,0.78,1.84,1.22,2.56l0.06,0.12c0.72,1.16,1.54,1.92,2.42,2.24c0.02,0,0.02,0,0.02,0c0.24,0.1,0.48,0.14,0.74,0.16
				l11.96,0.82c1.62,0.12,3.24-1.24,4.68-3.72c0.76-1.28,1.48-2.88,2.14-4.72c0.96-2.76,1.78-6.08,2.38-9.82l0.04-0.22L87.57,346.04
				z"/>
			<path class="st20" d="M87.57,346.04v0.24c0,0.32,0.02,0.64,0.04,0.96c0.02,0.9,0.06,1.78,0.14,2.62c0.3,4.3,1,7.96,1.98,10.68
				c0.38,0.98,0.78,1.84,1.22,2.56l0.06,0.12c0.72,1.16,1.54,1.92,2.42,2.24c0.02,0,0.02,0,0.02,0c0.24,0.1,0.48,0.14,0.74,0.16
				l11.96,0.82c1.62,0.12,3.24-1.24,4.68-3.72c0.76-1.28,1.48-2.88,2.14-4.72c0.96-2.76,1.78-6.08,2.38-9.82l0.04-0.22L87.57,346.04
				z"/>
		</g>
		<path class="st17" d="M90.73,363.2l0.28,0.02c0.72,1.16,1.54,1.92,2.42,2.24c0.02,0,0.02,0,0.02,0
			c4.84-0.48,12.02-1.72,17.38-2.74c0.76-1.28,1.48-2.88,2.14-4.72c-4.04,0.44-14.7,1.84-21.26,4.74c-0.26,0.12-0.52,0.22-0.76,0.36
			C90.87,363.12,90.81,363.16,90.73,363.2z"/>
		<g>
			<g>
				<path class="st8" d="M114.42,376.5l-2.26,0.35l-0.4-2.57l2.26-0.35c3.62-0.56,6.1-3.97,5.54-7.58l-0.37-2.38
					c-0.12-0.79-0.87-1.33-1.66-1.21l-5.8,0.9l-0.4-2.57l5.8-0.9c2.21-0.34,4.28,1.17,4.63,3.38l0.37,2.38
					C122.91,370.98,119.45,375.71,114.42,376.5z"/>
			</g>
			<g class="st19">
				<path class="st4" d="M119.55,366.35c0.56,3.62-1.92,7.02-5.54,7.58l-0.18,0.02l-2.08,0.34l0.26,1.72l0.14,0.84l0.64-0.1
					l1.62-0.24c0.06,0,0.12-0.02,0.18-0.04c4.94-0.88,8.32-5.56,7.54-10.52l-0.38-2.38c-0.34-2.22-2.42-3.74-4.62-3.38l-2.3,0.36
					l-3.5,0.54l0.4,2.56l3.18-0.5l2.62-0.4c0.78-0.12,1.54,0.42,1.66,1.22L119.55,366.35z"/>
			</g>
			<path class="st8" d="M109.85,379.42L98,381.27c-3.65,0.57-8.05-6.55-10.73-17.41l-0.05-0.22l27.55-4.3l0.01,0.22
				C115.52,370.73,113.5,378.85,109.85,379.42z"/>
			<path class="st20" d="M87.21,363.65l0.06,0.2c1.06,4.3,2.38,8,3.82,10.88c2.22,4.4,4.7,6.88,6.9,6.54l11.86-1.86
				c1.16-0.18,2.16-1.1,2.94-2.66c0.1-0.18,0.18-0.36,0.26-0.56c0.3-0.66,0.56-1.4,0.78-2.24c0.76-2.78,1.14-6.48,1.08-10.8
				c0-0.84-0.04-1.7-0.08-2.6c-0.02-0.32-0.04-0.64-0.06-0.98l-0.02-0.22L87.21,363.65z"/>
		</g>
		<path class="st17" d="M91.09,374.73c2.22,4.4,4.7,6.88,6.9,6.54l11.86-1.86c1.16-0.18,2.16-1.1,2.94-2.66l1.62-0.24
			c0.06,0,0.12-0.02,0.18-0.04c-0.48-0.1-0.98-0.18-1.54-0.28c-0.34-0.06-0.68-0.12-1.04-0.18
			C106.35,375.09,97.95,374.07,91.09,374.73z"/>
		<g>
			<g>
				<path class="st8" d="M92.6,393.38h2.29v-2.6H92.6c-3.66,0-6.64-2.98-6.64-6.64v-2.41c0-0.8,0.65-1.45,1.45-1.45h5.87v-2.6h-5.87
					c-2.23,0-4.05,1.82-4.05,4.05v2.41C83.36,389.24,87.51,393.38,92.6,393.38z"/>
			</g>
			<g class="st19">
				<path class="st4" d="M92.6,393.38h2.29v-2.6H92.6c-3.66,0-6.64-2.98-6.64-6.64v-2.41c0-0.8,0.65-1.45,1.45-1.45h5.87v-2.6h-5.87
					c-2.23,0-4.05,1.82-4.05,4.05v2.41C83.36,389.24,87.51,393.38,92.6,393.38z"/>
			</g>
			<path class="st8" d="M97.56,395.56h12c3.7,0,6.94-7.71,7.92-18.85l0.02-0.22H89.62l0.02,0.22
				C90.62,387.85,93.87,395.56,97.56,395.56z"/>
			<path class="st20" d="M97.56,395.56h12c3.7,0,6.94-7.71,7.92-18.85l0.02-0.22H89.62l0.02,0.22
				C90.62,387.85,93.87,395.56,97.56,395.56z"/>
		</g>
		<path class="st21" d="M99.8,346.88c1.19,0.08,0.88,4.16,1.68,4.85c0.8,0.69,1.09-3.66,2.08-3.36c0.99,0.3,2.11,1.14,3.09-1.01
			L99.8,346.88z"/>
		<path class="st21" d="M88.34,363.4c0,0,0.59,4.15,1.28,4.2c0.69,0.05,0.15-3.51,1.11-3.21c0.96,0.3,2.11-1.62,2.11-1.62
			L88.34,363.4z"/>
	</g>
</g>
<g id="Device">
	<g>
		<path class="st11" d="M138.88,388.11v5.57c0,1.43,1.68,2.02,3.1,2.02h111.37c1.43,0,3.15-0.59,3.15-2.02v-5.57H138.88z"/>
		<path class="st22" d="M138.88,388.11v5.57c0,1.43,1.68,2.02,3.1,2.02h111.37c1.43,0,3.15-0.59,3.15-2.02v-5.57H138.88z"/>
		<path class="st18" d="M138.88,388.11v5.57c0,1.43,1.68,2.02,3.1,2.02h73.46c1.43,0,3.13-0.59,3.13-2.02v-5.57H138.88z"/>
		<path class="st11" d="M120.25,330.24l13.26,60.14c0.43,1.98,2.36,3.42,4.31,3.42h72.42c1.93,0,3.17-1.8,2.72-3.78l-13.24-59.68
			c-0.45-1.96-2.36-2.94-4.3-2.94h-72.42C121.04,327.4,119.82,328.28,120.25,330.24z"/>
		<path class="st22" d="M120.25,330.24l13.26,60.14c0.43,1.98,2.36,3.42,4.31,3.42h69.96c1.94,0,3.17-1.8,2.74-3.78l-13.26-59.68
			c-0.43-1.96-2.36-2.94-4.3-2.94h-69.96C121.04,327.4,119.82,328.28,120.25,330.24z"/>
		<path class="st18" d="M155.96,360.81v0.02c0,5.15,5.52,9.33,9.57,9.33c4.05,0,6.45-4.18,5.29-9.33c-1.15-5.05-5.18-9.16-9.14-9.32
			c1.15,5.15-1.32,9.32-5.35,9.32C156.24,360.83,155.96,360.83,155.96,360.81z"/>
	</g>
</g>
<g id="Table">
	<g>
		<rect x="71.26" y="397.62" class="st11" width="362.11" height="17.94"/>
		<rect x="71.26" y="397.62" class="st23" width="362.11" height="17.94"/>
		<path class="st11" d="M437.29,395.89H67.35c-1.12,0-2.02,0.9-2.02,2.02v2.9c0,1.12,0.9,2.02,2.02,2.02h369.94
			c1.12,0,2.02-0.9,2.02-2.02v-2.9C439.31,396.8,438.4,395.89,437.29,395.89z"/>
		<path class="st24" d="M437.29,395.89H67.35c-1.12,0-2.02,0.9-2.02,2.02v2.9c0,1.12,0.9,2.02,2.02,2.02h369.94
			c1.12,0,2.02-0.9,2.02-2.02v-2.9C439.31,396.8,438.4,395.89,437.29,395.89z"/>
	</g>
</g>
<g id="Books_2">
	<g>
		<g>
			
				<rect x="354.61" y="357.23" transform="matrix(-1 -1.224647e-16 1.224647e-16 -1 756.8221 725.6884)" class="st8" width="47.6" height="11.22"/>
			
				<rect x="354.61" y="357.23" transform="matrix(-1 -1.224647e-16 1.224647e-16 -1 756.8221 725.6884)" class="st25" width="47.6" height="11.22"/>
			<g>
				<path class="st8" d="M383.8,356.2h37.28c3.66,0,6.64,2.98,6.64,6.64c0,3.66-2.98,6.64-6.64,6.64H383.8v-2.43h5.66
					c2.32,0,4.21-1.89,4.21-4.21c0-2.32-1.89-4.21-4.21-4.21h-5.66V356.2z"/>
			</g>
			<g class="st26">
				<path class="st4" d="M383.8,356.2h37.28c3.66,0,6.64,2.98,6.64,6.64c0,3.66-2.98,6.64-6.64,6.64H383.8v-2.43h5.66
					c2.32,0,4.21-1.89,4.21-4.21c0-2.32-1.89-4.21-4.21-4.21h-5.66V356.2z"/>
			</g>
			<g>
				<path class="st8" d="M352.18,356.2h37.28c3.66,0,6.64,2.98,6.64,6.64c0,3.66-2.98,6.64-6.64,6.64h-37.28v-2.43h37.28
					c2.32,0,4.21-1.89,4.21-4.21c0-2.32-1.89-4.21-4.21-4.21h-37.28V356.2z"/>
			</g>
			<g class="st18">
				<path class="st4" d="M352.18,356.2h37.28c3.66,0,6.64,2.98,6.64,6.64c0,3.66-2.98,6.64-6.64,6.64h-37.28v-2.43h37.28
					c2.32,0,4.21-1.89,4.21-4.21c0-2.32-1.89-4.21-4.21-4.21h-37.28V356.2z"/>
			</g>
		</g>
		<g>
			<rect x="375.27" y="343.95" class="st8" width="47.6" height="11.22"/>
			<rect x="375.27" y="343.95" class="st25" width="47.6" height="11.22"/>
			<g>
				<path class="st8" d="M393.68,342.92H356.4c-3.66,0-6.64,2.98-6.64,6.64c0,3.66,2.98,6.64,6.64,6.64h37.28v-2.43h-5.66
					c-2.32,0-4.21-1.89-4.21-4.21c0-2.32,1.89-4.21,4.21-4.21h5.66V342.92z"/>
			</g>
			<g class="st26">
				<path d="M393.68,342.92H356.4c-3.66,0-6.64,2.98-6.64,6.64c0,3.66,2.98,6.64,6.64,6.64h37.28v-2.43h-5.66
					c-2.32,0-4.21-1.89-4.21-4.21c0-2.32,1.89-4.21,4.21-4.21h5.66V342.92z"/>
			</g>
			<g>
				<path class="st8" d="M425.3,342.92h-37.28c-3.66,0-6.64,2.98-6.64,6.64c0,3.66,2.98,6.64,6.64,6.64h37.28v-2.43h-37.28
					c-2.32,0-4.21-1.89-4.21-4.21c0-2.32,1.89-4.21,4.21-4.21h37.28V342.92z"/>
			</g>
			<g class="st18">
				<path d="M425.3,342.92h-37.28c-3.66,0-6.64,2.98-6.64,6.64c0,3.66,2.98,6.64,6.64,6.64h37.28v-2.43h-37.28
					c-2.32,0-4.21-1.89-4.21-4.21c0-2.32,1.89-4.21,4.21-4.21h37.28V342.92z"/>
			</g>
		</g>
		<g>
			
				<rect x="344.83" y="370.52" transform="matrix(-1 -1.224647e-16 1.224647e-16 -1 737.2673 752.2584)" class="st8" width="47.6" height="11.22"/>
			
				<rect x="344.83" y="370.52" transform="matrix(-1 -1.224647e-16 1.224647e-16 -1 737.2673 752.2584)" class="st25" width="47.6" height="11.22"/>
			<g>
				<path class="st11" d="M374.03,369.49h37.28c3.66,0,6.64,2.98,6.64,6.64c0,3.66-2.98,6.64-6.64,6.64h-37.28v-2.43h5.66
					c2.32,0,4.21-1.89,4.21-4.21c0-2.32-1.89-4.21-4.21-4.21h-5.66V369.49z"/>
			</g>
			<g class="st13">
				<path class="st4" d="M374.03,369.49h37.28c3.66,0,6.64,2.98,6.64,6.64c0,3.66-2.98,6.64-6.64,6.64h-37.28v-2.43h5.66
					c2.32,0,4.21-1.89,4.21-4.21c0-2.32-1.89-4.21-4.21-4.21h-5.66V369.49z"/>
			</g>
			<g>
				<path class="st11" d="M342.4,369.49h37.28c3.66,0,6.64,2.98,6.64,6.64c0,3.66-2.98,6.64-6.64,6.64H342.4v-2.43h37.28
					c2.32,0,4.21-1.89,4.21-4.21c0-2.32-1.89-4.21-4.21-4.21H342.4V369.49z"/>
			</g>
			<g class="st26">
				<path class="st4" d="M342.4,369.49h37.28c3.66,0,6.64,2.98,6.64,6.64c0,3.66-2.98,6.64-6.64,6.64H342.4v-2.43h37.28
					c2.32,0,4.21-1.89,4.21-4.21c0-2.32-1.89-4.21-4.21-4.21H342.4V369.49z"/>
			</g>
		</g>
		<g>
			<rect x="374.07" y="383.8" class="st8" width="47.6" height="11.22"/>
			<rect x="374.07" y="383.8" class="st25" width="47.6" height="11.22"/>
			<g>
				<path class="st11" d="M424.11,382.77h-37.28c-3.66,0-6.64,2.98-6.64,6.64c0,3.66,2.98,6.64,6.64,6.64h37.28v-2.43h-37.28
					c-2.32,0-4.21-1.89-4.21-4.21c0-2.32,1.89-4.21,4.21-4.21h37.28V382.77z"/>
			</g>
			<g>
				<path class="st11" d="M392.48,382.77H355.2c-3.66,0-6.64,2.98-6.64,6.64c0,3.66,2.98,6.64,6.64,6.64h37.28v-2.43h-5.66
					c-2.32,0-4.21-1.89-4.21-4.21c0-2.32,1.89-4.21,4.21-4.21h5.66V382.77z"/>
			</g>
			<g class="st26">
				<path class="st4" d="M424.11,382.77h-37.28c-3.66,0-6.64,2.98-6.64,6.64c0,3.66,2.98,6.64,6.64,6.64h37.28v-2.43h-37.28
					c-2.32,0-4.21-1.89-4.21-4.21c0-2.32,1.89-4.21,4.21-4.21h37.28V382.77z"/>
			</g>
		</g>
		<g>
			
				<rect x="349.03" y="330.66" transform="matrix(-1 -1.224647e-16 1.224647e-16 -1 745.6598 672.5487)" class="st8" width="47.6" height="11.22"/>
			
				<rect x="349.03" y="330.66" transform="matrix(-1 -1.224647e-16 1.224647e-16 -1 745.6598 672.5487)" class="st25" width="47.6" height="11.22"/>
			<g>
				<path class="st11" d="M346.6,342.92h37.28c3.66,0,6.64-2.98,6.64-6.64c0-3.66-2.98-6.64-6.64-6.64H346.6v2.43h37.28
					c2.32,0,4.21,1.89,4.21,4.21c0,2.32-1.89,4.21-4.21,4.21H346.6V342.92z"/>
			</g>
			<g>
				<path class="st11" d="M378.22,342.92h37.28c3.66,0,6.64-2.98,6.64-6.64c0-3.66-2.98-6.64-6.64-6.64h-37.28v2.43h5.66
					c2.32,0,4.21,1.89,4.21,4.21c0,2.32-1.89,4.21-4.21,4.21h-5.66V342.92z"/>
			</g>
			<g class="st26">
				<path class="st4" d="M346.6,342.92h37.28c3.66,0,6.64-2.98,6.64-6.64c0-3.66-2.98-6.64-6.64-6.64H346.6v2.43h37.28
					c2.32,0,4.21,1.89,4.21,4.21c0,2.32-1.89,4.21-4.21,4.21H346.6V342.92z"/>
			</g>
		</g>
		<g class="st13">
			<polygon points="344.83,372.99 379.38,373.36 344.83,373.74 			"/>
			<polygon points="344.83,374.83 367.81,375.21 344.83,375.58 			"/>
			<polygon points="344.83,376.68 382.61,377.05 344.83,377.43 			"/>
			<polygon points="344.83,378.52 377.43,378.9 344.83,379.27 			"/>
		</g>
		<g class="st13">
			<polygon points="354.61,359.7 389.16,360.08 354.61,360.45 			"/>
			<polygon points="354.61,361.55 377.59,361.92 354.61,362.3 			"/>
			<polygon points="354.61,363.39 392.38,363.77 354.61,364.14 			"/>
			<polygon points="354.61,365.24 387.2,365.61 354.61,365.99 			"/>
		</g>
		<g class="st13">
			<polygon points="348.92,333.13 383.48,333.51 348.92,333.88 			"/>
			<polygon points="348.92,334.98 371.9,335.35 348.92,335.73 			"/>
			<polygon points="348.92,336.82 386.7,337.2 348.92,337.57 			"/>
			<polygon points="348.92,338.67 381.52,339.04 348.92,339.42 			"/>
		</g>
		<g class="st13">
			<polygon points="421.58,392.6 387.03,392.22 421.58,391.85 			"/>
			<polygon points="421.58,390.76 398.6,390.38 421.58,390.01 			"/>
			<polygon points="421.58,388.91 383.8,388.54 421.58,388.16 			"/>
			<polygon points="421.58,387.07 388.98,386.69 421.58,386.32 			"/>
		</g>
		<g class="st13">
			<polygon points="422.88,352.7 388.32,352.33 422.88,351.95 			"/>
			<polygon points="422.88,350.86 399.9,350.48 422.88,350.11 			"/>
			<polygon points="422.88,349.01 385.1,348.64 422.88,348.26 			"/>
			<polygon points="422.88,347.17 390.28,346.79 422.88,346.42 			"/>
		</g>
	</g>
</g>
<g id="Book_1">
	<g>
		<g>
			<path class="st8" d="M351.06,389.08c0,0-13.79-6.93-21.4-7.13l0,0h-0.05c-0.16,0-0.31,0-0.46,0h-71.28l4.41,13.75l30.78-1.06
				l56.76-0.83L351.06,389.08z"/>
			<path class="st25" d="M351.06,389.08c0,0-13.79-6.93-21.4-7.13l0,0h-0.05c-0.16,0-0.31,0-0.46,0h-71.28l4.41,13.75l30.78-1.06
				l56.76-0.83L351.06,389.08z"/>
			<path class="st8" d="M238.5,389.77c0,0,8.09-6.74,17.89-7.72c9.8-0.98,13.23,6.72,13.23,6.72s4.66-6.4,12.01-6.81
				c7.35-0.4,22.33,7.12,22.33,7.12l-1.26,4.73l-63.46,0.93L238.5,389.77z"/>
			<path class="st20" d="M238.5,389.77c0,0,8.09-6.74,17.89-7.72c9.8-0.98,13.23,6.72,13.23,6.72s4.66-6.4,12.01-6.81
				c7.35-0.4,22.33,7.12,22.33,7.12l-1.26,4.73l-63.46,0.93L238.5,389.77z"/>
			<polygon class="st13" points="351.06,389.08 350.81,390.01 350.65,390.6 349.79,393.81 302.7,393.81 303.24,391.76 
				303.41,391.14 303.96,389.08 			"/>
			<g class="st13">
				<path d="M302.7,389.64c-2.73-1.2-5.53-2.25-8.37-3.15c-2.83-0.91-5.74-1.64-8.68-1.9c-2.94-0.23-5.86,0.54-8.54,1.77
					c-2.68,1.22-5.21,2.85-7.47,4.72l-0.23,0.19l-0.2-0.23c-1.78-2.03-3.95-3.79-6.36-5.03c-1.21-0.61-2.49-1.08-3.82-1.32
					c-1.33-0.23-2.69-0.17-4.03,0.04c-2.69,0.47-5.3,1.41-7.83,2.49c-2.54,1.06-5.02,2.28-7.43,3.62c2.36-1.43,4.8-2.73,7.32-3.89
					c2.52-1.14,5.12-2.14,7.87-2.68c1.37-0.24,2.81-0.36,4.2-0.11c1.39,0.24,2.73,0.72,3.98,1.35c2.51,1.27,4.71,3.03,6.59,5.14
					l-0.44-0.04c2.33-1.94,4.89-3.53,7.64-4.78c2.73-1.23,5.77-2.04,8.81-1.73c3,0.32,5.91,1.12,8.74,2.09
					C297.25,387.19,300.01,388.34,302.7,389.64z"/>
			</g>
			<g class="st13">
				<path d="M240.22,391.44c2.32-1.07,4.71-1.99,7.16-2.74c2.45-0.74,4.97-1.3,7.54-1.5c2.57-0.23,5.18,0.08,7.67,0.76
					c2.49,0.69,4.88,1.73,7.03,3.23l-0.32-0.03c2.53-1.16,5.14-2.1,7.83-2.83c2.67-0.71,5.47-1.2,8.26-0.97
					c2.77,0.22,5.5,0.74,8.19,1.33c2.69,0.63,5.36,1.34,8,2.15c-2.67-0.7-5.36-1.32-8.06-1.84c-2.7-0.53-5.42-1-8.16-1.15
					c-2.73-0.16-5.45,0.3-8.09,1.03c-2.64,0.72-5.22,1.7-7.71,2.83l-0.16,0.07l-0.15-0.11c-2.03-1.43-4.39-2.49-6.81-3.18
					c-2.43-0.68-4.97-0.99-7.49-0.84c-2.53,0.14-5.04,0.65-7.49,1.31C245,389.64,242.57,390.46,240.22,391.44z"/>
			</g>
			<g class="st13">
				<path d="M243.4,391.44c4.27-1,8.68-1.41,13.07-1.33c2.2,0.02,4.4,0.18,6.58,0.49c2.19,0.27,4.34,0.75,6.48,1.28l-0.13-0.01
					c2.45-0.43,4.92-0.72,7.39-0.97c2.47-0.24,4.95-0.43,7.43-0.51c2.48-0.06,4.97-0.05,7.45,0.08c2.48,0.18,4.94,0.47,7.37,0.97
					c-4.9-0.77-9.87-0.79-14.8-0.56c-4.93,0.25-9.86,0.78-14.73,1.58l-0.07,0.01l-0.07-0.02c-2.11-0.54-4.23-1.04-6.39-1.32
					c-2.15-0.32-4.33-0.5-6.51-0.58c-2.18-0.09-4.37-0.05-6.55,0.09C247.73,390.79,245.55,391.02,243.4,391.44z"/>
			</g>
			<g class="st13">
				<polygon points="350.81,390.01 350.65,390.6 305.52,390.31 				"/>
			</g>
			<g class="st13">
				<polygon points="346.44,391.45 303.24,391.76 303.41,391.14 				"/>
			</g>
			<path class="st11" d="M267.66,392.95c0,0,0.25-3.83,1.96-4.18c1.72-0.35,1.61,4.18,1.61,4.18H267.66z"/>
		</g>
		<rect x="235.54" y="392.17" class="st11" width="117.63" height="3.72"/>
		<rect x="235.54" y="392.17" class="st15" width="117.63" height="3.72"/>
		<rect x="306.13" y="392.17" class="st13" width="47.05" height="3.72"/>
	</g>
</g>
<g id="Paper_balls">
	<g>
		<path class="st8" d="M340.05,399.58l-2.99-8.11l2.99-6.55h5.81l5.64-6.77c0,0,6.36,0,7.84,0c1.48,0,8,4.77,8,4.77
			s-0.52,4.74,0,5.31c0.52,0.56,3.33,3.24,3.33,3.24l-2.34,1.99v4.54l-0.99,1.81l-8-0.5c0,0-1.31-0.57-3.34,0
			c-2.04,0.57-3.56,3.32-5,2.65C349.55,401.28,340.05,399.58,340.05,399.58z"/>
		<path class="st25" d="M370.66,391.47l-2.34,1.98v4.53l-0.99,1.82l-7.99-0.51c0,0-1.31-0.57-3.35,0c-2.04,0.58-3.56,3.34-4.99,2.66
			c-1.45-0.68-10.94-2.38-10.94-2.38l-2.99-8.1l2.99-6.55h5.8l5.64-6.78c0,0,6.37,0,7.84,0c1.47,0,7.99,4.77,7.99,4.77
			s-0.41,3.9-0.11,5.04c0.03,0.12,0.07,0.21,0.11,0.26C367.85,388.78,370.66,391.47,370.66,391.47z"/>
		<path class="st22" d="M367.21,387.95l-2.27-5.04l-4.22,6.53l-2.99-1.36v-6.15l-6.16,2.37l0.88,5.14l-1.85,4.01l-7.3-6.56
			l-1.76,4.71l-4.48-0.14l2.99-6.55h5.8l5.64-6.78c0,0,6.37,0,7.84,0c1.47,0,7.99,4.77,7.99,4.77S366.91,386.81,367.21,387.95z"/>
		<path class="st17" d="M340.05,399.57l3.63-0.87v-8.05l7.1,6.01l3.99-9.24l2.17,3.6l4.75,0.45l2.99-3.09l1.58,1.58l-1.7,3.07
			l1.7,1.22l2.06-0.79l-2.35,1.58l-1.99-1.16l-2.29-1.59l-5.4-0.82l-1.86,2.54l1.68,1.64l-0.18-2.63l4.05,4.85l1.7-2.84l-2.7-0.52
			l3.28-0.07l0.41,0.9l-2.4,3.02c0,0-4.16-1.71-3.93-1.72c0.23-0.01-4.16,3.92-4.16,3.92l-5.4-1.88l-0.06-4.4l-2.17,5.02l-4.51,0.48
			"/>
	</g>
	<g>
		<path class="st8" d="M221.41,392.22l0,0.03c0,0-0.07,0.04-0.2,0.11c-0.13,0.07-0.29,0.17-0.53,0.32
			c-0.08,0.04-0.19,0.09-0.29,0.17c-0.2,0.12-0.43,0.27-0.68,0.43c-0.1,0.05-0.2,0.11-0.3,0.19l-0.66,0.41
			c-0.56,0.34-1.17,0.72-1.75,1.11c-0.12,0.07-0.25,0.14-0.36,0.23c-0.23,0.15-0.46,0.31-0.68,0.46c-0.12,0.07-0.23,0.14-0.35,0.22
			c-1.1,0.73-1.98,1.37-2.27,1.71c-0.07,0.1-0.17,0.17-0.27,0.21c-0.05,0.02-0.11,0.04-0.17,0.04l0,0.02l-0.01-0.01
			c-0.02,0.01-0.03,0.01-0.05,0c-0.09,0.02-0.18,0.02-0.29,0.01c-0.49-0.05-1.1-0.35-1.74-0.66c-0.85-0.4-1.76-0.85-2.6-0.86
			c-1.9,0-2.75,0.92-2.75,0.92l-6.37,2.7l-1.52-1.53l-1.77-4.49l-2.69-1.32c0,0,0.31-0.85,0.66-1.8c0.09-0.23,0.17-0.48,0.26-0.7
			c0.03-0.12,0.08-0.23,0.13-0.36c0.12-0.33,0.22-0.64,0.3-0.87c0.05-0.18,0.1-0.31,0.13-0.39c0-0.03,0.01-0.08,0-0.11
			c0.01-0.05-0.01-0.12-0.02-0.19c-0.07-0.38-0.28-0.99-0.56-1.67c-0.28-0.69-0.61-1.43-0.89-2.04c-0.08-0.19-0.17-0.37-0.26-0.53
			c-0.01-0.04-0.02-0.07-0.05-0.1c-0.13-0.27-0.22-0.47-0.27-0.55c-0.01-0.02-0.02-0.04-0.02-0.04l0.01,0.01l0-0.02
			c0.21-0.4,3.52-6.54,4.7-6.91c1.2-0.41,6.45-2.16,6.45-2.16l1.64,1.17l5.62,3.99l4.77-1.59l4.99,5.66L221.41,392.22z"/>
		<path class="st25" d="M221.4,392.23c0,0-0.07,0.04-0.18,0.13c-0.13,0.07-0.29,0.17-0.53,0.32c-0.08,0.04-0.19,0.09-0.29,0.17
			c-0.2,0.12-0.43,0.27-0.68,0.43c-0.1,0.05-0.2,0.11-0.3,0.19c-0.21,0.12-0.43,0.25-0.66,0.41c-0.56,0.34-1.17,0.72-1.75,1.11
			c-0.12,0.07-0.25,0.14-0.36,0.23c-0.23,0.15-0.46,0.31-0.68,0.46c-0.12,0.07-0.23,0.14-0.35,0.22c-1.1,0.73-1.98,1.37-2.27,1.71
			c-0.07,0.1-0.17,0.17-0.27,0.21c-0.05,0.02-0.11,0.04-0.17,0.04l0,0.02l-0.01-0.01c-0.02,0.01-0.03,0.01-0.05,0
			c-0.09,0.02-0.18,0.02-0.29,0.01c-0.49-0.05-1.1-0.35-1.74-0.66c-0.85-0.4-1.76-0.85-2.6-0.86c-1.9,0-2.75,0.92-2.75,0.92
			l-6.37,2.7l-1.52-1.53l-1.77-4.49l-2.69-1.32c0,0,0.31-0.85,0.66-1.8c0.09-0.23,0.17-0.48,0.26-0.7c0.03-0.12,0.08-0.23,0.13-0.36
			c0.11-0.34,0.22-0.64,0.3-0.87c0.05-0.18,0.1-0.31,0.13-0.39c0-0.03,0.01-0.08,0-0.11c0.01-0.05-0.01-0.12-0.02-0.19
			c-0.07-0.38-0.28-0.99-0.56-1.67c-0.28-0.69-0.61-1.43-0.89-2.04c-0.08-0.19-0.17-0.37-0.26-0.53c-0.01-0.04-0.02-0.07-0.05-0.1
			c-0.13-0.27-0.22-0.47-0.27-0.55c0-0.02,0-0.02-0.01-0.04l-0.01-0.01l0-0.02l0.01,0.01c0.21-0.4,3.52-6.54,4.7-6.91
			c1.2-0.41,6.45-2.16,6.45-2.16l1.64,1.17l5.61,4.01l4.77-1.59l4.99,5.64L221.4,392.23z"/>
		<path class="st22" d="M221.41,392.22c-0.02,0.01-0.02,0.01-0.02,0.01l-4.67-0.63l2.11-8.22l-4.67,1.2l-2.5-4.22l-4.76-1.72
			l4.33,5.42l-2.81,3.59l-9.36-7.99l1.83,6.21l-8.36-2.65c0.21-0.4,3.52-6.54,4.7-6.91c1.2-0.41,6.45-2.16,6.45-2.16l1.64,1.17
			l5.62,3.99l4.77-1.59l4.99,5.66L221.41,392.22z"/>
		<path class="st17" d="M208.21,396.35c-1.9,0-2.75,0.92-2.75,0.92l-6.37,2.7l-1.52-1.53l-1.77-4.49l-2.69-1.32
			c0,0,0.31-0.85,0.66-1.8c0.09-0.23,0.17-0.48,0.26-0.7c0.03-0.12,0.08-0.23,0.13-0.36c0.11-0.34,0.22-0.64,0.3-0.87
			c0.05-0.18,0.1-0.31,0.13-0.39l9.5,1.08l-0.26-2.63l5.02,3.92l-5.12,1.29l0.2,2.31l3.36-0.03L208.21,396.35z"/>
		<path class="st17" d="M212.84,397.87c-0.09,0.02-0.18,0.02-0.29,0.01c-0.49-0.05-1.1-0.35-1.74-0.66c-0.85-0.4-1.76-0.85-2.6-0.86
			l4.57-2.96l-0.75-4.44l3.68-0.38c0,0-1.6,4.65-1.33,4.76C214.64,393.43,212.58,397.77,212.84,397.87z"/>
	</g>
	<g>
		<path class="st8" d="M170.2,389.22l-0.01,0.02c0,0,0.02,0.04,0.06,0.13c0.04,0.08,0.09,0.19,0.16,0.35
			c0.03,0.05,0.07,0.12,0.09,0.19c0.06,0.14,0.13,0.29,0.2,0.46c0.03,0.06,0.06,0.13,0.09,0.2l0.2,0.45
			c0.17,0.37,0.36,0.79,0.52,1.2c0.03,0.08,0.08,0.16,0.11,0.25c0.07,0.16,0.14,0.32,0.2,0.48c0.04,0.08,0.07,0.16,0.1,0.24
			c0.32,0.77,0.55,1.42,0.59,1.7c0,0.08,0.03,0.15,0.07,0.21c0.02,0.02,0.04,0.06,0.08,0.08l0,0.01l0.01,0
			c0,0.01,0.01,0.01,0.02,0.02c0.04,0.04,0.09,0.07,0.15,0.11c0.27,0.15,0.7,0.21,1.15,0.27c0.59,0.09,1.22,0.18,1.67,0.47
			c0.99,0.67,1.12,1.45,1.12,1.45l2.38,3.66l1.34-0.26l2.51-1.73l1.88,0.26c0,0,0.14-0.56,0.29-1.18c0.03-0.15,0.08-0.31,0.11-0.46
			c0.03-0.07,0.04-0.15,0.06-0.23c0.05-0.22,0.11-0.41,0.15-0.56c0.03-0.11,0.05-0.2,0.07-0.25c0.01-0.02,0.02-0.04,0.04-0.06
			c0.01-0.03,0.05-0.06,0.08-0.09c0.17-0.18,0.5-0.42,0.89-0.68c0.39-0.26,0.83-0.53,1.19-0.75c0.11-0.07,0.22-0.13,0.32-0.19
			c0.02-0.02,0.04-0.03,0.06-0.04c0.16-0.1,0.28-0.17,0.34-0.2c0.01-0.01,0.03-0.01,0.03-0.01l-0.01,0l0-0.01
			c0.03-0.28,0.47-4.67-0.02-5.28c-0.48-0.64-2.61-3.41-2.61-3.41l-1.27,0.03l-4.35,0.11l-1.94-2.52l-4.62,1.2L170.2,389.22z"/>
		<path class="st25" d="M170.21,389.23c0,0,0.02,0.05,0.05,0.13c0.04,0.08,0.09,0.19,0.16,0.35c0.03,0.05,0.07,0.12,0.09,0.19
			c0.06,0.14,0.13,0.29,0.2,0.46c0.03,0.06,0.06,0.13,0.09,0.2c0.07,0.14,0.13,0.28,0.2,0.45c0.17,0.37,0.36,0.79,0.52,1.2
			c0.03,0.08,0.08,0.16,0.11,0.25c0.07,0.16,0.14,0.32,0.2,0.48c0.04,0.08,0.07,0.16,0.1,0.24c0.32,0.77,0.55,1.42,0.59,1.7
			c0,0.08,0.03,0.15,0.07,0.21c0.02,0.02,0.04,0.06,0.08,0.08l0,0.01l0.01,0c0,0.01,0.01,0.01,0.02,0.02
			c0.04,0.04,0.09,0.07,0.15,0.11c0.27,0.15,0.7,0.21,1.15,0.27c0.59,0.09,1.22,0.18,1.67,0.47c0.99,0.67,1.12,1.45,1.12,1.45
			l2.38,3.66l1.34-0.26l2.51-1.73l1.88,0.26c0,0,0.14-0.56,0.29-1.18c0.03-0.15,0.08-0.31,0.11-0.46c0.03-0.07,0.04-0.15,0.06-0.23
			c0.06-0.21,0.11-0.41,0.15-0.56c0.03-0.11,0.05-0.2,0.07-0.25c0.01-0.02,0.02-0.04,0.04-0.06c0.01-0.03,0.05-0.06,0.08-0.09
			c0.17-0.18,0.5-0.42,0.89-0.68c0.39-0.26,0.83-0.53,1.19-0.75c0.11-0.07,0.22-0.13,0.32-0.19c0.02-0.02,0.04-0.03,0.06-0.04
			c0.16-0.1,0.28-0.17,0.34-0.2c0-0.01,0-0.01,0.02-0.02l0.01,0l0-0.01l-0.01,0c0.03-0.28,0.47-4.67-0.02-5.28
			c-0.48-0.64-2.61-3.41-2.61-3.41l-1.27,0.03l-4.36,0.11l-1.94-2.52l-4.61,1.19L170.21,389.23z"/>
		<path class="st22" d="M170.2,389.22c0,0.01,0,0.01,0,0.01l2.67,1.32l1.8-5.05l2.02,2.28l2.8-1.33l3.1,0.78l-4.19,1.31l0.2,2.87
			l7.73-0.88l-3.15,2.61l5.32,1.57c0.03-0.28,0.47-4.67-0.02-5.28c-0.48-0.64-2.61-3.41-2.61-3.41l-1.27,0.03l-4.35,0.11l-1.94-2.52
			l-4.62,1.2L170.2,389.22z"/>
		<path class="st17" d="M175.67,396.05c0.99,0.67,1.12,1.45,1.12,1.45l2.38,3.66l1.34-0.26l2.51-1.73l1.88,0.26
			c0,0,0.14-0.56,0.29-1.18c0.03-0.15,0.08-0.31,0.11-0.46c0.03-0.07,0.04-0.15,0.06-0.23c0.06-0.21,0.11-0.41,0.15-0.56
			c0.03-0.11,0.05-0.2,0.07-0.25l-5.36-2.79l1.07-1.28l-4.02,0.28l2.23,2.48l-0.92,1.14l-1.75-1.2L175.67,396.05z"/>
		<path class="st17" d="M172.7,395.2c0.04,0.04,0.09,0.07,0.15,0.11c0.27,0.15,0.7,0.21,1.15,0.27c0.59,0.09,1.22,0.18,1.67,0.47
			l-1.35-3.16l1.96-2.06l-1.79-1.5c0,0-0.81,3-0.99,2.97C173.33,392.25,172.87,395.25,172.7,395.2z"/>
	</g>
</g>
</svg>
