<?xml version="1.0" encoding="utf-8"?>
<!-- Generator: Adobe Illustrator 25.2.1, SVG Export Plug-In . SVG Version: 6.00 Build 0)  -->
<svg version="1.1" xmlns="http://www.w3.org/2000/svg" xmlns:xlink="http://www.w3.org/1999/xlink" x="0px" y="0px"
	 viewBox="0 0 500 500" style="enable-background:new 0 0 500 500;" xml:space="preserve">
<style type="text/css">
	.st0{fill:#F5F5F5;}
	.st1{fill:#F0F0F0;}
	.st2{fill:#E6E6E6;}
	.st3{fill:#FAFAFA;}
	.st4{fill:#EBEBEB;}
	.st5{fill:#E0E0E0;}
	.st6{display:none;}
	.st7{display:inline;}
	.st8{fill:#407BFF;}
	.st9{opacity:0.9;fill:#FFFFFF;}
	.st10{fill:#263238;}
	.st11{opacity:0.5;fill:#FFFFFF;}
	.st12{opacity:0.2;}
	.st13{fill:#EBB376;}
	.st14{opacity:0.1;fill:#FFFFFF;}
	.st15{opacity:0.2;fill:#FFFFFF;}
	.st16{opacity:0.6;fill:#FFFFFF;}
	.st17{opacity:0.3;fill:#FFFFFF;}
	.st18{opacity:0.4;fill:#FFFFFF;}
	.st19{opacity:0.1;}
	.st20{fill:#D58745;}
	.st21{fill:#2E353A;}
	.st22{fill:#FFFFFF;}
	.st23{fill:#DE5753;}
	.st24{opacity:0.8;fill:#FFFFFF;}
	.st25{opacity:0.7;fill:#FFFFFF;}
	.st26{fill:#B97964;}
	.st27{fill:#A24E3F;}
	.st28{fill:#577AFB;}
	.st29{fill:#EEC1BB;}
	.st30{opacity:0.8;}
</style>
<g id="Background_Complete">
	<g>
		<path class="st0" d="M170.9,359.4h23.17l-12.18-99.21c-0.52-4.2-4.34-7.6-8.54-7.6h-7.96H72.25L87.07,359.4H170.9z"/>
		<path class="st1" d="M97.41,359.4H74.24L62.06,260.2c-0.52-4.2,2.47-7.6,6.67-7.6h7.96c4.2,0,8.02,3.4,8.54,7.6L97.41,359.4z"/>
		<g>
			<path class="st2" d="M105.95,359.28l-4.2-47.98c-0.19-2.14-1.84-3.87-3.98-4.14l-1.73-0.22c-2.86-0.37-5.08-2.68-5.34-5.55
				l-0.77-8.75c-0.31-3.59,2.51-6.67,6.11-6.67H57.34c-3.6,0-6.43,3.08-6.11,6.67l0.77,8.75c0.25,2.88,2.47,5.19,5.34,5.55
				l1.73,0.22c2.13,0.27,3.79,2,3.98,4.14l4.2,47.98c0.31,3.5,3.24,6.18,6.75,6.18h38.72C109.19,365.47,106.26,362.78,105.95,359.28
				z"/>
		</g>
		<path class="st2" d="M212.51,299.29c0.66-7.54,6.97-13.32,14.53-13.32h-18.74h-14.97c-7.56,0-13.87,5.78-14.53,13.32l-3.33,38.04
			h33.71L212.51,299.29z"/>
		<path class="st1" d="M242.02,285.97h-14.97c-7.56,0-13.87,5.78-14.53,13.32l-3.33,38.04H128.9l-3.33-38.04
			c-0.66-7.54-6.97-13.32-14.53-13.32H96.06c-3.6,0-6.43,3.08-6.11,6.67l0.77,8.75c0.25,2.88,2.47,5.19,5.34,5.55l1.73,0.22
			c2.13,0.27,3.79,2,3.98,4.14l4.2,47.98c0.31,3.5,3.24,6.18,6.75,6.18h112.69c3.51,0,6.44-2.68,6.75-6.18l4.2-47.98
			c0.19-2.14,1.84-3.87,3.98-4.14l1.73-0.22c2.86-0.37,5.08-2.68,5.34-5.55l0.77-8.75C248.45,289.06,245.62,285.97,242.02,285.97z"
			/>
	</g>
	<g>
		<g>
			<circle class="st0" cx="140.93" cy="148.34" r="44.39"/>
			<circle class="st3" cx="140.93" cy="148.34" r="37.64"/>
			<path class="st2" d="M140.93,110.7c-0.59,0-1.18,0.02-1.77,0.04c19.97,0.92,35.88,17.4,35.88,37.6c0,20.2-15.91,36.67-35.88,37.6
				c0.59,0.03,1.17,0.04,1.77,0.04c20.79,0,37.64-16.85,37.64-37.64S161.72,110.7,140.93,110.7z"/>
			<path class="st1" d="M140.94,185.94c0,0-0.01,0-0.01,0c0.95-0.04,1.89-0.13,2.83-0.25v-34.52h32.93
				c0.07-0.93,0.12-1.88,0.12-2.83c0-0.95-0.05-1.89-0.12-2.83h-32.93v-34.52c-0.93-0.11-1.87-0.2-2.83-0.25c0,0,0,0,0,0h-2.83
				v34.77h-34.77v5.66h34.77v34.77H140.94z"/>
			<g>
				<rect x="135.27" y="110.74" class="st2" width="2.83" height="34.77"/>
				<rect x="135.27" y="151.17" class="st2" width="2.83" height="34.77"/>
			</g>
		</g>
		<g>
			<circle class="st0" cx="359.07" cy="148.34" r="44.39"/>
			<circle class="st3" cx="359.07" cy="148.34" r="37.64"/>
			<path class="st2" d="M359.07,110.7c-0.59,0-1.18,0.02-1.77,0.04c19.97,0.92,35.88,17.4,35.88,37.6c0,20.2-15.91,36.67-35.88,37.6
				c0.59,0.03,1.17,0.04,1.77,0.04c20.79,0,37.64-16.85,37.64-37.64S379.86,110.7,359.07,110.7z"/>
			<path class="st1" d="M359.09,185.94c0,0-0.01,0-0.01,0c0.95-0.04,1.89-0.13,2.83-0.25v-34.52h32.93
				c0.07-0.93,0.12-1.88,0.12-2.83c0-0.95-0.05-1.89-0.12-2.83H361.9v-34.52c-0.93-0.11-1.87-0.2-2.83-0.25c0,0,0,0,0,0h-2.83v34.77
				h-34.77v5.66h34.77v34.77H359.09z"/>
			<g>
				<rect x="353.42" y="110.74" class="st2" width="2.83" height="34.77"/>
				<rect x="353.42" y="151.17" class="st2" width="2.83" height="34.77"/>
			</g>
		</g>
	</g>
	<g>
		
			<rect x="282.55" y="328.24" transform="matrix(-1 -1.224647e-16 1.224647e-16 -1 641.9784 683.0139)" class="st4" width="76.87" height="26.53"/>
		
			<rect x="282.55" y="354.77" transform="matrix(-1 -1.224647e-16 1.224647e-16 -1 641.9784 736.0818)" class="st4" width="76.87" height="26.53"/>
		
			<rect x="362.11" y="328.24" transform="matrix(-1 -1.224647e-16 1.224647e-16 -1 801.0859 683.0139)" class="st4" width="76.87" height="26.53"/>
		
			<rect x="362.11" y="354.77" transform="matrix(-1 -1.224647e-16 1.224647e-16 -1 801.0859 736.0818)" class="st4" width="76.87" height="26.53"/>
		<g>
			<polygon class="st1" points="409.77,354.77 400.2,328.24 414.92,328.24 424.49,354.77 			"/>
			<polygon class="st1" points="393.08,328.24 396.31,328.24 405.88,354.77 402.64,354.77 			"/>
		</g>
		<g>
			<polygon class="st1" points="419.33,381.31 409.77,354.77 424.49,354.77 434.05,381.31 			"/>
			<polygon class="st1" points="402.64,354.77 405.88,354.77 415.44,381.31 412.21,381.31 			"/>
		</g>
		<g>
			<polygon class="st1" points="299.82,354.77 290.26,328.24 304.98,328.24 314.54,354.77 			"/>
			<polygon class="st1" points="283.14,328.24 286.37,328.24 295.93,354.77 292.7,354.77 			"/>
		</g>
		<g>
			<polygon class="st1" points="309.39,381.31 299.82,354.77 314.54,354.77 324.11,381.31 			"/>
			<polygon class="st1" points="292.7,354.77 295.93,354.77 305.5,381.31 302.27,381.31 			"/>
		</g>
		
			<rect x="399.2" y="292.54" transform="matrix(-1.836970e-16 1 -1 -1.836970e-16 731.5215 -69.5644)" class="st5" width="2.68" height="76.87"/>
		
			<rect x="399.2" y="318.87" transform="matrix(-1.836970e-16 1 -1 -1.836970e-16 757.8482 -43.2377)" class="st5" width="2.68" height="76.87"/>
		<g>
			<path class="st5" d="M398.58,344.9c-0.64,0-1.15-0.52-1.15-1.15s0.52-1.15,1.15-1.15c0.32,0,3.61,0,3.93,0
				c0.64,0,1.15,0.52,1.15,1.15s-0.52,1.15-1.15,1.15C402.16,344.9,398.93,344.9,398.58,344.9z"/>
			<path class="st0" d="M398.58,344.5c-0.64,0-1.15-0.52-1.15-1.15c0-0.64,0.52-1.15,1.15-1.15c0.32,0,3.61,0,3.93,0
				c0.64,0,1.15,0.52,1.15,1.15c0,0.64-0.52,1.15-1.15,1.15C402.16,344.5,398.93,344.5,398.58,344.5z"/>
		</g>
		<g>
			<path class="st5" d="M398.58,369.4c-0.64,0-1.15-0.52-1.15-1.15c0-0.64,0.52-1.15,1.15-1.15c0.32,0,3.61,0,3.93,0
				c0.64,0,1.15,0.52,1.15,1.15c0,0.64-0.52,1.15-1.15,1.15C402.16,369.4,398.93,369.4,398.58,369.4z"/>
			<path class="st0" d="M398.58,368.99c-0.64,0-1.15-0.52-1.15-1.15c0-0.64,0.52-1.15,1.15-1.15c0.32,0,3.61,0,3.93,0
				c0.64,0,1.15,0.52,1.15,1.15c0,0.64-0.52,1.15-1.15,1.15C402.16,368.99,398.93,368.99,398.58,368.99z"/>
		</g>
		<path class="st0" d="M360.77,327.05v55.42h1.34h1.34h74.18h1.34h1.34v-55.42H360.77z M363.45,356.18h74.18v23.61h-74.18V356.18z
			 M363.45,329.89h74.18v23.61h-74.18V329.89z"/>
		
			<rect x="319.65" y="292.54" transform="matrix(-1.836970e-16 1 -1 -1.836970e-16 651.9678 9.9894)" class="st5" width="2.68" height="76.87"/>
		
			<rect x="319.65" y="318.87" transform="matrix(-1.836970e-16 1 -1 -1.836970e-16 678.2944 36.3161)" class="st5" width="2.68" height="76.87"/>
		<g>
			<path class="st5" d="M319.02,344.9c-0.64,0-1.15-0.52-1.15-1.15s0.52-1.15,1.15-1.15c0.32,0,3.61,0,3.93,0
				c0.64,0,1.15,0.52,1.15,1.15s-0.52,1.15-1.15,1.15C322.61,344.9,319.37,344.9,319.02,344.9z"/>
			<path class="st0" d="M319.02,344.5c-0.64,0-1.15-0.52-1.15-1.15c0-0.64,0.52-1.15,1.15-1.15c0.32,0,3.61,0,3.93,0
				c0.64,0,1.15,0.52,1.15,1.15c0,0.64-0.52,1.15-1.15,1.15C322.61,344.5,319.37,344.5,319.02,344.5z"/>
		</g>
		<g>
			<path class="st5" d="M319.02,369.4c-0.64,0-1.15-0.52-1.15-1.15c0-0.64,0.52-1.15,1.15-1.15c0.32,0,3.61,0,3.93,0
				c0.64,0,1.15,0.52,1.15,1.15c0,0.64-0.52,1.15-1.15,1.15C322.61,369.4,319.37,369.4,319.02,369.4z"/>
			<path class="st0" d="M319.02,368.99c-0.64,0-1.15-0.52-1.15-1.15c0-0.64,0.52-1.15,1.15-1.15c0.32,0,3.61,0,3.93,0
				c0.64,0,1.15,0.52,1.15,1.15c0,0.64-0.52,1.15-1.15,1.15C322.61,368.99,319.37,368.99,319.02,368.99z"/>
		</g>
		<path class="st0" d="M281.21,327.05v55.42h1.34h1.34h74.18h1.34h1.34v-55.42H281.21z M283.9,356.18h74.18v23.61H283.9V356.18z
			 M283.9,329.89h74.18v23.61H283.9V329.89z"/>
	</g>
	<g>
		<path class="st5" d="M395.01,322.67h-11.87L380.39,311h-4.75l-2.75,11.67h-11.87c-2.03,0-3.68,1.65-3.68,3.68v0.71h41.34v-0.71
			C398.69,324.31,397.04,322.67,395.01,322.67z"/>
		<g>
			<rect x="325.45" y="248.94" class="st5" width="105.15" height="68.06"/>
			<rect x="327.45" y="250.94" class="st0" width="101.15" height="61.06"/>
			<polygon class="st3" points="383.2,312 420.41,312 398.4,250.94 361.19,250.94 			"/>
			<polygon class="st3" points="365.19,312 373.37,312 351.36,250.94 343.18,250.94 			"/>
		</g>
	</g>
	<g>
		<polygon class="st0" points="220.87,382.52 115.64,382.52 115.64,364.47 223.87,364.47 		"/>
		<polygon class="st5" points="124.19,382.65 77.49,382.65 75.49,364.47 122.19,364.47 		"/>
	</g>
</g>
<g id="Background_Simple" class="st6">
	<g class="st7">
		<path class="st8" d="M251.54,168.49c-25.85-6.46-40.88-42.84-89.37-58.05c-30.13-9.45-94.94,5.39-102.68,73.55
			c-6.66,58.6,47.09,152.48,146.41,176.9c98.88,24.31,200.63-7.95,228.17-89.55c19.01-56.32-18.06-108.61-61.8-116.33
			C313.35,144.6,281.01,175.86,251.54,168.49z"/>
		<path class="st9" d="M251.54,168.49c-25.85-6.46-40.88-42.84-89.37-58.05c-30.13-9.45-94.94,5.39-102.68,73.55
			c-6.66,58.6,47.09,152.48,146.41,176.9c98.88,24.31,200.63-7.95,228.17-89.55c19.01-56.32-18.06-108.61-61.8-116.33
			C313.35,144.6,281.01,175.86,251.54,168.49z"/>
	</g>
</g>
<g id="Shadow">
	<ellipse id="_x3C_Path_x3E__1_" class="st0" cx="245.18" cy="412.39" rx="193.89" ry="11.32"/>
</g>
<g id="Character">
	<g>
		<g>
			<g>
				<polygon class="st10" points="375.18,410.97 370.39,410.97 369.34,337.89 376.23,337.89 				"/>
				<polygon class="st11" points="375.18,410.97 370.39,410.97 369.34,337.89 376.23,337.89 				"/>
			</g>
			<g>
				<polygon class="st10" points="332.88,410.97 328.08,410.97 327.03,337.89 333.93,337.89 				"/>
				<polygon class="st11" points="332.88,410.97 328.08,410.97 327.03,337.89 333.93,337.89 				"/>
			</g>
			<g>
				<polygon class="st10" points="323.06,410.97 318.27,410.97 317.22,337.89 324.11,337.89 				"/>
				<polygon class="st11" points="323.06,410.97 318.27,410.97 317.22,337.89 324.11,337.89 				"/>
			</g>
			<g>
				<polygon class="st10" points="280.76,410.97 275.96,410.97 274.91,337.89 281.81,337.89 				"/>
				<polygon class="st11" points="280.76,410.97 275.96,410.97 274.91,337.89 281.81,337.89 				"/>
			</g>
			<g>
				<path class="st8" d="M352.2,339.57h-77.75c-3.54,0-6.41-2.87-6.41-6.41v-8.54c0-3.54,2.87-6.41,6.41-6.41h68.85l5.93-56.42
					c0.71-6.71,6.72-12.16,13.43-12.16h28.89l-6.9,21.07l-6.3,47.16l-4.43,13.18L352.2,339.57z"/>
				<path class="st12" d="M352.2,339.57h-77.75c-3.54,0-6.41-2.87-6.41-6.41v-8.54c0-3.54,2.87-6.41,6.41-6.41h68.85l5.93-56.42
					c0.71-6.71,6.72-12.16,13.43-12.16h28.89l-6.9,21.07l-6.3,47.16l-4.43,13.18L352.2,339.57z"/>
			</g>
			<path class="st8" d="M393.94,249.64h-5.76c-6.71,0-12.73,5.44-13.43,12.16l-5.93,56.42h-42.41c-3.54,0-6.41,2.87-6.41,6.41v8.54
				c0,3.54,2.87,6.41,6.41,6.41h51.32c4.03,0,7.42-3.05,7.84-7.06l6.72-63.94c5.42,0,10.26-4.56,10.5-10.05
				C402.99,253.63,398.83,249.64,393.94,249.64z"/>
		</g>
		<g>
			<g>
				<polygon class="st13" points="282.42,380.78 285.75,402.54 292.62,401.95 291.66,379.99 				"/>
				<g>
					<path class="st10" d="M292.86,393.44c0,0,0.32,5.62,1.68,8.41c1.3,2.69,3.22,6.52-1.35,6.93c-2.69,0.24-7.42,1.36-12.58,1.86
						c-3.57,0.35-8.46,0.03-8.63-1.89c-0.2-2.19,12.46-6.78,12.41-8.89c-0.06-2.1-0.62-5.75-0.62-5.75L292.86,393.44z"/>
					<path class="st14" d="M292.86,393.44c0,0,0.32,5.62,1.68,8.41c1.3,2.69,3.22,6.52-1.35,6.93c-2.69,0.24-7.42,1.36-12.58,1.86
						c-3.57,0.35-8.46,0.03-8.63-1.89c-0.2-2.19,12.46-6.78,12.41-8.89c-0.06-2.1-0.62-5.75-0.62-5.75L292.86,393.44z"/>
				</g>
				<g>
					<path class="st8" d="M327.19,277.27l-1.87,15.49c0,0-52.83,4.64-55.83,17.85c-2.85,12.56,12.73,76.32,12.73,76.32l10.56-1.05
						c0,0,1.46-49.3-3.15-66.89c0,0,40.16-0.3,53.54,0c6.03,0.14,21.39-0.07,17.59-17.57c-4.34-19.98-8.94-24.15-8.94-24.15
						l-0.15-8.76h-23.98L327.19,277.27z"/>
					<path class="st15" d="M327.19,277.27l-1.87,15.49c0,0-52.83,4.64-55.83,17.85c-2.85,12.56,12.73,76.32,12.73,76.32l10.56-1.05
						c0,0,1.46-49.3-3.15-66.89c0,0,40.16-0.3,53.54,0c6.03,0.14,21.39-0.07,17.59-17.57c-4.34-19.98-8.94-24.15-8.94-24.15
						l-0.15-8.76h-23.98L327.19,277.27z"/>
				</g>
				<g>
					<path class="st8" d="M281.21,387.2l0.88,2.58c0.16,0.48,0.64,0.79,1.14,0.74l9.21-0.84c0.54-0.05,0.97-0.49,1-1.03l0.17-2.68
						c0.04-0.67-0.53-1.23-1.2-1.17l-10.26,0.94C281.44,385.81,280.98,386.53,281.21,387.2z"/>
					<path class="st16" d="M281.21,387.2l0.88,2.58c0.16,0.48,0.64,0.79,1.14,0.74l9.21-0.84c0.54-0.05,0.97-0.49,1-1.03l0.17-2.68
						c0.04-0.67-0.53-1.23-1.2-1.17l-10.26,0.94C281.44,385.81,280.98,386.53,281.21,387.2z"/>
				</g>
			</g>
			<g>
				<polygon class="st13" points="302.66,380.34 304.13,402.3 311.02,402.3 311.94,380.34 				"/>
				<path class="st10" d="M311.81,395.65c0,0-0.18,5.62,0.92,8.53c1.06,2.8,2.62,6.78-1.97,6.78c-2.7,0-7.49,0.06-12.61-0.32
					c-3.58-0.26-8.52,0.32-8.52-1.61c0-2.2,13.38-5.77,13.51-7.87c0.13-2.1,0-5.64,0-5.64L311.81,395.65z"/>
				<g>
					<path class="st8" d="M335.46,277.27l-1.68,15.49c0,0-32.86,4.46-38.13,12.34s7.11,85.31,7.11,85.31h9.19
						c6.56-43.05,3.15-71.49,3.15-71.49s14.96,0,41.21,0s2.89-41.65,2.89-41.65l0.1-9.2l-24.28,1.4L335.46,277.27z"/>
					<path class="st17" d="M335.46,277.27l-1.68,15.49c0,0-32.86,4.46-38.13,12.34s7.11,85.31,7.11,85.31h9.19
						c6.56-43.05,3.15-71.49,3.15-71.49s14.96,0,41.21,0s2.89-41.65,2.89-41.65l0.1-9.2l-24.28,1.4L335.46,277.27z"/>
				</g>
				<g>
					<path class="st8" d="M301.07,388.9l0.69,2.84c0.11,0.45,0.52,0.77,0.98,0.77h9.15c0.48,0,0.89-0.33,0.99-0.8l0.61-2.84
						c0.14-0.63-0.34-1.22-0.99-1.22h-10.46C301.4,387.65,300.92,388.26,301.07,388.9z"/>
					<path class="st16" d="M301.07,388.9l0.69,2.84c0.11,0.45,0.52,0.77,0.98,0.77h9.15c0.48,0,0.89-0.33,0.99-0.8l0.61-2.84
						c0.14-0.63-0.34-1.22-0.99-1.22h-10.46C301.4,387.65,300.92,388.26,301.07,388.9z"/>
				</g>
			</g>
			<g>
				<path class="st13" d="M288.27,268.44l-7.44,1.44l-7-2.05c-1.94-0.28-3.89,0.49-5.21,2.05l0,0c-1,1.18-1.55,2.73-1.55,4.33v0.27
					h14.39l7.81-1.05L288.27,268.44z"/>
				<g>
					<path class="st8" d="M328.47,225.41c-0.21-1.55-1.91-2.19-2.98-1.14c-2.39,2.36-5.84,5.13-7.45,19.99
						c-2.08,19.14-33.97,23.9-33.97,23.9l1.52,7.01c0,0,23.52,0.8,33.26-9.36C331.39,252.76,329.55,233.17,328.47,225.41z"/>
					<path class="st15" d="M328.47,225.41c-0.21-1.55-1.91-2.19-2.98-1.14c-2.39,2.36-5.84,5.13-7.45,19.99
						c-2.08,19.14-33.97,23.9-33.97,23.9l1.52,7.01c0,0,23.52,0.8,33.26-9.36C331.39,252.76,329.55,233.17,328.47,225.41z"/>
				</g>
				<path class="st10" d="M357.09,194.5c-2.89-19.37-19.2-12.39-19.2-12.39c-10.54,3.8-7.01,16.89-7.04,24.03
					c-0.03,7.15-0.9,9.57-0.9,9.57c1.21-0.27,2.34-0.51,3.43-0.72l0.38-2.23l0.66,2.03c8.86-1.7,13.64-1.67,16.22-1.14
					c0.49-0.89,1.2-2.41,1.55-4.21c0,0,1.27,0.82,0.02,4.7c1.53,0.69,1.45,1.58,1.45,1.58S359.98,213.87,357.09,194.5z"/>
				<g>
					<path class="st8" d="M367.11,223.16l-38.09-0.45c-1.84-0.02-3.43,1.29-3.75,3.09c-4.5,24.88-1.43,23.99-1.43,23.99l1.93,30.45
						h4.26c2.57,0,4.78-1.81,5.29-4.34l0.43-2.14l1.13,2.99c0.79,2.1,2.8,3.49,5.05,3.49h19.45c-2.26-23.39,5.15-45.95,7.73-54.37
						C369.51,224.53,368.51,223.18,367.11,223.16z"/>
					<path class="st18" d="M367.11,223.16l-38.09-0.45c-1.84-0.02-3.43,1.29-3.75,3.09c-4.5,24.88-1.43,23.99-1.43,23.99l1.93,30.45
						h4.26c2.57,0,4.78-1.81,5.29-4.34l0.43-2.14l1.13,2.99c0.79,2.1,2.8,3.49,5.05,3.49h19.45c-2.26-23.39,5.15-45.95,7.73-54.37
						C369.51,224.53,368.51,223.18,367.11,223.16z"/>
				</g>
				<g>
					<path class="st8" d="M283.04,268.06l1.41,7.38c0.1,0.52,0.57,0.89,1.1,0.87l1.43-0.06c0.64-0.03,1.11-0.6,1.02-1.23l-1.17-7.86
						c-0.1-0.65-0.76-1.07-1.39-0.86l-1.67,0.54C283.25,267.01,282.94,267.53,283.04,268.06z"/>
					<path class="st16" d="M283.04,268.06l1.41,7.38c0.1,0.52,0.57,0.89,1.1,0.87l1.43-0.06c0.64-0.03,1.11-0.6,1.02-1.23
						l-1.17-7.86c-0.1-0.65-0.76-1.07-1.39-0.86l-1.67,0.54C283.25,267.01,282.94,267.53,283.04,268.06z"/>
				</g>
				<path class="st13" d="M348.97,204.66c-0.56,5.1-0.74,14.36,3.06,17.4c0,0-1.44,5.14-11.22,6.11c-6.94-3.06-4.36-4.75-4.36-4.75
					c5.47-1.85,6.02-5.96,4.76-9.76L348.97,204.66z"/>
				<path class="st19" d="M348.14,210.33l-2.01-0.52l-2.48,1.02l-2.44,2.82c0.33,1.01,0.54,2.04,0.56,3.04
					C347.15,215.81,348.14,210.33,348.14,210.33z"/>
				<path class="st13" d="M352.58,193.39c0.24,8.41,0.53,11.97-3.3,16.64c-5.77,7.04-16.15,5.5-18.91-2.67
					c-2.48-7.35-2.47-19.87,5.41-23.94c5.62-2.94,12.55-0.77,15.49,4.85C352.1,189.85,352.55,191.6,352.58,193.39z"/>
				<path class="st13" d="M355.16,199.82c-0.32,1.6-1.27,3-2.62,3.9c-1.81,1.18-3.36-0.28-3.39-2.33c-0.03-1.83,0.86-4.66,2.94-5.02
					c1.52-0.21,2.93,0.85,3.14,2.36C355.27,199.1,355.25,199.47,355.16,199.82z"/>
				<path class="st20" d="M334.57,198.56c-0.46,1.61-1.15,3.15-2.03,4.57c0.75,0.44,1.65,0.53,2.47,0.24L334.57,198.56z"/>
				<path class="st21" d="M340.22,193.75c0.06-0.02,0.11-0.05,0.15-0.09c0.13-0.14,0.12-0.35-0.02-0.47c0,0,0,0,0,0
					c-0.91-0.88-2.2-1.27-3.45-1.03c-0.17,0.05-0.28,0.23-0.24,0.41c0.05,0.17,0.22,0.28,0.4,0.24c1.03-0.18,2.09,0.14,2.84,0.88
					C339.99,193.75,340.11,193.78,340.22,193.75z"/>
				<path class="st21" d="M328.48,194.5c-0.06-0.01-0.11-0.03-0.16-0.07c-0.14-0.12-0.16-0.33-0.05-0.47c0,0,0,0,0-0.01
					c0.78-1,2-1.57,3.27-1.51c0.18,0.03,0.31,0.19,0.29,0.37c-0.02,0.18-0.18,0.31-0.36,0.29c-1.05-0.03-2.05,0.44-2.69,1.27
					C328.71,194.47,328.59,194.52,328.48,194.5z"/>
				<g>
					<path class="st21" d="M339.27,196.99c0.06,0.68-0.25,1.26-0.7,1.31c-0.45,0.04-0.85-0.47-0.91-1.16
						c-0.06-0.69,0.25-1.26,0.69-1.3C338.8,195.79,339.21,196.31,339.27,196.99z"/>
					<path class="st21" d="M331.57,197.7c0.06,0.68-0.25,1.26-0.69,1.3c-0.44,0.04-0.85-0.47-0.92-1.16s0.25-1.26,0.69-1.3
						C331.09,196.49,331.52,197.01,331.57,197.7z"/>
					<path class="st21" d="M330.85,196.55l-1.68-0.32C329.18,196.23,330.13,197.43,330.85,196.55z"/>
					<path class="st21" d="M338.55,195.85l-1.68-0.32C336.88,195.53,337.83,196.73,338.55,195.85z"/>
				</g>
				<g>
					<path class="st10" d="M334.61,206.07c0,0,3.19,0.57,5.64-1.92c0,0,2.49,4.55-4.24,5.29
						C336.01,209.43,336.01,207.86,334.61,206.07z"/>
					<path class="st22" d="M335.21,206.12l0.49,1.04c0,0,3.17-0.01,4.86-2.19c-0.13-0.5-0.31-0.83-0.31-0.83
						C338.45,205.97,336.25,206.15,335.21,206.12z"/>
					<path class="st23" d="M336.47,209.36c3.31-0.49,4.16-1.96,4.23-3.22C337.44,206.99,336.65,208.63,336.47,209.36z"/>
				</g>
				<path class="st10" d="M337.89,186.7c0,0-1.51,3.41-6.05,4.2c-4.54,0.79-2.93,12.63-2.93,12.63s-9.81-23.92,11.55-22.21
					L337.89,186.7z"/>
				<path class="st10" d="M340.99,181.78c-1.5-0.34-2.99,0.68-3.18,2.2c-0.25,1.99,0.17,4.5,3.4,5.54c5.71,1.84,5.18,7.88,5.18,7.88
					l0.98-4.48c0,0,0.33,6.4,3.54,5.64c3.22-0.76,3.54-6.8,3.54-6.8l-5.32-8.14L340.99,181.78z"/>
				<g>
					<path class="st8" d="M337.38,221.77c0.33-0.12,0.66,0.16,0.58,0.5c-0.38,1.65-0.7,5.23,3.64,5.23c4.28,0,8.26-3.55,9.93-5.26
						c0.53-0.54,1.32-0.71,2.02-0.43l1.14,0.45c0.51,0.21,0.72,0.81,0.44,1.29c-1.93,3.2-8.85,13.41-14.44,5.13
						c0,0-3.25,5.03-5.25,0.52c-0.94-2.12-0.76-4.1-0.46-5.35c0.19-0.81,0.77-1.46,1.55-1.76L337.38,221.77z"/>
					<path class="st16" d="M337.38,221.77c0.33-0.12,0.66,0.16,0.58,0.5c-0.38,1.65-0.7,5.23,3.64,5.23c4.28,0,8.26-3.55,9.93-5.26
						c0.53-0.54,1.32-0.71,2.02-0.43l1.14,0.45c0.51,0.21,0.72,0.81,0.44,1.29c-1.93,3.2-8.85,13.41-14.44,5.13
						c0,0-3.25,5.03-5.25,0.52c-0.94-2.12-0.76-4.1-0.46-5.35c0.19-0.81,0.77-1.46,1.55-1.76L337.38,221.77z"/>
				</g>
				<g>
					<g>
						<g>
							<path class="st10" d="M317.81,227.82c0.57-0.38,1.34-0.22,1.71,0.35c0.38,0.57,0.22,1.33-0.35,1.71
								c-0.41,0.27-17.67,11.7-18.08,11.97c-0.57,0.38-1.34,0.22-1.71-0.35c-0.38-0.57-0.22-1.34,0.35-1.71
								C300.09,239.55,317.46,228.05,317.81,227.82z"/>
							<path class="st16" d="M317.81,227.82c0.57-0.38,1.34-0.22,1.71,0.35c0.38,0.57,0.22,1.33-0.35,1.71
								c-0.41,0.27-17.67,11.7-18.08,11.97c-0.57,0.38-1.34,0.22-1.71-0.35c-0.38-0.57-0.22-1.34,0.35-1.71
								C300.09,239.55,317.46,228.05,317.81,227.82z"/>
						</g>
						<g>
							<path class="st10" d="M299.73,239.79c-0.37,0.24-1.02,1.3-1.44,2.01c-0.16,0.28,0.06,0.62,0.39,0.58
								c0.82-0.1,2.05-0.29,2.42-0.54c0.57-0.38,0.72-1.14,0.35-1.71S300.3,239.41,299.73,239.79z"/>
							<path class="st24" d="M299.73,239.79c-0.37,0.24-1.02,1.3-1.44,2.01c-0.16,0.28,0.06,0.62,0.39,0.58
								c0.82-0.1,2.05-0.29,2.42-0.54c0.57-0.38,0.72-1.14,0.35-1.71S300.3,239.41,299.73,239.79z"/>
						</g>
					</g>
					<path class="st13" d="M324.71,247.78l-7.89-5.53l-1.79-7.58c-0.35-1.48-1.51-2.64-3-2.98l0,0c-1.96-0.45-3.95,0.63-4.65,2.51
						l-0.61,1.64c-0.16,0.44-0.25,0.91-0.25,1.39v1.39c0,1,0.37,1.96,1.05,2.7l1.08,1.18c0.29,0.32,0.63,0.59,1,0.8l4.68,2.61
						l7.39,7.38L324.71,247.78z"/>
					<g>
						<path class="st8" d="M365.06,225.36c0.83-2.15,3.71-2.75,5.17-0.96c1.67,2.05,2.62,6.04-0.22,13.76
							c-5.69,15.45-14.75,27.59-26.1,27.59c-13.46,0-27.08-15.59-27.08-15.59l4.72-5.55c0,0,13.68,9.27,22.8,9.27
							C349.54,253.88,357.95,243.76,365.06,225.36z"/>
						<path class="st15" d="M365.06,225.36c0.83-2.15,3.71-2.75,5.17-0.96c1.67,2.05,2.62,6.04-0.22,13.76
							c-5.69,15.45-14.75,27.59-26.1,27.59c-13.46,0-27.08-15.59-27.08-15.59l4.72-5.55c0,0,13.68,9.27,22.8,9.27
							C349.54,253.88,357.95,243.76,365.06,225.36z"/>
					</g>
					<g>
						<path class="st8" d="M315.64,249.56l5.33-6.42c0.19-0.22,0.51-0.26,0.75-0.09l2.28,1.67c0.26,0.19,0.3,0.55,0.1,0.79
							l-5.98,7.21c-0.24,0.28-0.68,0.26-0.88-0.05l-1.62-2.46C315.47,250.01,315.48,249.75,315.64,249.56z"/>
						<path class="st16" d="M315.64,249.56l5.33-6.42c0.19-0.22,0.51-0.26,0.75-0.09l2.28,1.67c0.26,0.19,0.3,0.55,0.1,0.79
							l-5.98,7.21c-0.24,0.28-0.68,0.26-0.88-0.05l-1.62-2.46C315.47,250.01,315.48,249.75,315.64,249.56z"/>
					</g>
				</g>
				<path class="st10" d="M340.2,181.24h-1.87v0.08c7.05,0.73,12.54,6.68,12.54,13.92h3.32C354.19,187.5,347.93,181.24,340.2,181.24
					z"/>
				<g>
					<path class="st16" d="M340.2,181.24h-1.87v0.08c7.05,0.73,12.54,6.68,12.54,13.92h3.32
						C354.19,187.5,347.93,181.24,340.2,181.24z"/>
					<ellipse class="st8" cx="352.58" cy="200.08" rx="4.54" ry="6.07"/>
					<g>
						<path class="st10" d="M357.64,200.08c0,2.71-0.82,3.99-2.98,3.99c-2.16,0-2.98-1.27-2.98-3.99s0.82-3.99,2.98-3.99
							C356.82,196.09,357.64,197.36,357.64,200.08z"/>
						<path class="st11" d="M357.64,200.08c0,2.71-0.82,3.99-2.98,3.99c-2.16,0-2.98-1.27-2.98-3.99s0.82-3.99,2.98-3.99
							C356.82,196.09,357.64,197.36,357.64,200.08z"/>
						<ellipse class="st10" cx="355.3" cy="200.08" rx="2.7" ry="3.61"/>
						<ellipse class="st25" cx="355.3" cy="200.08" rx="2.7" ry="3.61"/>
					</g>
				</g>
			</g>
		</g>
	</g>
</g>
<g id="Desk">
	<g>
		<g>
			<g>
				<polygon class="st10" points="170.08,410.97 165.29,410.97 163.19,285.67 172.18,285.67 				"/>
				<polygon class="st25" points="170.08,410.97 165.29,410.97 163.19,285.67 172.18,285.67 				"/>
			</g>
			<g>
				<polygon class="st10" points="222.98,410.97 218.19,410.97 216.09,285.67 225.08,285.67 				"/>
				<polygon class="st25" points="222.98,410.97 218.19,410.97 216.09,285.67 225.08,285.67 				"/>
			</g>
			<g>
				<rect x="167.68" y="283.57" class="st10" width="90.44" height="9.8"/>
				<rect x="167.68" y="283.57" class="st11" width="90.44" height="9.8"/>
			</g>
			<g>
				<rect x="258.13" y="283.57" class="st10" width="53.04" height="9.8"/>
				<rect x="258.13" y="283.57" class="st11" width="53.04" height="9.8"/>
			</g>
			<g>
				<polygon class="st10" points="313.43,410.97 308.63,410.97 306.53,285.67 315.53,285.67 				"/>
				<polygon class="st25" points="313.43,410.97 308.63,410.97 306.53,285.67 315.53,285.67 				"/>
			</g>
			<path class="st10" d="M318.36,285.67h-70.63c-1.46,0-2.65-1.19-2.65-2.65v-3.1c0-1.46,1.19-2.65,2.65-2.65h70.63
				c1.46,0,2.65,1.19,2.65,2.65v3.1C321.01,284.48,319.83,285.67,318.36,285.67z"/>
			<g>
				<path class="st10" d="M254.26,285.67h-95.87c-1.46,0-2.65-1.19-2.65-2.65v-3.1c0-1.46,1.19-2.65,2.65-2.65h95.87
					c1.46,0,2.65,1.19,2.65,2.65v3.1C256.91,284.48,255.72,285.67,254.26,285.67z"/>
				<path class="st15" d="M254.26,285.67h-95.87c-1.46,0-2.65-1.19-2.65-2.65v-3.1c0-1.46,1.19-2.65,2.65-2.65h95.87
					c1.46,0,2.65,1.19,2.65,2.65v3.1C256.91,284.48,255.72,285.67,254.26,285.67z"/>
			</g>
			<g>
				<polygon class="st10" points="260.52,410.97 255.73,410.97 253.63,285.67 262.62,285.67 				"/>
				<polygon class="st25" points="260.52,410.97 255.73,410.97 253.63,285.67 262.62,285.67 				"/>
			</g>
		</g>
		<g>
			<path class="st8" d="M258.04,277.28c-0.77,0-1.4-0.63-1.4-1.4c0-0.77,0.63-1.4,1.4-1.4h38.15c0.77,0,1.4,0.63,1.4,1.4
				c0,0.77-0.63,1.4-1.4,1.4H258.04z"/>
			<path class="st8" d="M261.28,274.86l-5.08-36.14c-0.19-1.33-1.42-2.41-2.75-2.41h-4.87v40.95h10.62
				C260.54,277.27,261.46,276.19,261.28,274.86z"/>
			<g>
				<path class="st8" d="M257.11,277.27h-43.14c-1.33,0-2.56-1.08-2.75-2.41l-5.08-36.14c-0.19-1.33,0.74-2.41,2.07-2.41h43.14
					c1.33,0,2.56,1.08,2.75,2.41l5.08,36.14C259.36,276.19,258.44,277.27,257.11,277.27z"/>
				<path class="st25" d="M257.11,277.27h-43.14c-1.33,0-2.56-1.08-2.75-2.41l-5.08-36.14c-0.19-1.33,0.74-2.41,2.07-2.41h43.14
					c1.33,0,2.56,1.08,2.75,2.41l5.08,36.14C259.36,276.19,258.44,277.27,257.11,277.27z"/>
			</g>
			<path class="st25" d="M234.77,255.81c0.17,1.22-0.68,2.2-1.89,2.2c-1.22,0-2.34-0.99-2.51-2.2c-0.17-1.22,0.68-2.2,1.89-2.2
				C233.48,253.61,234.6,254.59,234.77,255.81z"/>
		</g>
		<g>
			<path class="st8" d="M197.75,256.46h-16.66c-1.13,0-1.98,1.02-1.78,2.13l0.03,0.14c-0.77-0.2-1.61-0.19-2.51,0.08
				c-3.01,0.9-3.09,3.58-2.19,6.59c0.9,3.01,2.44,5.2,5.45,4.3c0.52-0.16,0.97-0.38,1.37-0.64c0.6,1.43,1.58,2.64,2.8,3.53v2.21
				h10.33v-2.21c1.69-1.23,2.93-3.08,3.33-5.26l1.61-8.74C199.73,257.48,198.88,256.46,197.75,256.46z M179.66,267.8
				c-1.98,0.59-2.99-0.85-3.58-2.83c-0.59-1.98-0.54-3.74,1.44-4.33c0.82-0.25,1.56-0.15,2.2,0.16l1.17,6.32
				C180.56,267.42,180.16,267.65,179.66,267.8z"/>
			<path class="st11" d="M197.75,256.46h-16.66c-1.13,0-1.98,1.02-1.78,2.13l0.03,0.14c-0.77-0.2-1.61-0.19-2.51,0.08
				c-3.01,0.9-3.09,3.58-2.19,6.59c0.9,3.01,2.44,5.2,5.45,4.3c0.52-0.16,0.97-0.38,1.37-0.64c0.6,1.43,1.58,2.64,2.8,3.53v2.21
				h10.33v-2.21c1.69-1.23,2.93-3.08,3.33-5.26l1.61-8.74C199.73,257.48,198.88,256.46,197.75,256.46z M179.66,267.8
				c-1.98,0.59-2.99-0.85-3.58-2.83c-0.59-1.98-0.54-3.74,1.44-4.33c0.82-0.25,1.56-0.15,2.2,0.16l1.17,6.32
				C180.56,267.42,180.16,267.65,179.66,267.8z"/>
			<g>
				<path class="st8" d="M195.03,277.39h-11.22c-0.68,0-1.36-0.17-1.96-0.5l-3.8-2.08c-0.69-0.38-0.42-1.44,0.37-1.44h22
					c0.79,0,1.06,1.06,0.37,1.44l-3.8,2.08C196.39,277.21,195.71,277.39,195.03,277.39z"/>
				<path class="st18" d="M195.03,277.39h-11.22c-0.68,0-1.36-0.17-1.96-0.5l-3.8-2.08c-0.69-0.38-0.42-1.44,0.37-1.44h22
					c0.79,0,1.06,1.06,0.37,1.44l-3.8,2.08C196.39,277.21,195.71,277.39,195.03,277.39z"/>
			</g>
		</g>
	</g>
</g>
<g id="Concall">
	<g>
		<g>
			<path class="st8" d="M269.56,200.36h-66.14c-2.9,0-5.24-2.35-5.24-5.24v-52.58c0-2.9,2.35-5.24,5.24-5.24h66.14
				c2.9,0,5.24,2.35,5.24,5.24v52.58C274.81,198.01,272.46,200.36,269.56,200.36z"/>
			<path class="st16" d="M269.56,200.36h-66.14c-2.9,0-5.24-2.35-5.24-5.24v-52.58c0-2.9,2.35-5.24,5.24-5.24h66.14
				c2.9,0,5.24,2.35,5.24,5.24v52.58C274.81,198.01,272.46,200.36,269.56,200.36z"/>
		</g>
		<g>
			<path class="st21" d="M233.83,149.13c0,0-5.7-2.92-8.6,3.5c-2.9,6.42-10.23,2.56-7.15,15.57c3.08,13.01-10.08,8.6-3.75,18.1
				c6.33,9.5,16,2.99,21.3,3.17c5.3,0.18,15.54,3.5,18.04-2.42c2.5-5.92-1.75-7.91-1.83-11.12c-0.08-3.21,5.24-10.9,0.92-14.38
				C244.81,155.14,247.92,145.54,233.83,149.13z"/>
			<ellipse class="st26" cx="235.63" cy="166.32" rx="12.42" ry="15.89"/>
			<path class="st27" d="M236.47,167.05c0.3,1.46,0.81,2.87,1.49,4.2c-0.69,0.34-1.5,0.36-2.21,0.05L236.47,167.05z"/>
			<g>
				<path class="st21" d="M231,167.1c-0.04,0.58,0.23,1.07,0.61,1.09c0.38,0.02,0.71-0.42,0.75-1c0.04-0.58-0.24-1.06-0.62-1.09
					S231.03,166.53,231,167.1z"/>
				<path class="st21" d="M228.93,165.07c-0.06,0-0.11-0.02-0.17-0.05c-0.14-0.13-0.15-0.34-0.03-0.48c0.7-0.84,1.76-1.29,2.86-1.21
					c0.19,0.03,0.32,0.2,0.29,0.38c-0.03,0.19-0.2,0.32-0.38,0.29l0,0c-0.86-0.05-1.7,0.32-2.25,0.99
					C229.16,165.07,229.04,165.1,228.93,165.07z"/>
			</g>
			<g>
				<path class="st21" d="M241.37,167.1c0.04,0.58-0.23,1.07-0.61,1.09c-0.38,0.02-0.71-0.42-0.75-1c-0.04-0.58,0.24-1.06,0.62-1.09
					S241.33,166.53,241.37,167.1z"/>
				<path class="st21" d="M243.43,165.07c0.06,0,0.11-0.02,0.17-0.05c0.14-0.13,0.15-0.34,0.03-0.48c-0.7-0.84-1.76-1.29-2.86-1.21
					c-0.19,0.03-0.32,0.2-0.29,0.38c0.03,0.19,0.2,0.32,0.38,0.29l0,0c0.86-0.05,1.7,0.32,2.25,0.99
					C243.2,165.07,243.32,165.1,243.43,165.07z"/>
			</g>
			<path class="st21" d="M236.48,175.92c0.35,0,0.7-0.03,1.04-0.09c0.1-0.02,0.17-0.11,0.15-0.21c0,0,0,0,0-0.01
				c-0.02-0.1-0.11-0.16-0.21-0.15c-1.54,0.3-3.12-0.14-4.28-1.2c-0.07-0.08-0.18-0.08-0.26-0.01c-0.08,0.07-0.08,0.18-0.01,0.26
				C233.87,175.43,235.15,175.93,236.48,175.92z"/>
			<path class="st28" d="M234.47,192.61c6.85,0,12.35-2.69,14.31-3.79c-2.71-0.5-4.82-0.46-4.82-0.46s-3.17,2.06-8.55,2.06
				c-5.38,0-8.28-2.06-8.28-2.06c-1.3,0-2.48,0.08-3.57,0.21C225.12,190.12,228.55,192.61,234.47,192.61z"/>
			<path class="st26" d="M242.54,190.14l2.27-1.44c-1.11-0.14-2.38-0.69-3.22-1.32c-2.93-2.19-1.34-7.78-1.34-7.78h-8.41
				c-0.2,3.35-0.11,6.32-1.97,7.7c-1.96,1.46-3.87,1.4-3.87,1.4l2.97,1.79c-0.19,0.42,2.02,1.21,2.02,1.21l8.35,0.46l1.6-1.01
				C240.94,191.15,243.04,190.77,242.54,190.14z"/>
			<path class="st8" d="M227.12,188.36c0,0,2.9,2.06,8.28,2.06c5.38,0,8.55-2.06,8.55-2.06s16.67-0.33,16.67,12h-48.17
				C212.45,200.36,210.29,188.36,227.12,188.36z"/>
			<path class="st21" d="M222.53,163.32c0,0,0.55,5.34,2.3,5.17c1.75-0.17,0.52-8.42,3.82-9.05c3.3-0.62,5.18-1.31,5.3-3.38
				s5.25-0.62,4.56-3.25c0,0,2.5,0.88,3.94,3.94s1.83,1.5,2.89,3.62c1.05,2.12,1.97,8.42,3.68,3.82c1.7-4.59-2.62-8.45-2.62-8.45
				l-3.81-4.5l-3.56-0.81l-3.05-0.62h-4.09l-2.74,0.62l-3.91,4.19l-2.4,4.12L222.53,163.32z"/>
			<path class="st26" d="M224.63,167.12c0.94,1.82,0.76,3.91-0.41,4.67c-1.16,0.75-2.86-0.11-3.8-1.94
				c-0.94-1.82-0.76-3.91,0.41-4.67C221.99,164.43,223.7,165.3,224.63,167.12z"/>
			<path class="st26" d="M245.94,167.12c-0.94,1.82-0.76,3.91,0.41,4.67c1.16,0.75,2.86-0.11,3.8-1.94
				c0.94-1.82,0.76-3.91-0.41-4.67S246.88,165.3,245.94,167.12z"/>
			<path class="st22" d="M222.85,168.51c-0.49,0.08-0.82,0.6-0.73,1.17l0.52,3.27c0.03,0.18,0.2,0.3,0.38,0.27l0.04-0.01
				c0.18-0.03,0.3-0.2,0.27-0.38l-0.36-2.27c0.07,0.01,0.14,0.01,0.21,0c0.49-0.08,0.82-0.6,0.73-1.17S223.34,168.44,222.85,168.51z
				"/>
			<path class="st22" d="M248.32,168.51c0.49,0.08,0.82,0.6,0.73,1.17l-0.52,3.27c-0.03,0.18-0.2,0.3-0.38,0.27l-0.04-0.01
				c-0.18-0.03-0.3-0.2-0.27-0.38l0.36-2.27c-0.07,0.01-0.14,0.01-0.21,0c-0.49-0.08-0.82-0.6-0.73-1.17
				C247.35,168.83,247.82,168.44,248.32,168.51z"/>
		</g>
	</g>
	<g>
		<circle class="st8" cx="273.79" cy="137.28" r="9.01"/>
		<g>
			<path class="st22" d="M268.6,142.47L268.6,142.47c-0.29-0.29-0.29-0.77,0-1.06l9.31-9.31c0.29-0.29,0.77-0.29,1.06,0l0,0
				c0.29,0.29,0.29,0.77,0,1.06l-9.31,9.31C269.37,142.76,268.9,142.76,268.6,142.47z"/>
		</g>
		<g>
			<path class="st22" d="M276.76,142.65h-2.63v-1.96c1.57-0.17,2.8-1.51,2.8-3.12v-1.06c0-0.09-0.08-0.17-0.17-0.17h-0.43
				c-0.09,0-0.17,0.08-0.17,0.17c0,0.09,0.08,0.17,0.17,0.17h0.26v0.89c0,1.54-1.26,2.8-2.8,2.8s-2.8-1.26-2.8-2.8v-0.89h0.26
				c0.09,0,0.17-0.08,0.17-0.17c0-0.09-0.08-0.17-0.17-0.17h-0.43c-0.09,0-0.17,0.08-0.17,0.17v1.06c0,1.62,1.23,2.95,2.8,3.12v1.96
				h-2.63c-0.19,0-0.34,0.15-0.34,0.34v0.34h6.62V143C277.1,142.81,276.95,142.65,276.76,142.65z"/>
			<path class="st22" d="M271.68,137.57c0,1.17,0.95,2.12,2.12,2.12c1.17,0,2.12-0.95,2.12-2.12c0,0,0-3.78,0-4.23
				c0-1.17-0.95-2.12-2.12-2.12c-1.17,0-2.12,0.95-2.12,2.12C271.68,133.85,271.68,137.57,271.68,137.57z"/>
		</g>
	</g>
</g>
<g id="Video">
	<g>
		<path class="st8" d="M180.39,245.75H81.35c-2.9,0-5.24-2.35-5.24-5.24v-73.95c0-2.9,2.35-5.24,5.24-5.24h99.03
			c2.9,0,5.24,2.35,5.24,5.24v73.95C185.63,243.41,183.28,245.75,180.39,245.75z"/>
		<g>
			<path class="st10" d="M124.22,168.42c0,0-5.08-1.55-6.21,9.35c-1.12,10.9-8.94,14.53-0.66,18.53c8.28,4,16.28-0.38,19.53,0
				c3.25,0.38,9.12-1.75,8.75-7.12s-9.94-21.04-9.94-21.04L124.22,168.42z"/>
			<g>
				<path class="st10" d="M165.63,216.4c-1.79,5.98-6.93,21.9-10.85,21.35c-4.83-0.67-8.17-18-8.17-18l1.33-21
					c0,0,5.33,0,7.67,26.83l5.64-12.14L165.63,216.4z"/>
				<path class="st29" d="M161.73,213.63l2.03-4.36l3.14-2.57l1.71-1.83c0.89-0.95,2.29-1.23,3.47-0.68l1.01,0.47
					c1.19,0.56,1.88,1.83,1.7,3.13l-0.53,3.8l-8.5,2.75c0,0-0.23,0.85-0.65,2.23L161.73,213.63z"/>
				<g>
					<polygon class="st10" points="160.93,212.1 166.89,216.18 166.43,218.44 159.84,213.76 					"/>
					<polygon class="st15" points="160.93,212.1 166.89,216.18 166.43,218.44 159.84,213.76 					"/>
				</g>
			</g>
			<g>
				<path class="st10" d="M115.52,245.75c0,0-0.92-23.83-8.08-45c0,0,18.33-5,40.5-2c0,0,3.33,15.17-0.67,47H115.52z"/>
				<path class="st15" d="M115.52,245.75c0,0-0.92-23.83-8.08-45c0,0,18.33-5,40.5-2c0,0,3.33,15.17-0.67,47H115.52z"/>
			</g>
			<g>
				<path class="st29" d="M120.58,232.43c1.21-0.46,1.92-0.75,1.92-0.75l5.38-2.5l3.97-3.8c1.06-1.01,0.94-2.74-0.25-3.6l-2.5-1.8
					c-1.08-0.78-2.58-0.51-3.32,0.59l-4.52,6.73c0,0-1.03,0.29-2.62,0.69L120.58,232.43z"/>
				<path class="st10" d="M120.68,233.05c-5.86,2.21-23.42,8.26-28.7,3.5c-6.38-5.75,15.46-35.79,15.46-35.79
					c5.83,6.58,3.73,13.39,3.73,13.39s-11.23,11.83-10.18,14.78c0.92,2.61,12.47,0.02,17.75-1.31L120.68,233.05z"/>
				<g>
					<polygon class="st10" points="119.44,226.89 121.94,233.22 119.94,234.39 117.36,226.89 					"/>
					<polygon class="st15" points="119.44,226.89 121.94,233.22 119.94,234.39 117.36,226.89 					"/>
				</g>
			</g>
			<path class="st29" d="M134.67,197.81c-0.63-0.01-1.24,0-1.86,0.01c-0.37-1.7-0.02-4.04,0.51-5.65l-7.3-7.45
				c0.37,3.4,0.53,9.84-1.06,13.38c-0.98,0.07-1.92,0.15-2.84,0.24c0.46,1.35,2.23,4.75,8.28,4.75
				C136.51,203.09,135.34,199.26,134.67,197.81z"/>
			<path class="st19" d="M127.39,187.45l-0.84,2.24c0,0,1.98,4.17,6.15,5.68c0.08-1.14,0.32-2.29,0.63-3.21l-4.84-4.94
				L127.39,187.45z"/>
			<path class="st29" d="M122.3,179.15c1.77,6.75,2.36,9.64,6.5,12.47c6.23,4.25,14.13,0.61,14.42-6.53
				c0.26-6.43-2.66-16.38-9.88-17.78c-5.15-1.03-10.16,2.31-11.19,7.46C121.86,176.22,121.91,177.72,122.3,179.15z"/>
			<path class="st29" d="M121.75,184.86c0.63,1.19,1.71,2.09,2.99,2.49c1.71,0.51,2.6-1.01,2.16-2.64c-0.4-1.47-1.77-3.51-3.51-3.31
				c-1.26,0.18-2.13,1.35-1.95,2.61C121.49,184.31,121.6,184.6,121.75,184.86z"/>
			<path class="st20" d="M137.84,179.06c0.74,1.17,1.65,2.24,2.68,3.16c-0.49,0.53-1.19,0.81-1.9,0.77L137.84,179.06z"/>
			<path class="st21" d="M131.83,176.53c-0.05,0-0.1-0.02-0.14-0.04c-0.13-0.08-0.17-0.25-0.1-0.38c0,0,0,0,0,0
				c0.52-0.92,1.45-1.52,2.5-1.62c0.15,0,0.28,0.12,0.28,0.27c0,0.15-0.11,0.28-0.26,0.28c-0.86,0.1-1.63,0.6-2.06,1.36
				C132.02,176.49,131.93,176.54,131.83,176.53z"/>
			<path class="st21" d="M138.45,173.65c-0.03-0.03-0.06-0.08-0.08-0.12c-0.04-0.15,0.04-0.3,0.19-0.34c0,0,0,0,0.01,0
				c1-0.32,2.1-0.13,2.94,0.51c0.11,0.1,0.12,0.27,0.03,0.39c-0.1,0.11-0.27,0.13-0.38,0.03c-0.7-0.52-1.6-0.67-2.43-0.4
				C138.62,173.74,138.52,173.72,138.45,173.65z"/>
			<g>
				<path class="st21" d="M133.73,178.91c0.11,0.55,0.49,0.94,0.86,0.88c0.37-0.07,0.57-0.58,0.45-1.14
					c-0.12-0.56-0.49-0.94-0.85-0.88C133.83,177.85,133.62,178.35,133.73,178.91z"/>
				<path class="st21" d="M140.02,177.68c0.11,0.55,0.49,0.94,0.85,0.88c0.36-0.07,0.57-0.58,0.46-1.14
					c-0.11-0.56-0.49-0.94-0.85-0.88C140.12,176.61,139.9,177.12,140.02,177.68z"/>
				<path class="st21" d="M140.32,176.6l1.26-0.64C141.58,175.96,141.1,177.13,140.32,176.6z"/>
				<path class="st21" d="M134.04,177.84l1.26-0.64C135.29,177.2,134.81,178.37,134.04,177.84z"/>
			</g>
			<path class="st21" d="M139.22,184.77c0,0-1.25-0.15-4.66,0.14c0.5,0.89,1.34,1.58,3.09,1.42
				C139.4,186.17,139.22,184.77,139.22,184.77z"/>
			<path class="st23" d="M136.76,185.67c0.67-0.1,1.35,0,1.96,0.28c-0.31,0.22-0.68,0.35-1.06,0.37c-0.66,0.1-1.34,0-1.95-0.28
				C136.01,185.82,136.38,185.69,136.76,185.67z"/>
			<path class="st22" d="M139.06,184.76c-0.05,0.25-0.23,0.44-0.48,0.5c-1.01,0.09-2.03,0.09-3.04,0.03
				c-0.32,0.01-0.63-0.13-0.82-0.39C136.16,184.75,137.61,184.7,139.06,184.76z"/>
			<path class="st10" d="M124.22,184.42c0,0,2.98-2.52,2.33-7.89s6.14-0.36,7.49-4.86s7.23,4.62,10.1-0.88s-10.26-6.83-11.57-5.25
				C131.25,167.13,113.3,164.55,124.22,184.42z"/>
		</g>
		<g>
			<path class="st22" d="M176.79,238.33H84.95c-1.32,0-2.38-1.07-2.38-2.38v-4.52c0-1.32,1.07-2.38,2.38-2.38h91.85
				c1.32,0,2.38,1.07,2.38,2.38v4.52C179.18,237.26,178.11,238.33,176.79,238.33z"/>
			<g>
				<polygon class="st10" points="94.66,236.01 94.66,231.37 97.56,233.69 				"/>
				<g>
					<g>
						<polygon class="st10" points="102.23,235.05 103.5,233.71 102.23,232.36 						"/>
						<polygon class="st10" points="103.5,232.41 103.5,233.71 103.5,235.01 104.07,235.01 104.07,232.41 						"/>
					</g>
					<g>
						<polygon class="st10" points="89.98,232.36 88.72,233.71 89.98,235.05 						"/>
						<polygon class="st10" points="88.72,235.01 88.72,233.71 88.72,232.41 88.14,232.41 88.14,235.01 						"/>
					</g>
				</g>
			</g>
			<rect x="112.92" y="233.03" class="st10" width="61.77" height="1.36"/>
			<rect x="139.98" y="230.64" class="st8" width="2.2" height="6.08"/>
		</g>
	</g>
</g>
<g id="Wifi_Icon">
	<g>
		<g>
			
				<ellipse transform="matrix(0.2298 -0.9732 0.9732 0.2298 89.5414 421.4428)" class="st8" cx="311.03" cy="154.15" rx="23.41" ry="23.41"/>
			
				<ellipse transform="matrix(0.2298 -0.9732 0.9732 0.2298 89.5414 421.4428)" class="st25" cx="311.03" cy="154.15" rx="23.41" ry="23.41"/>
		</g>
		<g class="st30">
			<g>
				<path class="st8" d="M306.3,162.1c2.77-2.55,6.68-2.56,9.46,0c1.28,1.18,3.19-0.73,1.91-1.91c-3.87-3.57-9.41-3.57-13.27,0
					C303.11,161.37,305.02,163.27,306.3,162.1L306.3,162.1z"/>
			</g>
			<g>
				<path class="st8" d="M310.11,165.91c0.54-0.5,1.29-0.5,1.83,0c1.28,1.18,3.19-0.73,1.91-1.91c-1.64-1.52-4.01-1.52-5.65,0
					C306.92,165.18,308.84,167.09,310.11,165.91L310.11,165.91z"/>
			</g>
			<g>
				<path class="st8" d="M301.28,157.08c5.7-5.26,13.78-5.27,19.49,0c1.28,1.18,3.19-0.73,1.91-1.91c-6.79-6.27-16.52-6.26-23.31,0
					C298.09,156.35,300.01,158.26,301.28,157.08L301.28,157.08z"/>
			</g>
			<g>
				<path class="st8" d="M296.71,152.5c8.21-7.74,20.43-7.74,28.65,0c1.26,1.19,3.18-0.71,1.91-1.91c-9.3-8.76-23.17-8.76-32.46,0
					C293.53,151.79,295.44,153.69,296.71,152.5L296.71,152.5z"/>
			</g>
		</g>
	</g>
</g>
<g id="Webcam_Icon">
	<g>
		<g>
			<circle class="st8" cx="124.6" cy="277.27" r="24.08"/>
			<circle class="st25" cx="124.6" cy="277.27" r="24.08"/>
		</g>
		<polygon class="st8" points="119.36,269.61 119.36,275.82 111.88,270.35 111.88,284.19 119.36,278.72 119.36,284.93 
			137.31,284.93 137.31,269.61 		"/>
	</g>
</g>
<g id="Mic_Icon">
	<g>
		<g>
			
				<ellipse transform="matrix(0.2298 -0.9732 0.9732 0.2298 121.659 519.85)" class="st8" cx="389.26" cy="183.06" rx="20.84" ry="20.84"/>
			
				<ellipse transform="matrix(0.2298 -0.9732 0.9732 0.2298 121.659 519.85)" class="st25" cx="389.26" cy="183.06" rx="20.84" ry="20.84"/>
		</g>
		<g>
			<path class="st8" d="M395.32,194.03h-5.36v-4.01c3.21-0.35,5.71-3.07,5.71-6.37v-2.16c0-0.19-0.16-0.35-0.35-0.35h-0.87
				c-0.19,0-0.35,0.16-0.35,0.35c0,0.19,0.16,0.35,0.35,0.35h0.52v1.81c0,3.15-2.56,5.71-5.71,5.71c-3.15,0-5.71-2.56-5.71-5.71
				v-1.81h0.52c0.19,0,0.35-0.16,0.35-0.35c0-0.19-0.16-0.35-0.35-0.35h-0.87c-0.19,0-0.35,0.16-0.35,0.35v2.16
				c0,3.3,2.51,6.02,5.71,6.37v4.01h-5.36c-0.39,0-0.7,0.31-0.7,0.7v0.7h13.52v-0.7C396.02,194.34,395.71,194.03,395.32,194.03z"/>
			<path class="st8" d="M389.26,187.97c2.38,0,4.32-1.93,4.32-4.32h-8.64C384.94,186.04,386.87,187.97,389.26,187.97z"/>
			<path class="st8" d="M393.58,175.02c0-2.38-1.93-4.32-4.32-4.32c-2.38,0-4.32,1.93-4.32,4.32c0,1.04,0,5.79,0,7.86h8.64
				C393.58,180.82,393.58,175.94,393.58,175.02z"/>
		</g>
	</g>
</g>
</svg>
