<?xml version="1.0" encoding="utf-8"?>
<!-- Generator: Adobe Illustrator 25.2.1, SVG Export Plug-In . SVG Version: 6.00 Build 0)  -->
<svg version="1.1" xmlns="http://www.w3.org/2000/svg" xmlns:xlink="http://www.w3.org/1999/xlink" x="0px" y="0px"
	 viewBox="0 0 500 500" style="enable-background:new 0 0 500 500;" xml:space="preserve">
<style type="text/css">
	.st0{fill:#F5F5F5;}
	.st1{fill:#E0E0E0;}
	.st2{fill:#EBEBEB;}
	.st3{fill:#FFFFFF;}
	.st4{display:none;}
	.st5{display:inline;fill:#F5F5F5;}
	.st6{fill:#263238;}
	.st7{fill:#5E99FF;}
	.st8{opacity:0.3;}
	.st9{fill:#FFAC91;}
	.st10{fill:#6F4439;}
	.st11{opacity:0.4;}
	.st12{opacity:0.3;fill:#5E99FF;}
</style>
<g id="Background_Complete">
	<g>
		<g>
			<g>
				<g>
					<g>
						
							<ellipse transform="matrix(0.0278 -0.9996 0.9996 0.0278 184.5986 308.7157)" class="st0" cx="251" cy="59.46" rx="27.68" ry="27.68"/>
					</g>
				</g>
			</g>
			<g>
				<g>
					<g>
						<path class="st1" d="M261.16,57.69c-0.6,1.93,0.1,3.85,1.56,4.31c1.46,0.45,3.13-0.74,3.73-2.66c0.6-1.93-0.1-3.85-1.56-4.31
							C263.43,54.57,261.76,55.76,261.16,57.69z"/>
					</g>
				</g>
			</g>
			<g>
				<g>
					<g>
						<path class="st1" d="M239.19,50.85c-0.6,1.93,0.1,3.85,1.56,4.31c1.46,0.45,3.13-0.74,3.73-2.66c0.6-1.93-0.1-3.85-1.56-4.31
							C241.46,47.73,239.79,48.93,239.19,50.85z"/>
					</g>
				</g>
			</g>
		</g>
		<g>
			<g>
				<g>
					<path class="st1" d="M242.73,62.53c1.67-3.2,5.57-5.08,9.11-4.19c3.53,0.89,6.15,4.32,6.1,7.95c-0.01,1.09-1.79,1.19-1.69,0.1
						c0.24-2.66-1.56-5.31-4.76-6.4c-2.75-0.94-5.92,0.75-7.25,3.31C243.73,64.28,242.22,63.5,242.73,62.53L242.73,62.53z"/>
				</g>
			</g>
		</g>
	</g>
	<g>
		<g>
			<g>
				<g>
					<g>
						<g>
							<g>
								<g>
									<g>
										<g>
											
												<rect x="403.31" y="252.45" transform="matrix(0.38 -0.925 0.925 0.38 2.143 575.1721)" class="st0" width="53.62" height="67.07"/>
										</g>
									</g>
								</g>
							</g>
						</g>
					</g>
					<g>
						<g>
							<g>
								<g>
									<g>
										<g>
											<g>
												<path class="st1" d="M471.32,273.93c0,0-0.11-0.04-0.3-0.11c-0.21-0.08-0.5-0.2-0.87-0.35
													c-0.78-0.31-1.91-0.77-3.38-1.37c-2.95-1.2-7.26-2.95-12.72-5.17c-10.9-4.46-26.4-10.79-44.83-18.32l0.23-0.09
													c-6.06,14.76-13,31.69-20.35,49.6l0,0.01l-0.11-0.25c22.96,9.45,44.3,18.22,62.02,25.52l-0.21,0.09
													c6.17-14.92,11.28-27.29,14.85-35.94c1.8-4.32,3.2-7.71,4.17-10.04c0.48-1.15,0.85-2.04,1.11-2.65
													C471.18,274.25,471.32,273.93,471.32,273.93s-0.11,0.3-0.35,0.89c-0.24,0.6-0.6,1.48-1.06,2.63
													c-0.94,2.32-2.32,5.71-4.08,10.04c-3.55,8.69-8.62,21.11-14.74,36.1l-0.06,0.15l-0.15-0.06
													c-17.73-7.27-39.08-16.03-62.05-25.45l-0.18-0.07l0.07-0.18l0-0.01c7.36-17.9,14.32-34.82,20.39-49.58l0.07-0.16
													l0.16,0.07c18.44,7.61,33.95,14.02,44.87,18.53c5.43,2.25,9.71,4.03,12.65,5.25c1.45,0.61,2.57,1.07,3.33,1.39
													c0.37,0.16,0.65,0.27,0.85,0.36C471.23,273.89,471.32,273.93,471.32,273.93z"/>
											</g>
										</g>
									</g>
								</g>
							</g>
						</g>
					</g>
				</g>
			</g>
		</g>
		<g>
			<g>
				<g>
					<g>
						<g>
							<g>
								
									<rect x="406.64" y="254.79" transform="matrix(0.38 -0.925 0.925 0.38 2.1326 575.1234)" class="st2" width="46.87" height="62.36"/>
							</g>
						</g>
					</g>
				</g>
			</g>
		</g>
		<g>
			<g>
				<g>
					<g>
						<g>
							<g>
								<polygon class="st1" points="392.33,295.8 423.55,277.13 429.1,299.11 441.27,293.58 450.01,319.49 								"/>
							</g>
						</g>
					</g>
				</g>
			</g>
		</g>
		<g>
			<g>
				<g>
					<g>
						<g>
							<g>
								<g>
									<g>
										<path class="st1" d="M442.68,281.13c-1.03,2.51-3.9,3.71-6.41,2.68c-2.51-1.03-3.71-3.9-2.68-6.41
											c1.03-2.51,3.9-3.71,6.41-2.68C442.51,275.75,443.71,278.62,442.68,281.13z"/>
									</g>
								</g>
							</g>
						</g>
					</g>
				</g>
			</g>
		</g>
	</g>
	<g>
		<g>
			<g>
				<g>
					<g>
						<g>
							<g>
								<g>
									<g>
										<g>
											
												<rect x="33.37" y="133.61" transform="matrix(0.9664 -0.2571 0.2571 0.9664 -40.9365 25.8022)" class="st0" width="89.66" height="71.68"/>
										</g>
									</g>
								</g>
							</g>
						</g>
					</g>
					<g>
						<g>
							<g>
								<g>
									<g>
										<g>
											<g>
												<path class="st1" d="M112.31,123.29c0,0-0.14,0.05-0.42,0.12c-0.29,0.08-0.69,0.19-1.21,0.34
													c-1.08,0.29-2.65,0.72-4.7,1.28c-4.12,1.11-10.12,2.73-17.72,4.78c-15.21,4.08-36.83,9.87-62.54,16.76l0.17-0.28
													c5.49,20.62,11.79,44.25,18.45,69.26l0,0.01l-0.32-0.18c32.08-8.52,61.9-16.43,86.66-23.01l-0.15,0.26
													c-5.5-20.87-10.07-38.17-13.26-50.27c-1.59-6.05-2.83-10.8-3.68-14.06c-0.42-1.62-0.74-2.86-0.96-3.71
													C112.42,123.74,112.31,123.29,112.31,123.29s0.13,0.41,0.35,1.23c0.23,0.84,0.56,2.06,1,3.66
													c0.87,3.24,2.15,7.96,3.78,13.98c3.25,12.12,7.9,29.44,13.51,50.34l0.06,0.21l-0.21,0.06
													c-24.76,6.6-54.56,14.54-86.64,23.09l-0.25,0.07l-0.07-0.25l0-0.01c-6.64-25.01-12.92-48.65-18.4-69.27l-0.06-0.23
													l0.22-0.06c25.79-6.81,47.48-12.54,62.74-16.57c7.6-1.99,13.59-3.57,17.7-4.65c2.03-0.53,3.6-0.94,4.67-1.21
													c0.52-0.13,0.91-0.23,1.19-0.3C112.18,123.31,112.31,123.29,112.31,123.29z"/>
											</g>
										</g>
									</g>
								</g>
							</g>
						</g>
					</g>
				</g>
			</g>
		</g>
		<g>
			<g>
				<g>
					<g>
						<g>
							<g>
								
									<rect x="36.47" y="138.14" transform="matrix(0.9664 -0.2571 0.2571 0.9664 -40.942 25.788)" class="st2" width="83.36" height="62.66"/>
							</g>
						</g>
					</g>
				</g>
			</g>
		</g>
		<g>
			<g>
				<g>
					<g>
						<g>
							<g>
								<polygon class="st1" points="45.92,210.46 64.05,165.33 87.74,184.24 96.21,168.51 126.48,189.02 								"/>
							</g>
						</g>
					</g>
				</g>
			</g>
		</g>
		<g>
			<g>
				<g>
					<g>
						<g>
							<g>
								<g>
									<g>
										<path class="st1" d="M87.65,154.12c0.93,3.5-1.15,7.1-4.66,8.03c-3.5,0.93-7.1-1.15-8.03-4.66
											c-0.93-3.5,1.15-7.1,4.66-8.03C83.12,148.53,86.72,150.61,87.65,154.12z"/>
									</g>
								</g>
							</g>
						</g>
					</g>
				</g>
			</g>
		</g>
	</g>
	<g>
		
			<ellipse transform="matrix(0.1439 -0.9896 0.9896 0.1439 271.3646 501.3031)" class="st1" cx="425.42" cy="93.81" rx="26.5" ry="26.5"/>
		<g>
			<g>
				<g>
					<g>
						<path class="st3" d="M437.05,86.58c-2.76-3.88-6.6-4.08-9.02-2.84c-2.63,1.35-3.73,4.34-3.73,4.34s-1.76-2.65-4.63-3.36
							c-2.64-0.65-6.33,0.44-8.11,4.85c-3.72,9.22,15.09,18.43,15.09,18.43S442.81,94.68,437.05,86.58z"/>
					</g>
				</g>
			</g>
		</g>
	</g>
	<g>
		<g>
			<g>
				<g>
					<g>
						<path class="st0" d="M29.92,354.67c5.79,7.8,16.81,9.43,24.61,3.64c7.8-5.79,9.43-16.81,3.64-24.61
							c-5.79-7.8-16.81-9.43-24.61-3.64C25.76,335.85,24.13,346.87,29.92,354.67z"/>
					</g>
				</g>
			</g>
			<g>
				<g>
					<g>
						<path class="st1" d="M46.94,338.31c0.76,1.03,2.02,1.39,2.79,0.82c0.78-0.58,0.79-1.88,0.03-2.91
							c-0.76-1.03-2.02-1.39-2.79-0.82C46.19,335.98,46.18,337.28,46.94,338.31z"/>
					</g>
				</g>
			</g>
			<g>
				<g>
					<g>
						<path class="st1" d="M35.2,347.02c0.76,1.03,2.02,1.39,2.79,0.82s0.79-1.88,0.03-2.91c-0.76-1.03-2.02-1.39-2.79-0.82
							C34.45,344.69,34.44,345.99,35.2,347.02z"/>
					</g>
				</g>
			</g>
		</g>
		<g>
			<g>
				<g>
					<path class="st1" d="M48.28,341.01c0.91,2.11,0.27,4.78-1.59,6.17c-1.85,1.38-4.6,1.3-6.37-0.18c-0.53-0.44,0.1-1.32,0.63-0.88
						c1.4,1.17,3.57,1.33,5.06,0.22c1.48-1.1,2-3.22,1.28-4.9C47.01,340.8,48,340.37,48.28,341.01L48.28,341.01z"/>
				</g>
			</g>
		</g>
	</g>
	<g>
		<g>
			<g>
				<g>
					<g>
						
							<ellipse transform="matrix(0.6186 -0.7857 0.7857 0.6186 -137.9684 479.7672)" class="st0" cx="425.16" cy="381.99" rx="27.68" ry="27.68"/>
					</g>
				</g>
			</g>
			<g>
				<g>
					<g>
						<path class="st1" d="M435.35,383.54c-1.18,1.63-1.13,3.68,0.1,4.58s3.2,0.29,4.38-1.34c1.18-1.63,1.13-3.68-0.1-4.58
							C438.49,381.31,436.53,381.91,435.35,383.54z"/>
					</g>
				</g>
			</g>
			<g>
				<g>
					<g>
						<path class="st1" d="M416.71,370.07c-1.18,1.63-1.13,3.68,0.1,4.58c1.24,0.89,3.2,0.29,4.38-1.34
							c1.18-1.63,1.13-3.68-0.1-4.58C419.85,367.83,417.89,368.43,416.71,370.07z"/>
					</g>
				</g>
			</g>
		</g>
		<g>
			<g>
				<g>
					<path class="st1" d="M416.34,382.26c2.6-2.51,6.9-3.04,9.97-1.07c3.06,1.96,4.45,6.06,3.25,9.48
						c-0.36,1.03-2.08,0.56-1.64-0.44c1.08-2.45,0.21-5.53-2.48-7.58c-2.31-1.76-5.85-1.17-7.93,0.83
						C416.73,384.24,415.55,383.02,416.34,382.26L416.34,382.26z"/>
				</g>
			</g>
		</g>
	</g>
	<g>
		<g>
			<g>
				<g>
					<g>
						<g>
							<path class="st3" d="M164.97,46.2H94.42c-6.15,0-11.14,4.99-11.14,11.14V83.8c0,6.15,4.99,11.14,11.14,11.14h40.73
								c1.84,3.99,5.3,7.2,9.21,9.31c3.2,1.73,6.67,2.82,10.22,3.64c1.39,0.32,2.44-1.26,1.56-2.39c-2.37-3.08-3.99-6.74-4.74-10.56
								h13.56c6.15,0,11.14-4.99,11.14-11.14V57.34C176.11,51.19,171.12,46.2,164.97,46.2z"/>
						</g>
					</g>
					<g>
						<g>
							<g>
								<path class="st1" d="M164.97,46.2c0,0,0.12,0,0.35,0.01c0.23,0.02,0.58,0,1.03,0.07c0.91,0.1,2.26,0.38,3.85,1.19
									c1.56,0.82,3.33,2.25,4.6,4.51c0.61,1.13,1.08,2.45,1.28,3.92c0.1,0.73,0.11,1.5,0.11,2.27c0,0.78,0,1.58,0,2.4
									c0,6.58,0.05,14.55,0.01,23.69c-0.02,1.15-0.26,2.32-0.67,3.43c-0.41,1.11-0.98,2.2-1.76,3.14c-1.53,1.9-3.73,3.4-6.27,3.95
									c-1.26,0.3-2.59,0.31-3.89,0.3c-1.31,0-2.64,0-3.98,0c-2.68,0-5.42,0-8.22,0.01l0.14-0.17c0.57,2.95,1.69,5.88,3.37,8.56
									c0.42,0.67,0.87,1.32,1.36,1.96c0.26,0.35,0.39,0.81,0.32,1.25c-0.08,0.44-0.32,0.84-0.69,1.1
									c-0.36,0.27-0.84,0.36-1.27,0.28c-0.41-0.08-0.8-0.19-1.2-0.28c-0.8-0.2-1.59-0.42-2.39-0.65
									c-3.18-0.95-6.36-2.26-9.19-4.24c-2.82-1.98-5.32-4.62-6.83-7.87l0.14,0.09c-9.38,0-19.1,0-29.05,0c-2.48,0-4.95,0-7.39,0
									c-1.22,0-2.45,0-3.66,0c-0.6,0.01-1.22-0.03-1.84-0.07l-0.91-0.14c-0.3-0.05-0.6-0.14-0.89-0.21
									c-1.18-0.33-2.3-0.84-3.31-1.52c-1-0.69-1.89-1.53-2.62-2.49c-0.74-0.95-1.32-2.02-1.71-3.15c-0.38-1.13-0.62-2.31-0.63-3.5
									c0-9.36,0.01-18.38,0.01-26.98c0-1.09,0.24-2.16,0.54-3.19c0.33-1.02,0.83-1.98,1.41-2.87c0.61-0.87,1.32-1.65,2.12-2.33
									c0.82-0.65,1.69-1.22,2.64-1.63c0.95-0.4,1.93-0.72,2.94-0.84c1.01-0.16,2.02-0.13,3-0.13c1.97,0,3.92,0,5.83,0
									c7.64,0.01,14.76,0.01,21.26,0.02c13,0.02,23.51,0.04,30.79,0.05c3.63,0.01,6.45,0.02,8.37,0.03
									c0.95,0.01,1.68,0.01,2.18,0.02C164.72,46.19,164.97,46.2,164.97,46.2s-0.25,0.01-0.74,0.02c-0.5,0-1.22,0.01-2.18,0.02
									c-1.92,0.01-4.74,0.02-8.37,0.03c-7.28,0.01-17.79,0.03-30.79,0.05c-6.5,0.01-13.62,0.01-21.26,0.02c-1.91,0-3.85,0-5.83,0
									c-0.99,0-1.98-0.03-2.96,0.13c-0.99,0.12-1.94,0.43-2.87,0.82c-0.92,0.4-1.78,0.96-2.57,1.59
									c-0.77,0.66-1.47,1.42-2.06,2.27c-0.56,0.87-1.05,1.8-1.37,2.79c-0.3,1-0.52,2.04-0.52,3.11c0,8.59,0,17.61,0.01,26.96
									c0,1.16,0.24,2.3,0.61,3.4c0.37,1.1,0.94,2.14,1.66,3.07c0.72,0.93,1.58,1.75,2.55,2.42c0.99,0.65,2.07,1.15,3.22,1.47
									c0.29,0.07,0.57,0.16,0.87,0.21l0.89,0.14c0.6,0.04,1.19,0.08,1.8,0.06c1.22,0,2.44,0,3.66,0c2.45,0,4.91,0,7.39,0
									c9.95,0,19.67,0,29.05,0h0.1l0.04,0.09c1.48,3.19,3.94,5.79,6.72,7.75c2.8,1.96,5.95,3.26,9.11,4.21
									c0.79,0.24,1.58,0.45,2.38,0.65c0.39,0.1,0.8,0.2,1.18,0.28c0.36,0.07,0.75,0,1.05-0.23c0.3-0.21,0.51-0.55,0.57-0.91
									c0.06-0.36-0.04-0.73-0.26-1.03c-0.49-0.64-0.95-1.3-1.37-1.98c-1.69-2.71-2.82-5.68-3.39-8.66l-0.03-0.17l0.17,0
									c2.8,0,5.54,0,8.22,0.01c1.34,0,2.67,0,3.98,0c1.31,0.01,2.6,0.01,3.83-0.29c2.48-0.54,4.63-2,6.14-3.85
									c0.76-0.93,1.32-1.99,1.73-3.07c0.4-1.09,0.64-2.23,0.67-3.36c0.02-9.13,0.04-17.1,0.05-23.68
									c-0.02-1.64,0.07-3.21-0.09-4.65c-0.18-1.45-0.64-2.76-1.24-3.88c-1.24-2.24-2.99-3.67-4.53-4.49
									c-1.56-0.81-2.91-1.11-3.81-1.22c-0.45-0.08-0.8-0.06-1.03-0.09C165.09,46.21,164.97,46.2,164.97,46.2z"/>
							</g>
						</g>
					</g>
				</g>
			</g>
		</g>
		<g>
			<g>
				<path class="st1" d="M105.84,69.52c0,3.62-2.93,6.55-6.55,6.55c-3.62,0-6.55-2.93-6.55-6.55s2.93-6.55,6.55-6.55
					C102.9,62.96,105.84,65.9,105.84,69.52z"/>
			</g>
		</g>
		<g>
			<g>
				<rect x="110.39" y="63.01" class="st1" width="51.84" height="3.05"/>
			</g>
		</g>
		<g>
			<g>
				<rect x="110.39" y="70.29" class="st1" width="51.84" height="3.05"/>
			</g>
		</g>
		<g>
			<g>
				<rect x="110.39" y="77.58" class="st1" width="20.92" height="3.05"/>
			</g>
		</g>
	</g>
</g>
<g id="Background_Simple" class="st4">
	<path class="st5" d="M152.2,33.29l1.73,1.05c14.58,8.85,23.36,24.84,22.3,41.7c-0.14,2.17-0.43,4.33-0.89,6.46
		c-3.28,15.33-14.88,28.67-29.72,34.2c-8.73,3.25-18.79,4.16-25.72,10.33c-9.02,8.03-9.3,21.67-8.93,33.66
		c0.37,11.99,0.06,25.63-9,33.63c-5.67,5.01-13.74,6.6-21.33,6.19c-20.11-1.07-38.09-15.08-47.03-32.9s-9.74-38.8-5.81-58.31
		c5.51-27.32,20.63-53.31,44-68.93C95.16,24.74,126.99,20.79,152.2,33.29z"/>
	<path class="st5" d="M431.46,410.2l-1.39,0.02c-11.72,0.15-22.67-5.99-28.19-16.21c-0.71-1.31-1.32-2.68-1.83-4.09
		c-3.67-10.14-1.76-22.14,4.89-30.77c3.91-5.08,9.45-9.27,11.24-15.39c2.34-7.97-2.46-16.03-7.04-22.88
		c-4.58-6.86-9.36-14.93-6.99-22.89c1.49-4.98,5.61-8.85,10.19-11.38c12.12-6.7,27.71-5.07,39.41,2.08
		c11.7,7.14,19.8,19.09,24.61,31.9c6.73,17.94,7.37,38.61-0.58,56.22C467.84,394.42,450.71,408.31,431.46,410.2z"/>
	
		<ellipse transform="matrix(0.2326 -0.9726 0.9726 0.2326 251.4 468.952)" class="st5" cx="422.87" cy="75.17" rx="28.81" ry="28.81"/>
</g>
<g id="Table">
</g>
<g id="Social_Media_elements_1">
	<g>
		<g>
			<g>
				<g>
					<g>
						<g>
							<g>
								<g>
									<g>
										<g>
											
												<rect x="140.62" y="217.51" transform="matrix(0.9927 -0.1203 0.1203 0.9927 -27.7892 22.2515)" class="st2" width="59.68" height="47.71"/>
										</g>
									</g>
								</g>
							</g>
						</g>
					</g>
					<g>
						<g>
							<g>
								<g>
									<g>
										<g>
											<g>
												<path class="st6" d="M197.21,214.09c0,0-0.1,0.02-0.29,0.04c-0.2,0.03-0.47,0.06-0.83,0.11
													c-0.74,0.09-1.82,0.23-3.22,0.41c-2.82,0.35-6.92,0.86-12.12,1.51c-10.4,1.28-25.19,3.1-42.77,5.26l0.14-0.17
													c1.71,14.1,3.68,30.26,5.76,47.36l0,0l-0.19-0.15c21.93-2.65,42.32-5.11,59.25-7.15l-0.13,0.16
													c-1.7-14.27-3.1-26.09-4.09-34.36c-0.48-4.14-0.87-7.38-1.13-9.61c-0.13-1.1-0.22-1.95-0.29-2.53
													C197.24,214.4,197.21,214.09,197.21,214.09s0.04,0.28,0.12,0.85c0.07,0.58,0.18,1.41,0.32,2.5
													c0.28,2.21,0.68,5.45,1.2,9.56c1.02,8.29,2.48,20.14,4.25,34.43l0.02,0.14l-0.14,0.02
													c-16.93,2.06-37.31,4.54-59.24,7.21l-0.17,0.02l-0.02-0.17l0-0.01c-2.07-17.1-4.02-33.26-5.72-47.36l-0.02-0.15
													l0.15-0.02c17.63-2.1,32.45-3.87,42.89-5.12c5.19-0.61,9.29-1.09,12.1-1.42c1.39-0.16,2.46-0.28,3.19-0.37
													c0.35-0.04,0.62-0.07,0.82-0.09C197.13,214.09,197.21,214.09,197.21,214.09z"/>
											</g>
										</g>
									</g>
								</g>
							</g>
						</g>
					</g>
				</g>
			</g>
		</g>
		<g>
			<g>
				<g>
					<g>
						<g>
							<g>
								
									<rect x="142.68" y="220.51" transform="matrix(0.9927 -0.1203 0.1203 0.9927 -27.7899 22.2468)" class="st7" width="55.49" height="41.7"/>
							</g>
						</g>
					</g>
				</g>
			</g>
		</g>
		<g>
			<g>
				<g>
					<g>
						<g>
							<g>
								<polygon class="st7" points="145.39,265.4 161.51,237.34 175.38,251.99 182.42,242.41 200.47,258.73 								"/>
							</g>
						</g>
					</g>
				</g>
			</g>
		</g>
		<g>
			<g>
				<g>
					<g>
						<g>
							<g>
								<g>
									<g>
										<path class="st7" d="M178.1,232.13c0.29,2.4-1.42,4.57-3.81,4.86c-2.4,0.29-4.57-1.42-4.86-3.81
											c-0.29-2.4,1.42-4.57,3.81-4.86C175.64,228.03,177.81,229.73,178.1,232.13z"/>
									</g>
								</g>
							</g>
						</g>
					</g>
				</g>
			</g>
		</g>
		<g class="st8">
			<g>
				<g>
					<g>
						<g>
							<g>
								<polygon points="145.39,265.4 161.51,237.34 175.38,251.99 182.42,242.41 200.47,258.73 								"/>
							</g>
						</g>
					</g>
				</g>
			</g>
		</g>
		<g class="st8">
			<g>
				<g>
					<g>
						<g>
							<g>
								<g>
									<g>
										<path d="M178.1,232.13c0.29,2.4-1.42,4.57-3.81,4.86c-2.4,0.29-4.57-1.42-4.86-3.81c-0.29-2.4,1.42-4.57,3.81-4.86
											C175.64,228.03,177.81,229.73,178.1,232.13z"/>
									</g>
								</g>
							</g>
						</g>
					</g>
				</g>
			</g>
		</g>
	</g>
	<g id="XMLID_00000166651241315762525680000013943686501480216199_">
		<g id="XMLID_00000183249134717715543890000015765489803608030337_">
			<g>
				<path class="st7" d="M93.31,275.08L93.31,275.08c-18.57,0-33.62-15.05-33.62-33.62l0,0c0-18.57,15.05-33.62,33.62-33.62h0
					c18.57,0,33.62,15.05,33.62,33.62l0,0C126.93,260.03,111.88,275.08,93.31,275.08z"/>
			</g>
		</g>
		<g id="XMLID_00000054987126678052632060000003872979778034578331_">
			<g id="XMLID_00000008126125044506081680000004857978692235443357_">
				<g>
					<path class="st3" d="M93.31,226.34c4.92,0,5.51,0.02,7.45,0.11c1.8,0.08,2.77,0.38,3.42,0.64c0.86,0.33,1.47,0.73,2.12,1.38
						c0.65,0.65,1.04,1.26,1.38,2.12c0.25,0.65,0.55,1.63,0.63,3.42c0.09,1.94,0.11,2.53,0.11,7.45c0,4.92-0.02,5.51-0.11,7.45
						c-0.08,1.8-0.38,2.77-0.63,3.42c-0.33,0.86-0.73,1.47-1.38,2.12c-0.65,0.65-1.26,1.04-2.12,1.38
						c-0.65,0.25-1.63,0.55-3.42,0.64c-1.94,0.09-2.53,0.11-7.45,0.11c-4.92,0-5.51-0.02-7.45-0.11c-1.8-0.08-2.77-0.38-3.42-0.64
						c-0.86-0.33-1.47-0.73-2.12-1.38c-0.64-0.65-1.04-1.26-1.38-2.12c-0.25-0.65-0.55-1.63-0.63-3.42
						c-0.09-1.94-0.11-2.53-0.11-7.45c0-4.92,0.02-5.51,0.11-7.45c0.08-1.8,0.38-2.77,0.63-3.42c0.33-0.86,0.73-1.47,1.38-2.12
						c0.65-0.65,1.26-1.04,2.12-1.38c0.65-0.25,1.63-0.55,3.42-0.64C87.8,226.36,88.39,226.34,93.31,226.34 M93.31,223.02
						c-5.01,0-5.63,0.02-7.6,0.11c-1.96,0.09-3.3,0.4-4.47,0.86c-1.21,0.47-2.24,1.1-3.27,2.13c-1.03,1.02-1.66,2.05-2.13,3.27
						c-0.46,1.17-0.77,2.51-0.86,4.47c-0.09,1.97-0.11,2.59-0.11,7.6c0,5.01,0.02,5.63,0.11,7.6c0.09,1.96,0.4,3.3,0.86,4.47
						c0.47,1.21,1.1,2.24,2.13,3.27c1.02,1.02,2.05,1.66,3.27,2.13c1.17,0.46,2.51,0.77,4.47,0.86c1.97,0.09,2.59,0.11,7.6,0.11
						c5.01,0,5.63-0.02,7.6-0.11c1.96-0.09,3.3-0.4,4.47-0.86c1.21-0.47,2.24-1.1,3.27-2.13c1.02-1.02,1.66-2.05,2.13-3.27
						c0.46-1.17,0.77-2.51,0.86-4.47c0.09-1.97,0.11-2.59,0.11-7.6c0-5.01-0.02-5.63-0.11-7.6c-0.09-1.96-0.4-3.3-0.86-4.47
						c-0.47-1.21-1.1-2.24-2.13-3.27c-1.02-1.02-2.05-1.66-3.27-2.13c-1.17-0.46-2.51-0.77-4.47-0.86
						C98.94,223.04,98.31,223.02,93.31,223.02"/>
				</g>
			</g>
			<g id="XMLID_00000021835302590461905520000004756600420306660269_">
				<g>
					<path class="st3" d="M93.31,231.99c-5.23,0-9.47,4.24-9.47,9.47c0,5.23,4.24,9.47,9.47,9.47c5.23,0,9.47-4.24,9.47-9.47
						C102.77,236.23,98.54,231.99,93.31,231.99 M93.31,247.6c-3.39,0-6.15-2.75-6.15-6.14c0-3.39,2.75-6.15,6.15-6.15
						c3.39,0,6.14,2.75,6.14,6.15C99.45,244.85,96.7,247.6,93.31,247.6"/>
				</g>
			</g>
			<g id="XMLID_00000041273851699934811830000002819376115623039110_">
				<g>
					<path class="st3" d="M105.36,231.62c0,1.22-0.99,2.21-2.21,2.21c-1.22,0-2.21-0.99-2.21-2.21c0-1.22,0.99-2.21,2.21-2.21
						C104.37,229.4,105.36,230.39,105.36,231.62"/>
				</g>
			</g>
		</g>
	</g>
	<g>
		<g>
			<g>
				<g>
					<g>
						<g>
							<path class="st3" d="M171.63,156.87h-55.99c-4.88,0-8.84,3.96-8.84,8.84v21c0,4.88,3.96,8.84,8.84,8.84h32.33
								c1.46,3.17,4.21,5.71,7.31,7.39c2.54,1.37,5.3,2.24,8.11,2.89c1.11,0.26,1.93-1,1.24-1.9c-1.88-2.45-3.17-5.35-3.76-8.38
								h10.76c4.88,0,8.84-3.96,8.84-8.84v-21C180.47,160.83,176.51,156.87,171.63,156.87z"/>
						</g>
					</g>
					<g>
						<g>
							<g>
								<path class="st6" d="M171.63,156.87c0,0,0.09,0,0.28,0.01c0.18,0.02,0.46,0,0.82,0.05c0.72,0.08,1.8,0.3,3.05,0.94
									c1.24,0.65,2.65,1.79,3.65,3.58c0.49,0.9,0.86,1.95,1.01,3.11c0.08,0.58,0.09,1.19,0.09,1.8c0,0.62,0,1.25,0,1.91
									c0,5.22,0.04,11.55,0.01,18.8c-0.02,0.92-0.21,1.84-0.53,2.72c-0.33,0.88-0.78,1.74-1.4,2.5c-1.22,1.51-2.96,2.7-4.98,3.14
									c-1,0.24-2.05,0.24-3.09,0.24c-1.04,0-2.09,0-3.16,0c-2.13,0-4.3,0-6.53,0l0.11-0.13c0.46,2.34,1.34,4.67,2.67,6.79
									c0.33,0.53,0.69,1.05,1.08,1.55c0.21,0.28,0.31,0.64,0.25,0.99c-0.06,0.35-0.25,0.67-0.54,0.87
									c-0.28,0.21-0.66,0.28-1.01,0.22c-0.33-0.07-0.64-0.15-0.95-0.23c-0.63-0.16-1.27-0.33-1.9-0.52
									c-2.52-0.75-5.05-1.79-7.3-3.37c-2.24-1.57-4.22-3.66-5.42-6.24l0.11,0.07c-7.44,0-15.16,0-23.06,0c-1.97,0-3.93,0-5.87,0
									c-0.97,0-1.94,0-2.91,0c-0.48,0.01-0.97-0.02-1.46-0.05l-0.72-0.11c-0.24-0.04-0.47-0.11-0.71-0.17
									c-0.94-0.26-1.83-0.67-2.63-1.2c-0.8-0.55-1.5-1.22-2.08-1.97c-0.59-0.75-1.05-1.6-1.35-2.5c-0.3-0.9-0.5-1.84-0.5-2.78
									c0-7.43,0.01-14.59,0.01-21.41c0-0.87,0.19-1.71,0.43-2.53c0.26-0.81,0.66-1.57,1.12-2.27c0.48-0.69,1.05-1.31,1.68-1.85
									c0.65-0.51,1.34-0.97,2.1-1.29c0.75-0.32,1.53-0.57,2.33-0.66c0.8-0.12,1.6-0.1,2.38-0.1c1.57,0,3.11,0,4.63,0
									c6.07,0.01,11.72,0.01,16.88,0.02c10.31,0.02,18.66,0.03,24.44,0.04c2.88,0.01,5.12,0.02,6.64,0.02
									c0.76,0.01,1.33,0.01,1.73,0.01C171.43,156.86,171.63,156.87,171.63,156.87s-0.2,0.01-0.59,0.01
									c-0.39,0-0.97,0.01-1.73,0.01c-1.52,0.01-3.76,0.01-6.64,0.02c-5.77,0.01-14.12,0.02-24.44,0.04
									c-5.16,0-10.81,0.01-16.88,0.02c-1.52,0-3.06,0-4.63,0c-0.79,0-1.57-0.02-2.35,0.1c-0.78,0.09-1.54,0.34-2.28,0.65
									c-0.73,0.32-1.41,0.76-2.04,1.26c-0.61,0.53-1.17,1.13-1.64,1.8c-0.45,0.69-0.83,1.43-1.08,2.22
									c-0.23,0.79-0.41,1.62-0.42,2.46c0,6.82,0,13.98,0,21.4c0,0.92,0.19,1.83,0.49,2.7c0.29,0.87,0.74,1.7,1.32,2.43
									c0.57,0.74,1.25,1.39,2.03,1.92c0.78,0.52,1.65,0.92,2.56,1.17c0.23,0.05,0.46,0.13,0.69,0.16l0.7,0.11
									c0.47,0.03,0.94,0.06,1.43,0.05c0.97,0,1.93,0,2.91,0c1.94,0,3.9,0,5.87,0c7.9,0,15.61,0,23.06,0h0.08l0.03,0.07
									c1.18,2.53,3.13,4.6,5.34,6.15c2.22,1.56,4.72,2.59,7.23,3.34c0.63,0.19,1.26,0.36,1.89,0.52c0.31,0.08,0.63,0.16,0.94,0.22
									c0.29,0.05,0.6,0,0.83-0.18c0.24-0.17,0.4-0.44,0.45-0.72c0.05-0.29-0.03-0.58-0.21-0.81c-0.39-0.51-0.75-1.03-1.09-1.57
									c-1.34-2.15-2.24-4.5-2.69-6.87l-0.03-0.13l0.13,0c2.22,0,4.4,0,6.53,0c1.06,0,2.12,0,3.16,0c1.04,0.01,2.06,0,3.04-0.23
									c1.97-0.43,3.68-1.59,4.87-3.06c0.61-0.73,1.05-1.58,1.37-2.44c0.32-0.87,0.51-1.77,0.53-2.67
									c0.02-7.24,0.03-13.57,0.04-18.79c-0.02-1.3,0.06-2.55-0.07-3.69c-0.14-1.15-0.51-2.19-0.99-3.08
									c-0.98-1.78-2.37-2.91-3.6-3.57c-1.24-0.65-2.31-0.88-3.02-0.97c-0.36-0.06-0.63-0.05-0.82-0.07
									C171.72,156.88,171.63,156.87,171.63,156.87z"/>
							</g>
						</g>
					</g>
				</g>
			</g>
		</g>
		<g>
			<g>
				<path class="st7" d="M124.69,175.38c0,2.87-2.33,5.2-5.2,5.2s-5.2-2.33-5.2-5.2c0-2.87,2.33-5.2,5.2-5.2
					S124.69,172.51,124.69,175.38z"/>
			</g>
		</g>
		<g>
			<g>
				<rect x="128.31" y="170.22" class="st1" width="41.14" height="2.42"/>
			</g>
		</g>
		<g>
			<g>
				<rect x="128.31" y="176" class="st1" width="41.14" height="2.42"/>
			</g>
		</g>
		<g>
			<g>
				<rect x="128.31" y="181.78" class="st1" width="16.6" height="2.42"/>
			</g>
		</g>
	</g>
	<g>
		<g>
			<g>
				<path class="st7" d="M155.42,125.87l-11.88-18.4c-0.63-0.98-0.35-2.29,0.63-2.92l7.13-4.61c0.98-0.63,2.29-0.35,2.92,0.63
					l11.88,18.4c0.63,0.98,0.35,2.29-0.63,2.92l-7.13,4.61C157.36,127.13,156.06,126.85,155.42,125.87z"/>
			</g>
		</g>
		<g>
			<g>
				<g>
					<g>
						<path class="st7" d="M155.39,99.01l12.66,19.61c0,0,4.86-1.95,12.5,1.44c5.05,2.24,8.23,4.64,9.82,6.03
							c0.97,0.85,2.42,0.91,3.42,0.09c0.94-0.78,1.91-1.97,1.58-4.04c-0.62-3.84-7.31-9.81-7.31-9.81s-1.74-0.94,0.3-2.26l7.28-4.7
							c0.94-0.61,1.67-1.52,1.99-2.6c0.28-0.95,0.28-2.11-0.6-3.26c-2.01-2.63-4.27-2.93-4.64-3.51c-0.38-0.58-0.23-2.12-1.9-3.42
							c-1.67-1.3-1.94-0.92-2.45-1.72c-0.52-0.8-1.98-2.75-3.29-3.66c-1.31-0.91-2.27-1.12-2.27-1.12s-1.48-2.77-3.19-3.83
							c-1.72-1.06-5.3,0.11-6.32,0.77c-1.02,0.66-7.37,6.82-9.08,8.65C162.16,93.5,157.97,98.69,155.39,99.01z"/>
					</g>
				</g>
			</g>
		</g>
		<path class="st3" d="M156.18,119.77c-0.64-1.18-0.21-2.65,0.97-3.29c1.18-0.64,2.65-0.21,3.29,0.97c0.64,1.18,0.21,2.65-0.97,3.29
			C158.29,121.38,156.82,120.95,156.18,119.77z"/>
	</g>
</g>
<g id="Character_00000078738848450687053790000001926105290296294326_">
	<g>
		<path class="st9" d="M185.47,387.96c-1.83,0.92-45.01-9.45-45.01-9.45l-0.89,11.13C127,375.8,110.31,359.43,109.8,359.6
			l-24.19,12.09c0.04,0.14,0.35,0.79,0.9,1.87c3.02,5.93,15.54,30.15,27.29,49.54c0.14,0.24,26.7,46.96,45.96,49.59
			c19.31,2.64,35.15-20.54,36.48-27.47C197.56,438.31,187.3,387.04,185.47,387.96z"/>
		<path class="st1" d="M187.57,297.03l-0.58-44.19c0,0-50.35,6.8-49.47,52.13c0.9,45.89-0.01,65.77-0.01,65.77l0.96,12.76
			l64.72,21.89L187.57,297.03z"/>
		<path class="st1" d="M226.74,241.79c-3.72,1.24-65.87,15.36-72.68,27.13c-6.81,11.77,34.88,171.82,42.31,181.11
			c1.48,1.86-9.96,24.31-0.01,24.63c39.86,1.32,158.25,2.02,161.73,0.34c4.02-1.94-8.38-214.57-13.33-217.67
			c-4.96-3.1-52.52-17.01-52.52-17.01s-7.98,19.3-37.77,19.3S226.74,241.79,226.74,241.79z"/>
		<path class="st8" d="M247.06,407.18c0,0,59.16,61.44,111.82,60.93v-21.1L247.06,407.18z"/>
		<path class="st9" d="M360.28,270.91c-9.81-14.48-33.91-19.19-33.91-19.19s-13.42,22.95-17.2,42.86
			c-3.79,19.91,7.29,98.68,7.29,98.68l-88.11-42.4l-5.85-3.08l-2.34-2.75c0,0-7.22-21.22-10.99-28.05
			c-1.41-2.54-16.96-14.9-19.85-15.84c-2.7-0.88-11.21-2.07-22.63,0.69c-11.42,2.76-7.73,7.96-7.73,7.96s3.2,2.07,6.99,1.67
			c5.72-0.6,16.2,0.32,16.2,0.32l7.16,6.66c0,0-18.3-1.16-25.79-0.2c-1.93,0.25-10.39,1.77-15.52,4.7
			c-4.22,2.41-2.17,7.81,0.23,8.14c1.92,0.27,13.64-1.05,18.88-1.1c5.24-0.05,22.55,2.27,22.55,2.27s-13.07-0.52-15.77-0.28
			c-2.7,0.24-22.43,3.48-28.16,6.76c-5.73,3.28-1.71,7.99-0.11,8.48c1.6,0.49,8.91,0.74,8.91,0.74s0.15,3.81,2.77,4.85
			c2.62,1.04,31.33,4.62,31.33,4.62s5.39,8.02,7.48,14.2c2.09,6.19,9.88,8.04,12.57,9.92c1.89,1.32,5.91,3.93,8.15,5.38l-0.04,0.51
			l64.26,41.89c0,0,58.4,33.53,73.01,29.2c3.78-1.12,19.65-10.85,21.03-29.2C379.03,376.82,366.71,280.39,360.28,270.91z"/>
		<path class="st6" d="M443.58,174.27c-2.95-8.38-10.23-15.1-18.82-17.36c-7.85-2.06-16.3-0.56-24.18-2.53
			c-10.31-2.58-18.23-10.71-24.87-19c-6.64-8.3-13.72-20.48-22.66-26.22c-8.94-5.75-25.34-7.62-36.11,1.51l-8.71,32.57
			c14.27,16.69,19.96,38.82,26.01,59.93c6.05,21.11,13.58,43.09,30.14,57.51c6.06,5.28,13.63,9.47,21.67,9.3
			c8.04-0.17,16.29-5.84,17.28-13.82c14.77,7.68,34.98,2.32,44-11.68c9.01-14,5.54-34.62-7.57-44.88
			C445.04,192.45,446.52,182.65,443.58,174.27z"/>
		<g>
			<g>
				<path class="st7" d="M324.13,173.77c-0.35-0.25,1.66-3.33,4.06-8.66c0.29-0.67,0.6-1.37,0.92-2.1c0.32-0.73,0.57-1.52,0.88-2.32
					c0.65-1.59,1.15-3.36,1.72-5.19c1.03-3.71,1.91-7.86,2.39-12.27c0.43-4.42,0.43-8.66,0.19-12.5c-0.19-1.92-0.31-3.75-0.62-5.43
					c-0.14-0.85-0.23-1.67-0.39-2.45c-0.16-0.78-0.32-1.53-0.47-2.25c-1.26-5.71-2.58-9.14-2.19-9.31c0.16-0.07,0.66,0.71,1.42,2.22
					c0.19,0.38,0.39,0.8,0.62,1.26c0.21,0.47,0.4,0.99,0.61,1.54c0.41,1.12,0.95,2.38,1.32,3.84c0.21,0.73,0.42,1.49,0.65,2.28
					c0.22,0.79,0.36,1.64,0.55,2.51c0.41,1.73,0.62,3.62,0.88,5.6c0.39,3.97,0.47,8.39,0.01,12.99c-0.5,4.59-1.49,8.89-2.69,12.7
					c-0.66,1.88-1.26,3.69-2.02,5.3c-0.36,0.81-0.68,1.61-1.05,2.34c-0.38,0.73-0.75,1.43-1.1,2.09c-0.67,1.35-1.45,2.47-2.08,3.48
					c-0.33,0.5-0.62,0.97-0.92,1.38c-0.31,0.4-0.6,0.77-0.86,1.1C324.92,173.21,324.28,173.87,324.13,173.77z"/>
			</g>
			<g>
				<path class="st6" d="M321.69,95.47c-14.58-20.38-35.12-32.89-60.11-34.93c-14.1-1.15-20.13,1.4-30.47,3.48
					c-10.34,2.08-19.87,6.93-26.49,15.14c-7.87,9.74-14.66,20.79-16.84,33.12c-2.23,12.67-4.47,25.42-4.34,38.28
					c0.13,12.86,2.77,25.97,9.63,36.85l32.22,7.77c17.96,1.78,36.16,3.56,53.96,0.59c17.8-2.96,35.45-11.28,45.84-26.03
					C339.53,149.25,336.27,115.84,321.69,95.47z"/>
			</g>
			<g>
				<path class="st9" d="M192.46,119.96c1.52-20.65,20.96-47.65,46.5-46.08l11.43-0.58l42.31,20.07c6.25,0.72,10.91,6.11,10.72,12.4
					l-12.37,142.94l-54.99,89.81l-8.58-78.11l-1.32-33.05c0,0-28.88-4.72-34-39.22C189.62,170.99,190.77,142.91,192.46,119.96z"/>
			</g>
			<g>
				<path class="st10" d="M243.77,183.5c-0.12-1.81-1.01-3.46-2.21-4.63c-2.4-2.34-6.11-2.8-8.95-1.1c-2.85,1.7-4,4.22-3.72,7.83
					l0,0c0.67,3.17,2.98,5,5.55,5.4c0.4,0.06,0.8,0.1,1.21,0.12c1.97,0.08,4.01-0.46,5.6-1.81
					C242.84,187.96,243.91,185.73,243.77,183.5z"/>
			</g>
			<g>
				<path class="st6" d="M202.53,150.43c-0.11,2.33,1.78,4.35,4.22,4.5c2.43,0.15,4.49-1.6,4.6-3.94c0.11-2.33-1.78-4.35-4.21-4.5
					C204.7,146.34,202.63,148.1,202.53,150.43z"/>
			</g>
			<g>
				<path class="st6" d="M199.49,131.94c0.54,0.58,3.92-1.86,8.68-1.8c4.75-0.01,8.22,2.47,8.74,1.9c0.26-0.25-0.29-1.3-1.8-2.42
					c-1.49-1.12-4.03-2.21-6.99-2.23c-2.96-0.01-5.47,1.05-6.91,2.15C199.73,130.65,199.22,131.68,199.49,131.94z"/>
			</g>
			<g>
				<path class="st6" d="M227.53,171.07c0.03-0.27-2.93-0.81-7.71-1.47c-1.21-0.14-2.36-0.39-2.56-1.22
					c-0.28-0.88,0.24-2.18,0.85-3.59c1.17-2.93,2.4-5.99,3.69-9.21c5.12-13.11,8.85-23.9,8.32-24.1
					c-0.53-0.2-5.12,10.26-10.24,23.37c-1.23,3.23-2.41,6.32-3.54,9.26c-0.47,1.38-1.28,2.93-0.68,4.76c0.32,0.91,1.2,1.58,1.98,1.8
					c0.78,0.25,1.46,0.26,2.06,0.31C224.52,171.29,227.51,171.34,227.53,171.07z"/>
			</g>
			<g>
				<path class="st10" d="M226.11,227.33c0,0,23.18,1.73,46.3-11.84c0,0-11.43,24.04-45.9,20.47L226.11,227.33z"/>
			</g>
			<g>
				<path class="st6" d="M210,110.75c-1.35-0.39-3.68,2.52-7.2,4.94c-3.44,2.54-6.95,3.8-7.01,5.2c0,0.66,1.08,1.24,2.96,1.21
					c1.86-0.02,4.49-0.78,6.88-2.49c2.39-1.71,3.96-3.94,4.57-5.68C210.84,112.16,210.63,110.96,210,110.75z"/>
			</g>
			<g>
				<path class="st6" d="M252.62,151.34c-0.03,2.34-2.03,4.24-4.47,4.25c-2.44,0.02-4.39-1.86-4.36-4.19
					c0.03-2.33,2.03-4.24,4.47-4.25C250.69,147.13,252.64,149.01,252.62,151.34z"/>
			</g>
			<g>
				<path class="st6" d="M263.77,134.28c-0.58,0.55-3.8-2.08-8.56-2.3c-4.75-0.28-8.35,2-8.84,1.39c-0.24-0.27,0.37-1.28,1.94-2.31
					c1.55-1.03,4.15-1.98,7.11-1.83c2.96,0.16,5.4,1.36,6.78,2.55C263.61,132.97,264.05,134.03,263.77,134.28z"/>
			</g>
			<g>
				<path class="st6" d="M248.29,111.66c1.21-0.76,4.4,1.38,8.61,2.71c4.17,1.46,8.01,1.68,8.51,3.01c0.2,0.63-0.68,1.5-2.54,2
					c-1.84,0.51-4.65,0.52-7.53-0.44c-2.88-0.96-5.11-2.66-6.25-4.17C247.91,113.26,247.74,112.04,248.29,111.66z"/>
			</g>
			<g>
				<path class="st9" d="M293.77,163.07c0.03-2.56,3.06-8.58,5.6-8.95c6.78-0.99,18.98-0.32,18.92,16.86
					c-0.09,23.49-26.05,18.89-26.05,18.89C292.21,189.34,293.65,171.93,293.77,163.07z"/>
			</g>
			<g>
				<path class="st10" d="M301.09,180.31c0.1-0.08,0.41,0.29,1.1,0.61c0.68,0.31,1.84,0.53,3.06,0.07c2.49-0.9,4.59-4.83,4.72-9.07
					c0.07-2.14-0.37-4.17-1.12-5.86c-0.71-1.72-1.82-2.93-3.07-3.15c-1.24-0.29-2.13,0.45-2.42,1.11c-0.32,0.66-0.17,1.13-0.29,1.17
					c-0.07,0.06-0.5-0.39-0.31-1.36c0.1-0.47,0.38-1.02,0.93-1.47c0.57-0.46,1.4-0.69,2.27-0.59c1.81,0.13,3.44,1.8,4.26,3.66
					c0.93,1.86,1.47,4.15,1.4,6.55c-0.17,4.73-2.61,9.15-6.01,10.12c-1.65,0.42-3.03-0.08-3.74-0.63
					C301.13,180.88,301.01,180.35,301.09,180.31z"/>
			</g>
			<g>
				<path class="st6" d="M300.32,154.25l-6.35,5.78c-24.09-26.24-70.28-91.02-67.71-87.17c0,0,18.07-6.09,36.96-1.6
					c18.89,4.49,54.5,16.4,52.47,38.87C313.66,132.61,300.32,154.25,300.32,154.25z"/>
			</g>
		</g>
		<g>
			<path class="st10" d="M213.65,157.83c0.03,0.05-0.54,0.54-1.67,1c-1.11,0.46-2.82,0.82-4.67,0.53c-1.85-0.29-3.37-1.14-4.3-1.91
				c-0.94-0.78-1.34-1.42-1.29-1.46c0.06-0.06,0.56,0.49,1.51,1.16c0.95,0.67,2.41,1.42,4.15,1.69c1.75,0.27,3.37-0.01,4.47-0.37
				C212.97,158.13,213.61,157.76,213.65,157.83z"/>
		</g>
		<g>
			<path class="st10" d="M256.93,156.46c0.03,0.06-0.67,0.5-1.86,1.11c-1.19,0.6-2.9,1.4-4.96,1.72c-2.07,0.32-4-0.1-5.2-0.75
				c-1.22-0.65-1.71-1.38-1.67-1.4c0.06-0.07,0.64,0.55,1.83,1.07c1.18,0.53,3,0.87,4.96,0.57c1.97-0.3,3.66-1.03,4.88-1.54
				C256.14,156.71,256.9,156.39,256.93,156.46z"/>
		</g>
		<g>
			<path class="st10" d="M257.39,158.67c0.03,0.06-0.67,0.5-1.86,1.11c-1.19,0.6-2.9,1.4-4.96,1.72c-2.07,0.32-4-0.1-5.2-0.75
				c-1.22-0.65-1.71-1.38-1.67-1.4c0.06-0.07,0.64,0.55,1.83,1.07c1.18,0.53,3,0.87,4.96,0.57c1.97-0.3,3.66-1.03,4.88-1.54
				C256.59,158.93,257.35,158.6,257.39,158.67z"/>
		</g>
		<g>
			<g>
				<g>
					<g>
						<g>
							<path class="st7" d="M239.86,307.4c5.03,15.18,21.42,23.4,36.59,18.37c15.18-5.03,23.4-21.42,18.37-36.59
								c-5.03-15.18-21.42-23.4-36.59-18.37C243.05,275.84,234.83,292.23,239.86,307.4z"/>
						</g>
					</g>
				</g>
				<g>
					<g>
						<g>
							<path class="st6" d="M274.64,290.68c0.66,2,2.43,3.22,3.95,2.71c1.52-0.5,2.21-2.53,1.54-4.54c-0.66-2-2.43-3.22-3.95-2.71
								S273.98,288.68,274.64,290.68z"/>
						</g>
					</g>
				</g>
				<g>
					<g>
						<g>
							<path class="st6" d="M251.8,298.25c0.66,2,2.43,3.22,3.95,2.71c1.52-0.5,2.21-2.53,1.54-4.54c-0.66-2-2.43-3.22-3.95-2.71
								C251.83,294.22,251.14,296.25,251.8,298.25z"/>
						</g>
					</g>
				</g>
			</g>
			<g>
				<g class="st11">
					<g>
						<g>
							<path d="M258.09,302.12c1.85,5.57,7.59,8.67,12.82,6.93c5.24-1.74,7.99-7.66,6.14-13.22L258.09,302.12z"/>
						</g>
					</g>
				</g>
			</g>
		</g>
		<g>
			<path class="st6" d="M196.37,450.03c-0.02,0.01-0.15-0.23-0.38-0.7c-0.25-0.51-0.58-1.19-0.99-2.05
				c-0.43-0.89-0.94-1.98-1.49-3.28c-0.56-1.29-1.21-2.75-1.85-4.39c-1.34-3.27-2.78-7.22-4.29-11.64c-1.48-4.43-3-9.33-4.5-14.51
				c-2.97-10.36-5.42-19.8-7.3-26.6c-0.93-3.36-1.7-6.1-2.24-8.05c-0.25-0.91-0.45-1.64-0.6-2.19c-0.13-0.5-0.19-0.77-0.18-0.77
				c0.02-0.01,0.11,0.25,0.28,0.74c0.17,0.54,0.41,1.26,0.7,2.16c0.6,1.88,1.42,4.62,2.4,8.01c1.92,6.84,4.54,16.21,7.45,26.55
				c1.5,5.17,3.01,10.07,4.46,14.5c1.48,4.42,2.88,8.38,4.17,11.66c0.62,1.65,1.24,3.12,1.77,4.42c0.52,1.3,1,2.41,1.41,3.31
				c0.38,0.87,0.68,1.56,0.9,2.09C196.29,449.76,196.39,450.02,196.37,450.03z"/>
		</g>
		<g>
			<g>
				<g>
					<g>
						<path class="st10" d="M189.03,345.04c-0.01,0.12-1.98-0.02-5.17-0.1c-3.19-0.09-7.59-0.08-12.43,0.28
							c-4.85,0.36-9.2,1.01-12.34,1.57c-3.14,0.56-5.07,0.98-5.1,0.87c-0.01-0.05,0.46-0.21,1.32-0.47
							c0.86-0.26,2.12-0.58,3.68-0.92c3.13-0.7,7.5-1.43,12.39-1.8c4.88-0.36,9.32-0.28,12.52-0.06c1.6,0.11,2.89,0.24,3.78,0.37
							C188.55,344.9,189.04,344.99,189.03,345.04z"/>
					</g>
				</g>
			</g>
			<g>
				<path class="st6" d="M350.39,405.46c-0.02,0.03-0.56-0.18-1.52-0.59c-1.05-0.45-2.43-1.04-4.09-1.75
					c-3.46-1.47-8.26-3.43-13.64-5.41c-5.38-1.97-10.31-3.58-13.9-4.7c-1.73-0.53-3.16-0.98-4.25-1.31c-1-0.31-1.56-0.5-1.55-0.53
					s0.58,0.09,1.6,0.34c1.02,0.25,2.49,0.64,4.3,1.15c3.62,1.03,8.58,2.59,13.97,4.56c5.39,1.98,10.18,4,13.61,5.56
					c1.71,0.78,3.09,1.43,4.03,1.9C349.89,405.16,350.4,405.43,350.39,405.46z"/>
			</g>
		</g>
		<path class="st1" d="M360.28,270.91c-9.81-15.35-33.91-19.19-33.91-19.19s-13.42,22.95-17.2,42.86
			c-3.79,19.91-0.91,77.05-0.91,77.05l75.73,8.95C381.22,329.69,366.45,280.56,360.28,270.91z"/>
		<g>
			<g>
				<path class="st10" d="M140.12,307.23c44.6-4.36,86.69-21.01,125.47-42.92c11.1-6.27,21.95-12.98,32.6-19.98
					c6.54-4.29,0.43-14.87-6.16-10.54c-36.15,23.72-74.93,44.47-117.1,55.08c-11.44,2.88-23.07,4.99-34.81,6.14
					c-3.28,0.32-6.11,2.58-6.11,6.11C134.02,304.18,136.82,307.55,140.12,307.23L140.12,307.23z"/>
			</g>
			<g class="st8">
				<path d="M151.42,304.53c-0.13,0.05-0.99-1.92-1.46-4.51c-0.48-2.59-0.4-4.73-0.27-4.73c0.15,0,0.3,2.1,0.78,4.63
					C150.94,302.47,151.57,304.48,151.42,304.53z"/>
			</g>
			<g class="st8">
				<path d="M174.55,299.93c-0.12,0.06-1.16-1.82-1.86-4.36c-0.72-2.53-0.83-4.67-0.69-4.69c0.15-0.02,0.49,2.06,1.19,4.54
					C173.88,297.92,174.69,299.86,174.55,299.93z"/>
			</g>
			<g class="st8">
				<path d="M197.93,293.49c-0.12,0.06-1.16-1.82-1.86-4.36c-0.72-2.53-0.83-4.67-0.69-4.69c0.15-0.02,0.49,2.06,1.19,4.54
					C197.26,291.48,198.06,293.43,197.93,293.49z"/>
			</g>
			<g class="st8">
				<path d="M219.82,284.85c-0.11,0.08-1.41-1.63-2.47-4.04c-1.07-2.4-1.49-4.51-1.36-4.54c0.15-0.04,0.78,1.97,1.84,4.32
					C218.86,282.96,219.94,284.77,219.82,284.85z"/>
			</g>
			<g class="st8">
				<path d="M243.17,274.85c-0.11,0.08-1.47-1.58-2.63-3.94c-1.17-2.36-1.67-4.44-1.54-4.48c0.15-0.05,0.86,1.93,2.01,4.25
					C242.14,273,243.29,274.76,243.17,274.85z"/>
			</g>
			<g class="st8">
				<path d="M266.66,261.93c-0.1,0.09-1.51-1.54-2.73-3.87c-1.23-2.33-1.79-4.4-1.66-4.44c0.14-0.05,0.91,1.91,2.12,4.19
					C265.59,260.11,266.79,261.84,266.66,261.93z"/>
			</g>
			<g class="st8">
				<path d="M287.89,249.07c-0.09,0.1-1.71-1.31-3.25-3.45c-1.54-2.13-2.38-4.1-2.26-4.16c0.14-0.07,1.17,1.76,2.68,3.86
					C286.57,247.41,288,248.96,287.89,249.07z"/>
			</g>
		</g>
		<g>
			<path class="st6" d="M383.98,380.58c0,0.01-0.13,0-0.39-0.02c-0.28-0.03-0.66-0.06-1.14-0.11c-1.03-0.11-2.49-0.27-4.37-0.47
				c-3.83-0.43-9.32-1.05-16.13-1.82c-13.67-1.6-32.6-3.8-53.73-6.27l-0.21-0.02l-0.02-0.2c-0.17-1.52-0.35-3.15-0.54-4.8
				c-1.13-11.15-1.73-21.81-2.08-31.51c-0.35-9.7-0.42-18.44-0.37-25.78c0.06-7.34,0.24-13.28,0.46-17.37
				c0.08-2.05,0.21-3.64,0.27-4.72c0.04-0.52,0.07-0.93,0.09-1.23c0.02-0.28,0.04-0.42,0.05-0.42c0.01,0,0.01,0.14,0,0.42
				c-0.01,0.3-0.02,0.71-0.04,1.23c-0.04,1.11-0.1,2.69-0.17,4.72c-0.15,4.1-0.27,10.03-0.29,17.37c-0.01,7.33,0.1,16.07,0.48,25.76
				c0.38,9.69,0.99,20.34,2.12,31.47c0.18,1.64,0.36,3.27,0.53,4.79l-0.23-0.23c21.13,2.53,40.04,4.79,53.71,6.43
				c6.8,0.84,12.29,1.51,16.11,1.99c1.87,0.24,3.34,0.43,4.36,0.56c0.48,0.07,0.85,0.12,1.13,0.16
				C383.85,380.55,383.98,380.57,383.98,380.58z"/>
		</g>
		<g class="st8">
			<path d="M144.15,275.83c63.28,44.4,140.51,68.6,217.81,68.25c6.38-0.03,13.14-0.34,18.44-3.89L144.15,275.83z"/>
		</g>
		<g>
			<g>
				<path class="st10" d="M146.62,275.25c57.52,31.98,120.72,53,186.01,61.39c18.03,2.32,36.18,3.62,54.35,3.93
					c7.86,0.14,7.86-12.07,0-12.21c-63.57-1.11-126.85-14.77-185.34-39.7c-16.69-7.11-32.99-15.14-48.85-23.96
					C145.91,260.89,139.74,271.43,146.62,275.25L146.62,275.25z"/>
			</g>
			<g>
				<g class="st8">
					<path d="M165.78,285.98c-0.14-0.04,0.57-2.65,1.57-5.81c1.01-3.17,1.93-5.7,2.07-5.66c0.14,0.04-0.57,2.65-1.58,5.81
						C166.84,283.49,165.92,286.02,165.78,285.98z"/>
				</g>
				<g class="st8">
					<path d="M206.17,302.72c-0.14-0.03,0.35-2.51,1.1-5.53c0.75-3.02,1.47-5.44,1.61-5.41c0.14,0.03-0.35,2.51-1.1,5.53
						C207.03,300.33,206.31,302.75,206.17,302.72z"/>
				</g>
				<g class="st8">
					<path d="M239.08,304.33c0.14,0.01,0,2.48-0.51,5.48c-0.5,3-1.16,5.38-1.29,5.35c-0.14-0.03,0.29-2.45,0.78-5.44
						C238.56,306.74,238.93,304.31,239.08,304.33z"/>
				</g>
				<g class="st8">
					<path d="M280.36,315.98c0.14,0.01,0.07,2.55-0.17,5.67c-0.24,3.12-0.54,5.65-0.69,5.63c-0.14-0.01-0.07-2.55,0.17-5.67
						C279.91,318.49,280.22,315.97,280.36,315.98z"/>
				</g>
				<g class="st8">
					<path d="M317.72,334.41c-0.14,0-0.42-2.54-0.61-5.69c-0.19-3.15-0.23-5.71-0.09-5.72c0.14-0.01,0.42,2.53,0.61,5.69
						C317.83,331.85,317.87,334.41,317.72,334.41z"/>
				</g>
				<g class="st8">
					<path d="M355.91,339.04c-0.14,0.01-0.41-2.69-0.59-6.02c-0.18-3.33-0.22-6.04-0.07-6.05c0.14-0.01,0.41,2.69,0.59,6.02
						C356.02,336.33,356.05,339.03,355.91,339.04z"/>
				</g>
			</g>
		</g>
		<g>
			<path class="st6" d="M178.96,429.33c-0.01,0.01-0.16-0.13-0.43-0.42c-0.3-0.33-0.68-0.75-1.14-1.26c-1-1.1-2.45-2.67-4.3-4.57
				c-3.68-3.81-8.93-8.91-14.77-14.5c-5.85-5.59-11.15-10.64-14.91-14.39c-1.88-1.87-3.37-3.41-4.39-4.5
				c-0.47-0.51-0.85-0.93-1.15-1.26c-0.26-0.29-0.39-0.45-0.37-0.47c0.01-0.01,0.17,0.12,0.45,0.39c0.32,0.31,0.72,0.71,1.22,1.2
				c1.11,1.08,2.64,2.56,4.5,4.37c3.89,3.7,9.17,8.72,15.01,14.28c5.84,5.59,11.06,10.74,14.68,14.63c1.82,1.93,3.23,3.55,4.18,4.69
				c0.44,0.54,0.79,0.98,1.07,1.33C178.86,429.16,178.98,429.32,178.96,429.33z"/>
		</g>
		<g id="XMLID_00000070830048468992818930000008726678983487261568_">
			<g id="XMLID_00000052082391581845326110000017020547767476833973_">
				<g>
					<path class="st7" d="M205.33,259.9L205.33,259.9c-6.97-8.32-5.87-20.72,2.46-27.68l0,0c8.32-6.97,20.72-5.87,27.68,2.46l0,0
						c6.97,8.32,5.87,20.72-2.46,27.68l0,0C224.69,269.33,212.29,268.23,205.33,259.9z"/>
				</g>
			</g>
			<g id="XMLID_00000160174139618664687500000003614749828447094159_">
				<g>
					<path class="st3" d="M210.2,255.7l4.21,2.92l7.31-10.54l2.94,2.04l2.76-3.31l-3.25-2.26c0,0,0.91-1.32,1.39-2.01
						c0.58-0.83,0.97-1.05,1.78-0.49c0.65,0.45,2.28,1.58,2.28,1.58l2.54-3.66c0,0-2.4-1.67-2.92-2.02
						c-3.13-2.17-5.5-1.77-7.33,0.87c-1.6,2.3-1.95,2.81-1.95,2.81l-2.19-1.52l-2.48,3.57l2.19,1.52L210.2,255.7z"/>
				</g>
			</g>
		</g>
		<g>
			<g>
				<g>
					<path class="st7" d="M189.67,271.09c17.35,14.72,1.75,39.1-18.89,29.51c0,0,0,0,0,0C153.44,285.88,169.04,261.51,189.67,271.09
						z"/>
				</g>
			</g>
			<g>
				<g>
					<g>
						<path class="st3" d="M188.34,282.05c-1.5-2.73-3.98-3.16-5.65-2.54c-1.81,0.68-2.75,2.54-2.75,2.54s-0.94-1.86-2.75-2.54
							c-1.67-0.62-4.15-0.2-5.64,2.54c-3.12,5.71,8.4,13.14,8.4,13.14S191.46,287.76,188.34,282.05z"/>
					</g>
				</g>
			</g>
		</g>
		<path class="st12" d="M270.96,217.93l21.98,9.03l-0.57,6.64l0,0c2.01-1.43,4.77-1.14,6.45,0.67l0.81,0.98
			c1.74,2.12,1.91,5.13,0.42,7.44l0,0l40.36,12.82L170.35,368.59L62.76,285.46l128.22-138.98c0,0,4.81,35.75,20.37,53.04
			C229.54,219.75,270.96,217.93,270.96,217.93z"/>
		<g>
			<path class="st6" d="M227.97,187.11c0.01-0.17,1.17-0.16,2.98-0.41c1.8-0.27,4.28-0.88,6.68-2.27c2.41-1.35,4.21-3.18,5.29-4.63
				c1.1-1.46,1.57-2.51,1.73-2.45c0.11,0.04-0.13,1.22-1.12,2.86c-0.97,1.64-2.81,3.68-5.38,5.12c-2.55,1.47-5.23,2.01-7.12,2.1
				C229.11,187.5,227.96,187.22,227.97,187.11z"/>
		</g>
		<g class="st8">
			<path d="M137.33,435.98c45.74-3.5,67.31-14.44,118.68-41.3c0,0,118.59,16.25,119.52,2.55l-127.15-13.96L137.33,435.98z"/>
		</g>
		<g>
			<g>
				<path class="st10" d="M137.51,376.85c62.3,2.25,123.88,12.91,185.85,18.88c17.36,1.67,34.75,2.97,52.18,3.6
					c7.86,0.28,7.85-11.93,0-12.21c-62.3-2.25-123.88-12.91-185.85-18.88c-17.36-1.67-34.75-2.97-52.18-3.6
					C129.65,364.35,129.66,376.57,137.51,376.85L137.51,376.85z"/>
			</g>
			<g class="st8">
				<path d="M163.19,377.55c-0.14,0-0.24-2.54-0.21-5.67c0.03-3.13,0.17-5.67,0.31-5.67c0.14,0,0.24,2.54,0.21,5.67
					C163.47,375.01,163.33,377.55,163.19,377.55z"/>
			</g>
			<g class="st8">
				<path d="M198.53,380.37c-0.14,0-0.28-2.36-0.3-5.28c-0.02-2.92,0.08-5.29,0.22-5.29c0.14,0,0.28,2.36,0.3,5.28
					C198.78,378,198.68,380.37,198.53,380.37z"/>
			</g>
			<g class="st8">
				<path d="M232.1,373.63c0.14-0.01,0.34,2.3,0.25,5.14c-0.08,2.85-0.42,5.13-0.56,5.12c-0.15-0.01-0.04-2.31,0.04-5.13
					C231.92,375.93,231.96,373.63,232.1,373.63z"/>
			</g>
			<g class="st8">
				<path d="M270.96,378.53c0.14,0.01,0.17,2.37,0.06,5.29c-0.11,2.92-0.32,5.28-0.46,5.27c-0.14-0.01-0.17-2.37-0.06-5.29
					C270.61,380.89,270.82,378.53,270.96,378.53z"/>
			</g>
			<g class="st8">
				<path d="M308.71,393.38c-0.14,0.01-0.53-2.34-0.87-5.26c-0.34-2.92-0.49-5.3-0.35-5.32c0.14-0.02,0.53,2.33,0.87,5.26
					C308.7,390.99,308.86,393.37,308.71,393.38z"/>
			</g>
			<g class="st8">
				<path d="M346.69,397.23c-0.14,0.02-0.53-2.48-0.86-5.57c-0.33-3.09-0.49-5.61-0.35-5.62c0.14-0.02,0.53,2.48,0.86,5.57
					C346.68,394.69,346.84,397.21,346.69,397.23z"/>
			</g>
		</g>
		<g>
			<g>
				<path class="st10" d="M119,439.83c38.27-7.18,74.74-22.11,108.62-41.09c34.57-19.36,66.64-42.95,97.2-68.1
					c16.99-13.98,33.5-28.51,49.79-43.3c5.87-5.33-2.84-14-8.69-8.69c-28.51,25.88-57.75,51.07-88.96,73.67
					c-31.15,22.57-64.39,42.96-100.11,57.48c-19.73,8.02-40.17,14.24-61.11,18.17c-3.27,0.61-5.12,4.55-4.29,7.56
					C112.38,438.96,115.73,440.45,119,439.83L119,439.83z"/>
			</g>
			<g class="st8">
				<path d="M132.05,436.94c-0.12,0.06-1.4-2.34-2.29-5.56c-0.9-3.21-1.07-5.92-0.94-5.93c0.15-0.02,0.55,2.63,1.44,5.79
					C131.14,434.42,132.19,436.88,132.05,436.94z"/>
			</g>
			<g class="st8">
				<path d="M160.8,428.53c-0.11,0.07-1.6-2.2-2.78-5.33c-1.19-3.12-1.6-5.8-1.47-5.83c0.15-0.03,0.78,2.57,1.95,5.64
					C159.66,426.09,160.93,428.45,160.8,428.53z"/>
			</g>
			<g class="st8">
				<path d="M189.65,417.76c-0.11,0.07-1.6-2.2-2.78-5.33c-1.19-3.12-1.6-5.8-1.47-5.83c0.15-0.03,0.78,2.57,1.95,5.64
					C188.51,415.32,189.78,417.68,189.65,417.76z"/>
			</g>
			<g class="st8">
				<path d="M216.38,404.37c-0.1,0.09-1.91-1.95-3.52-4.87c-1.63-2.91-2.42-5.51-2.29-5.55c0.15-0.05,1.15,2.43,2.75,5.3
					C214.9,402.12,216.5,404.27,216.38,404.37z"/>
			</g>
			<g class="st8">
				<path d="M244.8,389.09c-0.1,0.09-1.98-1.87-3.71-4.73c-1.74-2.85-2.63-5.41-2.51-5.46c0.14-0.06,1.24,2.38,2.95,5.19
					C243.24,386.9,244.92,388.99,244.8,389.09z"/>
			</g>
			<g class="st8">
				<path d="M273.08,370.1c-0.09,0.09-2.03-1.82-3.83-4.63c-1.82-2.8-2.78-5.34-2.66-5.39c0.14-0.06,1.3,2.35,3.09,5.11
					C271.46,367.96,273.19,370,273.08,370.1z"/>
			</g>
			<g class="st8">
				<path d="M298.49,351.44c-0.08,0.11-2.27-1.52-4.44-4.05c-2.19-2.52-3.5-4.9-3.38-4.96c0.13-0.08,1.62,2.14,3.78,4.62
					C296.59,349.55,298.59,351.33,298.49,351.44z"/>
			</g>
			<g class="st8">
				<path d="M325.94,329.64c-0.08,0.11-2.27-1.52-4.44-4.05c-2.19-2.52-3.5-4.9-3.38-4.96c0.13-0.08,1.62,2.14,3.78,4.62
					C324.04,327.75,326.04,329.52,325.94,329.64z"/>
			</g>
			<g class="st8">
				<path d="M353.15,306.12c-0.08,0.11-2.26-1.52-4.44-4.05c-2.19-2.52-3.5-4.9-3.38-4.96c0.13-0.08,1.62,2.14,3.78,4.62
					C351.24,304.23,353.25,306,353.15,306.12z"/>
			</g>
		</g>
		<g>
			<g>
				<g>
					<g>
						<path class="st6" d="M58.7,294.75l56.58,82.6c1.44,2.1,3.96,3.19,6.47,2.79l44.02-6.92c4.36-0.69,6.59-5.62,4.22-9.35
							l-51.01-80.15c-2.34-3.68-6.63-5.63-10.94-4.99l-45.28,6.73C58.39,286.11,56.21,291.11,58.7,294.75z"/>
					</g>
					<g>
						<g>
							<g>
								<g>
									<g>
										<g>
											<path class="st9" d="M110.62,326.34c0.41-2.81-1.9-5.3-4.73-5.39c-1.54-0.05-3.57-0.07-6.06,0.01
												c-6.44,0.2-26.07,8.19-26.84,11.92c-1.13,5.47,1.52,7.8,1.52,7.8s-4.05,4.65-2.97,8.8c0.93,3.56,6.41,5.15,6.41,5.15
												s-4.46,4.52-0.44,8.24c1.4,1.29,4.21,3.78,4.84,4.59c0,0,0.44,2.19,0.95,3.04c1.72,2.8,4.57,4.72,7.81,5.25l1.06,0.17
												c2.04,0.33,4.13-0.11,5.85-1.25c7.81-5.15,29.92-20.09,30.66-24.62c0,0,4.22-2.83,2.87-6.21
												c-1.35-3.38-7.4-2.37-7.4-2.37s3.04-1.99,1.9-5.51c-1.14-3.52-11.74-3.96-16.59-3.67c-3.86,0.23-14.66,1.22-14.66,1.22
												s14.55-3.87,15.56-6.24C110.49,326.98,110.58,326.67,110.62,326.34z"/>
										</g>
									</g>
								</g>
								<g>
									<g>
										<g>
											<g>
												<path class="st10" d="M128.7,350.05c0.01,0.03-0.52,0.3-1.49,0.77c-0.97,0.47-2.4,1.1-4.19,1.82
													c-3.57,1.47-8.59,3.28-14.22,5.01c-5.63,1.73-10.79,3.08-14.54,3.98c-1.87,0.46-3.4,0.8-4.45,1.03
													c-1.06,0.22-1.64,0.33-1.65,0.3c-0.01-0.04,0.56-0.21,1.6-0.5c1.13-0.3,2.61-0.71,4.41-1.19
													c3.72-1,8.86-2.41,14.48-4.13c5.62-1.73,10.65-3.47,14.24-4.85c1.8-0.68,3.25-1.26,4.25-1.67
													C128.12,350.23,128.68,350.02,128.7,350.05z"/>
											</g>
										</g>
									</g>
								</g>
								<g>
									<g>
										<g>
											<g>
												<path class="st10" d="M124.82,341.4c0,0.04-0.56,0.11-1.58,0.22c-1.02,0.13-2.49,0.29-4.29,0.57
													c-3.62,0.53-8.57,1.54-14.01,2.84c-2.72,0.66-5.32,1.22-7.65,1.86c-2.33,0.64-4.4,1.31-6.13,1.91
													c-1.73,0.6-3.11,1.14-4.06,1.51c-0.95,0.37-1.48,0.59-1.49,0.55c-0.01-0.02,0.11-0.09,0.35-0.22
													c0.24-0.13,0.6-0.31,1.06-0.52c0.93-0.43,2.29-1.03,4.01-1.67c1.72-0.65,3.79-1.36,6.12-2.03
													c2.34-0.67,4.94-1.25,7.66-1.9c5.44-1.3,10.43-2.26,14.08-2.69c1.82-0.23,3.3-0.34,4.33-0.41
													C124.25,341.37,124.82,341.36,124.82,341.4z"/>
											</g>
										</g>
									</g>
								</g>
								<g>
									<g>
										<g>
											<g>
												<path class="st10" d="M94.8,333.51c0.02,0.06-0.87,0.49-2.37,1.06c-1.49,0.58-3.59,1.28-5.9,2.05
													c-2.31,0.77-4.38,1.52-5.86,2.1c-1.49,0.58-2.4,0.95-2.44,0.88c-0.03-0.06,0.83-0.55,2.29-1.22
													c1.46-0.67,3.52-1.48,5.84-2.26c2.32-0.78,4.43-1.42,5.95-1.91C93.83,333.74,94.78,333.44,94.8,333.51z"/>
											</g>
										</g>
									</g>
								</g>
							</g>
							<g>
								<g>
									<g>
										<g>
											<path class="st10" d="M121.43,357.9c0.02,0.03-0.35,0.4-1.06,1.04c-0.71,0.64-1.77,1.54-3.11,2.6
												c-2.67,2.14-6.55,4.85-10.74,7.94c-1.04,0.77-2.04,1.58-3.06,2.28c-1.02,0.7-2.05,1.32-3.06,1.85
												c-2.02,1.06-3.99,1.73-5.7,2.02c-1.71,0.31-3.13,0.23-4.07,0.08c-0.48-0.05-0.84-0.17-1.08-0.23
												c-0.24-0.07-0.37-0.11-0.37-0.13c0.01-0.05,0.53,0.07,1.47,0.15c0.94,0.09,2.33,0.11,3.98-0.24
												c1.66-0.33,3.57-1.02,5.54-2.09c0.98-0.54,1.99-1.15,2.99-1.85c1-0.69,1.99-1.49,3.04-2.28
												c4.21-3.1,8.11-5.75,10.83-7.81c1.37-1.02,2.45-1.87,3.21-2.46C120.99,358.19,121.41,357.87,121.43,357.9z"/>
										</g>
									</g>
								</g>
							</g>
						</g>
					</g>
				</g>
				<g>
					<path class="st3" d="M95.59,302.08c-0.25,1.75-2.23,2.92-4.42,2.61c-2.19-0.31-3.76-1.99-3.51-3.74
						c0.25-1.75,2.23-2.92,4.42-2.61C94.27,298.65,95.84,300.33,95.59,302.08z"/>
				</g>
			</g>
		</g>
		<g>
			<path class="st6" d="M326.29,313.9c0.02,0.03-0.34,0.4-1.01,1.04c-0.67,0.65-1.67,1.56-2.93,2.65
				c-2.52,2.19-6.11,5.08-10.16,8.17c-4.05,3.08-7.77,5.8-10.46,7.77c-1.29,0.93-2.37,1.71-3.2,2.31c-0.76,0.54-1.19,0.82-1.21,0.8
				c-0.02-0.03,0.37-0.37,1.09-0.96c0.72-0.59,1.78-1.42,3.1-2.44c2.73-2.08,6.36-4.84,10.37-7.89c4.04-3.08,7.67-5.92,10.24-8.04
				c1.29-1.05,2.32-1.92,3.04-2.52C325.86,314.2,326.26,313.88,326.29,313.9z"/>
		</g>
		<g>
			<path class="st6" d="M337.04,319.63c0.03,0.03-0.35,0.44-1.05,1.17c-0.7,0.73-1.73,1.76-3.03,3.02
				c-2.59,2.51-6.27,5.89-10.49,9.43c-4.23,3.54-8.19,6.57-11.12,8.69c-1.46,1.06-2.66,1.9-3.5,2.46c-0.84,0.56-1.31,0.86-1.33,0.83
				c-0.02-0.03,0.41-0.38,1.21-0.99c0.88-0.67,2.02-1.54,3.4-2.59c2.87-2.19,6.79-5.26,11-8.79c4.21-3.53,7.92-6.86,10.58-9.3
				c1.27-1.17,2.33-2.15,3.14-2.89C336.59,319.97,337.02,319.6,337.04,319.63z"/>
		</g>
		<g>
			<path class="st6" d="M257.45,366.21c0.01,0.02-0.12,0.12-0.37,0.3c-0.3,0.21-0.67,0.47-1.11,0.78c-0.97,0.67-2.4,1.61-4.17,2.76
				c-3.55,2.3-8.5,5.38-13.99,8.74c-5.46,3.34-10.4,6.37-14.07,8.61c-1.74,1.07-3.18,1.96-4.26,2.62c-0.46,0.28-0.85,0.51-1.17,0.7
				c-0.27,0.15-0.42,0.23-0.43,0.21c-0.01-0.02,0.12-0.12,0.37-0.3c0.3-0.21,0.67-0.47,1.11-0.78c0.97-0.67,2.4-1.61,4.17-2.76
				c3.54-2.3,8.5-5.38,13.99-8.74c5.46-3.34,10.4-6.36,14.07-8.61c1.74-1.07,3.18-1.96,4.26-2.62c0.46-0.28,0.85-0.51,1.17-0.7
				C257.29,366.27,257.44,366.2,257.45,366.21z"/>
		</g>
		<g>
			<path class="st6" d="M271.31,370.74c0.01,0.01-0.12,0.13-0.37,0.33c-0.3,0.23-0.67,0.52-1.11,0.87c-0.97,0.75-2.4,1.79-4.18,3.06
				c-3.56,2.54-8.58,5.9-14.23,9.45c-5.65,3.55-10.83,6.65-14.59,8.89c-1.83,1.08-3.34,1.96-4.46,2.62
				c-0.49,0.28-0.89,0.5-1.23,0.69c-0.28,0.15-0.44,0.23-0.45,0.21c-0.01-0.02,0.13-0.12,0.39-0.3c0.32-0.21,0.71-0.47,1.17-0.78
				c1.1-0.7,2.58-1.63,4.37-2.77c3.78-2.35,8.87-5.51,14.5-9.01c5.64-3.54,10.69-6.85,14.3-9.31c1.75-1.2,3.2-2.18,4.27-2.92
				c0.47-0.31,0.85-0.57,1.17-0.79C271.15,370.81,271.3,370.73,271.31,370.74z"/>
		</g>
		<g>
			<g class="st8">
				<path class="st7" d="M212.77,161.46c-0.31-0.15-0.66,0.03-0.96,0.18c-3.17,1.61-7.1-0.15-9.78-2.5
					c-1.68,1.86-1.72,4.93-0.21,6.93c1.51,2,4.37,2.8,6.75,2.01c2.38-0.79,4.16-3.04,4.54-5.52
					C213.18,162.15,213.15,161.63,212.77,161.46z"/>
			</g>
			<g class="st8">
				<path class="st7" d="M244.89,163.45c3.4,1.07,7.7,1.11,9.96-1.65c0.21-0.26,0.47-0.56,0.81-0.55c0.41,0.01,0.65,0.48,0.76,0.87
					c0.66,2.42-0.07,5.2-1.94,6.88s-4.8,2.1-6.99,0.88C245.3,168.65,244.11,165.82,244.89,163.45"/>
			</g>
			<g class="st8">
				<path class="st7" d="M295.06,148.74c-0.24,0.24-4.21-3.35-10.18-9.58c-5.97-6.23-13.9-15.15-22.04-25.5
					c-8.14-10.36-14.95-20.17-19.58-27.45c-4.64-7.27-7.19-11.97-6.9-12.15c0.32-0.2,3.41,4.14,8.43,11.12
					c5.01,6.98,12.01,16.56,20.11,26.87c8.1,10.3,15.76,19.36,21.36,25.88C291.85,144.45,295.33,148.48,295.06,148.74z"/>
			</g>
			<g class="st8">
				<path class="st7" d="M213.96,83.53c0.19,0.21-2.46,2.62-5.98,7.12c-0.43,0.57-0.89,1.16-1.36,1.78
					c-0.47,0.62-0.89,1.32-1.37,2.01c-0.98,1.37-1.85,2.93-2.82,4.55c-1.82,3.3-3.58,7.06-5.01,11.17c-1.39,4.12-2.31,8.18-2.9,11.9
					c-0.23,1.87-0.5,3.65-0.57,5.32c-0.05,0.84-0.14,1.65-0.15,2.42c-0.01,0.78-0.02,1.53-0.02,2.24c0.01,5.72,0.63,9.25,0.35,9.29
					c-0.11,0.02-0.34-0.85-0.66-2.44c-0.08-0.4-0.17-0.85-0.26-1.33c-0.08-0.49-0.13-1.02-0.2-1.59c-0.12-1.15-0.32-2.45-0.33-3.91
					c-0.03-0.73-0.05-1.49-0.08-2.28c-0.02-0.79,0.04-1.62,0.06-2.48c0.01-1.72,0.24-3.54,0.44-5.45c0.53-3.82,1.43-7.98,2.85-12.21
					c1.47-4.21,3.31-8.04,5.24-11.38c1.02-1.64,1.96-3.21,3-4.57c0.51-0.69,0.97-1.38,1.47-1.99c0.51-0.61,1-1.19,1.46-1.76
					c0.9-1.14,1.86-2.05,2.66-2.88c0.41-0.41,0.77-0.8,1.14-1.14c0.37-0.32,0.71-0.62,1.02-0.89
					C213.18,83.99,213.89,83.45,213.96,83.53z"/>
			</g>
			<g class="st8">
				<path class="st7" d="M209.35,118.54c0.27,0.22,0.13,0.93-0.44,1.86c-0.57,0.93-1.6,2.04-2.97,2.97
					c-1.37,0.93-2.79,1.47-3.86,1.65c-1.08,0.19-1.79,0.06-1.89-0.28c-0.2-0.71,1.92-1.9,4.29-3.53
					C206.87,119.62,208.76,118.09,209.35,118.54z"/>
			</g>
			<g class="st8">
				<path class="st7" d="M260.38,124.42c-0.05,0.35-0.78,0.58-1.93,0.53c-1.15-0.05-2.71-0.41-4.28-1.2
					c-1.57-0.78-2.8-1.82-3.52-2.71c-0.73-0.89-0.98-1.61-0.74-1.86c0.53-0.51,2.69,0.89,5.42,2.24
					C258.06,122.81,260.48,123.69,260.38,124.42z"/>
			</g>
			<g class="st8">
				<path class="st7" d="M233.27,133.93c0.33,0.17-0.38,2.2-1.54,5.43c-1.2,3.32-2.79,7.74-4.55,12.62
					c-3.52,9.89-6.64,17.86-7.36,17.62c-0.65-0.22,1.36-8.53,4.91-18.51c1.79-4.98,3.69-9.39,5.32-12.48
					C231.66,135.52,232.96,133.77,233.27,133.93z"/>
			</g>
			<g class="st8">
				<path class="st7" d="M231.26,172.89c-0.47-0.36-1.11-0.33-1.7-0.29c-3.9,0.27-8.61-0.15-12.52-0.12
					c1.74,2.26,3.87,4.39,6.58,5.28c2.71,0.89,6.1,0.22,7.66-2.17C231.83,174.76,232.05,173.49,231.26,172.89z"/>
			</g>
		</g>
	</g>
</g>
<g id="Social_Media_elements_2">
	<g>
		<g>
			<g>
				<g>
					<g>
						
							<ellipse transform="matrix(0.3621 -0.9321 0.9321 0.3621 -19.9069 384.9706)" class="st7" cx="271.31" cy="207.03" rx="21.56" ry="21.56"/>
					</g>
				</g>
			</g>
			<g>
				<g>
					<g>
						<path class="st6" d="M279.33,206.59c-0.64,1.43-0.28,2.99,0.81,3.47c1.09,0.48,2.49-0.29,3.13-1.72
							c0.64-1.43,0.28-2.99-0.81-3.47C281.37,204.38,279.97,205.15,279.33,206.59z"/>
					</g>
				</g>
			</g>
			<g>
				<g>
					<g>
						<path class="st6" d="M262.96,199.29c-0.64,1.43-0.28,2.99,0.81,3.47c1.09,0.48,2.49-0.29,3.13-1.72
							c0.64-1.43,0.28-2.99-0.81-3.47C265,197.09,263.6,197.86,262.96,199.29z"/>
					</g>
				</g>
			</g>
		</g>
		<g>
			<g>
				<g>
					<path class="st6" d="M277.24,209.64c-1.7,2.24-4.94,3.17-7.55,2.02c-2.59-1.15-4.15-4.13-3.64-6.91
						c0.15-0.83,1.47-0.69,1.31,0.14c-0.41,2.2,0.73,4.61,2.81,5.54c2.07,0.92,4.64,0.2,6-1.58
						C276.71,208.17,277.76,208.96,277.24,209.64L277.24,209.64z"/>
				</g>
			</g>
		</g>
	</g>
	<g>
		<g>
			<g>
				<g>
					<g>
						<path class="st7" d="M375.41,140.48c2.62,9.64,12.57,15.33,22.21,12.71c9.64-2.62,15.33-12.57,12.71-22.21
							c-2.62-9.64-12.57-15.33-22.21-12.71C378.47,120.89,372.78,130.84,375.41,140.48z"/>
					</g>
				</g>
			</g>
			<g>
				<g>
					<g>
						<path class="st6" d="M397.85,131.19c0.35,1.27,1.41,2.09,2.37,1.83c0.96-0.26,1.46-1.51,1.12-2.78
							c-0.35-1.27-1.41-2.09-2.37-1.83C398,128.67,397.5,129.91,397.85,131.19z"/>
					</g>
				</g>
			</g>
			<g>
				<g>
					<g>
						<path class="st6" d="M383.33,135.13c0.35,1.27,1.41,2.09,2.37,1.83c0.96-0.26,1.46-1.51,1.12-2.78
							c-0.35-1.27-1.41-2.09-2.37-1.83C383.49,132.62,382.99,133.86,383.33,135.13z"/>
					</g>
				</g>
			</g>
		</g>
		<g>
			<g>
				<g>
					<path class="st6" d="M389.38,140.33c-0.21-2.35,1.28-4.76,3.55-5.51c2.26-0.75,4.91,0.22,6.16,2.24
						c0.37,0.6-0.52,1.26-0.9,0.65c-0.99-1.59-3.06-2.45-4.87-1.85c-1.81,0.6-3,2.5-2.84,4.37
						C390.55,140.94,389.45,141.04,389.38,140.33L389.38,140.33z"/>
				</g>
			</g>
		</g>
	</g>
	<g>
		<g>
			<g>
				<g>
					<g>
						<g>
							<g>
								<g>
									<g>
										<g>
											
												<rect x="312.02" y="160.33" transform="matrix(0.38 -0.925 0.925 0.38 32.3416 428.5881)" class="st2" width="47.71" height="59.68"/>
										</g>
									</g>
								</g>
							</g>
						</g>
					</g>
					<g>
						<g>
							<g>
								<g>
									<g>
										<g>
											<g>
												<path class="st6" d="M372.54,179.44c0,0-0.1-0.03-0.27-0.1c-0.18-0.07-0.44-0.18-0.78-0.31
													c-0.69-0.28-1.7-0.69-3.01-1.21c-2.63-1.07-6.46-2.63-11.32-4.6c-9.7-3.97-23.49-9.6-39.89-16.3l0.2-0.08
													c-5.39,13.14-11.57,28.2-18.11,44.13l0,0l-0.09-0.23c20.43,8.41,39.42,16.22,55.19,22.7l-0.19,0.08
													c5.49-13.28,10.04-24.28,13.22-31.98c1.6-3.85,2.85-6.86,3.71-8.93c0.43-1.03,0.76-1.81,0.98-2.35
													C372.41,179.72,372.54,179.44,372.54,179.44s-0.1,0.27-0.31,0.8c-0.22,0.54-0.53,1.32-0.94,2.34
													c-0.84,2.07-2.07,5.08-3.63,8.93c-3.16,7.73-7.67,18.78-13.11,32.12l-0.05,0.13l-0.13-0.05
													c-15.78-6.47-34.77-14.26-55.21-22.65l-0.16-0.07l0.07-0.16l0,0c6.55-15.93,12.74-30.99,18.14-44.12l0.06-0.14
													l0.14,0.06c16.41,6.78,30.21,12.47,39.92,16.48c4.83,2,8.64,3.58,11.25,4.67c1.29,0.54,2.28,0.95,2.96,1.24
													c0.33,0.14,0.58,0.24,0.76,0.32C372.46,179.4,372.54,179.44,372.54,179.44z"/>
											</g>
										</g>
									</g>
								</g>
							</g>
						</g>
					</g>
				</g>
			</g>
		</g>
		<g>
			<g>
				<g>
					<g>
						<g>
							<g>
								
									<rect x="314.99" y="162.41" transform="matrix(0.38 -0.925 0.925 0.38 32.3324 428.5451)" class="st7" width="41.7" height="55.49"/>
							</g>
						</g>
					</g>
				</g>
			</g>
		</g>
		<g>
			<g>
				<g>
					<g>
						<g>
							<g>
								<polygon class="st7" points="302.25,198.9 330.03,182.29 334.97,201.85 345.8,196.92 353.58,219.98 								"/>
							</g>
						</g>
					</g>
				</g>
			</g>
		</g>
		<g>
			<g>
				<g>
					<g>
						<g>
							<g>
								<g>
									<g>
										<path class="st7" d="M347.05,185.85c-0.92,2.23-3.47,3.3-5.7,2.38c-2.23-0.92-3.3-3.47-2.38-5.7
											c0.92-2.23,3.47-3.3,5.7-2.38C346.9,181.06,347.97,183.61,347.05,185.85z"/>
									</g>
								</g>
							</g>
						</g>
					</g>
				</g>
			</g>
		</g>
		<g class="st8">
			<g>
				<g>
					<g>
						<g>
							<g>
								<polygon points="302.25,198.9 330.03,182.29 334.97,201.85 345.8,196.92 353.58,219.98 								"/>
							</g>
						</g>
					</g>
				</g>
			</g>
		</g>
		<g class="st8">
			<g>
				<g>
					<g>
						<g>
							<g>
								<g>
									<g>
										<path d="M347.05,185.85c-0.92,2.23-3.47,3.3-5.7,2.38c-2.23-0.92-3.3-3.47-2.38-5.7c0.92-2.23,3.47-3.3,5.7-2.38
											C346.9,181.06,347.97,183.61,347.05,185.85z"/>
									</g>
								</g>
							</g>
						</g>
					</g>
				</g>
			</g>
		</g>
	</g>
	<g>
		<g>
			<g>
				<path class="st7" d="M428.62,192.06l12.08,19.64c0.64,1.05,0.32,2.41-0.73,3.06l-7.62,4.68c-1.05,0.64-2.41,0.32-3.06-0.73
					l-12.08-19.64c-0.64-1.05-0.32-2.42,0.73-3.06l7.62-4.68C426.61,190.68,427.98,191.01,428.62,192.06z"/>
			</g>
		</g>
		<g>
			<g>
				<g>
					<g>
						<path class="st7" d="M428.04,220.33l-12.87-20.94c0,0-5.16,1.94-13.12-1.8c-5.27-2.47-8.55-5.07-10.19-6.57
							c-1-0.92-2.53-1.01-3.6-0.17c-1.01,0.8-2.06,2.03-1.76,4.22c0.56,4.06,7.47,10.49,7.47,10.49s1.81,1.03-0.37,2.37l-7.77,4.78
							c-1.01,0.62-1.8,1.56-2.16,2.69c-0.32,0.99-0.35,2.22,0.55,3.45c2.05,2.81,4.42,3.18,4.8,3.8c0.38,0.62,0.2,2.24,1.92,3.65
							c1.72,1.41,2.02,1.01,2.54,1.87c0.53,0.86,2.02,2.94,3.38,3.93c1.36,0.99,2.36,1.23,2.36,1.23s1.49,2.95,3.27,4.1
							c1.78,1.16,5.58,0,6.67-0.67s7.92-7.01,9.76-8.9C420.78,225.97,425.32,220.61,428.04,220.33z"/>
					</g>
				</g>
			</g>
		</g>
		<path class="st3" d="M427.69,198.46c0.65,1.25,0.16,2.79-1.09,3.44c-1.25,0.65-2.79,0.16-3.44-1.09
			c-0.65-1.25-0.16-2.79,1.09-3.44C425.5,196.71,427.04,197.2,427.69,198.46z"/>
	</g>
	<g>
		<g>
			<g>
				<path class="st7" d="M371.7,67.18l1.74,23.51c0.09,1.25-0.85,2.34-2.1,2.43l-9.12,0.67c-1.25,0.09-2.34-0.85-2.43-2.1
					l-1.74-23.51c-0.09-1.25,0.85-2.34,2.1-2.43l9.12-0.67C370.52,64.99,371.61,65.93,371.7,67.18z"/>
			</g>
		</g>
		<g>
			<g>
				<g>
					<g>
						<path class="st7" d="M357.88,92.58l-1.85-25.07c0,0-5.6-0.66-11.07-7.8c-3.62-4.72-5.38-8.62-6.17-10.76
							c-0.48-1.3-1.82-2.11-3.19-1.85c-1.29,0.25-2.82,0.88-3.58,3.01c-1.4,3.95,1.85,13.04,1.85,13.04s1.16,1.79-1.45,1.98
							l-9.31,0.69c-1.21,0.09-2.36,0.57-3.22,1.43c-0.75,0.75-1.36,1.85-1.12,3.39c0.54,3.52,2.52,4.97,2.58,5.71
							c0.06,0.75-0.87,2.13,0.03,4.21c0.9,2.09,1.36,1.87,1.43,2.89c0.08,1.03,0.45,3.62,1.22,5.16c0.77,1.54,1.57,2.23,1.57,2.23
							s-0.03,3.38,1.04,5.26c1.08,1.89,5.07,2.62,6.37,2.53c1.3-0.1,10.49-2.65,13.05-3.49C348.64,94.3,355.28,91.56,357.88,92.58z"
							/>
					</g>
				</g>
			</g>
		</g>
		<path class="st3" d="M367.85,72.56c0,1.44-1.17,2.61-2.61,2.61c-1.44,0-2.61-1.17-2.61-2.61c0-1.44,1.17-2.61,2.61-2.61
			C366.68,69.94,367.85,71.11,367.85,72.56z"/>
	</g>
	<g>
		<g>
			<g>
				<g>
					<g>
						<g>
							<path class="st3" d="M371.98,235.11h-57.91c-5.05,0-9.14,4.09-9.14,9.14v21.72c0,5.05,4.09,9.14,9.14,9.14h33.43
								c1.51,3.28,4.35,5.91,7.56,7.64c2.62,1.42,5.48,2.31,8.39,2.99c1.14,0.27,2-1.03,1.28-1.96c-1.95-2.53-3.28-5.53-3.89-8.67
								h11.13c5.05,0,9.14-4.09,9.14-9.14v-21.72C381.12,239.21,377.03,235.11,371.98,235.11z"/>
						</g>
					</g>
					<g>
						<g>
							<g>
								<path class="st6" d="M371.98,235.11c0,0,0.1,0,0.29,0.01c0.19,0.02,0.48,0,0.85,0.05c0.74,0.08,1.86,0.31,3.16,0.97
									c1.28,0.67,2.74,1.85,3.78,3.7c0.5,0.93,0.89,2.01,1.05,3.22c0.08,0.6,0.09,1.23,0.09,1.86c0,0.64,0,1.3,0,1.97
									c0,5.4,0.04,11.94,0.01,19.44c-0.02,0.95-0.22,1.9-0.55,2.82c-0.34,0.91-0.81,1.8-1.45,2.58c-1.26,1.56-3.06,2.79-5.15,3.24
									c-1.03,0.25-2.12,0.25-3.19,0.24c-1.07,0-2.16,0-3.26,0c-2.2,0-4.45,0-6.75,0l0.11-0.14c0.47,2.42,1.39,4.82,2.76,7.02
									c0.34,0.55,0.72,1.08,1.11,1.61c0.22,0.28,0.32,0.66,0.26,1.02c-0.06,0.36-0.26,0.69-0.56,0.9
									c-0.29,0.22-0.69,0.29-1.04,0.23c-0.34-0.07-0.66-0.15-0.99-0.23c-0.65-0.16-1.31-0.34-1.96-0.54
									c-2.61-0.78-5.22-1.85-7.55-3.48c-2.31-1.62-4.37-3.79-5.61-6.46l0.12,0.07c-7.7,0-15.67,0-23.84,0c-2.04,0-4.06,0-6.07,0
									c-1.01,0-2.01,0-3.01,0c-0.5,0.01-1-0.02-1.51-0.05l-0.75-0.11c-0.25-0.04-0.49-0.12-0.73-0.17
									c-0.97-0.27-1.89-0.69-2.72-1.25c-0.82-0.57-1.55-1.26-2.15-2.04c-0.61-0.78-1.09-1.66-1.4-2.59
									c-0.31-0.93-0.51-1.9-0.52-2.87c0-7.68,0.01-15.09,0.01-22.14c0-0.9,0.19-1.77,0.44-2.62c0.27-0.84,0.68-1.62,1.15-2.35
									c0.5-0.71,1.09-1.35,1.74-1.91c0.67-0.53,1.39-1,2.17-1.34c0.78-0.33,1.58-0.59,2.41-0.69c0.83-0.13,1.66-0.1,2.46-0.1
									c1.62,0,3.22,0,4.78,0c6.27,0.01,12.12,0.01,17.45,0.02c10.67,0.02,19.3,0.03,25.27,0.04c2.98,0.01,5.29,0.02,6.87,0.02
									c0.78,0.01,1.38,0.01,1.79,0.01C371.77,235.1,371.98,235.11,371.98,235.11s-0.21,0.01-0.61,0.01
									c-0.41,0-1.01,0.01-1.79,0.01c-1.58,0.01-3.89,0.01-6.87,0.02c-5.97,0.01-14.6,0.02-25.27,0.04
									c-5.34,0-11.18,0.01-17.45,0.02c-1.57,0-3.16,0-4.78,0c-0.81,0-1.63-0.02-2.43,0.11c-0.81,0.1-1.6,0.35-2.35,0.67
									c-0.76,0.33-1.46,0.79-2.11,1.31c-0.64,0.54-1.21,1.17-1.69,1.87c-0.46,0.71-0.86,1.47-1.12,2.29
									c-0.24,0.82-0.43,1.68-0.43,2.55c0,7.05,0,14.46,0,22.13c0,0.95,0.2,1.89,0.5,2.79c0.3,0.9,0.77,1.76,1.36,2.52
									c0.59,0.76,1.3,1.43,2.1,1.98c0.81,0.54,1.7,0.95,2.64,1.21c0.24,0.05,0.47,0.13,0.71,0.17l0.73,0.11
									c0.49,0.03,0.98,0.06,1.48,0.05c1,0,2,0,3.01,0c2.01,0,4.03,0,6.07,0c8.17,0,16.14,0,23.84,0h0.08l0.03,0.07
									c1.22,2.62,3.23,4.76,5.52,6.36c2.3,1.61,4.88,2.67,7.47,3.45c0.65,0.19,1.3,0.37,1.95,0.54c0.32,0.08,0.66,0.17,0.97,0.23
									c0.3,0.05,0.62,0,0.86-0.19c0.25-0.17,0.42-0.45,0.47-0.74c0.05-0.3-0.04-0.6-0.22-0.84c-0.4-0.53-0.78-1.07-1.12-1.62
									c-1.39-2.23-2.31-4.66-2.79-7.11l-0.03-0.14l0.14,0c2.3,0,4.55,0,6.75,0c1.1,0,2.19,0,3.26,0c1.08,0.01,2.13,0,3.14-0.23
									c2.04-0.44,3.8-1.64,5.04-3.16c0.63-0.76,1.09-1.63,1.42-2.52c0.33-0.89,0.53-1.83,0.55-2.76
									c0.02-7.49,0.03-14.04,0.04-19.44c-0.02-1.35,0.06-2.63-0.08-3.82c-0.15-1.19-0.53-2.26-1.02-3.18
									c-1.02-1.84-2.45-3.01-3.72-3.69c-1.28-0.67-2.39-0.91-3.13-1c-0.37-0.06-0.66-0.05-0.85-0.07
									C372.08,235.12,371.98,235.11,371.98,235.11z"/>
							</g>
						</g>
					</g>
				</g>
			</g>
		</g>
		<g>
			<g>
				<path class="st7" d="M323.44,254.25c0,2.97-2.41,5.38-5.38,5.38s-5.38-2.41-5.38-5.38c0-2.97,2.41-5.38,5.38-5.38
					S323.44,251.28,323.44,254.25z"/>
			</g>
		</g>
		<g>
			<g>
				<rect x="327.18" y="248.91" class="st1" width="42.55" height="2.5"/>
			</g>
		</g>
		<g>
			<g>
				<rect x="327.18" y="254.89" class="st1" width="42.55" height="2.5"/>
			</g>
		</g>
		<g>
			<g>
				<rect x="327.18" y="260.87" class="st1" width="17.17" height="2.5"/>
			</g>
		</g>
	</g>
</g>
</svg>
