<?xml version="1.0" encoding="utf-8"?>
<!-- Generator: Adobe Illustrator 25.2.1, SVG Export Plug-In . SVG Version: 6.00 Build 0)  -->
<svg version="1.1" xmlns="http://www.w3.org/2000/svg" xmlns:xlink="http://www.w3.org/1999/xlink" x="0px" y="0px"
	 viewBox="0 0 500 500" style="enable-background:new 0 0 500 500;" xml:space="preserve">
<style type="text/css">
	.st0{fill:#EBEBEB;}
	.st1{fill:#F5F5F5;}
	.st2{fill:#E0E0E0;}
	.st3{fill:#FAFAFA;}
	.st4{fill:#E6E6E6;}
	.st5{fill:#F0F0F0;}
	.st6{display:none;}
	.st7{display:inline;}
	.st8{fill:#407BFF;}
	.st9{opacity:0.9;fill:#FFFFFF;}
	.st10{opacity:0.6;fill:#FFFFFF;}
	.st11{opacity:0.3;fill:#FFFFFF;}
	.st12{fill:#263238;}
	.st13{opacity:0.5;fill:#FFFFFF;}
	.st14{opacity:0.7;fill:#FFFFFF;}
	.st15{opacity:0.3;}
	.st16{opacity:0.4;}
	.st17{opacity:0.5;}
	.st18{opacity:0.2;fill:#FFFFFF;}
	.st19{fill:#FF8B7B;}
	.st20{opacity:0.2;}
	.st21{fill:#FF5652;}
	.st22{fill:#FFFFFF;}
</style>
<g id="Background_Complete">
	<g>
		<g>
			<path class="st0" d="M83.72,285.65c0-1.25-0.71-2.32-1.75-2.87c0.79-0.02,1.42-0.67,1.42-1.46c0-0.81-0.66-1.46-1.46-1.46
				c0.81,0,1.46-0.66,1.46-1.46s-0.66-1.46-1.46-1.46c0.81,0,1.46-0.66,1.46-1.46c0-0.81-0.66-1.46-1.46-1.46h-0.11
				c1.59-4.13,2.7-14.44,2.79-18.54c0.24-10.3-1.85-40.99-4.14-40.99c-2.29,0-4.38,30.69-4.14,40.99c0.09,4.1,1.2,14.41,2.79,18.54
				h-0.11c-0.81,0-1.46,0.66-1.46,1.46c0,0.81,0.66,1.46,1.46,1.46c-0.81,0-1.46,0.66-1.46,1.46s0.66,1.46,1.46,1.46
				c-0.81,0-1.46,0.66-1.46,1.46c0,0.79,0.63,1.44,1.42,1.46c-1.03,0.54-1.75,1.62-1.75,2.87c0,1.8,1.46,3.25,3.25,3.25
				S83.72,287.45,83.72,285.65z"/>
			<path class="st0" d="M83.72,367.1c0-1.25-0.71-2.32-1.75-2.87c0.79-0.02,1.42-0.67,1.42-1.46c0-0.81-0.66-1.46-1.46-1.46
				c0.81,0,1.46-0.66,1.46-1.46s-0.66-1.46-1.46-1.46c0.81,0,1.46-0.66,1.46-1.46c0-0.81-0.66-1.46-1.46-1.46h-0.42
				c1.83-7.04,3.29-30.25,3.09-38.94c-0.1-4.2-1.25-14.92-2.91-18.83h0.23c0.81,0,1.46-0.66,1.46-1.46c0-0.81-0.66-1.46-1.46-1.46
				c0.81,0,1.46-0.66,1.46-1.46s-0.66-1.46-1.46-1.46c0.81,0,1.46-0.66,1.46-1.46c0-0.81-0.66-1.46-1.46-1.46h-1.46h-1.46
				c-0.81,0-1.46,0.66-1.46,1.46c0,0.81,0.66,1.46,1.46,1.46c-0.81,0-1.46,0.66-1.46,1.46s0.66,1.46,1.46,1.46
				c-0.81,0-1.46,0.66-1.46,1.46c0,0.81,0.66,1.46,1.46,1.46h0.23c-1.65,3.92-2.81,14.64-2.91,18.83c-0.2,8.69,1.26,31.9,3.09,38.94
				h-0.42c-0.81,0-1.46,0.66-1.46,1.46c0,0.81,0.66,1.46,1.46,1.46c-0.81,0-1.46,0.66-1.46,1.46s0.66,1.46,1.46,1.46
				c-0.81,0-1.46,0.66-1.46,1.46c0,0.79,0.63,1.44,1.42,1.46c-1.03,0.54-1.75,1.62-1.75,2.87c0,1.8,1.46,3.25,3.25,3.25
				S83.72,368.89,83.72,367.1z"/>
			<path class="st0" d="M93.34,379.13h-11.4c0.81,0,1.46-0.66,1.46-1.46c0-0.81-0.66-1.46-1.46-1.46c0.81,0,1.46-0.66,1.46-1.46
				s-0.66-1.46-1.46-1.46c0.81,0,1.46-0.66,1.46-1.46c0-0.81-0.66-1.46-1.46-1.46h-1.46h-1.46c-0.81,0-1.46,0.66-1.46,1.46
				c0,0.81,0.66,1.46,1.46,1.46c-0.81,0-1.46,0.66-1.46,1.46s0.66,1.46,1.46,1.46c-0.81,0-1.46,0.66-1.46,1.46
				c0,0.81,0.66,1.46,1.46,1.46H67.22c-2.04,0-3.69,1.65-3.69,3.69h33.5C97.02,380.78,95.37,379.13,93.34,379.13z"/>
		</g>
		<g>
			<polygon class="st1" points="88.37,219.88 72.18,219.88 75.41,186.72 85.15,186.72 			"/>
			<path class="st2" d="M84.31,223.33h-8.06c-1.61,0-3.05-0.97-3.66-2.46l-0.4-0.99h16.19l-0.4,0.99
				C87.36,222.36,85.91,223.33,84.31,223.33z"/>
			<path class="st1" d="M68.12,223.33h-8.06c-1.61,0-3.05-0.97-3.66-2.46l-0.4-0.99h16.19l-0.4,0.99
				C71.17,222.36,69.73,223.33,68.12,223.33z"/>
			<path class="st1" d="M100.49,223.33h-8.06c-1.61,0-3.05-0.97-3.66-2.46l-0.4-0.99h16.19l-0.4,0.99
				C103.54,222.36,102.1,223.33,100.49,223.33z"/>
			<polygon class="st2" points="72.18,219.88 56,219.88 66.27,186.72 75.41,186.72 			"/>
			<polygon class="st2" points="88.37,219.88 104.56,219.88 94.28,186.72 85.15,186.72 			"/>
		</g>
	</g>
	<g>
		<g>
			<g>
				<rect x="121.88" y="91.59" class="st3" width="74.97" height="254.33"/>
				<g>
					<polygon class="st1" points="185.69,91.59 181.31,91.59 155.16,345.92 159.54,345.92 					"/>
				</g>
				<rect x="121.4" y="88.36" class="st4" width="76.23" height="3.45"/>
				<rect x="121.4" y="345.69" class="st4" width="76.23" height="4.45"/>
				<g>
					<path class="st5" d="M200.6,355.64h-82.64V82.06h82.64V355.64z M124.25,349.34h70.04V88.36h-70.04V349.34z"/>
				</g>
			</g>
			<g>
				<rect x="212.61" y="91.59" class="st3" width="74.97" height="254.33"/>
				<g>
					<polygon class="st1" points="266.79,91.59 242.88,91.59 216.73,345.92 240.64,345.92 					"/>
				</g>
				<rect x="212.13" y="88.36" class="st4" width="76.23" height="3.45"/>
				<rect x="212.13" y="345.69" class="st4" width="76.23" height="4.45"/>
				<g>
					<path class="st5" d="M291.32,355.64h-82.64V82.06h82.64V355.64z M214.98,349.34h70.04V88.36h-70.04V349.34z"/>
				</g>
			</g>
		</g>
		<g>
			<rect x="303.33" y="91.59" class="st3" width="74.97" height="254.33"/>
			<g>
				<polygon class="st1" points="344.62,91.59 340.24,91.59 314.09,345.92 318.47,345.92 				"/>
			</g>
			<rect x="302.85" y="88.36" class="st4" width="76.23" height="3.45"/>
			<rect x="302.85" y="345.69" class="st4" width="76.23" height="4.45"/>
			<g>
				<path class="st5" d="M382.05,355.64H299.4V82.06h82.64V355.64z M305.7,349.34h70.04V88.36H305.7V349.34z"/>
			</g>
		</g>
	</g>
	<g>
		<g>
			<rect x="400.53" y="116.36" class="st1" width="32.51" height="42.23"/>
			<rect x="403.03" y="119.61" class="st4" width="27.5" height="35.73"/>
			<rect x="407.9" y="125.93" class="st3" width="17.77" height="23.08"/>
		</g>
		<g>
			<rect x="400.53" y="219.38" class="st2" width="32.51" height="42.23"/>
			<rect x="403.03" y="222.63" class="st1" width="27.5" height="35.73"/>
			<rect x="407.9" y="228.95" class="st2" width="17.77" height="23.08"/>
		</g>
		<g>
			<ellipse class="st1" cx="416.78" cy="188.98" rx="13.31" ry="19.5"/>
			<ellipse class="st0" cx="416.78" cy="188.98" rx="9.62" ry="14.09"/>
			<ellipse class="st3" cx="416.78" cy="188.98" rx="6.8" ry="9.96"/>
		</g>
	</g>
</g>
<g id="Background_Simple" class="st6">
	<g class="st7">
		<path class="st8" d="M352.15,169.87C266.12,83.84,162.2,54.85,118.64,98.41c-46.42,46.42,6.78,86.96,5.67,121.31
			c-0.89,27.5-53.31,69.93-17.71,105.53c34.01,34.01,112.87-3.06,153.11,7.09c18.06,4.56,53.02,35.97,88.63,35.97
			C399.96,368.3,444.71,262.44,352.15,169.87z"/>
		<path class="st9" d="M352.15,169.87C266.12,83.84,162.2,54.85,118.64,98.41c-46.42,46.42,6.78,86.96,5.67,121.31
			c-0.89,27.5-53.31,69.93-17.71,105.53c34.01,34.01,112.87-3.06,153.11,7.09c18.06,4.56,53.02,35.97,88.63,35.97
			C399.96,368.3,444.71,262.44,352.15,169.87z"/>
	</g>
</g>
<g id="Shadow">
	<ellipse id="_x3C_Path_x3E__1_" class="st1" cx="245.18" cy="412.39" rx="193.89" ry="11.32"/>
</g>
<g id="Furniture">
	<g>
		<rect x="94.09" y="277.03" class="st8" width="84.18" height="126.64"/>
		<rect x="94.09" y="277.03" class="st10" width="84.18" height="126.64"/>
		<rect x="178.27" y="277.03" class="st8" width="18.16" height="126.64"/>
		<rect x="178.27" y="277.03" class="st11" width="18.16" height="126.64"/>
		<rect x="100.76" y="286.43" class="st8" width="71.33" height="30.76"/>
		<rect x="100.76" y="320.54" class="st8" width="71.33" height="30.76"/>
		<rect x="100.76" y="354.66" class="st8" width="71.33" height="30.76"/>
		<rect x="100.76" y="286.43" class="st11" width="71.33" height="30.76"/>
		<rect x="100.76" y="320.54" class="st11" width="71.33" height="30.76"/>
		<rect x="100.76" y="354.66" class="st11" width="71.33" height="30.76"/>
		<g>
			<polygon class="st8" points="172.09,410 101.76,410 100.76,403.66 172.09,403.66 			"/>
			<polygon class="st11" points="172.09,410 101.76,410 100.76,403.66 172.09,403.66 			"/>
			<polygon class="st8" points="189.09,410 172.09,410 172.09,403.66 190.09,403.66 			"/>
		</g>
		<g>
			<polygon class="st12" points="135.68,277.17 165.07,277.17 161.81,239.9 132.42,239.9 			"/>
			<polygon class="st13" points="135.68,277.17 165.07,277.17 161.81,239.9 132.42,239.9 			"/>
			<polygon class="st12" points="135.68,277.17 134.28,277.17 131.02,239.9 132.42,239.9 			"/>
			<polygon class="st8" points="138.35,273.37 161.74,273.37 159.15,243.7 135.75,243.7 			"/>
			<polygon class="st13" points="140.06,270.92 159.6,270.92 157.44,246.14 137.89,246.14 			"/>
		</g>
		<polygon points="158.79,277.17 157.02,256.95 155.64,256.95 157.41,277.17 		"/>
		<g>
			<polygon class="st12" points="158.79,277.17 157.02,256.95 182.67,256.95 184.43,277.17 			"/>
			<polygon class="st8" points="161.23,275.11 159.82,259.01 180.23,259.01 181.64,275.11 			"/>
			<polygon class="st14" points="162.79,273.78 161.61,260.33 178.67,260.33 179.84,273.78 			"/>
		</g>
		<path class="st15" d="M131.19,286.43l0.36,4.1c0.12,1.35,1.25,2.39,2.61,2.39h4.54c1.36,0,2.49-1.04,2.61-2.39l0.36-4.1H131.19z"
			/>
		<path class="st15" d="M131.19,320.54l0.36,4.1c0.12,1.35,1.25,2.39,2.61,2.39h4.54c1.36,0,2.49-1.04,2.61-2.39l0.36-4.1H131.19z"
			/>
		<path class="st15" d="M131.19,354.66l0.36,4.1c0.12,1.35,1.25,2.39,2.61,2.39h4.54c1.36,0,2.49-1.04,2.61-2.39l0.36-4.1H131.19z"
			/>
	</g>
</g>
<g id="Plant">
	<g>
		<g>
			<g>
				<path class="st8" d="M379.3,321.18c4.32-5.32,12.67-8.88,21.83-10.59c-0.72,2.62-0.18,5.04,1.37,5.63
					c1.73,0.66,4.05-1.19,5.18-4.15c0.32-0.83,0.5-1.66,0.57-2.44c9.24-0.75,18.48,0.31,24.65,3.27c0,0-6.04,5.44-12.88,19.75
					c-0.21-0.01-0.42-0.01-0.63-0.01c-4.43,0.04-7.99,2.18-7.97,4.77c0.02,1.89,1.95,3.5,4.72,4.21c-0.36,0.92-0.72,1.85-1.08,2.82
					c-6.51,17.63-23.89,4.89-23.74-7.18C391.32,337.27,369.62,333.1,379.3,321.18z"/>
				<g>
					<path class="st8" d="M425.49,315.31c0.32-0.12,0.49-0.18,0.49-0.18C425.81,315.19,425.65,315.25,425.49,315.31z"/>
					<path class="st8" d="M364.21,376.62c0,0.59,0.36,1.15,0.95,1.37c0.77,0.3,1.64-0.11,1.92-0.88c0.64-1.76,1.32-3.48,2.03-5.14
						c5.97-14.18,14.06-25.14,22.26-33.48c0.46-0.47,0.91-0.92,1.37-1.37c7.66-0.36,12.22,5.88,12.49,6.25
						c-3.24-7.52-10.75-7.72-10.95-7.73c14.43-13.59,28.45-19.31,31.2-20.35c-9.85,3.52-18.31,8.41-25.54,13.9
						c-0.85-9.39-6.81-10.28-6.81-10.28c5.37,3.35,5.55,9.19,5.4,11.38c-2.8,2.21-5.4,4.51-7.82,6.84h-0.01
						c-13.38,12.99-21.1,27.24-24.61,34.83c-0.81,1.76-1.39,3.15-1.77,4.1C364.25,376.25,364.21,376.44,364.21,376.62z"/>
				</g>
				<g class="st16">
					<path d="M425.49,315.31c0.32-0.12,0.49-0.18,0.49-0.18C425.81,315.19,425.65,315.25,425.49,315.31z"/>
					<path d="M364.21,376.62c0,0.59,0.36,1.15,0.95,1.37c0.77,0.3,1.64-0.11,1.92-0.88c0.64-1.76,1.32-3.48,2.03-5.14
						c5.97-14.18,14.06-25.14,22.26-33.48c0.46-0.47,0.91-0.92,1.37-1.37c7.66-0.36,12.22,5.88,12.49,6.25
						c-3.24-7.52-10.75-7.72-10.95-7.73c14.43-13.59,28.45-19.31,31.2-20.35c-9.85,3.52-18.31,8.41-25.54,13.9
						c-0.85-9.39-6.81-10.28-6.81-10.28c5.37,3.35,5.55,9.19,5.4,11.38c-2.8,2.21-5.4,4.51-7.82,6.84h-0.01
						c-13.38,12.99-21.1,27.24-24.61,34.83c-0.81,1.76-1.39,3.15-1.77,4.1C364.25,376.25,364.21,376.44,364.21,376.62z"/>
				</g>
			</g>
			<g>
				<path class="st8" d="M354.21,321.3c-2.91-6.21-10.16-11.66-18.64-15.53c0.07,2.72-1.04,4.93-2.69,5.14
					c-1.84,0.23-3.64-2.13-4.03-5.27c-0.11-0.89-0.08-1.73,0.04-2.5c-8.79-2.95-18.01-4.15-24.71-2.76c0,0,4.55,6.74,7.74,22.27
					c0.21,0.04,0.41,0.09,0.62,0.14c4.28,1.11,7.23,4.04,6.58,6.55c-0.47,1.83-2.74,2.93-5.59,2.96c0.13,0.98,0.25,1.97,0.37,2.99
					c2.08,18.68,22.02,10.49,24.77-1.26C338.67,334.03,360.73,335.21,354.21,321.3z"/>
				<path class="st1" d="M310.79,304.48c-0.28-0.19-0.43-0.29-0.43-0.29C310.5,304.29,310.64,304.39,310.79,304.48z"/>
				<path class="st8" d="M335.29,330.4c0.29,0.45,0.59,0.89,0.88,1.35c-0.04-0.01-0.35-0.08-0.88-0.14c-0.02,0-0.06,0-0.08-0.01
					c-2.18-0.21-7.6-0.14-11.52,5.02c0.27-0.23,5.15-4.34,11.52-3.51h0.08c0.66,0.09,1.33,0.23,2.03,0.45
					c0.34,0.55,0.68,1.11,0.99,1.67v0.01c1.85,3.11,3.63,6.46,5.26,10.06c0.02,0.05,0.05,0.09,0.07,0.15
					c3.5,7.72,6.39,16.54,8.06,26.53c0.36,2.13,0.67,4.32,0.91,6.56c0.07,0.76,0.71,1.32,1.45,1.32c0.06,0,0.13,0,0.19-0.01
					c0.82-0.09,1.39-0.83,1.29-1.65c-0.18-1.31-0.52-3.45-1.1-6.22c-1.48-7.08-4.58-18.29-10.8-30.27
					c-0.01-0.05-0.04-0.08-0.07-0.13c-1.29-2.49-2.72-5.01-4.3-7.54c-1.23-1.97-2.56-3.95-3.98-5.9c-0.02-0.05-0.06-0.08-0.08-0.12
					c-0.61-0.83-1.23-1.66-1.87-2.49c0.2-1.08,0.69-3.02,1.87-4.93c0.02-0.05,0.05-0.08,0.08-0.13c1.19-1.89,3.08-3.74,6.03-4.68
					c0,0-3.13-0.3-6.03,2.89c-0.02,0.02-0.06,0.06-0.08,0.09c-1.09,1.22-2.13,2.94-2.97,5.35c-5.49-6.83-12.25-13.37-20.55-19
					c3.62,2.62,14.03,10.9,23.52,25.15C335.23,330.31,335.27,330.36,335.29,330.4z"/>
				<path class="st17" d="M335.29,330.4c0.29,0.45,0.59,0.89,0.88,1.35c-0.04-0.01-0.35-0.08-0.88-0.14c-0.02,0-0.06,0-0.08-0.01
					c-2.18-0.21-7.6-0.14-11.52,5.02c0.27-0.23,5.15-4.34,11.52-3.51h0.08c0.66,0.09,1.33,0.23,2.03,0.45
					c0.34,0.55,0.68,1.11,0.99,1.67v0.01c1.85,3.11,3.63,6.46,5.26,10.06c0.02,0.05,0.05,0.09,0.07,0.15
					c3.5,7.72,6.39,16.54,8.06,26.53c0.36,2.13,0.67,4.32,0.91,6.56c0.07,0.76,0.71,1.32,1.45,1.32c0.06,0,0.13,0,0.19-0.01
					c0.82-0.09,1.39-0.83,1.29-1.65c-0.18-1.31-0.52-3.45-1.1-6.22c-1.48-7.08-4.58-18.29-10.8-30.27
					c-0.01-0.05-0.04-0.08-0.07-0.13c-1.29-2.49-2.72-5.01-4.3-7.54c-1.23-1.97-2.56-3.95-3.98-5.9c-0.02-0.05-0.06-0.08-0.08-0.12
					c-0.61-0.83-1.23-1.66-1.87-2.49c0.2-1.08,0.69-3.02,1.87-4.93c0.02-0.05,0.05-0.08,0.08-0.13c1.19-1.89,3.08-3.74,6.03-4.68
					c0,0-3.13-0.3-6.03,2.89c-0.02,0.02-0.06,0.06-0.08,0.09c-1.09,1.22-2.13,2.94-2.97,5.35c-5.49-6.83-12.25-13.37-20.55-19
					c3.62,2.62,14.03,10.9,23.52,25.15C335.23,330.31,335.27,330.36,335.29,330.4z"/>
			</g>
			<g>
				<path class="st8" d="M348.01,319.43c1.38-6.72,7.14-13.72,14.49-19.46c0.57,2.66,2.17,4.55,3.81,4.37
					c1.84-0.21,3.04-2.93,2.68-6.07c-0.1-0.89-0.32-1.7-0.62-2.42c7.85-4.93,16.54-8.25,23.38-8.47c0,0-2.85,7.61-2.31,23.46
					c-0.19,0.09-0.38,0.18-0.57,0.28c-3.91,2.08-6.08,5.62-4.87,7.91c0.89,1.67,3.35,2.2,6.13,1.56c0.1,0.98,0.22,1.97,0.35,2.99
					c2.35,18.65-18.95,15.36-24.37,4.58C366.1,328.16,344.92,334.48,348.01,319.43z"/>
				<path class="st18" d="M348.01,319.43c1.38-6.72,7.14-13.72,14.49-19.46c0.57,2.66,2.17,4.55,3.81,4.37
					c1.84-0.21,3.04-2.93,2.68-6.07c-0.1-0.89-0.32-1.7-0.62-2.42c7.85-4.93,16.54-8.25,23.38-8.47c0,0-2.85,7.61-2.31,23.46
					c-0.19,0.09-0.38,0.18-0.57,0.28c-3.91,2.08-6.08,5.62-4.87,7.91c0.89,1.67,3.35,2.2,6.13,1.56c0.1,0.98,0.22,1.97,0.35,2.99
					c2.35,18.65-18.95,15.36-24.37,4.58C366.1,328.16,344.92,334.48,348.01,319.43z"/>
				<g>
					<path class="st8" d="M386.28,292.91c0.23-0.25,0.35-0.38,0.35-0.38C386.51,292.65,386.4,292.78,386.28,292.91z"/>
					<path class="st8" d="M365.51,328.32c-6.24,18.72-6.19,35.79-5.7,43.65c0.07,1.29,0.16,2.32,0.23,3.08
						c0.08,0.76,0.71,1.32,1.46,1.32c0.06,0,0.12,0,0.18-0.01c0.82-0.09,1.39-0.85,1.29-1.67c-0.12-0.91-0.22-1.81-0.32-2.72
						c-1.73-16.49,0.42-30.89,4.05-42.74c0.19-0.62,0.39-1.24,0.59-1.85c3.44-2,6.97-2.04,9.62-1.57c2.39,0.41,4.07,1.22,4.33,1.35
						c-1.37-1.12-2.76-1.84-4.1-2.28c-4.86-1.62-9.03,0.42-9.17,0.48c6.12-17.58,15.14-28.82,17.84-31.93
						c-6.9,7.51-12,15.57-15.8,23.59c-5.09-7.93-10.78-5.97-10.78-5.97c6.31,0.48,9.16,5.59,10.03,7.6
						C367.82,321.89,366.58,325.14,365.51,328.32z"/>
				</g>
				<g class="st15">
					<path d="M386.28,292.91c0.23-0.25,0.35-0.38,0.35-0.38C386.51,292.65,386.4,292.78,386.28,292.91z"/>
					<path d="M365.51,328.32c-6.24,18.72-6.19,35.79-5.7,43.65c0.07,1.29,0.16,2.32,0.23,3.08c0.08,0.76,0.71,1.32,1.46,1.32
						c0.06,0,0.12,0,0.18-0.01c0.82-0.09,1.39-0.85,1.29-1.67c-0.12-0.91-0.22-1.81-0.32-2.72c-1.73-16.49,0.42-30.89,4.05-42.74
						c0.19-0.62,0.39-1.24,0.59-1.85c3.44-2,6.97-2.04,9.62-1.57c2.39,0.41,4.07,1.22,4.33,1.35c-1.37-1.12-2.76-1.84-4.1-2.28
						c-4.86-1.62-9.03,0.42-9.17,0.48c6.12-17.58,15.14-28.82,17.84-31.93c-6.9,7.51-12,15.57-15.8,23.59
						c-5.09-7.93-10.78-5.97-10.78-5.97c6.31,0.48,9.16,5.59,10.03,7.6C367.82,321.89,366.58,325.14,365.51,328.32z"/>
				</g>
			</g>
			<g>
				<path class="st12" d="M338.8,371.97l0.79,7.2h0.85l1.82,27.76c0.12,1.73,1.55,3.07,3.27,3.07h30.86c1.72,0,3.14-1.34,3.26-3.07
					l1.82-27.76h1.06l0.77-7.2H338.8z"/>
			</g>
		</g>
	</g>
</g>
<g id="Character">
	<g>
		<g>
			<path class="st19" d="M277.44,132.7c-2.3,0-4.46,0.18-6.7,0.46c-2.22,0.29-4.45,0.7-6.72,1.32c-1.14,0.31-2.28,0.7-3.46,1.17
				c-1.18,0.49-2.38,1.05-3.63,1.92c-1.23,0.88-2.65,2.01-3.73,4.17c-0.52,1.07-0.86,2.43-0.83,3.75c0.01,1.06,0.22,2.04,0.52,2.89
				c0.71,2.66,1.62,5.01,2.61,7.3c0.98,2.3,2.06,4.48,3.19,6.63c1.12,2.15,2.32,4.24,3.56,6.29c1.27,2.05,2.49,4.05,3.93,6.09
				c1.75,2.46,5.15,3.18,7.74,1.56c2.69-1.68,3.52-5.23,1.83-7.92l-0.04-0.07c-1.15-1.84-2.41-3.78-3.57-5.7
				c-1.19-1.92-2.36-3.85-3.49-5.78c-1.12-1.93-2.23-3.87-3.23-5.79c-0.98-1.92-1.93-3.85-2.6-5.64l-0.05-0.13
				c0.9-0.85,2.52-1.82,4.21-2.61c1.71-0.83,3.57-1.57,5.47-2.27c1.89-0.7,3.89-1.36,5.78-1.99l0.12-0.04
				c1.14-0.38,1.96-1.46,1.96-2.73C280.31,133.98,279.03,132.69,277.44,132.7z"/>
			<path class="st19" d="M277.06,133.53l6.16-6.71l3.01,8.63c0,0-5.24,4.86-8.35,1.75L277.06,133.53z"/>
			<path class="st19" d="M288.97,127.19l1.77,3.36c0.63,1.2,0.14,2.68-1.08,3.27l-3.43,1.65l-3.01-8.63l3.01-0.83
				C287.31,125.7,288.45,126.19,288.97,127.19z"/>
		</g>
		<polygon class="st19" points="238.4,392.71 231.41,390.17 235.26,373.32 242.25,375.86 		"/>
		<polygon class="st19" points="293.57,402 286.14,402 284.03,384.81 291.46,384.81 		"/>
		<path class="st12" d="M285.17,401.14h9.05c0.3,0,0.57,0.21,0.64,0.51l1.53,6.6c0.16,0.68-0.37,1.33-1.07,1.32
			c-2.91-0.05-5.04-0.22-8.71-0.22c-2.26,0-9.06,0.23-12.18,0.23c-3.05,0-3.55-3.08-2.28-3.36c5.71-1.25,10-2.98,11.82-4.62
			C284.29,401.3,284.72,401.14,285.17,401.14z"/>
		<path class="st12" d="M231.15,388.75l7.94,1.7c0.3,0.06,0.51,0.33,0.52,0.63l0.11,6.76c0.01,0.7-0.63,1.23-1.31,1.07
			c-2.86-0.66-6.96-1.72-10.56-2.49c-4.21-0.9-6.82-1.75-11.76-2.81c-2.99-0.64-3.2-3.83-1.89-3.84c5.95-0.02,9.55,1.14,15.08-0.83
			C229.89,388.73,230.52,388.62,231.15,388.75z"/>
		<g>
			<polygon class="st20" points="235.26,373.33 233.27,382.01 240.27,384.55 242.26,375.87 			"/>
			<polygon class="st20" points="291.46,384.81 284.03,384.81 285.12,393.68 292.55,393.68 			"/>
		</g>
		<g>
			<g>
				<path class="st8" d="M231.22,379.45l11.84,4.3c0,0,9.25-40.74,14.17-63.32c1.5-6.87,4.5-16.32,8.07-26.38
					c4.49-12.68,9.86-26.32,14.19-36.99c4.57-11.23,7.97-19.16,7.97-19.16l-25.61-5.19c0,0-19.54,56.22-23.93,78.44
					C233.36,334.25,231.22,379.45,231.22,379.45z"/>
			</g>
		</g>
		<path class="st20" d="M265.3,294.04c4.49-12.68,9.86-26.32,14.19-36.99l-1.98-6.13C270.18,257.7,265.61,281.07,265.3,294.04z"/>
		<g>
			<g>
				<path class="st8" d="M275.67,235.5c0,0-4.57,64.11-4.85,85.89c-0.3,23.85,10.85,70.57,10.85,70.57h13.6
					c0,0-5.43-42.15-3.62-65.79c2.02-26.43,9.33-86.54,9.33-86.54L275.67,235.5z"/>
			</g>
		</g>
		<polygon class="st12" points="280.05,392.25 296.06,392.25 296.01,387.47 279.3,386.5 		"/>
		<polygon class="st12" points="229.64,379.29 243.82,384.22 245.37,379.64 229.86,373.99 		"/>
		<path class="st8" d="M282.73,402.44c-0.57,0-1.09-0.1-1.43-0.38c-0.27-0.22-0.39-0.54-0.37-0.93c0.02-0.29,0.17-0.43,0.3-0.5
			c0.81-0.42,3.23,1.05,3.5,1.22c0.06,0.04,0.09,0.11,0.08,0.18c-0.01,0.07-0.06,0.13-0.13,0.14
			C284.15,402.3,283.41,402.44,282.73,402.44z M281.61,400.9c-0.09,0-0.17,0.01-0.23,0.04c-0.05,0.02-0.1,0.07-0.11,0.21
			c-0.01,0.28,0.07,0.49,0.25,0.64c0.41,0.34,1.38,0.39,2.64,0.13C283.31,401.44,282.18,400.9,281.61,400.9z"/>
		<path class="st8" d="M284.62,402.18c-0.03,0-0.06-0.01-0.08-0.02c-0.77-0.42-2.27-2.04-2.13-2.87c0.03-0.15,0.13-0.41,0.56-0.46
			c0.27-0.03,0.53,0.04,0.75,0.23c0.87,0.7,1.07,2.85,1.08,2.94c0.01,0.06-0.02,0.13-0.08,0.16
			C284.69,402.17,284.66,402.18,284.62,402.18z M283.09,399.17c-0.03,0-0.05,0-0.08,0.01c-0.23,0.03-0.25,0.13-0.26,0.18
			c-0.09,0.49,0.87,1.72,1.64,2.3c-0.09-0.63-0.34-1.87-0.9-2.33C283.37,399.22,283.24,399.17,283.09,399.17z"/>
		<path class="st8" d="M230.23,389.6c-0.01,0-0.02,0-0.02,0c-1.22-0.02-3.36-0.18-4.02-1.06c-0.2-0.26-0.25-0.57-0.15-0.91
			c0.06-0.2,0.19-0.34,0.38-0.4c0.99-0.31,3.61,1.81,3.9,2.05c0.06,0.05,0.08,0.13,0.06,0.2
			C230.35,389.55,230.3,389.59,230.23,389.6z M226.59,387.57c-0.02,0-0.05,0.01-0.07,0.01c-0.08,0.02-0.12,0.07-0.15,0.16
			c-0.07,0.23-0.03,0.42,0.09,0.6c0.37,0.49,1.55,0.82,3.21,0.9C228.64,388.44,227.18,387.49,226.59,387.57z"/>
		<path class="st8" d="M230.23,389.6c-0.04,0.01-0.09-0.01-0.13-0.03c-0.8-0.58-2.21-2.52-1.91-3.32c0.07-0.19,0.26-0.4,0.74-0.34
			c0.36,0.04,0.66,0.21,0.9,0.5c0.77,0.96,0.57,2.95,0.56,3.04c-0.01,0.06-0.05,0.12-0.1,0.14
			C230.26,389.59,230.25,389.6,230.23,389.6z M228.71,386.26c-0.15,0.02-0.18,0.09-0.19,0.12c-0.18,0.48,0.75,1.96,1.53,2.69
			c0.02-0.59,0-1.82-0.5-2.44c-0.18-0.22-0.39-0.34-0.66-0.37C228.82,386.25,228.76,386.25,228.71,386.26z"/>
		<path class="st12" d="M277.08,165.02c8.2-0.28,15.74,0.87,24.36,3.03c4.55,1.14,7.86,4.97,8.17,9.51
			c0.7,10.31-1.08,30.3-7.66,60.73c-0.31,1.44-1.57,2.5-3.09,2.56c-4.43,0.19-11.18-0.74-18.71-1.91c-1-0.16-3.29-2.66-3.29-2.66
			s-2.37,1.68-3.64,1.42c-4.1-0.84-8.03-1.77-10.48-2.68c-1.51-0.56-2.59-1.85-2.89-3.39c-1.33-6.94-1.11-20.12,5.83-31.48
			c0.71-7.91,0.72-16.95,1.26-25.46C267.29,169.42,271.62,165.21,277.08,165.02z"/>
		<path class="st19" d="M297.2,154.89c-1.77,5.37-3.44,11.37-1.26,15.96c-3.02,2.84-8.25,5.1-13.28,2.98
			c-5.53-2.33-2.28-6.92-0.28-8.77c3.54-1.46,3.74-4.58,4.15-6.9L297.2,154.89z"/>
		<path class="st20" d="M286.48,158.38c-0.23,1.34-0.43,2.91-1.24,4.26c3.46,0.04,7.36-1.16,9.06-3.58c0.21-0.29,0.4-0.6,0.59-0.89
			L286.48,158.38z"/>
		<path class="st19" d="M302.64,148.48c-4.08,6.25-6.15,10.13-11.31,11.56c-7.75,2.16-14.04-5.44-11.9-12.8
			c1.92-6.63,8.28-15.74,16.07-14.66C303.17,133.65,306.72,142.22,302.64,148.48z"/>
		<path class="st12" d="M291.31,144.64c-0.3,0.53-0.82,0.79-1.17,0.59c-0.34-0.2-0.38-0.79-0.08-1.32c0.3-0.53,0.82-0.79,1.17-0.59
			C291.58,143.52,291.61,144.11,291.31,144.64z"/>
		<path class="st12" d="M284.64,141.04c-0.3,0.53-0.82,0.79-1.17,0.59c-0.34-0.2-0.38-0.79-0.08-1.32c0.3-0.53,0.82-0.79,1.17-0.59
			C284.9,139.92,284.94,140.51,284.64,141.04z"/>
		<path class="st21" d="M286.28,142.69c0,0-3.07,2.17-5.26,2.74c0.35,1.44,2.12,2.07,2.12,2.07L286.28,142.69z"/>
		<path class="st12" d="M294.31,141.61c0.05,0.02,0.12,0.03,0.18,0.02c0.19-0.02,0.33-0.2,0.31-0.4c-0.25-1.97-1.72-2.71-1.79-2.74
			c-0.18-0.09-0.39-0.01-0.47,0.16c-0.08,0.18-0.01,0.39,0.16,0.48l0,0c0.05,0.02,1.19,0.62,1.39,2.18
			C294.1,141.46,294.19,141.56,294.31,141.61z"/>
		<path class="st12" d="M283.91,137.26c0.09,0.07,0.22,0.09,0.33,0.05c1.47-0.54,2.51,0.21,2.56,0.24c0.16,0.12,0.38,0.08,0.5-0.07
			c0.12-0.16,0.08-0.38-0.07-0.5c-0.06-0.04-1.38-1.02-3.23-0.34c-0.18,0.07-0.28,0.27-0.21,0.46
			C283.82,137.16,283.86,137.22,283.91,137.26z"/>
		<path class="st8" d="M294.96,165.62c-0.11,1.73-3.17,7.38-10.71,8.73c2.73,0.49,3.33,4.17,3.33,4.17s10.27-3.4,10.19-9.64
			C297.52,165.94,294.96,165.62,294.96,165.62z"/>
		<path class="st8" d="M283.74,164.17c-0.11,1.69-2.63,4.84,0.51,10.18c-2.74-0.45-4.85,2-4.85,2s-2.75-5.82,1.15-11.32
			C282.23,164,283.74,164.17,283.74,164.17z"/>
		<path class="st12" d="M290.36,134.89c0,0-7.15,0.16-6.34-3.68c0.53-2.54,4.37-1.58,4.37-1.58s-1.84-4.81,0.62-5.79
			c2.45-0.98,4.84,2.35,4.84,2.35s1.17-5.2,4.58-5.28c3.22-0.08,2.84,5.28,2.84,5.28s4.44-4.01,6.39-2.35
			c1.96,1.65-1.13,6.54-1.13,6.54s5.2-2.22,6.17,0.3c1.13,2.93-4.85,4.44-4.85,4.44s5.45,0.56,5.45,3.11c0,2.55-5.19,2.68-5.19,2.68
			s4.42,1.51,3.97,4.17c-0.45,2.66-4.89,1.77-4.89,1.77s-2.46,1.05-6.37,6.47c0,0-4.98,0.62-3.62-2.36
			c1.36-2.98,3.39-10.04,3.39-10.04s-6.94,1.77-5.04-2.86C295.55,138.06,285.57,139.04,290.36,134.89z"/>
		<g>
			<path class="st19" d="M314.23,139.88l-2.3-8.15l-7.02,5.86c0,0,2,6.86,6.26,5.79L314.23,139.88z"/>
			<path class="st19" d="M306.81,129.08l-3.24,1.97c-1.16,0.7-1.5,2.23-0.75,3.36l2.1,3.17l7.02-5.86l-2.16-2.26
				C309,128.66,307.77,128.5,306.81,129.08z"/>
			<path class="st19" d="M335.62,144.38c-0.6-1.18-1.38-2.03-2.1-2.66c-0.73-0.63-1.43-1.07-2.1-1.43
				c-1.33-0.71-2.55-1.11-3.73-1.42c-1.18-0.31-2.3-0.53-3.41-0.69c-2.22-0.31-4.36-0.44-6.49-0.44c-2.14,0.02-4.19,0.09-6.36,0.35
				c-1.18,0.14-2.2,1.01-2.47,2.24c-0.34,1.55,0.64,3.09,2.19,3.43l0.12,0.03c1.85,0.41,3.81,0.8,5.66,1.29
				c1.87,0.46,3.7,0.96,5.4,1.55c0.85,0.29,1.67,0.6,2.39,0.94c0.4,0.18,0.77,0.38,1.09,0.57c-0.31,0.62-0.74,1.35-1.27,2.09
				c-0.65,0.9-1.38,1.84-2.18,2.76c-1.61,1.85-3.42,3.67-5.3,5.46c-1.89,1.78-3.86,3.54-5.86,5.26c-1.97,1.73-4.1,3.44-6.05,5.04
				l-0.09,0.08c-2.35,1.93-2.81,5.39-0.98,7.86c1.89,2.55,5.49,3.1,8.04,1.21c2.39-1.77,4.5-3.56,6.68-5.43
				c2.14-1.88,4.24-3.83,6.26-5.91c2.03-2.07,3.99-4.25,5.84-6.67c1.83-2.46,3.64-4.97,4.91-8.72c0.3-0.77,0.56-1.67,0.63-2.72
				C336.53,147.08,336.23,145.56,335.62,144.38z"/>
		</g>
		<path class="st11" d="M304.35,145.47c-4.48,3.08-3.76-4.54-3.76-4.54s-2.03,7.06-3.39,10.04c-1.36,2.98,3.62,2.36,3.62,2.36
			c3.91-5.41,6.37-6.47,6.37-6.47L304.35,145.47z"/>
		<path class="st19" d="M301.1,156.32c-1.7,1.07-3.73,1.25-5.34,0.85c-2.42-0.6-2.42-3.07-0.73-4.72c1.51-1.48,4.59-2.95,6.53-1.48
			C303.47,152.43,303.04,155.1,301.1,156.32z"/>
		<g>
			<path class="st8" d="M315,159.61l1.65-1.18c0.52-0.38,1.25-0.26,1.64,0.26l6.46,8.8c0.36,0.49,0.29,1.17-0.16,1.57l-1.91,1.71
				L315,159.61z"/>
			<path class="st12" d="M315.25,159.22l8.19,11.6c0,0-15.42,18.04-23.39,6.03C294.79,168.9,315.25,159.22,315.25,159.22z"/>
		</g>
		<g>
			<path class="st8" d="M268.56,155.3l-1.11-1.7c-0.35-0.54-1.07-0.7-1.62-0.35l-9.21,5.86c-0.51,0.33-0.69,0.99-0.42,1.53
				l1.16,2.29L268.56,155.3z"/>
			<path class="st12" d="M268.46,154.85l-11.84,7.84c0,0,7.84,22.4,19.61,14.09C284.02,171.28,268.46,154.85,268.46,154.85z"/>
		</g>
		<path class="st22" d="M281.02,151.77c0,0,1.41,0.63,5.49,1.14c-0.32-1.72-1.09-3.19-3.18-3.42
			C281.24,149.26,281.02,151.77,281.02,151.77z"/>
	</g>
</g>
<g id="Speech_bubble_2">
	<g>
		<g>
			<path class="st8" d="M354.75,133.16c0.49-2.07,0.41-4.2-0.23-6.2l-18.36,6.36l13.41-12.69c-1.05-0.65-2.18-1.12-3.39-1.41
				c-0.36-0.08-0.73-0.16-1.12-0.21l-3.46-0.48l3.16-1.49c3.2-1.51,5.5-4.35,6.32-7.78c0.76-3.18,0.13-6.55-1.72-9.24l-2.19-3.19
				l3.49,1.66c0.89,0.42,1.83,0.75,2.78,0.98c5.41,1.29,11.08-0.74,14.46-5.16l1.37-1.8l0.47,2.22c0.93,4.35,4.32,7.83,8.64,8.86
				c1,0.24,2.04,0.34,3.08,0.31l2.39-0.08l-1.57,1.8c-1.24,1.42-2.09,3.08-2.53,4.92c-1.03,4.34,0.55,8.94,4.04,11.73l2.16,1.73
				l-2.77,0.12c-5.13,0.23-9.55,3.88-10.74,8.88c-0.31,1.29-0.39,2.62-0.25,3.93l0.36,3.29l-2.18-2.49
				c-1.59-1.82-3.67-3.08-6.03-3.64c-2.84-0.68-5.81-0.26-8.35,1.17l-2.31,1.3l0.81-2.53C354.61,133.7,354.69,133.42,354.75,133.16z
				"/>
			<path class="st8" d="M340.38,130.23l14.76-5.11c0.99,2.37,1.26,5.07,0.62,7.76c-0.08,0.32-0.17,0.64-0.27,0.95
				c2.67-1.5,5.89-2.04,9.11-1.28c2.65,0.63,4.9,2.06,6.57,3.97c-0.15-1.4-0.07-2.84,0.27-4.29c1.34-5.61,6.22-9.44,11.71-9.68
				c-3.7-2.96-5.57-7.88-4.4-12.79c0.49-2.06,1.46-3.87,2.76-5.36c-1.1,0.04-2.23-0.07-3.35-0.34c-4.9-1.17-8.44-5.04-9.42-9.66
				c-3.51,4.6-9.53,6.97-15.52,5.54c-1.05-0.25-2.05-0.61-2.99-1.05c1.95,2.84,2.74,6.46,1.88,10.07c-0.92,3.88-3.55,6.9-6.89,8.48
				c0.4,0.06,0.81,0.13,1.21,0.23c1.8,0.43,3.42,1.23,4.8,2.3L340.38,130.23z"/>
			<path class="st14" d="M340.38,130.23l14.76-5.11c0.99,2.37,1.26,5.07,0.62,7.76c-0.08,0.32-0.17,0.64-0.27,0.95
				c2.67-1.5,5.89-2.04,9.11-1.28c2.65,0.63,4.9,2.06,6.57,3.97c-0.15-1.4-0.07-2.84,0.27-4.29c1.34-5.61,6.22-9.44,11.71-9.68
				c-3.7-2.96-5.57-7.88-4.4-12.79c0.49-2.06,1.46-3.87,2.76-5.36c-1.1,0.04-2.23-0.07-3.35-0.34c-4.9-1.17-8.44-5.04-9.42-9.66
				c-3.51,4.6-9.53,6.97-15.52,5.54c-1.05-0.25-2.05-0.61-2.99-1.05c1.95,2.84,2.74,6.46,1.88,10.07c-0.92,3.88-3.55,6.9-6.89,8.48
				c0.4,0.06,0.81,0.13,1.21,0.23c1.8,0.43,3.42,1.23,4.8,2.3L340.38,130.23z"/>
		</g>
		<path class="st12" d="M365.77,126.19c-1.78,0-2.99-1.24-2.99-2.78c0-1.56,1.22-2.73,2.99-2.73c1.78,0,3.02,1.17,3.02,2.73
			C368.79,124.94,367.54,126.19,365.77,126.19z M367.78,119.19h-4l-1.01-11.79h5.99L367.78,119.19z"/>
	</g>
</g>
<g id="Speech_bubble_1">
	<g>
		<g>
			<path class="st8" d="M202.2,144.5c-0.95-3.98-0.79-8.06,0.45-11.91l35.28,12.21l-25.76-24.38c2.01-1.24,4.19-2.15,6.52-2.7
				c0.68-0.16,1.41-0.3,2.14-0.4l6.65-0.92l-6.07-2.87c-6.15-2.91-10.57-8.36-12.15-14.95c-1.45-6.1-0.25-12.57,3.31-17.75l4.2-6.12
				l-6.71,3.19c-1.71,0.81-3.51,1.45-5.35,1.88c-10.39,2.47-21.29-1.42-27.77-9.91l-2.64-3.46l-0.91,4.26
				c-1.78,8.36-8.3,15.05-16.61,17.03c-1.93,0.46-3.91,0.66-5.91,0.59l-4.6-0.15l3.02,3.47c2.38,2.73,4.02,5.91,4.86,9.44
				c1.99,8.33-1.06,17.18-7.76,22.54l-4.15,3.32l5.31,0.24c9.86,0.44,18.34,7.46,20.63,17.06c0.59,2.48,0.75,5.03,0.48,7.56
				l-0.69,6.32l4.18-4.79c3.05-3.5,7.06-5.91,11.58-6.99c5.46-1.3,11.16-0.5,16.05,2.25l4.44,2.5l-1.56-4.85
				C202.48,145.54,202.32,145.01,202.2,144.5z"/>
			<path class="st8" d="M229.81,138.87l-28.36-9.82c-1.9,4.56-2.43,9.74-1.19,14.91c0.15,0.62,0.33,1.23,0.52,1.83
				c-5.13-2.88-11.32-3.92-17.49-2.45c-5.09,1.21-9.42,3.96-12.62,7.62c0.29-2.68,0.14-5.46-0.52-8.24
				c-2.57-10.77-11.95-18.13-22.49-18.6c7.1-5.68,10.7-15.13,8.45-24.56c-0.94-3.95-2.8-7.43-5.3-10.3
				c2.12,0.07,4.28-0.13,6.44-0.65c9.41-2.24,16.21-9.69,18.1-18.56c6.75,8.85,18.3,13.39,29.82,10.64
				c2.02-0.48,3.94-1.17,5.74-2.02c-3.74,5.45-5.26,12.41-3.6,19.35c1.77,7.45,6.81,13.26,13.24,16.3
				c-0.78,0.11-1.55,0.25-2.33,0.44c-3.47,0.83-6.57,2.36-9.22,4.41L229.81,138.87z"/>
			<path class="st14" d="M229.81,138.87l-28.36-9.82c-1.9,4.56-2.43,9.74-1.19,14.91c0.15,0.62,0.33,1.23,0.52,1.83
				c-5.13-2.88-11.32-3.92-17.49-2.45c-5.09,1.21-9.42,3.96-12.62,7.62c0.29-2.68,0.14-5.46-0.52-8.24
				c-2.57-10.77-11.95-18.13-22.49-18.6c7.1-5.68,10.7-15.13,8.45-24.56c-0.94-3.95-2.8-7.43-5.3-10.3
				c2.12,0.07,4.28-0.13,6.44-0.65c9.41-2.24,16.21-9.69,18.1-18.56c6.75,8.85,18.3,13.39,29.82,10.64
				c2.02-0.48,3.94-1.17,5.74-2.02c-3.74,5.45-5.26,12.41-3.6,19.35c1.77,7.45,6.81,13.26,13.24,16.3
				c-0.78,0.11-1.55,0.25-2.33,0.44c-3.47,0.83-6.57,2.36-9.22,4.41L229.81,138.87z"/>
		</g>
		<g>
			<path class="st12" d="M164.82,98.12c0-4.07,3.2-7.05,7.53-7.05c4.34,0,7.53,2.98,7.53,7.05s-3.2,7.05-7.53,7.05
				C168.01,105.17,164.82,102.19,164.82,98.12z M176.01,98.12c0-2.34-1.61-3.87-3.66-3.87c-2.05,0-3.66,1.53-3.66,3.87
				c0,2.34,1.61,3.87,3.66,3.87C174.4,102,176.01,100.47,176.01,98.12z"/>
			<path class="st12" d="M194.81,91.34v13.56h-3.83v-5.29h-5.23v5.29h-3.84V91.34h3.84v5.09h5.23v-5.09H194.81z"/>
			<path class="st12" d="M201.11,102.89c0,0.54-0.08,0.97-0.64,2.23l-1.22,2.83h-2.3l0.91-3.16c-0.7-0.33-1.14-0.99-1.14-1.9
				c0-1.32,0.93-2.17,2.21-2.17C200.18,100.72,201.11,101.57,201.11,102.89z"/>
			<path class="st12" d="M178.41,111.37v13.56h-3.16l-5.98-7.22v7.22h-3.76v-13.56h3.16l5.98,7.22v-7.22H178.41z"/>
			<path class="st12" d="M180.44,118.15c0-4.07,3.2-7.05,7.53-7.05c4.34,0,7.53,2.98,7.53,7.05s-3.2,7.05-7.53,7.05
				C183.63,125.2,180.44,122.21,180.44,118.15z M191.63,118.15c0-2.34-1.61-3.87-3.66-3.87s-3.66,1.53-3.66,3.87
				s1.61,3.87,3.66,3.87S191.63,120.49,191.63,118.15z"/>
			<path class="st12" d="M196.89,123.07c0-1.14,0.91-2,2.21-2s2.19,0.85,2.19,2c0,1.12-0.89,2.03-2.19,2.03
				S196.89,124.19,196.89,123.07z M196.91,111.37h4.38l-0.74,8.62h-2.92L196.91,111.37z"/>
		</g>
	</g>
</g>
</svg>
