<?xml version="1.0" encoding="utf-8"?>
<!-- Generator: Adobe Illustrator 25.2.1, SVG Export Plug-In . SVG Version: 6.00 Build 0)  -->
<svg version="1.1" xmlns="http://www.w3.org/2000/svg" xmlns:xlink="http://www.w3.org/1999/xlink" x="0px" y="0px"
	 viewBox="0 0 500 500" style="enable-background:new 0 0 500 500;" xml:space="preserve">
<style type="text/css">
	.st0{fill:#E0E0E0;}
	.st1{fill:#EBEBEB;}
	.st2{fill:#F0F0F0;}
	.st3{fill:#F5F5F5;}
	.st4{fill:#E6E6E6;}
	.st5{display:none;}
	.st6{display:inline;}
	.st7{fill:#407BFF;}
	.st8{opacity:0.9;fill:#FFFFFF;}
	.st9{fill:#E9B376;}
	.st10{opacity:0.3;}
	.st11{opacity:0.3;fill:none;stroke:#000000;stroke-width:0.25;stroke-linecap:round;stroke-linejoin:round;stroke-miterlimit:10;}
	.st12{fill:#263238;}
	.st13{fill:none;stroke:#263238;stroke-width:0.5;stroke-linecap:round;stroke-linejoin:round;stroke-miterlimit:10;}
	.st14{opacity:0.2;enable-background:new    ;}
	.st15{opacity:0.2;}
	.st16{fill:#D58745;}
	.st17{opacity:0.2;fill:none;stroke:#000000;stroke-width:0.5;stroke-linecap:round;stroke-linejoin:round;stroke-miterlimit:10;}
	.st18{opacity:0.3;fill:#FFFFFF;}
	.st19{fill:#FFFFFF;}
	.st20{fill:#C15854;}
	.st21{opacity:0.5;}
	.st22{opacity:0.3;enable-background:new    ;}
</style>
<g id="Background_complete">
	<g>
		<g>
			<g>
				<g>
					<g>
						<path class="st0" d="M443.92,330.2H263.17c-3.23,0-5.86-2.63-5.86-5.86V61.06c0-3.23,2.63-5.86,5.86-5.86h180.75
							c3.23,0,5.86,2.63,5.86,5.86v263.27C449.78,327.57,447.15,330.2,443.92,330.2z M263.17,55.45c-3.09,0-5.61,2.52-5.61,5.61
							v263.27c0,3.09,2.52,5.61,5.61,5.61h180.75c3.09,0,5.61-2.52,5.61-5.61V61.06c0-3.09-2.52-5.61-5.61-5.61H263.17z"/>
					</g>
				</g>
				<g>
					<g>
						<path class="st0" d="M235.49,330.2H54.75c-3.23,0-5.86-2.63-5.86-5.86V61.06c0-3.23,2.63-5.86,5.86-5.86h180.75
							c3.23,0,5.86,2.63,5.86,5.86v263.27C241.35,327.57,238.73,330.2,235.49,330.2z M54.75,55.45c-3.09,0-5.61,2.52-5.61,5.61
							v263.27c0,3.09,2.52,5.61,5.61,5.61h180.75c3.09,0,5.61-2.52,5.61-5.61V61.06c0-3.09-2.52-5.61-5.61-5.61H54.75z"/>
					</g>
				</g>
			</g>
			<g>
				<g>
					<rect x="0" y="391.27" class="st0" width="500" height="0.25"/>
				</g>
			</g>
		</g>
		<rect x="51.67" y="405.53" class="st0" width="16.06" height="0.25"/>
		<rect x="170.35" y="402.82" class="st0" width="53.53" height="0.25"/>
		<rect x="68.73" y="414.82" class="st0" width="36.25" height="0.25"/>
		<rect x="378.35" y="402.69" class="st0" width="43.19" height="0.25"/>
		<rect x="430.45" y="402.69" class="st0" width="6.33" height="0.25"/>
		<rect x="316.21" y="408.92" class="st0" width="53.89" height="0.25"/>
	</g>
	<path class="st1" d="M454.18,372.65c0.26-3.13-0.16-7.18-3.81-8.38c-6.2-2.05-9.85-6.83-9.65-12.25c0.2-5.42-6.3-10.69-11.19-5.62
		c-4.88,5.08-4.24-3.91-10.75-6.1c-6.51-2.19-12.04,3.12-10.25,7.96s-4.64,7.87-12.34,3.75c-7.69-4.12-16.17,3.37-14.54,9.23
		c1.63,5.86,0.3,6.57-4.58,4.56c-3.93-1.59-10.37,1.73-11.09,6.84L454.18,372.65z"/>
	<path class="st1" d="M104.14,372.65c0.3-2.48,0.16-6.1-2.9-7.1c-4.81-1.59-7.66-5.31-7.5-9.51c0.16-4.2-4.89-8.31-8.68-4.38
		c-3.79,3.93-3.28-3.03-8.34-4.73c-5.06-1.7-9.35,2.42-7.96,6.17s-3.61,6.11-9.58,2.91c-5.97-3.2-12.54,2.64-11.29,7.19
		c1.26,4.55,0.23,5.05-3.55,3.54c-3.21-1.28-8.53,1.61-8.65,5.91H104.14z"/>
	<path class="st1" d="M87,372.65h112.41c1.59-5.28-2.51-11.6-6.96-12.5c-5.47-1.09-10.95-10.73-11.23-16.86
		c-0.28-6.13-10.11-24.99-25.44-13.34s-10.66,1.72-21.75-1.55s-18.08,6.14-13.21,13.2c0,0-11.14-2.79-15.73,7.61
		c-4.59,10.4,0,16.86,0,16.86S91.02,365.66,87,372.65z"/>
	<path class="st2" d="M237.31,85.06c0.01-2.93,2.38-5.29,5.31-5.29c0.51,0,1.01,0.07,1.5,0.22c-0.91-6.11,3.31-11.79,9.41-12.7
		c0.55-0.08,1.11-0.12,1.66-0.12c0.69,0,1.39,0.06,2.07,0.19c2.82-4.61,8.84-6.07,13.45-3.26c2.87,1.75,4.64,4.85,4.69,8.2h0.16
		c4.98,0,9.02,4.04,9.02,9.02c0,4.98-4.04,9.02-9.02,9.02h-33.11C239.59,90.27,237.3,87.93,237.31,85.06z"/>
	<path class="st3" d="M155.41,47.76c0-2.92,2.37-5.29,5.29-5.3c0.52,0,1.03,0.08,1.52,0.23c-0.08-0.54-0.12-1.08-0.12-1.62
		c0-6.18,5.01-11.2,11.2-11.2c0.69,0,1.38,0.06,2.06,0.19c2.81-4.62,8.82-6.09,13.44-3.28c2.88,1.75,4.66,4.86,4.7,8.23h0.16
		c4.98,0,9.02,4.04,9.02,9.02c0,4.98-4.04,9.02-9.02,9.02h-33.13C157.67,52.97,155.4,50.62,155.41,47.76z"/>
	<path class="st2" d="M402.68,85.92c0-1.81,1.46-3.29,3.28-3.29c0.32,0,0.64,0.05,0.95,0.14c-0.05-0.33-0.07-0.67-0.08-1.01
		c0-3.84,3.12-6.96,6.96-6.96l0,0c0.43,0,0.86,0.04,1.28,0.12c1.75-2.87,5.49-3.78,8.36-2.04c1.79,1.09,2.89,3.02,2.92,5.11h0.1
		c3.1-0.14,5.72,2.26,5.86,5.36c0.14,3.1-2.26,5.72-5.36,5.86c-0.17,0.01-0.33,0.01-0.5,0h-20.59
		C404.09,89.16,402.67,87.7,402.68,85.92z"/>
	<path class="st2" d="M61.18,77.51c-0.01-1.81,1.46-3.29,3.27-3.29c0.33,0,0.65,0.05,0.96,0.14c-0.05-0.33-0.07-0.67-0.08-1.01
		c0-3.84,3.12-6.96,6.96-6.96l0,0c0.43,0,0.86,0.04,1.28,0.12c1.75-2.87,5.49-3.78,8.36-2.04c1.79,1.09,2.89,3.02,2.92,5.11h0.1
		c3.1,0,5.6,2.51,5.6,5.61c0,3.09-2.51,5.6-5.6,5.6H64.41C62.62,80.76,61.18,79.3,61.18,77.51z"/>
	<path class="st2" d="M96.9,225.35c-0.01-1.81,1.46-3.29,3.27-3.29c0.33,0,0.65,0.05,0.96,0.14c-0.05-0.33-0.07-0.67-0.08-1.01
		c0-3.84,3.12-6.96,6.96-6.96l0,0c0.43,0,0.86,0.04,1.28,0.12c1.75-2.87,5.49-3.78,8.36-2.04c1.79,1.09,2.89,3.02,2.92,5.11h0.1
		c3.1,0,5.6,2.51,5.6,5.61c0,3.09-2.51,5.6-5.6,5.6h-20.56C98.34,228.6,96.9,227.14,96.9,225.35z"/>
	<path class="st3" d="M322.9,60.1c0-2.4,1.95-4.35,4.35-4.35c0.42,0,0.84,0.06,1.25,0.17c-0.06-0.44-0.09-0.89-0.09-1.33
		c0-5.09,4.12-9.21,9.21-9.21c0.57,0,1.14,0.05,1.69,0.16c2.3-3.8,7.24-5.02,11.04-2.72c2.38,1.44,3.85,4.01,3.88,6.79h0.14
		c4.1,0,7.41,3.32,7.41,7.42c0,4.09-3.32,7.41-7.41,7.41h-27.24C324.77,64.38,322.89,62.45,322.9,60.1z"/>
	<g>
		<path class="st4" d="M240.94,136.23c-1.07-0.92-2.42-2.13-1.95-3.43c0.38-1.05,1.71-1.4,2.46-2.23c1.54-1.68,0.1-4.43-1.71-5.81
			c-1.81-1.38-4.14-2.45-4.89-4.61c-0.13-0.59-0.33-1.15-0.61-1.68c-1.09-1.62-3.61-0.54-5.18,0.61c-0.53,0.39-1.18,0.76-1.84,1.03
			c-0.23-0.91-0.65-1.71-1.23-2.2c-1.06-0.92-2.42-2.13-1.95-3.43c0.38-1.06,1.71-1.4,2.47-2.23c1.53-1.68,0.09-4.42-1.72-5.81
			s-4.14-2.45-4.88-4.61c-0.13-0.59-0.34-1.15-0.62-1.68c-1.09-1.62-3.61-0.57-5.18,0.6c-1.57,1.16-4.1,2.19-5.18,0.54
			c-0.62-0.94-0.26-2.29-0.85-3.25c-1-1.6-3.53-0.84-4.97,0.38s-3.03,2.85-4.86,2.42c-0.01,0-0.01,0-0.02-0.01
			c0.47-0.2,0.99-0.36,1.43-0.59c2.35-1.24,2.03-5.77,0.25-7.28c-1.07-0.92-2.42-2.12-1.95-3.42c0.38-1.06,1.71-1.4,2.46-2.24
			c1.54-1.68,0.1-4.44-1.71-5.81s-4.14-2.45-4.89-4.61c-0.13-0.58-0.33-1.15-0.61-1.68c-1.09-1.62-3.62-0.56-5.18,0.61
			c-1.55,1.16-4.1,2.17-5.18,0.53c-0.61-0.94-0.26-2.28-0.85-3.25c-0.98-1.6-3.52-0.85-4.96,0.38c-1.44,1.23-3.03,2.85-4.86,2.42
			c-1.6-0.38-2.48-2.19-4.19-2.39c-1.71-0.21-3.07,1.54-3.48,3.21c-0.41,1.67-0.39,3.51-1.29,4.98c-0.08-0.02-0.17-0.03-0.25-0.04
			c-1.15-0.82-2.19-1.73-2.65-3.04c-0.13-0.59-0.33-1.15-0.61-1.68c-1.09-1.62-3.62-0.57-5.18,0.6s-4.1,2.19-5.18,0.54
			c-0.61-0.94-0.26-2.29-0.85-3.25c-0.98-1.6-3.52-0.84-4.96,0.38c-1.44,1.22-3.03,2.85-4.86,2.41c-1.6-0.38-2.48-2.19-4.19-2.39
			s-3.07,1.54-3.48,3.21c-0.41,1.67-0.39,3.51-1.29,4.98c-2.48-0.48-5.89-0.39-6.47,2.04c-0.24,1.04,0.2,2.02,0.81,2.94
			c-0.3,0.17-0.6,0.36-0.85,0.58c-1.45,1.22-3.04,2.85-4.88,2.42c-1.59-0.38-2.46-2.19-4.18-2.39c-1.72-0.21-3.08,1.54-3.48,3.21
			c-0.4,1.67-0.39,3.51-1.29,4.97c-2.5-0.47-5.89-0.38-6.47,2.06c-0.39,1.6,0.85,3.09,1.88,4.4c1.02,1.31,1.88,3.21,0.82,4.5
			c-1.72-0.09-3.42,0.34-4.89,1.23c-1.49,0.95-2.08,2.83-1.4,4.46c0.76,1.06,1.85,1.82,3.11,2.17c3.67,1.48,2.5,4.74,1.41,7.37
			c-0.12-0.01-0.25-0.01-0.37-0.04c-1.6-0.38-2.48-2.19-4.19-2.39s-3.07,1.54-3.48,3.21c-0.41,1.67-0.39,3.51-1.29,4.97
			c-2.5-0.47-5.89-0.38-6.47,2.06c-0.39,1.6,0.87,3.09,1.88,4.4c1.01,1.31,1.86,3.21,0.82,4.5c-1.72-0.07-3.43,0.38-4.89,1.29
			c-1.48,0.95-2.08,2.83-1.41,4.46c0.76,1.06,1.86,1.82,3.12,2.17c6.44,2.6-2.02,10.69,1.18,11.22c4.09,0.69,8.9-0.12,9.2,4.92
			c0.04,0.82,0.16,1.64,0.36,2.43c0.78,2.79,2.77,3.99,6.87,2.03c2.6-1.23,3.23-2.76,6.2-2.38c2.12,0.25,3.66,1.73,6,1.54
			c0.32,0,0.64-0.08,0.93-0.23c0.29-0.19,0.54-0.45,0.71-0.75c2.08-2.96,3.71-1.76,7.12-1.9c0.27,0.02,0.53-0.06,0.75-0.22
			c0.2-0.21,0.32-0.5,0.31-0.79c0.09-0.87,0.01-1.75-0.23-2.59c-0.17-0.41-0.22-0.86-0.13-1.29c0.17-0.58,0.91-0.8,1.46-1.07
			c0.21-0.12,0.42-0.25,0.61-0.4c1.05-0.81,1.65-1.98,1.78-3.2c3.21,0.3,6.19,0.69,6.42,4.6c0.03,0.82,0.16,1.64,0.38,2.43
			c0.76,2.79,2.76,3.99,6.84,2.03c2.6-1.23,3.23-2.76,6.2-2.38c2.12,0.25,3.66,1.73,6,1.54c0.32,0,0.64-0.08,0.93-0.23
			c0.29-0.19,0.54-0.45,0.71-0.75c2.08-2.96,3.71-1.76,7.12-1.9c0.07,0.01,0.15,0.01,0.22,0.01c0.51-0.05,0.89-0.5,0.84-1.01
			c0.08-0.85,0-1.7-0.23-2.52c-0.17-0.41-0.22-0.86-0.13-1.29c0.17-0.58,0.91-0.82,1.46-1.07c0.22-0.12,0.43-0.26,0.63-0.42
			c0.58-0.46,1.01-1.03,1.31-1.66c1.09,0.33,2.55,0.12,4.48-0.81c2.61-1.22,3.25-2.76,6.21-2.37c2.12,0.25,3.66,1.72,6,1.54
			c0.32-0.01,0.64-0.1,0.93-0.25c0.29-0.19,0.53-0.45,0.71-0.75c0.06-0.08,0.11-0.15,0.17-0.22c0.05,0.49-0.04,0.95-0.36,1.35
			c-1.36-0.07-2.71,0.27-3.88,0.97c-1.17,0.75-1.64,2.23-1.1,3.52c0.6,0.83,1.46,1.43,2.45,1.71c5.07,2.04-1.59,8.41,0.93,8.82
			c3.22,0.54,7-0.09,7.25,3.88c0.03,0.65,0.12,1.29,0.28,1.91c0.61,2.2,2.17,3.08,5.45,1.58c2.06-0.97,2.55-2.17,4.89-1.88
			c1.68,0.22,2.89,1.37,4.72,1.22c0.26-0.01,0.51-0.07,0.74-0.18c0.22-0.16,0.41-0.36,0.56-0.6c1.63-2.33,2.92-1.38,5.6-1.5
			c0.21,0.01,0.42-0.05,0.6-0.17c0.15-0.17,0.24-0.39,0.23-0.62c0.07-0.67,0.01-1.34-0.17-1.99c-0.15-0.32-0.19-0.69-0.12-1.04
			c0.17-0.47,0.71-0.63,1.16-0.85c0.17-0.09,0.32-0.2,0.47-0.31c1.11-0.86,1.57-2.22,1.36-3.51c0.59-0.17,1.26-0.25,2.15-0.13
			c2.12,0.25,3.66,1.73,6,1.54c0.32,0,0.64-0.08,0.93-0.23c0.29-0.2,0.53-0.45,0.71-0.75c2.07-2.96,3.71-1.76,7.12-1.9
			c0.27,0.01,0.53-0.06,0.75-0.22c0.2-0.21,0.3-0.5,0.3-0.79c0.09-0.85,0.01-1.7-0.22-2.52c-0.18-0.41-0.22-0.86-0.14-1.29
			c0.18-0.58,0.91-0.82,1.47-1.07c0.21-0.11,0.4-0.24,0.59-0.39c2.05-1.58,2.43-4.53,0.85-6.59c-0.66-0.75-1.68-1.4-1.44-2.48
			c0.25-1.09,1.7-1.25,2.68-1.77C243.04,142.27,242.71,137.74,240.94,136.23z M128.39,150.43c-0.15-0.29-0.22-0.61-0.13-0.98
			c0.1-0.43,0.38-0.71,0.75-0.93C128.86,149.16,128.64,149.81,128.39,150.43z"/>
		<path class="st1" d="M119.35,151.88c0,0,8.5,12.03,11.44,15.85c2.94,3.82,17.61,27.58,19.6,43.3c0.21,1.67,0.43,3.12,0.63,4.37
			c-6.31,41.66-5.33,117.87-5.1,130.91h19.99c0.18-14.71,1.88-149.19,2.51-153.29c0.66-4.35,9.06-20.9,21.93-27.69
			c12.87-6.79,24.07-29.29,24.07-29.29h-4.11c0,0-7.63,13.78-18.49,21.41c-1.56,1.08-3.19,2.04-4.88,2.9
			c0.03-8.3-1.44-16.53-4.32-24.31l-2.23,2.04c3,12.29,2.59,20.16,1.69,24.67c-4.1,1.92-7.88,4.46-11.22,7.52
			c-11.27-14.65-17.6-48.14-17.6-48.14l-2.89,1.58c0.82,6.92,2.06,13.78,3.73,20.55c2.11,8.67,8.32,24.98,11.2,32.35
			c-3.46,4.97-6.31,10.33-8.5,15.97c-0.31-0.48-0.67-0.91-1.09-1.29c-7.34-6.64-21.13-37.96-21.13-37.96
			c-3.34-7.28,1.76-26.41,1.76-26.41h-3.88l-1.72,16.72l-9.68-10.56l-1.76,1.46l10.26,13.21l5.28,16.73l-13.78-15.27L119.35,151.88z
			"/>
	</g>
	<g>
		<path class="st4" d="M479.62,184.33c-1.46-0.88-3.15-1.3-4.86-1.22c-1.04-1.26-0.2-3.18,0.82-4.47c1.02-1.29,2.25-2.76,1.86-4.37
			c-0.57-2.41-3.95-2.5-6.38-2.03c-0.68-1.57-1.13-3.24-1.32-4.94c-0.44-1.68-1.76-3.35-3.47-3.2c-1.71,0.15-2.58,2.01-4.16,2.38
			c-0.12,0.03-0.25,0.03-0.37,0.03c-1.09-2.62-2.29-5.89,1.39-7.37c1.24-0.35,2.33-1.11,3.08-2.16c0.67-1.62,0.08-3.49-1.39-4.44
			c-1.46-0.88-3.15-1.31-4.86-1.22c-1.06-1.27-0.2-3.18,0.8-4.47c1.01-1.29,2.26-2.78,1.88-4.37c-0.59-2.41-3.95-2.5-6.4-2.03
			c-0.67-1.58-1.12-3.24-1.32-4.94c-0.44-1.68-1.68-3.35-3.45-3.2c-1.78,0.15-2.58,2.01-4.16,2.38s-3.35-1.19-4.84-2.4
			c-0.25-0.2-0.53-0.38-0.81-0.55c0.6-0.91,1.01-1.89,0.76-2.91c-0.57-2.41-3.95-2.5-6.38-2.03c-0.69-1.6-1.14-3.29-1.32-5.03
			c-0.44-1.68-1.76-3.35-3.47-3.2c-1.71,0.15-2.58,2.01-4.16,2.38c-1.83,0.44-3.35-1.19-4.84-2.4c-1.49-1.21-3.94-1.96-4.91-0.37
			c-0.6,0.96-0.25,2.28-0.85,3.23c-1.07,1.68-3.59,0.6-5.16-0.55c-1.58-1.16-4.06-2.2-5.16-0.59c-0.28,0.53-0.48,1.09-0.6,1.68
			c-0.48,1.36-1.61,2.29-2.82,3.15c-0.68-1.57-1.12-3.23-1.32-4.92c-0.44-1.68-1.68-3.35-3.45-3.18c-1.78,0.17-2.58,1.99-4.16,2.36
			c-1.58,0.37-3.35-1.17-4.84-2.4c-1.49-1.22-3.94-1.96-4.93-0.37c-0.59,0.96-0.23,2.3-0.85,3.23c-1.06,1.68-3.59,0.62-5.14-0.54
			c-1.56-1.16-4.07-2.21-5.18-0.6c-0.27,0.53-0.48,1.09-0.6,1.68c-0.74,2.14-3.05,3.2-4.84,4.57c-1.79,1.37-3.23,4.11-1.68,5.78
			c0.75,0.82,2.08,1.16,2.45,2.21c0.47,1.31-0.87,2.5-1.94,3.35c-1.76,1.49-2.09,6,0.25,7.24c0.41,0.21,0.89,0.37,1.34,0.54
			c-1.8,0.36-3.3-1.21-4.77-2.4c-1.49-1.21-3.94-1.98-4.93-0.39c-0.59,0.96-0.23,2.3-0.85,3.23c-1.06,1.68-3.59,0.62-5.16-0.54
			c-1.58-1.16-4.06-2.21-5.16-0.6c-0.27,0.53-0.47,1.09-0.6,1.68c-0.74,2.14-3.05,3.2-4.86,4.57c-1.81,1.37-3.22,4.11-1.68,5.78
			c0.74,0.82,2.06,1.16,2.45,2.21c0.39,1.06-0.89,2.5-1.94,3.35c-0.59,0.5-1.02,1.34-1.24,2.27c-0.65-0.27-1.29-0.64-1.81-1.03
			c-1.56-1.16-4.07-2.21-5.16-0.6c-0.29,0.53-0.49,1.09-0.62,1.68c-0.74,2.14-3.05,3.2-4.84,4.57c-1.79,1.37-3.23,4.11-1.68,5.78
			c0.75,0.82,2.08,1.16,2.45,2.21c0.47,1.31-0.87,2.48-1.94,3.35c-1.68,1.51-2.09,6.02,0.25,7.26c0.99,0.5,2.43,0.67,2.66,1.76
			c0.23,1.09-0.77,1.68-1.42,2.46c-1.57,2.04-1.2,4.96,0.84,6.53c0.19,0.14,0.38,0.27,0.59,0.39c0.57,0.27,1.26,0.49,1.46,1.09
			c0.1,0.44,0.05,0.9-0.13,1.31c-0.22,0.81-0.3,1.66-0.22,2.5c0,0.29,0.11,0.57,0.3,0.79c0.22,0.15,0.48,0.22,0.74,0.22
			c3.35,0.15,5.03-1.06,7.09,1.89c0.17,0.3,0.41,0.55,0.7,0.74c0.28,0.15,0.6,0.23,0.92,0.23c2.33,0.2,3.84-1.26,5.97-1.52
			c0.88-0.11,1.54-0.04,2.12,0.13c-0.18,1.26,0.28,2.57,1.35,3.41c0.15,0.12,0.32,0.23,0.49,0.32c0.44,0.22,0.99,0.39,1.16,0.85
			c0.07,0.35,0.03,0.71-0.12,1.04c-0.17,0.64-0.23,1.3-0.17,1.96c-0.05,0.39,0.22,0.74,0.6,0.79c0.07,0.01,0.15,0.01,0.22,0
			c2.66,0.12,3.94-0.82,5.56,1.49c0.14,0.23,0.33,0.43,0.55,0.59c0.23,0.12,0.48,0.18,0.74,0.18c1.83,0.15,3.03-0.99,4.69-1.21
			c2.33-0.28,2.82,0.9,4.86,1.86c3.27,1.64,4.83,0.7,5.43-1.49c0.16-0.62,0.25-1.25,0.28-1.89c0.23-3.94,4.01-3.35,7.21-3.85
			c2.5-0.42-4.12-6.7,0.92-8.78c0.98-0.26,1.84-0.85,2.43-1.68c0.52-1.28,0.05-2.75-1.11-3.5c-1.15-0.69-2.48-1.02-3.82-0.96
			c-0.33-0.41-0.41-0.89-0.35-1.39c0.04,0.05,0.08,0.1,0.11,0.15c0.18,0.3,0.42,0.55,0.7,0.75c0.29,0.14,0.61,0.22,0.94,0.23
			c2.33,0.18,3.84-1.26,5.97-1.52c2.95-0.39,3.57,1.14,6.17,2.36c1.93,0.97,3.38,1.2,4.47,0.88c0.3,0.61,0.72,1.18,1.3,1.63
			c0.19,0.15,0.4,0.29,0.62,0.41c0.57,0.27,1.26,0.49,1.46,1.09c0.09,0.44,0.04,0.9-0.13,1.31c-0.22,0.81-0.3,1.66-0.22,2.5
			c-0.01,0.29,0.1,0.58,0.3,0.79c0.22,0.15,0.48,0.22,0.74,0.22c3.35,0.15,5.03-1.06,7.07,1.89c0.18,0.3,0.42,0.55,0.7,0.74
			c0.29,0.15,0.61,0.23,0.94,0.23c2.31,0.2,3.84-1.26,5.97-1.52c2.95-0.37,3.57,1.14,6.17,2.36c4.06,1.99,6.03,0.77,6.8-2.01
			c0.21-0.79,0.33-1.6,0.37-2.41c0.24-3.93,3.17-4.3,6.41-4.59c0.14,1.19,0.73,2.33,1.75,3.13c0.19,0.15,0.4,0.29,0.62,0.41
			c0.55,0.27,1.24,0.49,1.46,1.07c0.09,0.44,0.04,0.91-0.13,1.32c-0.23,0.81-0.31,1.66-0.23,2.5c0,0.29,0.11,0.57,0.3,0.79
			c0.22,0.15,0.49,0.23,0.75,0.22c3.35,0.15,5.03-1.06,7.07,1.89c0.18,0.3,0.42,0.55,0.7,0.74c0.28,0.15,0.6,0.23,0.92,0.23
			c2.33,0.2,3.85-1.26,5.97-1.52c2.95-0.37,3.57,1.14,6.17,2.36c4.06,2.03,6.03,0.85,6.8-1.93c0.2-0.79,0.31-1.6,0.35-2.41
			c0.3-5.03,5.03-4.22,9.15-4.89c3.18-0.54-5.23-8.56,1.17-11.14c1.25-0.34,2.34-1.11,3.08-2.16
			C481.67,187.15,481.09,185.28,479.62,184.33z M436.7,191.45c0.37,0.21,0.66,0.47,0.75,0.87c0.08,0.36,0.01,0.68-0.16,0.98
			C437.06,192.69,436.84,192.07,436.7,191.45z"/>
		<path class="st1" d="M446.32,194.78c0,0-8.46,11.96-11.38,15.75c-2.92,3.79-17.49,27.4-19.47,43.03c-0.22,1.68-0.44,3.1-0.64,4.36
			c6.27,41.39,5.3,117.12,5.03,130.09h-19.89c-0.18-14.63-1.88-148.27-2.5-152.34c-0.65-4.32-8.97-20.76-21.78-27.52
			c-12.82-6.75-23.86-29.14-23.86-29.14h4.09c0,0,7.59,13.69,18.43,21.28c1.55,1.06,3.17,2.03,4.84,2.88
			c-0.04-8.24,1.39-16.43,4.24-24.16l2.21,2.03c-2.98,12.22-2.58,20.11-1.68,24.52c4.08,1.91,7.84,4.43,11.16,7.47
			c11.19-14.56,17.48-47.84,17.48-47.84l2.88,1.58c-0.85,6.89-2.11,13.71-3.79,20.44c-2.09,8.61-8.28,24.83-11.14,32.19
			c3.41,4.94,6.22,10.27,8.38,15.87c0.3-0.48,0.67-0.91,1.09-1.29c7.29-6.6,21-37.74,21-37.74c3.35-7.24-1.76-26.24-1.76-26.24h3.84
			l1.68,16.62l9.62-10.49l1.76,1.46l-10.04,13.15l-5.26,16.62l13.71-15.17L446.32,194.78z"/>
	</g>
	<path class="st2" d="M26.85,370.53h451.97c5.04,0,9.12,3.88,9.12,8.67v0v13.05l0,0H17.73l0,0v-13.06
		C17.74,374.41,21.82,370.53,26.85,370.53z"/>
	<g id="freepik--Streetlight--inject-443">
		<polygon class="st0" points="74.8,134.57 71.63,165.03 55.75,165.03 52.58,134.57 		"/>
		<rect x="60.74" y="158.48" class="st0" width="5.91" height="206.97"/>
		<polygon class="st2" points="69.96,163.17 57.42,163.17 54.64,136.42 72.74,136.42 		"/>
		<polygon class="st0" points="62.04,163.59 61.19,163.59 60.26,135.5 61.11,135.5 		"/>
		<path class="st0" d="M63.69,124.78c0,0-9.41,9.27-16.62,9.27l2.23,1.47h28.74l2.23-1.47C73.1,134.07,63.69,124.78,63.69,124.78z"
			/>
	</g>
	<g id="freepik--Bench--inject-443">
		<polygon class="st0" points="374.42,390.89 379.77,390.89 368.82,329.11 363.47,329.11 		"/>
		<polygon class="st0" points="208.04,390.89 213.39,390.89 202.45,329.11 197.1,329.11 		"/>
		<rect x="161.47" y="360" class="st0" width="210.16" height="5.42"/>
		<polygon class="st0" points="325.04,390.89 319.69,390.89 330.63,329.11 335.99,329.11 		"/>
		<polygon class="st0" points="158.66,390.89 153.31,390.89 164.26,329.11 169.61,329.11 		"/>
		<polygon class="st0" points="207.22,326.7 212.55,326.7 221.46,277.13 216.14,277.13 		"/>
		<polygon class="st0" points="361.7,326.7 367.03,326.7 375.95,277.13 370.62,277.13 		"/>
		<polygon class="st0" points="284.46,326.7 289.78,326.7 298.7,277.13 293.37,277.13 		"/>
		<polygon class="st0" points="198.01,280.51 386.62,280.51 388.29,271.23 199.69,271.23 		"/>
		<polygon class="st0" points="194.99,297.3 383.6,297.3 385.28,288.02 196.67,288.02 		"/>
		<polygon class="st0" points="191.97,314.08 380.58,314.08 382.25,304.8 193.65,304.8 		"/>
		<rect x="152.18" y="325.25" class="st0" width="227" height="6.41"/>
	</g>
</g>
<g id="Background_simple" class="st5">
	<g class="st6">
		<path class="st7" d="M185.77,91.83c-21.56,2.85-42.36,8.91-60.8,18.41c-21.74,11.2-43.95,28.66-37.39,51.49
			c12.11,42.15,70.21,42.92,58.61,71.26c-13.14,32.1-4.33,69.76,54.63,80.23c111.98,19.89,247.35-96.48,209.33-160.43
			C386.48,112.97,300.27,76.71,185.77,91.83z"/>
		<path class="st8" d="M185.77,91.83c-21.56,2.85-42.36,8.91-60.8,18.41c-21.74,11.2-43.95,28.66-37.39,51.49
			c12.11,42.15,70.21,42.92,58.61,71.26c-13.14,32.1-4.33,69.76,54.63,80.23c111.98,19.89,247.35-96.48,209.33-160.43
			C386.48,112.97,300.27,76.71,185.77,91.83z"/>
	</g>
</g>
<g id="Shadow">
	<g>
		<g>
			<path class="st3" d="M458.88,454.73c0,3.39-93.52,6.13-208.88,6.13s-208.88-2.75-208.88-6.13c0-3.39,93.52-6.13,208.88-6.13
				S458.88,451.34,458.88,454.73z"/>
		</g>
	</g>
</g>
<g id="Characters">
	<g>
		<g>
			<path class="st9" d="M233.13,173.32l-7.34,19.53l-44.28,19.53l2.04,8.4c0,0,48.4-6.66,52.04-10.55
				c3.64-3.89,15.52-31.04,15.52-31.04L233.13,173.32z"/>
			<polygon class="st10" points="231.33,178.11 230.17,181.18 244.15,186.79 245.84,190.85 247.01,188.32 246.47,181.65 			"/>
			<g>
				<g>
					<g>
						<g>
							<g>
								<g>
									<g>
										<path class="st9" d="M191.52,210.25c0,0-1.69-3.65-4.83-4.75c-3.13-1.11-5.34-2.82-7.73-3.49
											c-2.39-0.66-0.53,2.12,0.75,3.4c1.29,1.28,2.73,2.74,1.61,3.56c-1.12,0.81-12.93,2.08-14.35,3.38
											c-1.42,1.3,0.55,1.69,0.55,1.69s-2.86,0.38-3.02,1.56c-0.04,0.31,0.36,1.08,1.69,1.11c2.99,0.07,9.28-0.12,9.28-0.12
											c-0.36,0-8.11,0.79-9.25,1.06c-1.5,0.35-2.02,1.28-1.79,2.14c0.33,1.23,9.97,0.58,10.4,0.84c0,0-5.56,0.19-6.3,1.65
											c-0.74,1.46,2.77,1.54,5.88,1.01c2.85-0.48,8.56-0.67,11.4-1.44c3.51-0.95,5.65-2.37,6.2-5.73
											C192.57,212.75,191.52,210.25,191.52,210.25z"/>
									</g>
								</g>
							</g>
						</g>
					</g>
				</g>
				<path class="st11" d="M167.9,213.91c2.3-0.25,4.61-0.4,6.92-0.44"/>
				<path class="st11" d="M177,220.62c-1.09-2.78-1.34-5.89-0.71-8.81"/>
				<path class="st11" d="M182.34,210.07c0.31,1.18,1.04,2.24,2.03,2.95c0.99,0.71,2.23,1.06,3.45,0.97"/>
			</g>
		</g>
		<g>
			<g>
				<g>
					<path class="st7" d="M201.16,156.84c0,0,8.42,0.02,11.05,10.18c2.63,10.17,2.1,48.78,3.44,54.49
						c1.34,5.7,12.56,48.23,15.11,68.79c0,0-11.9,1.02-12.97,0.8c-1.07-0.22-18.87-83.87-18.87-83.87L201.16,156.84z"/>
				</g>
				<g class="st10">
					<path d="M201.16,156.84c0,0,8.42,0.02,11.05,10.18c2.63,10.17,2.1,48.78,3.44,54.49c1.34,5.7,12.56,48.23,15.11,68.79
						c0,0-11.9,1.02-12.97,0.8c-1.07-0.22-18.87-83.87-18.87-83.87L201.16,156.84z"/>
				</g>
				<g>
					<path class="st7" d="M217.9,175.34c5.93,11.97,15.38,24.69,15.38,24.69c3.04-0.46,23.09-8.68,23.09-8.68l2.22,8.58
						c0,0-6.46,6.47-13.33,10.99c-12.12,7.96-16.59,7.45-22.77,1.04c-6.18-6.41-18.78-30.22-18.78-30.22l4.4-21.56l-1.11-1.28
						C213.67,161.81,215.04,169.57,217.9,175.34z"/>
				</g>
				<g class="st10">
					<path d="M217.9,175.34c5.93,11.97,15.38,24.69,15.38,24.69c3.04-0.46,23.09-8.68,23.09-8.68l2.22,8.58
						c0,0-6.46,6.47-13.33,10.99c-12.12,7.96-16.59,7.45-22.77,1.04c-6.18-6.41-18.78-30.22-18.78-30.22l4.4-21.56l-1.11-1.28
						C213.67,161.81,215.04,169.57,217.9,175.34z"/>
				</g>
				<path class="st10" d="M214.56,200.68c0,0,1-10.37,0-16.15c-1-5.77-2.09-11.21-2.09-11.21s3.82,8.73,4.25,15.1
					s0.16,16.04,0.16,16.04L214.56,200.68z"/>
				<path class="st10" d="M245.05,195.88c-0.08,0.03,1.65,14.07,1.65,14.07l2.85-2.11l-1.84-13.01L245.05,195.88z"/>
			</g>
			<g>
				<g>
					<polygon class="st9" points="147.88,443.91 158.66,444.96 164.55,417.43 147.88,415.87 					"/>
					<g>
						<path class="st7" d="M160.23,440.57h-3.85c-0.87,0-1.68,0.44-2.19,1.14c-2.22,3.03-3.89,1.89-6.3-0.96
							c-1.54-0.18-1.95,1.58-2.07,2.06l-2.88,10.47c-0.25,0.87,0.26,1.79,1.13,2.04c0.16,0.04,0.32,0.07,0.48,0.06
							c4.68,0,6.89,0,12.71,0h17.8c4.85,0,5.86-4.89,3.86-5.34c-8.99-1.99-15.35-4.63-18.13-7.24
							C160.26,442.33,160.79,441.99,160.23,440.57z"/>
						<path class="st10" d="M160.23,440.57h-3.85c-0.87,0-1.68,0.44-2.19,1.14c-2.22,3.03-3.89,1.89-6.3-0.96
							c-1.54-0.18-1.95,1.58-2.07,2.06l-2.88,10.47c-0.25,0.87,0.26,1.79,1.13,2.04c0.16,0.04,0.32,0.07,0.48,0.06
							c4.68,0,6.89,0,12.71,0h17.8c4.85,0,5.86-4.89,3.86-5.34c-8.99-1.99-15.35-4.63-18.13-7.24
							C160.26,442.33,160.79,441.99,160.23,440.57z"/>
						<path class="st12" d="M168.58,443.55c0.4-0.29,0.65-0.76,0.65-1.26c0.03-0.27-0.09-0.53-0.31-0.68
							c-1.21-0.85-6.02,1.4-6.56,1.66c-0.06,0.02-0.11,0.07-0.13,0.13c-0.04,0.11,0.02,0.23,0.13,0.27
							c1.18,0.28,2.39,0.44,3.61,0.46C166.88,444.23,167.79,444.02,168.58,443.55z M168.62,441.98c0.1,0.06,0.15,0.18,0.13,0.29
							c-0.02,0.36-0.19,0.69-0.48,0.92c-1.09,0.82-3.73,0.47-5.15,0.2C165.11,442.51,167.95,441.52,168.62,441.98z"/>
						<path class="st12" d="M162.52,443.73c1.45-0.6,4.47-2.98,4.31-4.24c-0.03-0.26-0.21-0.58-0.87-0.67
							c-2.64-0.3-3.77,4.44-3.77,4.64c-0.03,0.08,0,0.17,0.06,0.23c0.05,0.01,0.1,0.01,0.15,0L162.52,443.73z M165.88,439.22
							c0.49,0.05,0.49,0.23,0.49,0.29c0.14,0.77-2.06,2.74-3.63,3.57c0.33-1.11,1.29-3.87,2.97-3.87L165.88,439.22z"/>
						<path class="st13" d="M162.08,443.55c-1.33,0.18-2.56,0.97-3.27,2.11"/>
						<path class="st13" d="M164.37,445.15c-1.33,0.18-2.56,0.97-3.27,2.11"/>
						<path class="st13" d="M167.64,446.76c-1.33,0.18-2.56,0.97-3.27,2.11"/>
					</g>
				</g>
				<g>
					<polygon class="st9" points="200.14,443.07 210.92,444.13 215.92,416.5 200.6,414.83 					"/>
					<g>
						<path class="st7" d="M212.49,439.74h-3.85c-0.87,0-1.68,0.44-2.19,1.14c-2.22,3.03-3.89,1.89-6.3-0.96
							c-1.54-0.18-1.95,1.58-2.07,2.06l-2.88,10.47c-0.25,0.87,0.26,1.79,1.13,2.04c0.16,0.04,0.32,0.07,0.48,0.06
							c4.68,0,6.89,0,12.71,0h17.8c4.85,0,5.86-4.89,3.86-5.34c-8.99-1.99-15.35-4.63-18.13-7.24
							C212.52,441.5,213.05,441.16,212.49,439.74z"/>
						<path class="st12" d="M220.84,442.72c0.41-0.29,0.65-0.76,0.65-1.26c0.03-0.27-0.09-0.53-0.31-0.68
							c-1.21-0.85-6.02,1.4-6.56,1.66c-0.06,0.02-0.11,0.07-0.13,0.13c-0.04,0.11,0.02,0.23,0.13,0.27
							c1.18,0.28,2.39,0.44,3.61,0.46C219.14,443.39,220.05,443.19,220.84,442.72z M220.88,441.14c0.1,0.06,0.15,0.18,0.13,0.29
							c-0.02,0.36-0.19,0.69-0.48,0.92c-1.09,0.82-3.73,0.47-5.15,0.2C217.37,441.67,220.21,440.68,220.88,441.14z"/>
						<path class="st12" d="M214.78,442.89c1.45-0.6,4.47-2.98,4.31-4.24c-0.03-0.26-0.21-0.58-0.87-0.67
							c-2.64-0.3-3.77,4.44-3.77,4.64c-0.03,0.08,0,0.17,0.06,0.23c0.05,0.01,0.1,0.01,0.15,0L214.78,442.89z M218.14,438.38
							c0.49,0.05,0.49,0.23,0.49,0.29c0.14,0.77-2.06,2.74-3.63,3.57c0.33-1.11,1.29-3.87,2.97-3.87L218.14,438.38z"/>
						<path class="st13" d="M215.16,442.71c-1.33,0.18-2.56,0.97-3.27,2.11"/>
						<path class="st13" d="M217.55,444.51c-1.33,0.18-2.56,0.97-3.27,2.11"/>
						<path class="st13" d="M220.53,446.03c-1.33,0.18-2.56,0.97-3.27,2.11"/>
					</g>
				</g>
				<path class="st12" d="M217.48,239.08c0.78,2.3,9.49,76.06,9.39,91.97c-0.08,12.88-9.61,102.01-9.61,102.01h-20.98
					c0,0,2.74-45.79,2.19-60.68c-0.55-14.89,3.03-42.87,3.03-42.87l-22.46-67.16l0.84-22.53L217.48,239.08z"/>
				<path class="st12" d="M150.41,338.17c0.49-2.15,1.28-6.51,2.25-12.27c-0.03-0.01-0.06-0.01-0.09-0.02
					c0.71-7.61-1.74-47.05,0.67-69.58c1.85-14.35,5.28-21.98,8.97-26.73c0.19-0.24,0.36-0.47,0.52-0.66
					c0.61-0.77,0.99-1.19,0.99-1.19c0.7,0.18,1.4,0.34,2.09,0.49c0.26,0.06,0.52,0.11,0.77,0.17c26.07,5.45,46.91-1.69,46.91-1.69
					c2.4,5.93,4.93,19.95,6.68,33.06c-2.73,2.99-13.34,5.77-27.07,8.35l-3.92,17.71c-2.06,10.98-4.71,21.75-6.95,31.44l-2.35,10.62
					c-0.14,0.7-0.28,1.39-0.41,2.06C178.3,336.03,165,433.51,165,433.51l-19.15-0.44C145.84,433.07,143.73,367.27,150.41,338.17z"/>
				<g>
					<path class="st14" d="M188.35,290.19c-0.07,0.36,8.82-34.19,8.82-34.19s6.82,31.29-4.04,48.5L188.35,290.19z"/>
				</g>
				<path class="st10" d="M212.49,439.74h-3.85c-0.87,0-1.68,0.44-2.19,1.14c-2.22,3.03-3.89,1.89-6.3-0.96
					c-1.54-0.18-1.95,1.58-2.07,2.06l-2.88,10.47c-0.25,0.87,0.26,1.79,1.13,2.04c0.16,0.04,0.32,0.07,0.48,0.06
					c4.68,0,6.89,0,12.71,0h17.8c4.85,0,5.86-4.89,3.86-5.34c-8.99-1.99-15.35-4.63-18.13-7.24
					C212.52,441.5,213.05,441.16,212.49,439.74z"/>
			</g>
			<path class="st7" d="M155.84,187.77l-2.82-25c4.35-6.49,21.82-9.94,21.82-9.94l14.18,0.78c0,0,7.5,1.77,12.16,3.29
				c0,0,3.1,4.11,5.46,9.84c0,0,6.86,14.66,5.79,24.97c-0.45,4.34-1.43,20.88-0.22,28.33l6.43,19.74
				c-25.92,20.18-57.87-0.91-57.87-0.91c1.16-3.56,3.73-11.46,4.25-14.94c-0.38-4.44-1.63-7.36-3.51-15.14
				C161.16,207.28,156.47,189.23,155.84,187.77z"/>
			<g>
				<polygon class="st9" points="186.61,209.71 191.83,209.26 193.92,216.62 188.67,218.42 				"/>
				<g>
					<g>
						<g>
							<g>
								<g>
									<path class="st9" d="M190.29,208.86c0,0,0.77-3.62,3.36-5.25c2.59-1.63,4.22-3.62,6.22-4.71c2.01-1.08,2.33,1.17,1.43,2.58
										s-3.3,3.64-2.14,4.14c1.17,0.5,12.02-0.78,13.56,0.1c1.54,0.88-0.15,1.63-0.15,1.63s2.43-0.27,3.02,0.78
										c0.59,1.05-0.89,1.68-0.89,1.68s1.64-0.12,1.59,1.04c-0.05,1.17-9.73,3.21-10.06,3.52c0,0,5.63-2,6.59-0.84
										c0.96,1.16-2.11,2.44-4.54,3.51c-2.43,1.07-5.66,1.39-8.36,1.15c-3.37-0.29-8.06,0.1-9.24-2.8
										C189.5,212.5,190.29,208.86,190.29,208.86z"/>
								</g>
							</g>
						</g>
					</g>
				</g>
			</g>
			<g>
				<path class="st14" d="M152.38,302.38l16.25,2.12l3.66-60.01c0,0,1.09-20.63,0.49-20.51c-0.61,0.12-7.42,1.25-8.03,1.41
					c-0.6,0.17-12.46,72.67-12.46,72.67L152.38,302.38z"/>
				<path class="st7" d="M170.25,188.42c-1.14-13.23-3.74-33.97-9.23-31.51c-3.51,1.57-5.72,2.64-7.53,4.19
					c-1.19,1.02-1.4,3.43-2.2,6.03c-2.21,7.18,1.72,58.27,1.72,58.27l-12.6,71.08l25.55,3.32
					C165.97,299.79,171.4,201.65,170.25,188.42z"/>
				<path class="st10" d="M170.25,188.42c-1.14-13.23-3.74-33.97-9.23-31.51c-3.51,1.57-5.72,2.64-7.53,4.19
					c-1.19,1.02-1.4,3.43-2.2,6.03c-2.21,7.18,1.92,57.29,1.92,57.29l-12.81,72.14l25.57,3.24
					C165.97,299.79,171.4,201.65,170.25,188.42z"/>
				<path class="st10" d="M158.31,215.51c0,0,4.26-24.8,3.98-36.32l-8.07,31.01L158.31,215.51z"/>
				<g>
					<path class="st10" d="M151.5,224.9c0,0,1.78,2.32,4.25,3.35c3.49,1.45,13.8-1.7,13.8-1.7l0.14-4.4L151.5,224.9z"/>
					<path class="st7" d="M162.29,179.19c-0.64-0.02-5.13,28.87-5.13,28.87l31.76-0.71l1.77,12.79c0,0-13.9,3.37-29.27,5.88
						c-15.87,2.59-21.8-4.44-21.87-15.2c-0.07-9.86,4.01-33.84,4.01-33.84c2.06-9.44,6.11-12.91,11.09-16.79L162.29,179.19z"/>
				</g>
				<path class="st10" d="M162.29,179.19c-0.64-0.02-5.13,28.87-5.13,28.87l31.76-0.71l1.77,12.79c0,0-13.9,3.37-29.27,5.88
					c-15.87,2.59-21.8-4.44-21.87-15.2c-0.07-9.86,4.01-33.84,4.01-33.84c2.06-9.44,6.11-12.91,11.09-16.79L162.29,179.19z"/>
			</g>
			<g>
				<path class="st12" d="M170.93,104.35c0,0,3.77-5.64,13.81-6.38c10.04-0.74,21.29,2.17,26.74,15.94l-4.4,1.11
					c2.93,10.36,4.22,21.12,3.8,31.89c0,0-30.78,4.12-50.69,0.69c0,0-0.39-11.68,2.08-27.92
					C164.75,103.44,170.93,104.35,170.93,104.35z"/>
				<g>
					<g>
						<g>
							<g>
								<path class="st9" d="M171.68,154.23c0,0,4.53,3.21,10.37,7.86c1.22,0.97,2.55,1.8,3.95,2.47c3.78,1.82,7.21,2.82,8.05,0.99
									c0.19-0.4,0.33-0.83,0.43-1.28c0.66-3.02,0.18-7.22-2.32-9.05c-2.81-2.06-4.2-3.87-3.82-6.83c0.19-1.68,0.73-3.42,1.37-5.12
									l-3.22-1.77l-11.67-10.89C176.37,137.52,177.43,149.89,171.68,154.23z"/>
							</g>
							<path class="st15" d="M188.27,149.04c-3.16-1.71-6.67-4.76-6.41-8.4c0.12-1.54,0.39-3,0.72-3.94l6.6,8.05
								C188.72,146.11,188.57,147,188.27,149.04z"/>
							<path class="st9" d="M172.13,117.94c1.51,11.49,1.91,16.37,8.09,22.19c9.31,8.74,22.96,5.14,24.88-6.38
								c1.73-10.37-1.03-27.42-12.54-31.82C181.23,97.58,170.62,106.45,172.13,117.94z"/>
							<path class="st12" d="M187.82,121.11c0.1,1.22,0.8,2.19,1.56,2.18c0.76-0.01,1.29-1.01,1.18-2.23
								c-0.1-1.22-0.8-2.19-1.56-2.18C188.25,118.89,187.72,119.89,187.82,121.11z"/>
							<path class="st12" d="M199.54,120.59c0.1,1.18,0.8,2.13,1.56,2.11c0.76-0.01,1.29-0.98,1.18-2.16
								c-0.1-1.18-0.8-2.13-1.56-2.11C199.96,118.44,199.43,119.41,199.54,120.59z"/>
							<path class="st12" d="M184.65,116.95c0.15,0.01,0.29-0.04,0.4-0.15c1.71-1.71,3.74-1.22,3.76-1.21
								c0.3,0.07,0.59-0.1,0.65-0.41c0.06-0.3-0.15-0.61-0.45-0.69c-0.11-0.03-2.64-0.66-4.77,1.47c-0.21,0.21-0.2,0.57,0.02,0.81
								C184.37,116.88,184.51,116.94,184.65,116.95z"/>
							<path class="st12" d="M202.19,114.69c0.11-0.04,0.21-0.13,0.25-0.26c0.09-0.27-0.05-0.59-0.32-0.73
								c-2.69-1.38-4.6-0.17-4.68-0.12c-0.23,0.15-0.27,0.48-0.1,0.74c0.17,0.26,0.5,0.35,0.72,0.21c0.07-0.05,1.57-0.96,3.71,0.14
								C201.92,114.72,202.07,114.73,202.19,114.69z"/>
							<path class="st16" d="M195.47,120.18c0,0,1.97,4.25,4.12,6.86c0.37,0.46,0.18,1.15-0.36,1.38c-1.4,0.58-3.09,0.17-3.09,0.17
								L195.47,120.18z"/>
						</g>
						<path class="st12" d="M188.58,118.94l2.62-0.73C191.2,118.21,189.83,120.24,188.58,118.94z"/>
						<path class="st12" d="M200.32,118.48l2.62-0.73C202.94,117.75,201.58,119.78,200.32,118.48z"/>
						<path class="st12" d="M179.1,124.34c0,0,2.76-8.32,1.17-14.97c0,0,21.27-9.68,24.95,11.59c0,0-2.85-23.67-21.18-21.84
							c-18.33,1.83-19.64,29.73-9.22,36.53C174.82,135.68,176.7,130.21,179.1,124.34z"/>
						<path class="st9" d="M169.01,127.47c1.46,2.31,3.73,3.71,5.78,4.14c3.08,0.65,4.47-4.32,3.3-7.34
							c-1.05-2.72-4.12-4.42-7.06-3.7C168.13,121.27,167.35,124.83,169.01,127.47z"/>
					</g>
					<path class="st17" d="M175.44,126.61c-0.12-1.09-0.68-2.12-1.53-2.81c-0.85-0.69-1.98-1.03-3.07-0.91"/>
					<path class="st13" d="M188.95,129.91c0,0,1.24,3,4.63,2.16"/>
				</g>
			</g>
			<g>
				<g>
					<g>
						<g>
							<g>
								<g>
									<g>
										<path class="st9" d="M251.57,194.4c0,0-0.46-3.99,1.63-6.58c2.09-2.58,3.08-5.2,4.77-7.01c1.69-1.81,1.56,1.53,1.14,3.29
											c-0.43,1.76-0.89,3.77,0.48,3.87c1.38,0.11,12.11-4.99,14-4.62c1.89,0.37,0.41,1.73,0.41,1.73s2.64-1.17,3.39-0.25
											c0.19,0.24,0.26,1.11-0.86,1.83c-2.52,1.62-7.98,4.75-7.98,4.75c0.31-0.19,7.32-3.57,8.44-3.94
											c1.46-0.48,2.39,0.03,2.65,0.89c0.36,1.22-8.2,5.71-8.42,6.15c0,0,4.84-2.75,6.23-1.89c1.39,0.86-1.56,2.76-4.48,3.94
											c-2.68,1.08-7.65,3.9-10.47,4.73c-3.48,1.03-6.05,0.93-8.28-1.64C251.98,197.08,251.57,194.4,251.57,194.4z"/>
									</g>
								</g>
							</g>
						</g>
					</g>
				</g>
				<path class="st11" d="M273.62,185.17c-2.09,0.99-4.14,2.07-6.13,3.25"/>
				<path class="st11" d="M269.36,195.65c-0.52-2.94-1.93-5.72-4-7.88"/>
				<path class="st11" d="M259.3,189.44c0.35,1.17,0.28,2.45-0.19,3.58c-0.47,1.12-1.35,2.07-2.43,2.63"/>
			</g>
		</g>
		<g>
			<g id="freepik--character-3--inject-124">
				<path class="st12" d="M282.6,83.02c2.51-1.36-6.2,6.44-5.26,14.13c0.94,7.69,2.78,26.07,2.78,26.07l17.6-4.68L282.6,83.02z"/>
				<g id="freepik--group--inject-124">
					<path class="st9" d="M385.9,185.23l-26.46,17.49c-0.8-0.8-1.54-1.67-2.2-2.59c-3.56-4.59-8.67-12.85-10.32-15.56l-13.35,20
						c3.9,4.07,19.8,14.86,22.48,15.3c6.95,1.15,34.76-28.95,34.76-28.95L385.9,185.23z"/>
					<path class="st14" d="M338.46,208.87c0,0,4.88-0.67,11.39-4.18c4.31-2.32,7.03-5.03,7.03-5.03l-1.9-2.62l-18.7,10.01
						L338.46,208.87z"/>
					<path class="st7" d="M287.47,123.16c-5.99,2.58-15.49,19.33-15.49,19.33l2.46,3.94l4.44,2.07c0,0,7.2-11.69,11.95-13.79
						C295.59,132.61,287.47,123.16,287.47,123.16z"/>
					<path class="st18" d="M287.47,123.16c-5.99,2.58-15.49,19.33-15.49,19.33l2.46,3.94l4.44,2.07c0,0,7.2-11.69,11.95-13.79
						C295.59,132.61,287.47,123.16,287.47,123.16z"/>
					<path class="st7" d="M287.47,123.16c0,0,13.67-8.41,31.35-4.45c3.15,1.54,5.52,4.12,9.05,23.02
						c1.18,6.28,7.52,6.39,10.24,12.41c1.61,2.2,1.13,5.29-1.07,6.9c-0.34,0.25-0.71,0.45-1.1,0.61
						c-9.43,3.75-27.14,9.88-37.29,7.15C298.67,168.78,288.12,143.61,287.47,123.16z"/>
					<path class="st18" d="M287.47,123.16c0,0,13.67-8.41,31.35-4.45c3.15,1.54,5.52,4.12,9.05,23.02
						c1.18,6.28,7.52,6.39,10.24,12.41c1.61,2.2,1.13,5.29-1.07,6.9c-0.34,0.25-0.71,0.45-1.1,0.61
						c-9.43,3.75-27.14,9.88-37.29,7.15C298.67,168.78,288.12,143.61,287.47,123.16z"/>
					<path class="st9" d="M336.83,215.99c9.91,25.86,17.3,42.69,17.3,42.69l-6.37,3.35c0,0-14.62-15.57-27.91-42.71
						c-3.19-6.52-6.06-13.19-8.57-20l16.59-14.01C329.5,193.37,333.88,208.32,336.83,215.99z"/>
					<path class="st14" d="M311.29,199.33l11.93-6.3c1.62,8.05,8.91,6.58,11.77,17.78c-3.75,1.12-13.56,3.83-17.57,3.36
						C314.22,207.66,313.8,206.14,311.29,199.33z"/>
					<path class="st12" d="M344.09,257.94l8.41-2.74c0.28-0.11,0.6,0.02,0.71,0.3c0,0.01,0.01,0.02,0.01,0.02l0,0l2.58,6.53
						c0.23,0.72-0.16,1.5-0.88,1.74c-2.95,0.91-4.41,1.16-8.11,2.37c-2.27,0.73-6.7,2.39-9.97,2.91c-3.27,0.52-3.68-2.73-2.35-3.26
						c3.17-1.21,6.88-4.71,8.44-7.06C343.22,258.36,343.63,258.08,344.09,257.94z"/>
					<path class="st7" d="M340.27,260.18c-0.34-0.18-0.54-0.53-0.54-0.91c-0.03-0.24,0.06-0.47,0.24-0.63
						c0.8-0.66,3.4,0.08,3.7,0.19c0.07,0.03,0.11,0.09,0.13,0.16c0.01,0.07-0.03,0.14-0.09,0.17c-0.6,0.38-1.24,0.69-1.91,0.93
						C341.32,260.31,340.78,260.34,340.27,260.18z M340.23,258.96c-0.09,0.08-0.14,0.19-0.12,0.31c0,0.23,0.13,0.45,0.33,0.57
						c0.47,0.24,1.47-0.05,2.72-0.71c-1.04-0.28-2.51-0.5-2.95-0.14L340.23,258.96z"/>
					<path class="st7" d="M343.58,259.22c-0.89-0.19-2.52-1.41-2.61-2.27c-0.04-0.32,0.15-0.62,0.46-0.73
						c0.26-0.12,0.57-0.12,0.83,0c0.98,0.49,1.52,2.73,1.55,2.8c0,0.06-0.02,0.12-0.05,0.17c-0.02,0.02-0.05,0.02-0.08,0.02
						C343.65,259.21,343.61,259.22,343.58,259.22z M341.58,256.54c-0.25,0.07-0.26,0.25-0.25,0.36c0.41,0.86,1.13,1.54,2.01,1.9
						c-0.19-0.72-0.67-1.93-1.27-2.21c-0.13-0.08-0.28-0.09-0.42-0.05L341.58,256.54z"/>
					<path class="st12" d="M388.58,193.23l-5.72-6.74c-0.21-0.22-0.21-0.57,0-0.79l0,0l5.06-4.87c0.58-0.49,1.45-0.42,1.95,0.15
						c1.96,2.38,2.81,3.62,5.27,6.57c1.55,1.83,4.77,5.28,6.48,8.12s-1.13,4.44-2.1,3.4c-2.33-2.47-6.98-4.56-9.75-5.12
						C389.31,193.84,388.89,193.59,388.58,193.23z"/>
					<path class="st7" d="M392.08,195.88c-0.03,0.38-0.28,0.7-0.64,0.84c-0.21,0.11-0.46,0.11-0.67,0c-0.94-0.5-1.2-3.18-1.23-3.49
						c0-0.07,0.04-0.14,0.09-0.18c0.06-0.04,0.14-0.04,0.2,0c0.58,0.41,1.11,0.89,1.58,1.43
						C391.82,194.83,392.06,195.34,392.08,195.88z M390.98,196.38c0.1,0.06,0.23,0.06,0.33,0c0.22-0.08,0.38-0.28,0.41-0.52
						c0-0.53-0.6-1.34-1.73-2.23C390.14,194.7,390.49,196.12,390.98,196.38L390.98,196.38z"/>
					<path class="st7" d="M389.94,193.18c0.15,0.94-0.35,2.86-1.12,3.28c-0.29,0.15-0.64,0.09-0.85-0.15
						c-0.21-0.19-0.33-0.47-0.31-0.76c0.08-1.11,1.94-2.45,1.99-2.5c0.06-0.02,0.12-0.02,0.18,0c0.01,0.02,0.01,0.04,0,0.07
						C389.87,193.13,389.91,193.15,389.94,193.18z M388.25,195.99c0.2,0.19,0.34,0.15,0.43,0.09c0.62-0.71,0.95-1.63,0.94-2.57
						c-0.57,0.47-1.53,1.35-1.57,2.01c-0.02,0.15,0.03,0.3,0.12,0.41L388.25,195.99z"/>
					<path class="st9" d="M309.24,119.13c0,0-5.27,6.07-10.63,6.79c-4.18,0.55-3.98-3.07-3.98-3.07c0.41-0.62,0.73-1.31,0.94-2.03
						c1.45-4.69-3.33-8.09-3.33-8.09l4.29-2.22l9.38-4.91C303.3,114.63,309.24,119.13,309.24,119.13z"/>
					<path class="st14" d="M305.07,109.47c0,0-2.81,9.77-9.46,11.35c1.45-4.69-3.33-8.09-3.33-8.09l4.29-2.22L305.07,109.47z"/>
					<path class="st9" d="M311.43,93.72c1.12,8.59-1.75,18.93-8.5,21.64c-12.41,4.96-17.95,3.52-21.33-5.75
						c-3.08-8.33-2.81-22.52,7.34-27.21C299.09,77.7,309.87,81.8,311.43,93.72z"/>
					<path class="st12" d="M292.59,100.1c0.18,1.09-0.25,2.07-0.94,2.18c-0.68,0.1-1.43-0.68-1.6-1.76
						c-0.18-1.09,0.25-2.05,0.94-2.17C291.67,98.22,292.41,99.02,292.59,100.1z"/>
					<path class="st12" d="M283.84,101.09c0.17,1.03-0.24,1.98-0.94,2.08c-0.69,0.1-1.36-0.66-1.53-1.69
						c-0.17-1.03,0.24-1.96,0.94-2.08C283.01,99.28,283.72,100.06,283.84,101.09z"/>
					<path class="st12" d="M288.57,95.16c-0.09-0.06-0.16-0.13-0.21-0.23c-0.09-0.25,0.04-0.53,0.29-0.63c0,0,0.01,0,0.01,0
						c1.49-0.59,3.17-0.41,4.49,0.48c0.22,0.17,0.26,0.48,0.09,0.69l0,0c-0.17,0.2-0.47,0.24-0.69,0.09l0,0
						c-1.07-0.68-2.41-0.8-3.58-0.31C288.83,95.29,288.69,95.25,288.57,95.16z"/>
					<path class="st12" d="M280.23,96.98c-0.1,0-0.2-0.03-0.29-0.08c-0.19-0.2-0.19-0.51,0-0.7c1.02-1.23,2.58-1.87,4.18-1.73
						c0.27,0.04,0.45,0.28,0.41,0.55c0,0,0,0.01,0,0.01l0,0c-0.05,0.27-0.3,0.45-0.56,0.41l0,0c-1.27-0.09-2.5,0.45-3.29,1.44
						C280.55,96.98,280.38,97.01,280.23,96.98z"/>
					<path class="st16" d="M285.75,102.08l1.88,4.41c-1.1,0.47-2.31,0.61-3.49,0.38C284.96,105.39,285.5,103.76,285.75,102.08z"/>
					<path class="st9" d="M302.93,100.8c0,0,1.28-5.63,4.28-4.5c3,1.13,4.09,9.96,0.08,10.71
						C303.28,107.76,301.64,103.95,302.93,100.8z"/>
					<path class="st12" d="M288.11,110.23c0.99,0.89,1.91,1.86,2.76,2.89l0.61-0.36c2.73-1.64,3.46-3.3,3.43-4.64
						c-0.02-0.66-0.2-1.3-0.53-1.88c-0.17-0.34-0.39-0.66-0.65-0.94c-0.94,1.74-3.37,3.45-4.69,4.32
						C288.49,110.03,288.11,110.23,288.11,110.23z"/>
					<path class="st19" d="M289.04,109.66l0.84,0.84c2.57-1.55,4.18-2.98,4.51-4.25c-0.17-0.34-0.39-0.66-0.65-0.94
						C292.8,107.08,290.37,108.8,289.04,109.66z"/>
					<path class="st20" d="M291.48,112.77c2.73-1.64,3.46-3.3,3.43-4.64c-1.03,0.64-1.93,1.46-2.67,2.41
						C291.76,111.18,291.49,111.96,291.48,112.77z"/>
					<path class="st19" d="M301.99,139.21c0,0,5.19-6.4,8.3-1.74c3.86,5.77-8.4,14.76-8.4,14.76s-8.82-7.22-6.47-12.68
						C298.39,132.65,301.99,139.21,301.99,139.21z"/>
					<path class="st7" d="M296.36,164.97c-2.89,7.24-1.48,31.9,4.25,48.23c0,0,7.58,2.35,28.81-3.66
						c17.47-4.94,27.94-11.78,27.94-11.78c-6.18-12.81-16.77-43.08-19.28-44.02L296.36,164.97z"/>
					<path class="st14" d="M357.37,197.75c0,0-1.55,1.01-4.43,2.53c-1.37,0.72-3.04,1.56-4.99,2.46c-1.74,0.8-3.71,1.66-5.89,2.51
						c-1.49,0.61-3.1,1.21-4.79,1.81c-2.41,0.84-5.04,1.69-7.83,2.48c-0.76,0.22-1.49,0.42-2.21,0.61
						c-1.34,0.36-2.63,0.69-3.86,0.94c-2.98,0.71-5.64,1.25-7.97,1.61c-1.88,0.31-3.48,0.52-4.94,0.65
						c-1.78,0.19-3.57,0.27-5.36,0.26c-0.76,0-1.41,0-1.97-0.08c-0.85-0.04-1.7-0.16-2.53-0.37c-5.72-16.37-7.13-40.98-4.24-48.23
						l41.73-11.26C340.6,154.68,351.18,184.95,357.37,197.75z"/>
					<path class="st14" d="M299.92,188.32l5.18,25.33c-0.76,0-1.41,0-1.97-0.08L299.92,188.32z"/>
					<path class="st14" d="M310.46,213.39l-3.75-38.21l8.65,37.53C313.56,213.04,311.92,213.26,310.46,213.39z"/>
					<path class="st14" d="M323.36,211.16l-7.16-38.56l11.02,37.59C325.88,210.51,324.59,210.84,323.36,211.16z"/>
					<path class="st14" d="M337.26,207.06l-9.38-38.24l14.21,36.43C340.56,205.86,338.96,206.47,337.26,207.06z"/>
					<path class="st14" d="M352.94,200.28c-1.37,0.72-3.04,1.56-4.99,2.46l-11.12-36.33L352.94,200.28z"/>
					<path class="st14" d="M359.44,202.72c0,0,0.32,3.75,0,5.15c0,0,2.08-2.46,1.76-6.31L359.44,202.72z"/>
				</g>
				<polygon class="st14" points="287.23,137.48 287.75,129.73 288.83,135.94 				"/>
				<path class="st12" d="M325,110.44c-0.65-1.42-8.25-26.83-16.93-31.37c-4.71-2.9-11.26-3.18-17.57-1.76
					c-9.15,2.05-11.4,9.15-5.97,11.97c0.09,0.44,10.38,2.54,14.14,8.47c4.02,6.34,0.65,9.24,3.03,13.9
					c2.38,4.66,3.37,5.42,3.37,5.42l17.04-4.65C322.1,112.41,325.69,111.97,325,110.44z"/>
			</g>
			<g>
				<g>
					<g>
						<g>
							<g>
								<polygon class="st9" points="247.68,418.56 238.47,444.18 229.88,441.49 232.57,414.52 								"/>
							</g>
						</g>
					</g>
				</g>
				<g>
					<g>
						<g>
							<g>
								<g>
									<g>
										<g>
											<g>
												<g>
													<g>
														<g>
															<g>
																<path class="st12" d="M239.84,451.73L239.84,451.73c-0.2,1.88-0.33,3.17-0.33,3.17l-7.77,0.02
																	c0,0-1.57-0.83-2.5-0.72c-0.92,0.11-4.12,0.73-4.12,0.73l-20.64,0.05c0.16-0.87,0.36-1.64,0.6-2.32
																	c0.28-0.83,0.61-1.54,0.97-2.14c1.27-2.09,3.02-2.84,4.91-2.96c2.89-0.19,11.97-6.28,11.97-6.28s3.3-1.16,3.47-4.67
																	c0.07-1.32,2.01-2.93,2.93-3.06c1.89-0.28,2.94,0.92,3.22,2.8l0.32,2.19l4.36-0.69c0,0,4.43-2.24,4.22-0.07"/>
															</g>
														</g>
													</g>
												</g>
											</g>
										</g>
										<g class="st15">
											<path class="st19" d="M204.48,454.98l20.64-0.05c0,0,3.2-0.62,4.12-0.73c0.92-0.11,2.5,0.72,2.5,0.72l7.77-0.02
												c0,0,0.14-1.29,0.33-3.17l-34.76,0.93C204.84,453.35,204.64,454.12,204.48,454.98z"/>
										</g>
										<g>
											<g>
												<g>
													<g>
														<path class="st7" d="M218.41,443.55c0.1-0.09,0.24-0.1,0.35-0.03c0.51,0.34,0.94,0.82,1.24,1.42
															c0.15,0.32-0.31,0.62-0.46,0.3c-0.26-0.53-0.64-0.96-1.09-1.25C218.3,443.89,218.27,443.68,218.41,443.55
															C218.4,443.55,218.41,443.55,218.41,443.55z"/>
													</g>
												</g>
											</g>
										</g>
										<g>
											<g>
												<g>
													<g>
														<path class="st7" d="M220.05,442.58c0.1-0.09,0.24-0.1,0.35-0.03c0.51,0.34,0.94,0.82,1.24,1.42
															c0.15,0.32-0.31,0.62-0.46,0.3c-0.26-0.53-0.64-0.96-1.09-1.25C219.94,442.92,219.91,442.71,220.05,442.58
															C220.04,442.58,220.05,442.58,220.05,442.58z"/>
													</g>
												</g>
											</g>
										</g>
										<g>
											<g>
												<g>
													<g>
														<path class="st7" d="M221.74,441.67c0.1-0.09,0.24-0.1,0.35-0.03c0.51,0.34,0.94,0.82,1.24,1.42
															c0.15,0.32-0.31,0.62-0.46,0.3c-0.26-0.53-0.64-0.96-1.09-1.25C221.63,442.01,221.61,441.8,221.74,441.67
															C221.73,441.68,221.74,441.68,221.74,441.67z"/>
													</g>
												</g>
											</g>
										</g>
									</g>
								</g>
							</g>
						</g>
					</g>
				</g>
			</g>
			<g>
				<g>
					<g>
						<g>
							<g>
								<polygon class="st9" points="307.07,415.72 311.13,443.46 320.18,443.82 322.85,417.02 								"/>
							</g>
						</g>
					</g>
				</g>
				<g>
					<g>
						<g>
							<path class="st12" d="M328.01,456.18l-20.25,0.2c0,0-0.45-0.85,0.03-3.11c0.07-0.35,0.17-0.74,0.3-1.17
								c0.01-0.02,0.01-0.04,0.02-0.06c0.18-0.63,0.39-1.4,0.62-2.23c0.89-3.4,1.94-7.84,1.94-7.84s3.3-7.24,7.26-5.48
								c3.47,1.55,2.7,6.07,2.7,6.07s0.36,2.65,3.01,4.97c1.64,1.43,3.26,2.53,4.05,4.32c0.15,0.33,0.27,0.69,0.35,1.08
								c0.01,0.05,0.02,0.1,0.03,0.14C328.23,453.94,328.23,454.95,328.01,456.18z"/>
						</g>
					</g>
				</g>
				<g class="st15">
					<path class="st19" d="M307.8,453.27c-0.48,2.27-0.03,3.11-0.03,3.11l20.25-0.2c0.22-1.23,0.22-2.25,0.05-3.11L307.8,453.27z"/>
				</g>
				<g>
					<g>
						<g>
							<g>
								<path class="st7" d="M319.82,443.7c-1.15-0.88-2.64-0.75-3.65,0.26c-0.27,0.27-0.7-0.15-0.43-0.42
									c1.27-1.26,3.09-1.35,4.5-0.27C320.55,443.51,320.12,443.93,319.82,443.7L319.82,443.7z"/>
							</g>
						</g>
					</g>
				</g>
				<g>
					<g>
						<g>
							<g>
								<path class="st7" d="M320.41,445.59c-1.15-0.88-2.64-0.75-3.65,0.26c-0.27,0.27-0.7-0.15-0.43-0.42
									c1.27-1.26,3.09-1.35,4.5-0.27C321.14,445.39,320.71,445.82,320.41,445.59L320.41,445.59z"/>
							</g>
						</g>
					</g>
				</g>
				<g>
					<g>
						<g>
							<g>
								<path class="st7" d="M321,447.32c-1.15-0.88-2.64-0.75-3.65,0.26c-0.27,0.27-0.7-0.15-0.43-0.42
									c1.27-1.26,3.09-1.35,4.5-0.27C321.73,447.13,321.3,447.55,321,447.32L321,447.32z"/>
							</g>
						</g>
					</g>
				</g>
			</g>
			<g>
				<g>
					<g>
						<path class="st12" d="M327.22,240.31l-42.39,0.78l-26.61-0.55c0,0-17.9,80.72-19.33,95.9c-1.44,15.18-14.28,95.18-14.28,95.18
							l20.73,4.34c0,0,22.68-85.62,24.3-93.84c1.41-7.17,17.3-53.18,21.36-64.88c0.44,2.38,0.9,4.78,1.36,7.15
							c1.16,10.74,4.88,44.98,6.48,57.72c0,0,3.92,72.82,7.84,93.94l19.47-0.16c2.27-30.06,2.89-135.57,2.89-135.57l0,0
							C330.25,277.39,327.22,240.31,327.22,240.31z"/>
					</g>
				</g>
				<g class="st21">
					<path d="M269.25,252.47c-2.39,8.15-8.94,14.74-17.07,17.19c-0.44,0.13-0.24,0.82,0.2,0.69c8.37-2.53,15.1-9.31,17.56-17.7
						C270.07,252.21,269.38,252.03,269.25,252.47L269.25,252.47z"/>
					<path d="M291.45,252.25c-0.41,7.11-0.81,14.24-1.22,21.35c-0.02,0.46-0.73,0.47-0.71,0.01c0.22-3.65,0.42-7.31,0.63-10.97
						c-1.74,1.37-3.81-0.25-4.4-2.05c-0.97-2.93-0.65-6.41,0.06-9.36c0.11-0.45,0.8-0.26,0.69,0.18c-0.5,2.07-0.69,4.18-0.52,6.3
						c0.08,1.08,0.19,2.31,0.71,3.3c0.57,1.1,2,2.01,3.13,1c0.12-0.1,0.26-0.12,0.38-0.06c0.19-3.22,0.37-6.46,0.56-9.68
						C290.76,251.8,291.47,251.8,291.45,252.25z"/>
					<path d="M312.37,253.26c-0.01,9.42,7.32,17.24,16.71,17.89c0.45,0.03,0.44-0.67-0.01-0.7c-9.01-0.62-16.01-8.18-16-17.2
						C313.07,252.8,312.37,252.81,312.37,253.26L312.37,253.26z"/>
				</g>
			</g>
			<path class="st9" d="M290.38,101.63"/>
			<g>
				<path class="st7" d="M242.19,142.15c-8.38,4.92-14.66,34.72-14.66,34.72l23.47,7.66l8.14-17.07L242.19,142.15z"/>
				<path class="st14" d="M247.77,166.55l-1.34,16.6l-5.89-2.04c2.37-6.36,1.19-29.84,1.19-29.84S245.61,162.34,247.77,166.55z"/>
				<g>
					<path class="st7" d="M246.83,140.01c5.99-1.73,25.95-8.68,51.85-9.21l11.92,25.4l12.88,62.64c0,0,2.53,7.18,4.65,20.87
						c-23.71,15.78-56.15,15.43-74.96,8.81c-0.73-8.08,0.53-6.51-1.23-22.08c-3.1-27.43-9.04-58.89-9.97-83.97
						C241.95,141.85,246.23,140.19,246.83,140.01z"/>
				</g>
				<g>
					<g>
						<path class="st9" d="M282.93,131.37c-4.65-7.81-11.73-13.97-11.65-25.58l-14.38,21.6c0.68,0.74,1.32,1.52,1.89,2.34
							c1.09,1.45,1.79,3.16,2.03,4.95c0.14,1.5-2.53,4.77-2.53,4.77s6.8,3.64,18.27-0.22C283.37,136.96,282.93,131.37,282.93,131.37
							z"/>
						<path class="st14" d="M268.64,116.07c3.84,8.61-3.74,15.77-7.81,18.63c-0.24-1.8-0.94-3.5-2.03-4.95L268.64,116.07z"/>
						<g>
							<g>
								<g>
									<g>
										<g>
											<path class="st9" d="M270.84,100.13c0.8,11.51,1.48,17.98-3.54,24.54c-7.54,9.87-21.99,6.58-26.22-4.49
												c-3.81-9.96-4.47-27.11,6.15-33.01C257.69,81.36,270.05,88.62,270.84,100.13z"/>
											<path class="st12" d="M267.41,83.8c-4.91-6.5-15.08-1.68-19.06,2.11c-0.6,0.57,9.36,4.03,8.76,3.9l3.04,2.84
												c0.42-0.15,1.04,3.82,1.56,7.26c0.48,3.16,1.79,6.13,3.83,8.59c1.71,2.06,4.01,4.55,6.64,6.62
												c3.73-2.47,3.05-9.43,3.77-13.73C277.01,95.01,277.59,82.94,267.41,83.8z"/>
											<path class="st9" d="M276.6,109.05c-0.53,3.06-2.43,5.58-4.54,7c-3.18,2.14-4.94-1.42-5.09-5.06
												c-0.13-3.27,0.29-7.34,3.99-8.02C274.59,102.3,277.2,105.55,276.6,109.05z"/>
											<path class="st12" d="M257.93,105.17c0.15,1.17-0.34,2.19-1.11,2.28c-0.77,0.09-1.51-0.78-1.66-1.95
												c-0.15-1.17,0.34-2.19,1.11-2.28C257.03,103.13,257.78,104,257.93,105.17z"/>
											<path class="st12" d="M244.73,107.15c0.15,1.17-0.34,2.19-1.11,2.28c-0.77,0.09-1.51-0.78-1.66-1.95
												c-0.15-1.17,0.34-2.19,1.11-2.28C243.83,105.11,244.58,105.98,244.73,107.15z"/>
											<path class="st16" d="M247.16,106.16c0,0-2.94,6.29-3.81,8.81c1.82,1.26,4.53,0.21,4.53,0.21L247.16,106.16z"/>
											<path class="st12" d="M257.07,99.68c-0.17,0.1-0.38,0.1-0.56-0.01c-2.13-1.25-3.96-0.38-3.98-0.38
												c-0.27,0.13-0.61,0.02-0.74-0.25c-0.14-0.27-0.02-0.6,0.25-0.73c0.1-0.05,2.4-1.14,5.04,0.42
												c0.26,0.15,0.35,0.49,0.2,0.75C257.22,99.57,257.15,99.64,257.07,99.68z"/>
										</g>
										<path class="st17" d="M273.58,106.24c-0.55-0.62-1.52-0.75-2.29-0.45c-0.77,0.3-1.36,0.96-1.76,1.68
											c-0.48,0.87-0.73,1.87-0.71,2.87"/>
									</g>
									<path class="st12" d="M237.81,103.03c-0.1-0.01-0.21-0.05-0.3-0.12c-0.24-0.19-0.28-0.54-0.1-0.78
										c1.87-2.4,4.4-2.17,4.51-2.18c0.3,0.03,0.53,0.3,0.5,0.6c-0.03,0.3-0.29,0.52-0.59,0.5c-0.1-0.01-2.05-0.16-3.55,1.76
										C238.17,102.97,237.99,103.04,237.81,103.03z"/>
								</g>
							</g>
							<path class="st12" d="M267.41,83.8c0,0-6.51-9.11-18.84-6.97c-9.92,1.72-15.45,8.57-16.05,15.4
								c-0.26,2.94,0.26,5.16,0.94,6.75c0.51,1.2,2.19,1.12,2.64-0.1c0.13-0.35,0.28-0.69,0.45-1.02c0.04,0.08,0.07,0.16,0.11,0.23
								c0.64,1.24,2.56,0.91,2.67-0.48c0.04-0.44,0.11-0.87,0.23-1.3c0.01,0.01,0.01,0.02,0.02,0.03c0.59,1.09,2.24,0.87,2.57-0.32
								c1.47-5.25,8.19-8.86,13.91-6.13l4.08,2.76C265.16,90.12,267.41,83.8,267.41,83.8z"/>
						</g>
						<g>
							<path class="st12" d="M252.98,118.56c1.4,0.68,2.75,1.46,4.03,2.34c0.19-0.2,0.38-0.39,0.56-0.6
								c2.53-2.73,2.81-4.83,2.34-6.33c-0.25-0.73-0.66-1.39-1.21-1.93c-0.3-0.31-0.65-0.58-1.02-0.8
								c-0.48,2.25-2.64,4.97-3.86,6.38C253.27,118.2,252.98,118.56,252.98,118.56z"/>
							<path class="st19" d="M253.78,117.62l1.21,0.66c2.37-2.57,3.71-4.69,3.67-6.24c-0.3-0.31-0.65-0.58-1.02-0.8
								C257.16,113.51,255,116.21,253.78,117.62z"/>
							<path class="st20" d="M257.53,120.3c2.53-2.73,2.81-4.83,2.34-6.33c-0.94,1.05-1.69,2.27-2.21,3.58
								C257.33,118.43,257.29,119.39,257.53,120.3z"/>
						</g>
					</g>
					<polygon class="st7" points="256.5,138.38 260.23,132.36 268.9,138.62 278.72,124.78 286.33,131.73 276.4,147.09 
						265.13,146.16 					"/>
				</g>
				<g id="freepik--group--inject-124_00000006693355082606306160000004963946775558344110_">
					<path class="st9" d="M352.43,153.32c-4.25-5-32.67-13.2-38.68-15.4l-8.65,17.93l7.49,1.75l29.46,7.6l6.69,9.27
						c2.33-2.9,2.66-3.39,4.5-6.62C355.54,163.71,354.43,155.66,352.43,153.32z"/>
					<path class="st14" d="M328.87,142.26l-4.59,18.38l-9.72-2.32l3.38-19.35C317.93,138.96,323.02,140.64,328.87,142.26z"/>
					<path class="st7" d="M290.87,134c-1.73,5.72-0.91,15.99,7.81,20.61c6.2,3.29,20.65,7.9,20.65,7.9l10.49-23.32
						C329.82,139.19,293.75,124.49,290.87,134z"/>
				</g>
				<polygon class="st22" points="311.33,159.79 302.18,155.45 312.42,165.06 				"/>
				<g class="st14">
					<path d="M292.92,236.3c5.4-1.22,9.85-6.92,12.18-11.94c2.4-5.18,5.07-13.92,5.07-13.92c-3.17,4.09-6.34,8.19-9.51,12.28
						c-1.95,2.52-3.93,5.06-6.46,7c-3.51,2.68-7.85,4.02-12.14,5.07c-5.54,1.36-11.17,2.35-16.85,2.96
						C265.22,237.75,278.11,239.65,292.92,236.3z"/>
				</g>
			</g>
			<g>
				<g>
					<g>
						<g>
							<g>
								<g>
									<path class="st9" d="M279.63,143.76c0,0-1.62-2.71-3.74-3.33c-2.12-0.62-3.76-1.79-5.34-2.12
										c-1.58-0.33-1.07,1.57-0.07,2.47c1,0.9,3.2,2.05,2.63,2.76c-0.56,0.71-7.68,2.6-8.36,3.71c-0.68,1.12,0.61,1.27,0.61,1.27
										s-1.59,0.44-1.62,1.44c-0.03,1,1.08,1.11,1.08,1.11s-1.05,0.34-0.66,1.27c0.4,0.93,7.03-0.03,7.34,0.14
										c0,0-4.12-0.1-4.34,1.09c-0.23,1.19,2.08,1.4,3.92,1.61c1.84,0.21,3.94-0.4,5.54-1.31c1.99-1.14,5.02-2.08,4.83-4.74
										C281.27,146.48,279.63,143.76,279.63,143.76z"/>
								</g>
							</g>
						</g>
					</g>
				</g>
				<g>
					<g>
						<path class="st7" d="M311.78,120.84c-4.51,4-11.45,15.97-14.55,16.76c-3.1,0.79-17.22,6.89-17.22,6.89l0.64,7.4
							c0,0,18.61-1.57,23.08-4.04c4.48-2.48,15.68-11.58,17.9-15.81C325.87,123.99,315.79,116.94,311.78,120.84z"/>
					</g>
					<g class="st10">
						<path class="st19" d="M311.78,120.84c-4.51,4-11.45,15.97-14.55,16.76c-3.1,0.79-17.22,6.89-17.22,6.89l0.64,7.4
							c0,0,18.61-1.57,23.08-4.04c4.48-2.48,15.68-11.58,17.9-15.81C325.87,123.99,315.79,116.94,311.78,120.84z"/>
					</g>
				</g>
			</g>
		</g>
	</g>
</g>
</svg>
