<?xml version="1.0" encoding="utf-8"?>
<!-- Generator: Adobe Illustrator 25.2.1, SVG Export Plug-In . SVG Version: 6.00 Build 0)  -->
<svg version="1.1" xmlns="http://www.w3.org/2000/svg" xmlns:xlink="http://www.w3.org/1999/xlink" x="0px" y="0px"
	 viewBox="0 0 500 500" style="enable-background:new 0 0 500 500;" xml:space="preserve">
<style type="text/css">
	.st0{fill:#FAFAFA;}
	.st1{fill:#FFFFFF;}
	.st2{fill:#F0F0F0;}
	.st3{fill:#E0E0E0;}
	.st4{fill:#37474F;}
	.st5{fill:#455A64;}
	.st6{fill:#263238;}
	.st7{fill:#407BFF;}
	.st8{opacity:0.1;}
	.st9{opacity:0.35;}
	.st10{opacity:0.8;fill:#FFFFFF;}
	.st11{opacity:0.5;fill:#FFFFFF;}
	.st12{opacity:0.65;fill:#FFFFFF;}
	.st13{fill:#9A4A4D;}
	.st14{fill:#B16668;}
	.st15{opacity:0.2;fill:#407BFF;}
	.st16{opacity:0.3;}
	.st17{fill:#EBEBEB;}
	.st18{opacity:0.2;}
	.st19{opacity:0.5;}
	.st20{opacity:0.25;}
	.st21{fill:#FFA8A7;}
	.st22{opacity:0.15;}
	.st23{fill:#F28F8F;}
</style>
<g id="Pictures">
	<g id="Picture_00000116924579107069515230000017345777434978788511_">
		<g id="Frame_8_">
			<polygon id="XMLID_00000130629309751086136680000017087273143402631596_" class="st0" points="28.89,84.65 30.78,85.78 
				69.63,63.35 67.74,62.22 			"/>
			<g id="XMLID_00000125581663188782151530000008695820598330562999_">
				<g id="XMLID_00000055709185518390008440000002142617819049849768_">
					<g id="XMLID_00000099626728973214198700000004937867720913405573_">
						<polygon id="XMLID_00000159470997365019317800000001125172871672344765_" class="st1" points="67.74,62.22 30.78,83.55 
							30.78,44.85 67.74,23.53 						"/>
					</g>
				</g>
			</g>
			<path id="XMLID_444_" class="st2" d="M73.21,16.23l-46,26.56v49.18l46-26.56V16.23z M69.63,63.35L30.78,85.78l0-40.93
				l38.85-22.43L69.63,63.35z"/>
			<polygon id="XMLID_442_" class="st3" points="69.63,63.35 67.74,62.22 67.74,23.53 69.63,22.42 			"/>
			<polygon id="XMLID_00000116203410428740546180000009188363741668983450_" class="st0" points="73.21,16.23 71.28,15.13 
				25.29,41.69 27.21,42.79 			"/>
			<polygon id="XMLID_00000109733627482155740620000016239916871613862024_" class="st3" points="25.29,41.69 27.21,42.79 
				27.21,91.97 25.29,90.87 			"/>
		</g>
		<g id="Land_15_">
			<polygon class="st2" points="66.3,61.06 32.23,80.73 32.23,70.9 40.74,51.23 46.05,56.15 44.14,64.39 55.91,39.23 66.3,51.23 			
				"/>
			<path class="st2" d="M45.73,41.73c-1.39,0.8-2.52,2.76-2.52,4.36c0,1.61,1.13,2.26,2.52,1.46c1.39-0.8,2.52-2.76,2.52-4.36
				C48.25,41.58,47.12,40.93,45.73,41.73z"/>
		</g>
	</g>
	<g id="Picture_00000148656040277230178700000013295510656585529013_">
		<g id="Frame_00000137090826382648788940000010613959040869594766_">
			<polygon id="XMLID_00000107580177384771490300000011680819474359046805_" class="st0" points="28.89,149.22 30.78,150.35 
				69.63,127.92 67.74,126.79 			"/>
			<g id="XMLID_00000072262484970562624760000013016739431978218630_">
				<g id="XMLID_00000103257342020550897350000009934497505139653559_">
					<g id="XMLID_00000108272911751854043320000008106519152865446308_">
						<polygon id="XMLID_00000026132009311603511930000016982966526333344920_" class="st1" points="67.74,126.79 30.78,148.12 
							30.78,109.42 67.74,88.11 						"/>
					</g>
				</g>
			</g>
			<path id="XMLID_311_" class="st2" d="M73.21,80.81l-46,26.56l0,49.18l46-26.56L73.21,80.81z M69.63,127.92l-38.85,22.43l0-40.93
				l38.85-22.43L69.63,127.92z"/>
			<polygon id="XMLID_307_" class="st3" points="69.63,127.92 67.74,126.79 67.74,88.11 69.63,86.99 			"/>
			<polygon id="XMLID_298_" class="st0" points="73.21,80.81 71.28,79.71 25.29,106.26 27.21,107.36 			"/>
			<polygon id="XMLID_263_" class="st3" points="25.29,106.26 27.21,107.36 27.21,156.54 25.29,155.44 			"/>
		</g>
		<g id="Land_14_">
			<polygon class="st2" points="66.3,125.64 32.23,145.31 32.23,135.47 40.74,115.8 46.05,120.72 44.14,128.96 55.91,103.8 
				66.3,115.8 			"/>
			<path class="st2" d="M45.73,106.3c-1.39,0.8-2.52,2.76-2.52,4.36c0,1.61,1.13,2.26,2.52,1.46c1.39-0.8,2.52-2.76,2.52-4.36
				S47.12,105.5,45.73,106.3z"/>
		</g>
	</g>
</g>
<g id="Window">
	<g id="Window_00000177449732066295020450000008587946566157442468_">
		<g>
			<polygon id="XMLID_00000090296559810632685630000000761508532602951339_" class="st1" points="333.1,157.1 467.72,234.82 
				467.72,105.04 333.1,27.34 			"/>
		</g>
		<g>
			<polygon id="XMLID_00000123399132940814664080000016735737774471667856_" class="st0" points="470.36,236.35 467.72,237.93 
				330.46,158.68 333.1,157.1 			"/>
			<path id="XMLID_00000151503469297152442920000000852465027810237361_" class="st2" d="M325.48,161.55l147.23,85l0-144.39
				l-147.23-85L325.48,161.55z M330.46,25.79l137.26,79.25l0,132.89l-137.26-79.25L330.46,25.79z"/>
			<polygon id="XMLID_00000157267887172569319110000008114636424389396138_" class="st3" points="330.46,158.68 333.1,157.1 
				333.1,27.34 330.46,25.79 			"/>
			<polygon id="XMLID_693_" class="st0" points="325.48,17.16 328.16,15.63 475.39,100.63 472.71,102.16 			"/>
			<polygon id="XMLID_692_" class="st3" points="475.39,100.63 472.71,102.16 472.71,246.55 475.39,245.02 			"/>
		</g>
		<g>
			<polygon id="XMLID_00000072972204776716690210000012210590316907007391_" class="st0" points="465.53,133.94 465.53,137.03 
				330.46,58.95 333.1,57.38 			"/>
			<polygon id="XMLID_00000119085999366155967780000000692608553968645252_" class="st3" points="403.34,67.88 400.66,66.33 
				400.66,199.23 403.34,197.69 			"/>
			<polygon class="st2" points="395.68,63.47 400.66,66.33 400.66,199.23 395.68,196.34 			"/>
			<g>
				<polygon class="st2" points="330.46,58.95 330.46,64.69 467.78,144.27 467.78,138.53 				"/>
			</g>
			<polygon class="st0" points="400.66,99.63 403.34,97.98 467.72,135.2 467.72,138.53 			"/>
		</g>
	</g>
</g>
<g id="Character">
	<g id="Character_00000110466054215706927820000005163648926024942464_">
		<polygon class="st4" points="58.42,381.52 58.42,404.92 206.93,490.77 206.93,467.37 		"/>
		<polygon class="st5" points="206.93,467.37 466.05,317.75 466.05,341.15 206.93,490.77 		"/>
		<g id="Chair_2_">
			<path class="st6" d="M260.57,335c0.32-4.15-2.97-8.88-10.28-14.49c-13.49-10.37-57.37-38.27-76.42-50.9
				c-0.02-0.15-0.15-0.18-0.15-0.18c-14.59-10.53-17.86-82.65-25.8-117.16c-0.07-0.32-0.62-2.97-1.73-6.37
				c-0.05-0.16-0.11-0.31-0.16-0.46c-0.16-0.46-0.32-0.94-0.5-1.42c-0.08-0.23-0.16-0.48-0.25-0.71l-0.01,0
				c-1.43-3.76-3.48-7.91-6.27-10.8c-0.24-0.24-1.34-1.51-3.28-2.72c-1.65-1.11-5.66-3.12-6.53-3.72
				c-9.92-7.06-35.09,10.86-52.86,18.82c-11.05,4.96-20.63,11.14-27.16,23.56l0,0c-3.13,5.95-5.55,13.35-7.11,22.73
				c-2.92,17.63-2.34,76.79-0.78,102.78l-0.01-0.02c1.79,43.36,8.19,43.94,16.92,51.88c15.02,13.64,59.11,41.55,73.84,48.74
				c26.68,13.04,49.4-1.34,66.11-9.92c24.09-12.38,46.24-26.2,53.72-31.11c4.35-2.86,7.84-7.34,8.06-10.6
				C260.01,341.63,260.46,336.36,260.57,335z"/>
			<path class="st5" d="M199.18,375.95c21.92-11.8,46.83-26.14,54.3-32.13c9.24-7.41,9.79-13.34-3.19-23.31
				c-18.03-13.85-86.88-57.83-86.88-57.83s-86.03,41.46-106.42,59.56c-3.08,2.74-3.21,8.53-2.13,9.88
				c11.17,13.96,60.92,46.2,77.8,54.44C159.35,399.6,182.64,384.85,199.18,375.95z"/>
			<path class="st5" d="M135.72,129.78c-0.09-0.05-0.18-0.11-0.28-0.17c-2.09-1.31-4.53-2.15-7.37-2.3
				c-9.02-0.73-23.25,5.58-44.57,19.36c-6.07,3.92-12.73,8.53-18.27,13.96c-0.11,0.1-0.23,0.22-0.33,0.32
				c-1.66,1.58-3.22,3.31-4.67,5.23c-0.24,0.31-0.47,0.61-0.7,0.93c-0.13,0.18-0.27,0.36-0.38,0.53c-0.29,0.42-0.59,0.84-0.87,1.27
				c-0.56,0.87-1.11,1.77-1.64,2.7c-0.06,0.1-0.11,0.19-0.17,0.29c-0.2,0.38-0.41,0.76-0.61,1.15l-0.05-0.03l-6.62-4.58
				c6.52-12.42,16.54-18.81,26.86-25.14c17.78-10.9,37.58-25.06,50.19-18.95C127.18,124.82,134.07,128.67,135.72,129.78z"/>
			<path class="st4" d="M147.91,152.26c-1.15-4.55-5.14-24.17-19.85-24.95c-9.01-0.72-23.25,5.59-44.57,19.36
				c-9.92,6.41-21.37,14.63-27.04,25.24c-8.36,13.2-9.66,49.8-9.17,85c0.49,35.21,2.77,69.01,7.53,75.24
				c8.37-23.48,107.31-69.7,118.89-62.72C159.12,258.9,155.85,186.77,147.91,152.26z"/>
		</g>
		<g id="Bottom_5_">
			<g>
				<path class="st7" d="M75.61,258.5c-5.44,21.6-4.98,42.16-2.73,51.4c2.76,11.31,9.63,25.16,31.2,37.85
					c30.68,18.05,52.01,30.03,52.01,30.03l101.6-66.2l-67.51-46.29L75.61,258.5z"/>
				<path class="st8" d="M75.61,258.5c-5.44,21.6-4.98,42.16-2.73,51.4c2.76,11.31,9.63,25.16,31.2,37.85
					c30.68,18.05,52.01,30.03,52.01,30.03l101.6-66.2l-67.51-46.29L75.61,258.5z"/>
			</g>
			<path class="st9" d="M106.71,327.21c-0.83-0.9-1.62-1.79-2.39-2.69c7.65-2.03,12.16-11.54,11.21-22.27
				c-0.55-6.16-1.17-13.14-0.33-19.75l-1.34-0.17c-0.85,6.75-0.22,13.81,0.33,20.03c0.96,10.83-3.61,19.58-10.85,21
				c-14.66-17.56-12.38-34.61-5.24-57.24l-1.29-0.41c-7.83,24.81-9.02,43.02,8.92,62.41c11.79,12.74,43.93,30.14,62.74,41.74
				l1.26-0.81C150.96,357.51,118.52,339.97,106.71,327.21z"/>
			<path class="st9" d="M188.73,290.84c-4.09,13.17-12.6,19.44-12.6,19.44c15.92,11.6,28.97,22.36,38.09,30.26l11.14-7.14
				l-39.11-26.25C190.8,297.83,188.73,290.84,188.73,290.84z"/>
		</g>
		<g id="Desk_1_">
			<g id="XMLID_00000088816987500870081500000009081273654361974144_">
				<polygon class="st7" points="206.93,458.5 52.46,369.24 316.53,216.77 470.99,306.04 				"/>
				<polygon class="st10" points="206.93,458.5 52.46,369.24 316.53,216.77 470.99,306.04 				"/>
			</g>
			<g id="XMLID_00000166633519637776611910000014500415701075049876_">
				<polygon class="st7" points="52.46,369.24 52.46,381.65 206.93,470.91 206.93,458.5 				"/>
				<polygon class="st11" points="52.46,369.24 52.46,381.65 206.93,470.91 206.93,458.5 				"/>
			</g>
			<g id="XMLID_00000113317924267129149480000002286247665175222940_">
				<polygon class="st7" points="206.93,470.91 470.99,318.45 470.99,306.04 206.93,458.5 				"/>
				<polygon class="st12" points="206.93,458.5 470.99,306.04 470.99,318.45 206.93,470.91 				"/>
			</g>
		</g>
		<g id="Top">
			<path class="st13" d="M193.37,133.47c15.16,1.09,31.12,24.36,51.68,52.81c14.17,19.61,25.76,66.69,25.76,66.69
				s-12.08,5.53-35.19-17.71c-22.89-23.02-51.62-54.52-51.62-54.52L193.37,133.47z"/>
			<path class="st7" d="M175.27,127.91c12.27-1.18,28.25,4.6,37.85,15.48c9.6,10.88,31.92,42.25,31.92,42.25s-2.25,8.08-10.49,18.94
				c-8.24,10.86-17.06,13.02-17.06,13.02l-35.18-37.19L175.27,127.91z"/>
			<path class="st11" d="M175.27,127.91c12.27-1.18,28.25,4.6,37.85,15.48c9.6,10.88,31.92,42.25,31.92,42.25
				s-2.25,8.08-10.49,18.94c-8.24,10.86-17.06,13.02-17.06,13.02l-35.18-37.19L175.27,127.91z"/>
			<path id="Chest_00000158722533880923835160000015047847358393843891_" class="st2" d="M199.53,135.79
				c-9.02-3.71-17.29-8.47-29.09-7.88c-11.8,0.59-38.65,10.31-53.19,17.19c-11.66,8.33-24.69,12.95-35.85,57.16
				c-5.56,22.04-12.92,80.97-11.53,97.05c15.09,11.3,38.43,13.3,59.75,8.82c38.81-8.16,62.44-31.68,63.74-40.66
				c-0.96-7.24,3.49-30.37,8.89-47.83c6.26-20.23,9.66-31.86,11.33-46.45C215.04,160.35,214.12,141.78,199.53,135.79z"/>
			<g>
				<g>
					<g>
						<path class="st13" d="M230.95,128.91c0,0-1.09-0.51-1.44-2.77c-0.35-2.26-0.18-3.84-0.53-6.36c-0.35-2.52-1.52-6.72-3.91-7.13
							c-2.39-0.41-3.48,4.94-3.49,9.26c-0.01,4.32-0.02,6.87-2.87,11.79c-2.86,4.92-3.83,11.19-0.72,16.62L230.95,128.91z"/>
						<path class="st14" d="M233.97,201.54c3.32,17.2,3.62,21.2,5.5,27.72c1.9,6.6,4.08,10.05,8.6,14.12
							c5.04,4.54,8.9,6.97,15.1,9.14c1.83,0.64,3.74,1.18,5.65,0.96c4.8-0.55,6.63-4.81,7.77-9.78c2.3-10.02,2.18-18.63-0.43-27.13
							c-1.24-4.02-2.02-5.81-6.94-16.02c-3.99-8.3-7.3-14.24-12.58-26.38c-4.79-11.01-8.95-21.71-10.17-28.08
							c-1.22-6.37-1.25-10.74-0.27-14.31c1.5-5.43,2.36-5.26,0.49-11.63c-1.38-4.2-1.33-9.52-1.84-12.87
							c-0.51-3.35-1.63-6.2-3.1-9.51c-1.48-3.32-2.65-7.68-3.88-8.09c-1.23-0.41-3.28,0.96-3.13,3.61c0,0-1.64-1.92-3.05-3.92
							c-1.41-2.01-2.39-4.52-4.34-4.93c-1.94-0.41-2.8,2.62-2.08,4.7c0.73,2.08,1.28,3.27,1.28,3.27s-1.87,0.88-0.13,4.62
							c0.94,2.03,1.88,3.05,2.75,4.18c0.7,2.88,0.85,4.31,2.34,6.66c0.89,2.72,1.4,5.03,2.71,7.25c-0.64,2-2.22,4.4-2.12,7.85
							c0.11,3.45,0.68,4.25-3.28,8.46c-2.67,2.84-7.26,6.12-9.74,10.01c-2.48,3.89-2.66,7-0.38,11.3c1.94,3.68,6.04,6.3,8.11,13.78
							C228.45,172.44,229.91,180.45,233.97,201.54z"/>
						<path class="st13" d="M234.73,93.27c0.25,1.2,0.65,2.32,1.1,3.43c0.45,1.1,0.95,2.2,1.48,3.23l0.08,0.16l-0.03,0.24
							c-0.08,0.59-0.1,1.26-0.09,1.9c0.01,0.64,0.09,1.28,0.19,1.92c0.21,1.27,0.63,2.49,1.24,3.63l0.15,0.28l-0.11,0.24
							c-0.19,0.41-0.37,0.9-0.51,1.38c-0.13,0.48-0.26,0.97-0.34,1.48c-0.08,0.5-0.17,1.01-0.18,1.52
							c-0.03,0.52-0.01,1.03,0.01,1.57c-0.39-0.99-0.57-2.07-0.58-3.15c0-0.54,0.03-1.09,0.12-1.62c0.09-0.54,0.19-1.06,0.39-1.62
							l0.04,0.52c-0.79-1.21-1.34-2.58-1.58-4c-0.14-0.7-0.18-1.42-0.19-2.14c0-0.72,0.06-1.41,0.22-2.16l0.05,0.39
							c-0.51-1.16-0.88-2.32-1.15-3.53C234.75,95.74,234.61,94.49,234.73,93.27z"/>
						<path class="st13" d="M226.54,92.39c0.41,0.57,0.85,1.1,1.35,1.57c0.5,0.46,1.04,0.91,1.57,1.27l0.11,0.07l0.06,0.2
							c0.4,1.35,1,2.7,1.76,3.9c0.74,1.22,1.7,2.27,2.81,3.12l0.35,0.27l-0.09,0.43c-0.14,0.7-0.2,1.54-0.21,2.34
							c0.01,0.8,0.06,1.62,0.17,2.43c0.12,0.81,0.27,1.62,0.48,2.43c0.18,0.82,0.47,1.6,0.72,2.42c-0.5-0.7-0.92-1.45-1.29-2.23
							c-0.38-0.77-0.66-1.6-0.89-2.43c-0.22-0.84-0.37-1.7-0.43-2.58c-0.06-0.89-0.06-1.73,0.12-2.68l0.26,0.69
							c-0.64-0.48-1.28-1-1.78-1.62c-0.51-0.61-0.99-1.25-1.36-1.94c-0.37-0.69-0.7-1.4-0.95-2.13c-0.24-0.74-0.44-1.47-0.54-2.26
							l0.16,0.27c-0.56-0.51-1.02-1.04-1.42-1.64C227.1,93.69,226.75,93.06,226.54,92.39z"/>
						<path class="st13" d="M235.35,119.71c0.04,1.54-0.41,3.07-1.08,4.46c-0.69,1.39-1.61,2.64-2.7,3.74
							c0.31-0.71,0.69-1.37,1.04-2.04c0.35-0.67,0.71-1.33,1.03-2C234.31,122.54,234.85,121.16,235.35,119.71z"/>
						<path class="st13" d="M222.32,137.28c-0.8,2.74-1.21,5.44-0.8,8.09c0.18,1.32,0.57,2.61,1.11,3.86
							c0.55,1.25,1.25,2.45,2.01,3.69c-1.18-0.85-2.2-1.94-2.98-3.2c-0.8-1.25-1.3-2.69-1.52-4.16
							C219.7,142.62,220.52,139.54,222.32,137.28z"/>
					</g>
				</g>
			</g>
			<g id="Head_4_">
				<path class="st6" d="M152.49,121.79c0.46-9.45-6.5-20.94-8.83-29.78c-2.25-8.52-3.28-14.98-1.25-22.07
					c1.2-4.2,5.16-9.39,8.59-9.9c-0.16-16.65,13.35-21.38,19.99-21.49c2.55-0.04,6.74-0.05,9.27-0.51c3.75-0.68,5.13-3.27,8.42-5.01
					c5.66-3,13.7-1.32,15.41,5.48c4.07-3.4,8.35-2.35,13.04,0.01c4.47,2.25,5.83,6.76,4.39,11.02c7.46-2.25,12.52,3.78,12.27,7.82
					c-0.19,2.98-1.33,5.28-0.02,8.27c1.48,3.38,5.51,4.21,7.25,2.13c-0.22,4.24-2.5,7.01-6.89,5.81c1.04,2.55,0.8,5.55-0.57,8.07
					c-1.85,3.41-5.99,4.75-8.96,4.16c-0.97,2.14-1.52,4.18-3.35,5.81c-1.77,1.56-3.94,3.02-6.26,3.56
					c-7.43,1.72-15.09,1.12-22.66,1.03c-3-0.04-5.99-0.08-8.98-0.11c-0.52-0.01-3.15-0.42-3.56-0.04
					C179.77,96.04,152.49,121.79,152.49,121.79z"/>
				<g id="XMLID_00000155110808953273473690000009074373276073501630_">
					<path class="st14" d="M144.05,107.59c5.56,5.23,10.81,2.05,10.81,2.05l-6.12,25.86c3.49,16.57,24.29,34.61,35.95,38.65
						c2.27-6.84,1.58-23.13,0.74-30.68l1.63-4.79c0,0,6.53,1.56,10.94,1.91c7.35,0.6,14-4.01,17.74-11.29
						c3.91-7.61,7.25-20.37,7.63-30.44c0.1-2.57,0.46-5.14,1.27-7.58c2.15-6.49,1.81-10.62,1.32-16.57
						c-6.46-8.06-24.15-14.22-43.37-7.66c-0.27,10.51-5.95,17.64-14.13,19.86c-0.26,2.8-1.44,9.75-5.88,8.64
						c-3.2-0.8-2.53-4.89-5.05-9.18c-2.57-4.38-10.04-6.95-14.19-2.36C137.56,90.42,137.96,101.85,144.05,107.59z"/>
					<path class="st13" d="M198,140.59c3.27,0.13,6.52-0.75,9.25-2.45c2.77-1.65,5.02-4.06,6.74-6.75c1.68-2.72,2.92-5.75,4.02-8.79
						c1.07-3.06,1.96-6.19,2.69-9.35c0.76-3.15,1.36-6.35,1.75-9.57c0.21-1.61,0.33-3.22,0.42-4.84c0.07-1.65,0.26-3.31,0.62-4.93
						c0.33-1.64,0.96-3.19,1.4-4.73c0.45-1.55,0.8-3.13,0.99-4.74c0.45-3.21,0.23-6.49,0.1-9.75c0.4,3.24,0.75,6.51,0.49,9.81
						c-0.13,1.65-0.44,3.28-0.85,4.88c-0.41,1.62-0.97,3.13-1.23,4.71c-0.28,1.58-0.42,3.18-0.48,4.79
						c-0.07,1.65-0.17,3.29-0.37,4.93c-0.37,3.27-0.92,6.52-1.67,9.72c-0.78,3.19-1.71,6.35-2.83,9.45
						c-1.17,3.07-2.39,6.15-4.28,8.92c-1.88,2.73-4.29,5.16-7.21,6.75C204.63,140.23,201.26,140.99,198,140.59z"/>
					<path class="st13" d="M211.52,110.23l-11.21,2.09L201,89.43C205.02,92.23,208.73,100.83,211.52,110.23z"/>
					<path class="st13" d="M194.64,118.48c-0.06-0.1-0.12-0.2-0.18-0.3c-0.36-0.57-0.8-1.07-1.34-1.49
						c-0.48-0.38-1.02-0.72-1.57-0.93c-0.94-0.35-1.85-0.54-2.85-0.57c-0.81-0.03-1.53,0.06-2.28,0.4
						c-0.14,0.06-0.28,0.14-0.38,0.25c-0.1,0.11-0.16,0.28-0.11,0.42c0.08,0.22,0.35,0.29,0.58,0.33c1.24,0.21,2.45,0.56,3.63,0.99
						c1.12,0.4,2.18,0.87,3.04,1.71c0.44,0.43,0.83,0.9,1.26,1.34c0.15,0.15,0.37,0.49,0.61,0.39c0.23-0.09,0.21-0.5,0.19-0.69
						C195.2,119.69,194.97,119.06,194.64,118.48z"/>
					<path class="st13" d="M187.06,138.68c-11.03-3.83-19.36-6.96-23.45-16.47c-2.56-5.96-3.86-14.93-3.86-14.93
						s-1.05,10.28,1.14,17.89c1.69,5.87,7.42,11.98,24.83,17.42L187.06,138.68z"/>
				</g>
				<path class="st13" d="M191.58,97.94c-0.54,0.26-1.04,0.45-1.63,0.55c-0.64,0.11-1.26,0.19-1.9,0.11
					c-0.61-0.08-1.21-0.25-1.78-0.47c-0.32-0.12-0.64-0.24-0.93-0.41c-0.28-0.16-0.5-0.39-0.71-0.63c-0.12-0.13-0.17,0.16-0.14,0.24
					c0.59,1.27,2.13,1.9,3.42,2.12c0.72,0.12,1.55,0.17,2.25-0.09c0.6-0.23,1.17-0.78,1.47-1.34
					C191.63,97.99,191.63,97.91,191.58,97.94z"/>
				<path class="st13" d="M217.87,100.97c-0.15,0.07-0.3,0.06-0.46,0.09c-0.15,0.03-0.31,0.08-0.45,0.12
					c-0.26,0.07-0.52,0.15-0.79,0.19c-0.58,0.09-1.17,0.05-1.74-0.06c-0.67-0.13-1.32-0.35-1.93-0.66c-0.54-0.28-0.97-0.7-1.47-1.04
					c-0.09-0.06-0.13,0.11-0.1,0.16c0.56,1.36,2.25,2.16,3.62,2.41c0.64,0.12,1.31,0.15,1.96,0.03c0.29-0.06,0.59-0.14,0.84-0.31
					c0.3-0.2,0.37-0.48,0.57-0.77C217.94,101.1,217.97,100.93,217.87,100.97z"/>
				<path class="st13" d="M197.59,80.7c-0.25-0.47-0.71-0.83-1.21-1.02c-0.26-0.1-0.53-0.16-0.81-0.18c-0.13-0.01-0.27,0-0.4,0.01
					c-0.14,0.02-0.22,0.04-0.28,0.18c-0.04,0.09-0.01,0.21,0.06,0.28c0.08,0.08,0.17,0.09,0.28,0.11c0.14,0.03,0.28,0.06,0.41,0.1
					c0.22,0.06,0.44,0.12,0.64,0.23c0.08,0.04,0.16,0.1,0.23,0.15c0.03,0.03,0.07,0.06,0.1,0.09c-0.05-0.06,0.05,0.06,0.05,0.06
					c0.03,0.03,0.05,0.06,0.08,0.1c0.02,0.03,0.02,0.03-0.01-0.01c0.01,0.02,0.03,0.04,0.04,0.06c0.04,0.07,0.07,0.14,0.09,0.22
					c-0.01-0.06,0,0.04,0.01,0.06c0.01,0.04,0.01,0.07,0.01,0.11c0,0.01,0,0.09,0,0.1c0,0.05-0.01,0.1-0.02,0.15l-0.01,0.05
					c0.01-0.02,0-0.02,0,0.01c-0.01,0.04-0.02,0.08-0.04,0.12c-0.03,0.1-0.07,0.19-0.11,0.29c-0.08,0.2-0.13,0.29-0.23,0.48
					c-0.03,0.05-0.05,0.1-0.06,0.16c-0.01,0.05,0,0.12-0.01,0.15c-0.03,0.12-0.09,0.22-0.11,0.36c-0.02,0.15,0.09,0.43,0.29,0.38
					c0.15-0.04,0.25-0.11,0.39-0.19c0.12-0.07,0.22-0.1,0.31-0.19c0.06-0.06,0.12-0.12,0.17-0.18c0.09-0.09,0.14-0.22,0.2-0.33
					c0.05-0.1,0.11-0.21,0.14-0.32C197.91,81.73,197.85,81.19,197.59,80.7z"/>
				<g>
					<g>
						<path class="st6" d="M193.43,92.81c-0.25-1.8-1.95,1.12-4.19,1.43c-2.24,0.31-4.17-2.11-3.92-0.32c0.25,1.8,2.26,3,4.51,2.69
							C192.06,96.31,193.68,94.61,193.43,92.81z"/>
						<path class="st6" d="M218.3,97.87c0.75-1.65-2.08-0.01-3.95-0.86c-1.87-0.85-2.08-3.86-2.83-2.21
							c-0.75,1.65,0.16,3.68,2.03,4.52C215.43,100.17,217.55,99.52,218.3,97.87z"/>
						<path class="st6" d="M213.2,82.98l5.5,5.84c-1.56,1.58-4.06,1.54-5.58-0.07C211.6,87.13,211.64,84.55,213.2,82.98z"/>
						<path class="st6" d="M192.72,81.1L185,83.61c0.63,2.16,2.87,3.35,5,2.65C192.13,85.57,193.35,83.25,192.72,81.1z"/>
					</g>
				</g>
				<path class="st14" d="M197.96,118.16c-1.84,0.83-2.35-1.31-5.03-2.91c-2.62-1.57-4.95-0.73-4.76-2.8
					c0.16-1.73,3.26-4.33,7.84-1.98C199.91,112.47,199.6,117.43,197.96,118.16z"/>
			</g>
		</g>
		<g id="Laptop_00000123438747610785400210000013032470166821797800_">
			<g id="Laptop_00000047054476268900499380000012292250857015952789_">
				<path id="XMLID_00000095340279595354690180000015048870919603220395_" class="st15" d="M369.12,311.42l-69.35-40.04
					c-1.23-0.71-2.75-0.71-3.99,0l-120.31,69.47c-0.59,0.34-0.59,1.19,0,1.53l70,40.42L369.12,311.42z"/>
				<g id="XMLID_00000134209476807778420170000005400182239096322984_">
					<g id="XMLID_00000042004733326412204530000017195434946796390278_">
						<path id="XMLID_00000056422756278599990330000012503375375932033668_" class="st4" d="M363.94,302.99v1.56
							c0,2.28-1.22,4.4-3.2,5.55l-112.07,64.7c-0.98,0.58-2.1,0.85-3.19,0.85c-1.11,0-2.22-0.28-3.22-0.85l-61.09-35.15
							c-1.96-1.13-3.19-3.27-3.19-5.55v-2.16h0.01v0.02c0,0.28,0.13,0.53,0.41,0.7l67.09,38.74L363.94,302.99z"/>
					</g>
					<g id="XMLID_00000101103957681558691450000010729957528256006067_">
						<path id="XMLID_00000160893489384784810980000015051609801181865632_" class="st5" d="M363.95,302.99l-66.45-38.36
							c-1.18-0.68-2.64-0.68-3.82,0L178.4,331.19c-0.57,0.33-0.57,1.14,0,1.47l67.07,38.73L363.95,302.99z"/>
					</g>
					<g id="XMLID_00000119111479230565004720000003114657680416382105_">
						<polygon id="XMLID_00000078755129658254481800000009248085745066427277_" class="st4" points="244.86,365.75 209.02,345.08 
							313.82,284.57 349.85,305.14 						"/>
					</g>
					<g id="XMLID_00000091712503560932807140000017875619292369022891_">
						<polygon id="XMLID_00000129179561985047616970000014982549400559465375_" class="st6" points="349.85,305.13 348.48,305.92 
							313.82,286.15 210.4,345.87 209.03,345.08 313.82,284.57 						"/>
					</g>
					<g id="XMLID_00000044155987844279641730000014214746239736459420_">
						<polygon id="XMLID_00000107582690795068333000000017974302894642107029_" class="st6" points="227.25,308.25 227.91,308.63 
							245.47,318.77 276.71,300.73 277.36,300.36 259.14,289.84 						"/>
					</g>
					<g id="XMLID_00000115478783358931436000000016355034315079044282_">
						<polygon id="XMLID_00000179633426500309127250000008249182906670984892_" class="st4" points="227.91,308.63 245.47,318.77 
							276.71,300.73 259.14,290.59 						"/>
					</g>
					<g id="XMLID_00000153700270099840414940000009857474669441207472_">
						<path id="XMLID_00000128444546843153812750000011230007065179978927_" class="st6" d="M245.47,371.39v4.26
							c1.1,0,2.21-0.28,3.2-0.85l112.07-64.7c1.99-1.14,3.21-3.26,3.21-5.55v-1.56L245.47,371.39z"/>
					</g>
				</g>
			</g>
			<g id="Arm_9_">
				<g>
					<g>
						<path class="st14" d="M95.77,260.38c-4.93-39.06-7.5-61.47-6.24-82.45c0.69-11.5,16.47-25.97,27.39-30.41
							c16.09,8.76,17.93,35.52,19.08,52.52l4.3,57.62c0,0,14.72,9.87,29.42,18.14c12.42,6.98,20.01,12.16,26.09,12.67
							c13.62,1.13,24.09,0.02,31.49,2.22c3.93,1.17,12.92,3.91,16.01,5.02c3.09,1.12,8.94,5.75,14.2,8.71
							c4.98,3.06-0.45,5.76-4.1,5.16c-4.76-0.78-7.84-2.46-11.21-3.85c-3.18-1.31-6.25-1.58-9.51-2.37c1,2.21,2.91,7.95,3.22,10.36
							c0.25,1.94,0.96,4.23-0.56,5.86c-0.85,0.91-2.77,1.63-3.85,2.16c0,0,0.12,1.09-0.58,1.97c-0.71,0.9-2.26,1.24-3.34,1.31
							c-0.84,0.06-2-0.06-2-0.06c0.13,1.29-1,2.59-1.84,3.06c-2.88,1.59-7.51,1.48-8.23,1.29c-0.43-0.11-3.7-1.4-4.66-1.76
							c-1.39-0.52-2.6-0.77-3.27-1.54c-0.8-0.92,0.81-3.48,2.36-3.93c1.66-0.56,4.21-0.34,5.3-0.3c-0.85-1.42-1.59-2.66-2.09-4.34
							c-1.71-2.12-11.77,1.47-21.14,1c-7.08-0.36-15.52-7.85-18.8-8.88c-21.06-6.56-38.64-10.85-60.64-19.71
							C97.99,283.98,98.41,281.26,95.77,260.38z"/>
					</g>
					<g>
						<path class="st13" d="M234.56,303.75c-1.38-2.49-3.4-5.41-5.48-5.89c1.33,1.15,3.18,4.59,3.62,5.49
							C233.32,303.51,233.94,303.63,234.56,303.75z"/>
					</g>
					<g>
						<path class="st13" d="M231.5,321.74c0.16-1.93-0.17-3.85-0.52-5.73c-0.36-1.89-0.86-3.74-1.43-5.57
							c-0.6-1.8-1.19-3.68-2.22-5.36c-1.02-1.63-2.22-3.3-3.98-4.15c0.76,0.57,1.33,1.34,1.84,2.12c0.53,0.77,1,1.59,1.39,2.43
							c0.81,1.67,1.34,3.47,1.92,5.29c0.58,1.8,1.11,3.62,1.66,5.44C230.68,318.03,231.2,319.85,231.5,321.74z"/>
					</g>
					<path class="st13" d="M225.59,324.96c0.01-1.89-0.3-3.77-0.68-5.61c-0.38-1.85-0.92-3.66-1.51-5.45
						c-0.62-1.78-1.31-3.54-2.19-5.22c-0.9-1.63-1.79-3.46-3.45-4.46c0.72,0.61,1.12,1.47,1.55,2.28c0.42,0.83,0.79,1.67,1.13,2.53
						c0.68,1.72,1.32,3.47,1.91,5.23C223.55,317.78,224.7,321.31,225.59,324.96z"/>
					<path class="st13" d="M209.96,322.08c0.85-0.05,1.63-0.1,2.36,0.05c0.77,0.09,1.34,0.4,2.32,0.58l-0.45-0.56
						c0,0.47,0.13,0.76,0.29,1.09c0.15,0.32,0.39,0.58,0.63,0.8c0.49,0.45,1.09,0.73,1.7,0.84c-0.44-0.44-0.83-0.87-1.12-1.32
						c-0.14-0.23-0.23-0.47-0.32-0.7c-0.08-0.22-0.11-0.51-0.11-0.64l0.01-0.44l-0.46-0.13c-0.61-0.17-1.36-0.24-2.24-0.19
						C211.66,321.52,210.62,321.54,209.96,322.08z"/>
				</g>
				<path class="st7" d="M117.25,145.1c-16.74,6.21-29.16,18.47-29.7,35.84c-0.55,17.97,5.06,65.68,5.06,65.68s9.39,5.75,24.77,3.53
					c18.94-2.73,22.93-10.21,22.93-10.21s-2.78-29.15-3.07-40.48C136.77,181.85,134.87,151.87,117.25,145.1z"/>
				<path class="st11" d="M117.25,145.1c-16.74,6.21-29.16,18.47-29.7,35.84c-0.55,17.97,5.06,65.68,5.06,65.68
					s9.39,5.75,24.77,3.53c18.94-2.73,22.93-10.21,22.93-10.21s-2.78-29.15-3.07-40.48C136.77,181.85,134.87,151.87,117.25,145.1z"
					/>
			</g>
			<g>
				<g id="XMLID_00000098925773315303922650000002253258686438734229_">
					<path id="XMLID_00000065068334038119188690000015868479780371218078_" class="st4" d="M247.28,372.33
						c2.12,0.82,4.53,0.66,6.54-0.51l111.58-64.42c1.96-1.13,3.31-3.07,3.69-5.31l12.22-72.85c0.07-0.41,0.1-0.83,0.1-1.25
						c0-2.03-0.81-3.97-2.24-5.39l-115.95,66.96c-1.45,0.84-2.45,2.28-2.73,3.93L247.28,372.33z"/>
				</g>
				<g id="XMLID_00000047049281272925927930000008431291528436863411_">
					<path id="XMLID_00000152979306149491090600000016308178207223282106_" class="st5" d="M245.47,371.39l0.76,0.44
						c0.34,0.19,0.68,0.36,1.04,0.51l13.2-78.84c0.28-1.65,1.28-3.08,2.73-3.93l115.95-66.96c-0.45-0.45-0.98-0.84-1.55-1.18
						l-116.19,67.08c-1.45,0.84-2.45,2.28-2.73,3.93L245.47,371.39z"/>
				</g>
				<path id="XMLID_00000096057179171011390060000006551489799814149262_" class="st6" d="M261.56,291.06l-1.8-1.04
					c-0.53,0.71-0.91,1.53-1.06,2.42l-13.22,78.95l0.76,0.44c0.34,0.19,0.68,0.36,1.04,0.5l13.2-78.83
					C260.64,292.6,261.02,291.77,261.56,291.06z"/>
				<g id="XMLID_00000150815385999922148540000009780870616507116440_">
					<path id="XMLID_00000083770598568313858900000004105297764604793488_" class="st7" d="M310.12,305.09
						c0.82-4.88,5.85-11.36,11.25-14.47c5.39-3.11,9.1-1.68,8.29,3.19c-0.82,4.88-5.85,11.36-11.25,14.47
						C313.01,311.39,309.3,309.97,310.12,305.09z"/>
				</g>
			</g>
		</g>
	</g>
</g>
<g id="Bolts">
	<g id="Bolts_00000131353589411562778100000010842460677457762996_">
		<polygon class="st7" points="255.96,87.17 269.05,80.79 261.91,74.2 289.02,62.73 277.64,55.57 306.92,41.38 289.28,55.79 
			302.88,63.25 271.1,75.64 278.53,83.65 		"/>
		<polygon class="st7" points="250.06,70.01 258.72,62.34 254.3,58.79 261.95,50.39 255.01,47.72 257.86,36.79 252.47,48.5 
			257.33,50.83 249.09,59.23 254.28,63.25 		"/>
		<polygon class="st7" points="253.83,99.73 269.1,112.61 275.24,104.28 288.73,112.27 294.78,101.9 315.89,108.15 291.65,95.44 
			284.22,104.91 273.01,98.33 267.93,106.34 		"/>
	</g>
	<g id="Bolts_00000046336184823280999320000017963280234558383233_">
		<polygon class="st3" points="129.69,67.99 120.74,61.88 119.11,68.93 101.71,55.62 101.27,65.61 81.31,51.91 97.12,58.01 
			96.94,46.47 116.66,62.45 119.1,54.7 		"/>
		<polygon class="st3" points="130.08,81.18 119.65,78.62 118.41,83.61 107.75,82.15 108.36,88.57 97.52,91.88 110.13,90.04 
			110.1,85.32 121,87.23 122.34,81.42 		"/>
		<polygon class="st3" points="134.57,57.64 133.76,41.52 125.45,42.48 122.74,30.1 113.28,32.24 105.33,16.32 111.18,37.66 
			120.87,36.83 123.17,47.07 130.7,45.66 		"/>
	</g>
</g>
<g id="Coffee_00000035531310215960776930000005747746458328598207_">
	<g id="Coffee">
		<path id="Shadow_00000147908502278313007880000005303514161080792708_" class="st15" d="M406.5,296.44
			c8.14-4.25,21.16-4.36,29.09-0.23c7.93,4.12,7.99,10.91,0.12,15.17c-7.86,4.25-20.89,4.36-29.09,0.23
			C398.42,307.49,398.36,300.7,406.5,296.44z"/>
		<g id="Coffee_1_">
			<g id="Coffee_2_">
				<g id="XMLID_00000117652002220518826730000009648853937483762104_">
					<path id="XMLID_00000001624275449834375120000013940862706705107382_" class="st7" d="M407.69,267.87
						c7.46-2.84,19.41-2.97,26.68-0.3c7.27,2.68,7.32,7.15,0.11,9.99c-7.21,2.84-19.16,2.97-26.68,0.29
						C400.28,275.18,400.23,270.71,407.69,267.87z"/>
				</g>
				<g id="XMLID_00000124850507411685167680000012633038113328543390_" class="st16">
					<path id="XMLID_00000074407179962680676090000016298211390812215431_" d="M407.69,267.87c7.46-2.84,19.41-2.97,26.68-0.3
						c7.27,2.68,7.32,7.15,0.11,9.99c-7.21,2.84-19.16,2.97-26.68,0.29C400.28,275.18,400.23,270.71,407.69,267.87z"/>
				</g>
				<g id="XMLID_00000045601411013796433430000016482379919176463273_">
					<path id="XMLID_00000051346738444322778470000008939906200817707697_" class="st0" d="M401.62,258.85l38.43-0.38l-2.41,45.31
						l-0.04,0c-0.16,1.65-1.69,3.29-4.61,4.59c-6.23,2.75-16.55,2.87-23.05,0.25c-3.05-1.23-4.66-2.83-4.87-4.48l-0.04,0
						L401.62,258.85z"/>
				</g>
				<g id="XMLID_00000112606536030732023100000007235050735394394500_">
					<path id="XMLID_00000154413203515274227350000007908247601545785487_" class="st17" d="M440.05,258.47l-0.49,9.2
						c-0.88,0.62-1.92,1.22-3.19,1.76c-8.27,3.53-21.98,3.68-30.61,0.34c-0.37-0.14-0.69-0.3-1.02-0.46
						c-1.38-0.63-2.43-1.33-2.43-1.33l-0.69-9.13L440.05,258.47z"/>
				</g>
				<g id="XMLID_00000005978457810693640110000013194651236592914869_">
					<g id="XMLID_00000023963177769954462600000012905871589860519818_">
						<path id="XMLID_00000178917954312373353820000009865355280812341164_" class="st7" d="M399.21,260.22l-0.08-6.92l4.48-0.05
							c0.59-0.32,1.24-0.63,1.96-0.93c8.56-3.54,22.26-3.69,30.61-0.34c0.69,0.28,1.31,0.58,1.89,0.89l4.35-0.05l0.08,6.92l0,0
							c0.02,2.26-2.03,4.53-6.16,6.3c-8.27,3.53-21.98,3.68-30.61,0.34C401.4,264.71,399.23,262.47,399.21,260.22z"/>
					</g>
					<g id="XMLID_00000062173717728016386830000010206846086304254347_" class="st18">
						<path id="XMLID_00000111152366698903202970000016385069525942873232_" d="M399.21,260.22l-0.08-6.92l4.48-0.05
							c0.59-0.32,1.24-0.63,1.96-0.93c8.56-3.54,22.26-3.69,30.61-0.34c0.69,0.28,1.31,0.58,1.89,0.89l4.35-0.05l0.08,6.92l0,0
							c0.02,2.26-2.03,4.53-6.16,6.3c-8.27,3.53-21.98,3.68-30.61,0.34C401.4,264.71,399.23,262.47,399.21,260.22z"/>
					</g>
					<g id="XMLID_00000047046523297139395780000006971930842420959404_">
						<path id="XMLID_00000021110811994614122970000007990937930665147045_" class="st7" d="M405.51,247
							c8.56-3.54,22.26-3.69,30.61-0.34c8.35,3.35,8.41,8.93,0.14,12.46c-8.27,3.53-21.98,3.68-30.61,0.34
							C397.01,256.11,396.95,250.53,405.51,247z"/>
					</g>
					<g id="XMLID_00000013194192387373717710000015029566096722567064_">
						<path class="st7" d="M403.09,251.59l-0.02,0l1.32-5.72l10.99-0.12c3.57-0.48,7.39-0.53,10.93-0.12l10.67-0.12l1.46,5.69
							l-0.02,0c0.71,2.07-0.91,4.26-4.9,5.89c-6.82,2.79-18.12,2.92-25.23,0.28C404.12,255.82,402.4,253.67,403.09,251.59z"/>
						<path class="st18" d="M403.09,251.59l-0.02,0l1.32-5.72l10.99-0.12c3.57-0.48,7.39-0.53,10.93-0.12l10.67-0.12l1.46,5.69
							l-0.02,0c0.71,2.07-0.91,4.26-4.9,5.89c-6.82,2.79-18.12,2.92-25.23,0.28C404.12,255.82,402.4,253.67,403.09,251.59z"/>
						<g id="XMLID_00000104679157696991538460000012779021997031881387_">
							<path id="XMLID_00000142143012283190061790000008507327060743600026_" class="st7" d="M409.15,242.17
								c6.48-2.44,16.86-2.55,23.18-0.26c6.32,2.3,6.36,6.13,0.09,8.57c-6.27,2.44-16.64,2.55-23.18,0.26
								C402.71,248.44,402.66,244.6,409.15,242.17z"/>
						</g>
						<g id="XMLID_00000114793497339681108740000000796274860064726708_">
							<path id="XMLID_00000068666542403526680230000012248534434420854425_" class="st7" d="M406.57,246.49
								c0.01,0.09,0.18,0.39,0.73,0.8c0.51,0.38,1.36,0.85,2.68,1.32c2.88,1,6.87,1.57,10.92,1.52c4.05-0.04,7.96-0.68,10.7-1.75
								c1.29-0.5,2.09-1,2.56-1.39c0.52-0.43,0.67-0.75,0.67-0.83c0-0.16-0.58-1.15-3.28-2.14c-2.77-1.01-6.69-1.56-10.74-1.51
								c-4.05,0.04-8.02,0.69-10.88,1.76C407.24,245.29,406.58,246.28,406.57,246.49z"/>
						</g>
						<g id="XMLID_00000089571048204294957440000003247204079204935099_" class="st19">
							<path id="XMLID_00000152222865915164113930000006611458029075262086_" d="M406.57,246.49c0.01,0.09,0.18,0.39,0.73,0.8
								c0.51,0.38,1.36,0.85,2.68,1.32c2.88,1,6.87,1.57,10.92,1.52c4.05-0.04,7.96-0.68,10.7-1.75c1.29-0.5,2.09-1,2.56-1.39
								c0.52-0.43,0.67-0.75,0.67-0.83c0-0.16-0.58-1.15-3.28-2.14c-2.77-1.01-6.69-1.56-10.74-1.51
								c-4.05,0.04-8.02,0.69-10.88,1.76C407.24,245.29,406.58,246.28,406.57,246.49z"/>
						</g>
						<g id="XMLID_00000057108656280058698110000015789246310060669871_">
							<path id="XMLID_00000031203107253801720260000008145020587868903084_" class="st7" d="M407.3,247.29
								c0.51,0.38,1.36,0.85,2.68,1.32c2.88,1,6.87,1.57,10.92,1.52c4.05-0.04,7.96-0.68,10.7-1.75c1.29-0.5,2.09-1,2.56-1.39
								c-0.48-0.38-1.29-0.86-2.59-1.33c-2.77-1.01-6.69-1.56-10.74-1.51c-4.05,0.04-8.02,0.69-10.88,1.76
								C408.64,246.41,407.8,246.89,407.3,247.29z"/>
						</g>
						<g id="XMLID_00000013187059946021813880000017339626215446471572_" class="st18">
							<path id="XMLID_00000078732592109924404470000010698592865783964605_" d="M407.3,247.29c0.51,0.38,1.36,0.85,2.68,1.32
								c2.88,1,6.87,1.57,10.92,1.52c4.05-0.04,7.96-0.68,10.7-1.75c1.29-0.5,2.09-1,2.56-1.39c-0.48-0.38-1.29-0.86-2.59-1.33
								c-2.77-1.01-6.69-1.56-10.74-1.51c-4.05,0.04-8.02,0.69-10.88,1.76C408.64,246.41,407.8,246.89,407.3,247.29z"/>
						</g>
						<g id="XMLID_00000034780200889162948800000009233408096329340327_" class="st19">
							<path id="XMLID_00000100361703256585146340000007812780885715323581_" d="M413.82,247.36c-0.95-0.53-2.11-0.73-2.58-0.46
								c-0.47,0.27-0.08,0.92,0.87,1.46c0.95,0.53,2.11,0.74,2.58,0.46C415.17,248.54,414.77,247.89,413.82,247.36z"/>
						</g>
					</g>
				</g>
				<g id="XMLID_00000109027757721494871390000012953748456843603329_">
					<path id="XMLID_00000138545043348487235810000013305583216732391081_" class="st7" d="M438.95,289.13
						c0.02,1.7-1.67,3.43-5.07,4.76c-6.79,2.67-18.05,2.8-25.13,0.28c-3.54-1.26-5.32-2.94-5.35-4.64l-1.28-16.61
						c0.02,1.81,1.91,3.59,5.67,4.93c7.52,2.68,19.47,2.54,26.68-0.29c3.61-1.42,5.4-3.25,5.38-5.06L438.95,289.13z"/>
				</g>
				<g id="XMLID_00000020373706059197779410000003678933216001447336_" class="st9">
					<path id="XMLID_00000176736163354815953840000001454108361968846466_" class="st1" d="M438.95,289.13
						c0.02,1.7-1.67,3.43-5.07,4.76c-6.79,2.67-18.05,2.8-25.13,0.28c-3.54-1.26-5.32-2.94-5.35-4.64l-1.28-16.61
						c0.02,1.81,1.91,3.59,5.67,4.93c7.52,2.68,19.47,2.54,26.68-0.29c3.61-1.42,5.4-3.25,5.38-5.06L438.95,289.13z"/>
				</g>
				<g id="XMLID_00000057128160352325241860000004180491204730925741_">
					<g id="XMLID_00000009551345570735626690000008103586107790963102_">
						<path id="XMLID_00000030469446130479816340000008483843945131676853_" class="st4" d="M427.23,290.25
							c0.62-0.86,0.96-1.91,1.47-2.84c1-1.85,2.45-3.11,4.3-3.88c0.25-0.1,0.56,0,0.68,0.24c0.97,1.91,0.42,4.61-1.52,6.59
							c-1.92,1.96-4.58,2.59-6.51,1.7c-0.11-0.05-0.14-0.26-0.05-0.31C426.21,291.38,426.76,290.89,427.23,290.25z"/>
					</g>
					<g id="XMLID_00000036936820977162377100000010184718927170513808_">
						<path id="XMLID_00000065757358197682179610000008515346234867139259_" class="st4" d="M431.95,283.02
							c-1,0.4-1.94,1.01-2.72,1.72c-0.84,0.75-1.48,1.71-1.95,2.74c-0.71,1.56-1.4,2.52-2.46,3.33c-0.23,0.18-0.59,0.13-0.75-0.11
							c-1.3-1.92-0.83-4.89,1.26-7.02c1.98-2.02,4.74-2.62,6.68-1.62C432.4,282.26,432.36,282.86,431.95,283.02z"/>
					</g>
				</g>
			</g>
		</g>
	</g>
</g>
<g id="Notebook">
	<g id="Notebook_00000097501564642662211940000003427028126649564338_">
		<path id="Shadow_00000044174171017471804250000013350106092394214564_" class="st15" d="M145.84,345.76l-57.27,33.06
			c-0.82,0.47-0.82,1.24,0,1.71l69.86,40.22c0.82,0.47,2.14,0.47,2.96,0l57.27-33.06c0.82-0.47,0.82-1.24,0-1.71l-69.86-40.22
			C147.98,345.29,146.65,345.29,145.84,345.76z"/>
		<g id="Notebook_00000007412926318991511710000011211643107983483317_">
			<g id="XMLID_00000102536928156920458430000001454968925729770132_">
				<path id="XMLID_00000102528981504633145870000007489693980286004630_" class="st6" d="M143.33,348.69l-49.18,25.89l-1.01,1.59
					v1.28c0,0.64,0.37,1.22,1.01,1.59l64.81,37.42c0.47,0.27,1.07,0.42,1.69,0.42c0.62,0,1.22-0.15,1.69-0.42l48.08-27.76v-1.28
					L143.33,348.69z"/>
				<path id="XMLID_00000005963937060690695170000015384501214532236170_" class="st7" d="M160.65,415.6
					c-0.62,0-1.22-0.15-1.69-0.42l-64.81-37.42c-0.64-0.37-1.01-0.95-1.01-1.59c0-0.64,0.37-1.22,1.01-1.59l47.01-27.14l69.25,39.98
					l-48.08,27.76C161.87,415.45,161.27,415.6,160.65,415.6z"/>
			</g>
			<g id="XMLID_00000069370484385553593580000001664452551450404742_">
				<path id="XMLID_00000019663628764797803340000017293666610807651259_" class="st17" d="M141.16,343.69l-46.48,26.83l-0.48,0.67
					v4.99l0,0c0,0.24,0.16,0.48,0.48,0.67l64.81,37.42c0.64,0.37,1.67,0.37,2.31,0l46.48-26.83v-4.99L141.16,343.69z"/>
				<path id="XMLID_00000155849334898794808620000003651868060815166126_" class="st2" d="M208.29,382.44l-0.58,0.34l-7.56,4.37
					l-1.41,0.82l-36.93,21.32c-0.64,0.37-1.67,0.37-2.31,0l-64.81-37.42c-0.63-0.37-0.63-0.97,0-1.33l0.62-0.36l45.86-26.48
					l66.55,38.42l0.14,0.09L208.29,382.44z"/>
				<path id="XMLID_00000060015283880484487630000014758716924428777358_" class="st3" d="M160.65,409.55v4.99
					c-0.42,0-0.84-0.09-1.15-0.28l-64.81-37.42c-0.31-0.18-0.47-0.42-0.47-0.67v-4.99c0,0.24,0.16,0.48,0.47,0.67l64.81,37.42
					C159.81,409.46,160.23,409.55,160.65,409.55z"/>
			</g>
			<path id="XMLID_00000121263632372360265590000009953254257344177286_" class="st1" d="M208.29,381.77l-8.37,4.83l-1.31,0.76
				l-36.8,21.25c-0.64,0.37-1.67,0.37-2.31,0l-58.04-33.51c-0.52-0.29-1.01-0.57-1.46-0.84c-2.36-1.44-3.78-2.72-4.7-4.09
				c-0.04-0.06-0.08-0.11-0.11-0.17c-0.07-0.11-0.12-0.23-0.14-0.35c-0.11-0.51,0.23-1,0.81-1.17c1.12-0.34,2.82-0.93,4.38-1.82
				c0.02-0.01,0.04-0.02,0.06-0.03l40.87-23.6L208.29,381.77z"/>
			<g id="XMLID_00000081609110260855577450000006976756891847918476_">
				<g id="XMLID_00000124158032468113605590000012984097399129764021_">
					<path id="XMLID_00000025414543730100711180000002341577686385344435_" class="st8" d="M199.62,381.19
						c-0.59,0.34-0.59,0.9,0,1.25c0.59,0.35,1.56,0.35,2.16,0c0.6-0.35,0.6-0.9,0-1.25C201.18,380.84,200.22,380.84,199.62,381.19z"
						/>
					<path id="XMLID_00000110469703987982548100000007963159067116514224_" class="st6" d="M206.55,377.15
						c-0.82-0.47-1.85-0.4-2.9,0.2c-1.63,0.94-3.03,3.04-3.65,5.24c0.25,0.08,0.52,0.11,0.79,0.1c0.56-1.96,1.81-3.81,3.25-4.65
						c0.47-0.27,0.92-0.4,1.32-0.4c0.28,0,0.54,0.07,0.78,0.2c0.69,0.4,1.09,1.37,1.09,2.67c0,0.21-0.01,0.43-0.04,0.64l0.76,0.44
						c0.05-0.36,0.08-0.72,0.08-1.08C208.04,378.92,207.5,377.7,206.55,377.15z"/>
					<path id="XMLID_00000011006480179104202660000006313323659101536390_" class="st6" d="M207.89,382
						c-0.01,0.06-0.02,0.12-0.04,0.19l-0.14-0.09L207.89,382z"/>
				</g>
				<g id="XMLID_00000017489697732854899160000012714064559295934895_">
					<path id="XMLID_00000110442836777484365900000010114810437123931277_" class="st8" d="M193.13,377.44
						c-0.59,0.35-0.59,0.9,0,1.25c0.59,0.35,1.56,0.35,2.15,0c0.6-0.35,0.6-0.9,0-1.25C194.69,377.09,193.72,377.09,193.13,377.44z"
						/>
					<path id="XMLID_00000093898601843634291470000008082223780024986559_" class="st6" d="M200.05,373.4
						c-0.82-0.47-1.85-0.4-2.9,0.2c-1.63,0.94-3.03,3.04-3.65,5.24c0.25,0.08,0.52,0.11,0.79,0.1c0.57-1.96,1.81-3.81,3.25-4.65
						c0.47-0.27,0.92-0.4,1.32-0.4c0.28,0,0.54,0.07,0.78,0.2c0.69,0.4,1.09,1.38,1.09,2.67c0,0.21-0.01,0.43-0.04,0.64l0.76,0.44
						c0.05-0.36,0.08-0.72,0.08-1.08C201.55,375.17,201,373.94,200.05,373.4z"/>
				</g>
				<g id="XMLID_00000134966334606544191960000003973832506743374263_">
					<path id="XMLID_00000067237025311265945090000011570544763155307174_" class="st8" d="M186.63,373.69
						c-0.59,0.34-0.59,0.9,0,1.25c0.59,0.35,1.56,0.35,2.15,0c0.6-0.35,0.6-0.91,0-1.25C188.19,373.34,187.22,373.34,186.63,373.69z
						"/>
					<path id="XMLID_00000154421647848878001230000007609250821164527009_" class="st6" d="M193.56,369.65
						c-0.82-0.47-1.85-0.4-2.9,0.2c-1.63,0.94-3.03,3.04-3.65,5.25c0.25,0.08,0.52,0.11,0.79,0.1c0.57-1.96,1.81-3.81,3.25-4.65
						c0.47-0.27,0.92-0.4,1.32-0.4c0.28,0,0.54,0.07,0.78,0.2c0.69,0.4,1.09,1.38,1.09,2.67c0,0.21-0.01,0.43-0.04,0.64l0.76,0.44
						c0.05-0.36,0.08-0.73,0.08-1.08C195.05,371.42,194.51,370.19,193.56,369.65z"/>
				</g>
				<g id="XMLID_00000041982341219555533150000003863522923485449860_">
					<path id="XMLID_00000129917582965484692170000009472038862127911054_" class="st8" d="M180.14,369.94
						c-0.59,0.35-0.59,0.9,0,1.25c0.59,0.35,1.56,0.35,2.15,0c0.6-0.35,0.6-0.9,0-1.25C181.69,369.59,180.73,369.59,180.14,369.94z"
						/>
					<path id="XMLID_00000134950587886793613520000005884923400937286827_" class="st6" d="M187.06,365.9
						c-0.82-0.47-1.85-0.4-2.9,0.2c-1.63,0.94-3.03,3.04-3.65,5.24c0.25,0.08,0.52,0.11,0.79,0.1c0.57-1.96,1.81-3.81,3.25-4.65
						c0.47-0.27,0.92-0.4,1.32-0.4c0.28,0,0.54,0.07,0.78,0.2c0.69,0.4,1.09,1.38,1.09,2.67c0,0.21-0.01,0.43-0.04,0.64l0.76,0.44
						c0.05-0.36,0.08-0.72,0.08-1.08C188.55,367.67,188.01,366.45,187.06,365.9z"/>
				</g>
				<g id="XMLID_00000013190527955565839520000009100276425336754311_">
					<path id="XMLID_00000173132668468435942160000011041817982299287175_" class="st8" d="M173.64,366.19
						c-0.59,0.35-0.59,0.9,0,1.25c0.59,0.35,1.56,0.35,2.15,0c0.6-0.35,0.6-0.91,0-1.25C175.2,365.84,174.23,365.84,173.64,366.19z"
						/>
					<path id="XMLID_00000125600950272851509760000014730788949850927527_" class="st6" d="M180.57,362.15
						c-0.82-0.47-1.85-0.4-2.9,0.2c-1.63,0.94-3.03,3.04-3.65,5.25c0.24,0.08,0.52,0.11,0.79,0.1c0.57-1.96,1.81-3.81,3.25-4.65
						c0.47-0.27,0.92-0.41,1.32-0.41c0.28,0,0.54,0.07,0.78,0.2c0.69,0.4,1.09,1.38,1.09,2.67c0,0.21-0.01,0.43-0.04,0.64l0.76,0.44
						c0.05-0.36,0.08-0.72,0.08-1.08C182.06,363.92,181.52,362.69,180.57,362.15z"/>
				</g>
				<g id="XMLID_00000036932944676849688490000012843119494875122087_">
					<path id="XMLID_00000176022407770010135450000012024993943026813111_" class="st8" d="M167.15,362.44
						c-0.59,0.34-0.59,0.9,0,1.25c0.59,0.35,1.56,0.35,2.15,0c0.6-0.35,0.6-0.9,0-1.25C168.7,362.09,167.74,362.09,167.15,362.44z"
						/>
					<path id="XMLID_00000000941330215829016350000010578883859528829073_" class="st6" d="M174.07,358.4
						c-0.82-0.47-1.85-0.4-2.9,0.2c-1.63,0.94-3.03,3.04-3.65,5.24c0.25,0.08,0.52,0.11,0.79,0.1c0.56-1.96,1.81-3.81,3.25-4.65
						c0.47-0.27,0.92-0.41,1.32-0.41c0.28,0,0.54,0.07,0.78,0.2c0.69,0.4,1.09,1.38,1.09,2.67c0,0.21-0.01,0.43-0.04,0.64l0.76,0.44
						c0.05-0.36,0.08-0.72,0.08-1.08C175.56,360.17,175.02,358.94,174.07,358.4z"/>
				</g>
				<g id="XMLID_00000047757453758703389100000006957819344529950636_">
					<path id="XMLID_00000104666234053559560740000008035530809057623711_" class="st8" d="M160.65,358.69
						c-0.59,0.35-0.59,0.91,0,1.25c0.59,0.35,1.56,0.35,2.16,0c0.6-0.35,0.6-0.9,0-1.25C162.21,358.34,161.24,358.34,160.65,358.69z
						"/>
					<path id="XMLID_00000147929302248271193210000008947676955341833366_" class="st6" d="M167.58,354.65
						c-0.82-0.47-1.85-0.4-2.9,0.2c-1.63,0.94-3.03,3.04-3.65,5.25c0.25,0.08,0.52,0.11,0.79,0.1c0.57-1.96,1.81-3.81,3.25-4.65
						c0.47-0.27,0.92-0.41,1.32-0.41c0.28,0,0.54,0.07,0.78,0.2c0.69,0.4,1.09,1.38,1.09,2.67c0,0.21-0.01,0.43-0.04,0.64l0.76,0.44
						c0.05-0.36,0.08-0.73,0.08-1.08C169.07,356.42,168.52,355.19,167.58,354.65z"/>
				</g>
				<g id="XMLID_00000177466996943439748180000017577683914786726054_">
					<path id="XMLID_00000121264539026608933650000000748848200033897872_" class="st8" d="M154.15,354.94
						c-0.59,0.35-0.59,0.9,0,1.25c0.59,0.35,1.56,0.34,2.16,0c0.6-0.35,0.6-0.9,0-1.25C155.71,354.59,154.75,354.59,154.15,354.94z"
						/>
					<path id="XMLID_00000119107714309615503510000008522486785856517789_" class="st6" d="M161.08,350.9
						c-0.82-0.47-1.85-0.4-2.9,0.2c-1.63,0.94-3.03,3.04-3.65,5.25c0.24,0.08,0.52,0.11,0.79,0.1c0.56-1.96,1.81-3.81,3.25-4.65
						c0.47-0.27,0.92-0.4,1.32-0.4c0.28,0,0.54,0.07,0.78,0.2c0.69,0.4,1.09,1.38,1.09,2.67c0,0.21-0.01,0.43-0.04,0.64l0.76,0.44
						c0.05-0.36,0.08-0.73,0.08-1.08C162.57,352.67,162.03,351.44,161.08,350.9z"/>
				</g>
				<g id="XMLID_00000010304201391245269720000003678599219783937452_">
					<path id="XMLID_00000115486081456944987850000014950398558635205820_" class="st8" d="M147.66,351.19
						c-0.59,0.35-0.59,0.9,0,1.25c0.59,0.35,1.56,0.35,2.15,0c0.6-0.35,0.6-0.91,0-1.25C149.22,350.84,148.25,350.84,147.66,351.19z
						"/>
					<path id="XMLID_00000067229733861046277410000007979015122847778950_" class="st6" d="M154.58,347.14
						c-0.82-0.47-1.85-0.4-2.9,0.2c-1.63,0.94-3.03,3.04-3.65,5.25c0.24,0.08,0.52,0.11,0.79,0.1c0.56-1.96,1.81-3.81,3.25-4.65
						c0.47-0.27,0.92-0.4,1.32-0.4c0.28,0,0.54,0.07,0.78,0.2c0.69,0.4,1.09,1.38,1.09,2.67c0,0.21-0.01,0.43-0.04,0.64l0.76,0.44
						c0.05-0.36,0.08-0.73,0.08-1.08C156.08,348.92,155.53,347.69,154.58,347.14z"/>
				</g>
				<g id="XMLID_00000031203880160782110960000006977356986088727697_">
					<path id="XMLID_00000070109580172628746360000003213482309351828642_" class="st8" d="M141.16,347.44
						c-0.59,0.35-0.59,0.91,0,1.25c0.59,0.35,1.56,0.35,2.16,0c0.6-0.34,0.6-0.9,0-1.25C142.72,347.09,141.76,347.09,141.16,347.44z
						"/>
					<path id="XMLID_00000070081877563262330390000017156717651574455200_" class="st6" d="M148.09,343.39
						c-0.82-0.47-1.85-0.4-2.9,0.2c-1.63,0.94-3.03,3.04-3.65,5.24c0.25,0.08,0.52,0.11,0.79,0.1c0.56-1.96,1.81-3.81,3.25-4.65
						c0.47-0.27,0.92-0.41,1.32-0.41c0.28,0,0.54,0.07,0.78,0.2c0.69,0.4,1.09,1.38,1.09,2.67c0,0.21-0.01,0.43-0.04,0.64l0.76,0.44
						c0.05-0.36,0.08-0.72,0.08-1.08C149.58,345.17,149.04,343.94,148.09,343.39z"/>
				</g>
			</g>
			<g id="XMLID_00000019679655201921672560000008177084071055237823_">
				<g id="XMLID_00000021099197419534086230000004546364188540420486_">
					<path class="st17" d="M154.16,401.92c-0.25,0-0.5-0.13-0.63-0.37c-0.2-0.35-0.08-0.8,0.27-1l35.76-20.64
						c0.35-0.2,0.8-0.08,1,0.27c0.2,0.35,0.08,0.8-0.27,1l-35.76,20.64C154.41,401.89,154.28,401.92,154.16,401.92z"/>
				</g>
				<g id="XMLID_00000145060540262195357330000009459228550207408030_">
					<path class="st17" d="M149.83,399.42c-0.25,0-0.5-0.13-0.63-0.37c-0.2-0.35-0.08-0.8,0.27-1l35.76-20.64
						c0.34-0.2,0.8-0.08,1,0.27c0.2,0.35,0.08,0.8-0.27,1l-35.76,20.64C150.08,399.39,149.95,399.42,149.83,399.42z"/>
				</g>
				<g id="XMLID_00000137131894641660898770000011449487893331752614_">
					<path class="st17" d="M145.49,396.92c-0.25,0-0.5-0.13-0.63-0.37c-0.2-0.35-0.08-0.8,0.27-1l35.76-20.64
						c0.34-0.2,0.8-0.08,1,0.27c0.2,0.35,0.08,0.8-0.27,1l-35.76,20.64C145.75,396.89,145.62,396.92,145.49,396.92z"/>
				</g>
				<g id="XMLID_00000150823317439270124810000007637442512589678509_">
					<path class="st17" d="M141.16,394.42c-0.25,0-0.5-0.13-0.63-0.37c-0.2-0.35-0.08-0.8,0.27-1l35.76-20.64
						c0.34-0.2,0.8-0.08,1,0.27c0.2,0.35,0.08,0.8-0.27,1l-35.76,20.64C141.42,394.39,141.29,394.42,141.16,394.42z"/>
				</g>
				<g id="XMLID_00000177466198316725981660000004372915574430011559_">
					<path class="st17" d="M136.83,391.92c-0.25,0-0.5-0.13-0.63-0.37c-0.2-0.35-0.08-0.8,0.27-1l35.76-20.64
						c0.35-0.2,0.8-0.08,1,0.27c0.2,0.35,0.08,0.8-0.27,1l-35.76,20.64C137.08,391.89,136.96,391.92,136.83,391.92z"/>
				</g>
				<g id="XMLID_00000021827513503985681320000000232794704731739783_">
					<path class="st17" d="M132.5,389.42c-0.25,0-0.5-0.13-0.63-0.37c-0.2-0.35-0.08-0.8,0.27-1l35.76-20.64
						c0.35-0.2,0.8-0.08,1,0.27c0.2,0.35,0.08,0.8-0.27,1l-35.76,20.64C132.75,389.39,132.63,389.42,132.5,389.42z"/>
				</g>
				<g id="XMLID_00000114788519738704564780000017400462856231098548_">
					<path class="st17" d="M128.17,386.92c-0.25,0-0.5-0.13-0.63-0.37c-0.2-0.35-0.08-0.8,0.27-1l35.76-20.64
						c0.35-0.2,0.8-0.08,1,0.27c0.2,0.35,0.08,0.8-0.27,1l-35.76,20.64C128.42,386.88,128.3,386.92,128.17,386.92z"/>
				</g>
				<g id="XMLID_00000004508647167412278030000003566322583157657231_">
					<path class="st17" d="M123.84,384.42c-0.25,0-0.5-0.13-0.63-0.37c-0.2-0.35-0.08-0.8,0.27-1l35.76-20.64
						c0.35-0.2,0.8-0.08,1,0.27c0.2,0.35,0.08,0.8-0.27,1l-35.76,20.64C124.09,384.39,123.96,384.42,123.84,384.42z"/>
				</g>
				<g id="XMLID_00000072968702945304418290000009884907260775107768_">
					<path class="st17" d="M119.51,381.92c-0.25,0-0.5-0.13-0.63-0.37c-0.2-0.35-0.08-0.8,0.27-1l35.76-20.64
						c0.35-0.2,0.8-0.08,1,0.27c0.2,0.35,0.08,0.8-0.27,1l-35.76,20.64C119.76,381.88,119.64,381.92,119.51,381.92z"/>
				</g>
				<g id="XMLID_00000055700604025808588550000012652663209556075701_">
					<path class="st17" d="M115.18,379.42c-0.25,0-0.5-0.13-0.63-0.37c-0.2-0.35-0.08-0.8,0.27-1l35.76-20.64
						c0.35-0.2,0.8-0.08,1,0.27c0.2,0.35,0.08,0.8-0.27,1l-35.76,20.64C115.43,379.39,115.3,379.42,115.18,379.42z"/>
				</g>
				<g id="XMLID_00000066490294090203039730000016623031088246113665_">
					<path class="st17" d="M110.85,376.92c-0.25,0-0.5-0.13-0.63-0.37c-0.2-0.35-0.08-0.8,0.27-1l35.76-20.65
						c0.34-0.2,0.8-0.08,1,0.27c0.2,0.35,0.08,0.8-0.27,1l-35.76,20.65C111.1,376.89,110.97,376.92,110.85,376.92z"/>
				</g>
				<g id="XMLID_00000100365251311342587750000017225529777669056648_">
					<path class="st17" d="M106.52,374.42c-0.25,0-0.5-0.13-0.63-0.37c-0.2-0.35-0.08-0.8,0.27-1l35.76-20.64
						c0.34-0.2,0.8-0.08,1,0.27c0.2,0.35,0.08,0.8-0.27,1l-35.76,20.64C106.77,374.38,106.64,374.42,106.52,374.42z"/>
				</g>
				<g id="XMLID_00000005255923084824240940000002517394710085819782_">
					<path class="st17" d="M102.19,371.92c-0.25,0-0.5-0.13-0.63-0.37c-0.2-0.35-0.08-0.8,0.27-1l35.76-20.65
						c0.34-0.2,0.8-0.08,1,0.27c0.2,0.35,0.08,0.8-0.27,1l-35.76,20.65C102.44,371.88,102.31,371.92,102.19,371.92z"/>
				</g>
			</g>
			<g id="XMLID_00000071540722861566200520000016653306502361111201_">
				<g id="XMLID_00000011717439930819448450000003892479958292802184_">
					<path class="st7" d="M158.55,404.42c-0.25,0-0.5-0.13-0.63-0.37c-0.2-0.35-0.08-0.8,0.27-1l37.82-21.88
						c0.35-0.2,0.8-0.08,1,0.27c0.2,0.35,0.08,0.8-0.27,1l-37.82,21.88C158.8,404.39,158.68,404.42,158.55,404.42z"/>
				</g>
			</g>
			<g id="XMLID_00000102526715264085149760000012575921492425724336_" class="st20">
				<g id="XMLID_00000008863785893531972530000016954575475327014810_">
					<path id="XMLID_00000034787533697215665960000015668837890337325199_" d="M177.46,377.24c-0.33-0.5-0.94-0.7-1.46-0.94
						c-0.21-0.1-0.45-0.23-0.71-0.36c-0.33-0.53-0.77-1.39-0.19-1.5c0.35-0.07,1.02,0.3,1.39,0.41c0.21,0.06,0.16-0.24,0.01-0.3
						c-0.64-0.25-1.86-1.04-2.12,0.04c-0.07,0.29,0,0.64,0.15,1c-0.32-0.12-0.64-0.2-0.94-0.17c-0.3,0.03-0.56,0.04-0.66,0.39
						c-0.06,0.19,0.03,0.28,0.04,0.42c0.02,0.22,0.24,0.29,0.3,0.31c-0.03-0.01-0.13-0.02-0.34-0.03c-0.45-0.02-1.68-0.32-1.97,0.24
						c-0.12,0.23,0.15,0.55,0.11,0.64c-0.02,0.04-0.9,0.34-1.05,0.43c-0.07,0.04-0.02,0.29-0.06,0.31c-0.13,0.08-1.04-0.01-1.3,0.01
						c-0.72,0.06-2.49-0.21-2.26,0.89c0.02,0.12,0.12,0.1,0.14,0.3c0.02,0.16,0.04,0.23,0.05,0.27c-0.03,0-0.08,0.02-0.17,0.15
						c-0.06,0.08-0.31,0.06-0.4,0.17c-0.34,0.43,0.18,0.57-0.24,0.84c-0.6,0.37-1.84-0.38-2.44,0.04c-0.54,0.37,0.16,1.44-0.79,1.46
						c-0.21,0-0.09,0.31,0.07,0.33c0.89,0.08,0.79-0.09,0.97-0.82c0.28-1.19,2.05-0.37,3.04-0.64c0.11-0.03,0.12-0.17,0.07-0.26
						c-0.26-0.42,0.04-0.65,0.44-0.84c0.11-0.05,0.13-0.16,0.07-0.26c-0.11-0.19-0.48-0.79-0.25-1.06c0.05-0.06,0.93-0.12,1.06-0.12
						c0.77-0.04,1.54-0.08,2.31-0.04c0.11,0.01,0.19-0.12,0.15-0.22c-0.11-0.25,0.89-0.41,1.11-0.46c0.09-0.02,0.13-0.13,0.1-0.21
						c-0.48-1.19,1.28-0.75,2.01-0.63c0.14,0.02,0.24-0.09,0.2-0.22c-0.11-0.4-1-0.8,0.05-0.95c0.21-0.03,0.49,0.06,0.8,0.19
						c0.48,0.82,1.29,1.6,1.83,1.89C177.29,378.29,177.99,378.05,177.46,377.24z M177.13,377.45c0.22,0.29-0.47,0.06-0.55,0.02
						c-0.41-0.18-0.68-0.63-0.92-0.98c0.21,0.12,0.4,0.22,0.54,0.29C176.58,376.96,176.88,377.11,177.13,377.45z"/>
					<path id="XMLID_00000096780085231740532380000010743954874945457035_" d="M159.57,384.77c-0.13-0.52-0.15-1.08,0.33-1.14
						c0.23-0.03,0.07-0.34-0.11-0.35c-0.65-0.02-0.85,0.54-0.77,1.22c-0.3-0.13-0.58-0.23-0.8-0.27c-0.42-0.08-0.69-0.09-0.83,0.34
						c-0.08,0.26,0.12,0.42,0.11,0.65c-0.02,0.34,0.32,0.2-0.19,0.33c-0.13,0.03-0.44-0.06-0.59-0.06
						c-0.51-0.02-0.56,0.01-0.87,0.27c-0.32,0.27,0.47,0.4-0.46,0.25c-0.24-0.04-0.48-0.16-0.73-0.1c-0.34,0.08-0.52,0.18-0.47,0.56
						c0.03,0.17,0.39,0.4,0.39,0.51c-0.02,0.82-0.89,0.12-1.23,0c-0.09-0.03-0.21,0.02-0.21,0.13c-0.01,0.41,0.27,0.55-0.32,0.59
						c-0.07,0-0.48-0.22-0.61-0.23c-0.38-0.01-0.73,0.5-1.23,0.45c-0.14-0.01-0.18,0.11-0.14,0.22c0.14,0.37,0.34,0.6-0.41,0.92
						c-0.02,0.01-0.88-0.11-0.86-0.11c-0.21-0.01-0.08,0.35,0.09,0.36c0.34,0.03,1.5,0.51,1.84,0.05c0.25-0.34-0.24-0.73-0.12-0.95
						c-0.08,0.14,0.66-0.2,0.74-0.23c0.12-0.04,0.42-0.17,0.58-0.16c0.1,0.01,0.19,0.17,0.3,0.17c0.14,0,0.3,0.07,0.43-0.01
						c0.1-0.06,0.16-0.24,0.21-0.28c0.13-0.09-0.17-0.19,0.09-0.28c0.19-0.06,0.35,0.12,0.53,0.18c0.28,0.09,0.7,0.3,0.94-0.01
						c0.31-0.39-0.26-0.66-0.21-0.92c0.12-0.59,0.96-0.14,1.34-0.4c0.06-0.04,0.07-0.11,0.05-0.18c-0.24-0.81,1.23-0.18,1.69-0.26
						c0.08-0.02,0.17-0.07,0.16-0.17c-0.01-0.07-0.18-0.5-0.18-0.51c0.12-0.49,0.78-0.43,1.09-0.35c0.3,0.98,1.08,1.98,1.93,1.71
						c0.06-0.02,0.11-0.08,0.11-0.15C161.13,385.9,160.37,385.23,159.57,384.77z M159.88,385.58c-0.03-0.05-0.07-0.13-0.11-0.23
						c0.29,0.21,0.55,0.46,0.6,0.59C160.53,386.43,159.96,385.72,159.88,385.58z"/>
				</g>
				<g id="XMLID_00000122681292545507403540000012490440637719388326_">
					<path id="XMLID_00000064344979686146775940000000358173095846952629_" d="M172.57,390.05c-0.33-0.5-0.94-0.7-1.46-0.94
						c-0.21-0.1-0.45-0.23-0.71-0.36c-0.33-0.53-0.77-1.39-0.19-1.5c0.35-0.07,1.02,0.3,1.39,0.41c0.21,0.06,0.16-0.24,0.01-0.3
						c-0.64-0.25-1.86-1.04-2.12,0.04c-0.07,0.29,0,0.64,0.15,1c-0.32-0.12-0.64-0.2-0.94-0.17c-0.3,0.03-0.56,0.04-0.66,0.39
						c-0.06,0.19,0.03,0.28,0.04,0.42c0.02,0.22,0.24,0.29,0.3,0.31c-0.03-0.01-0.13-0.02-0.34-0.03c-0.45-0.02-1.68-0.32-1.97,0.24
						c-0.12,0.23,0.15,0.55,0.11,0.64c-0.02,0.04-0.9,0.34-1.05,0.43c-0.07,0.04-0.02,0.29-0.06,0.31c-0.13,0.08-1.04-0.01-1.3,0.01
						c-0.72,0.06-2.49-0.21-2.26,0.9c0.03,0.12,0.12,0.1,0.14,0.3c0.02,0.16,0.04,0.23,0.05,0.27c-0.03,0-0.08,0.02-0.17,0.15
						c-0.06,0.08-0.31,0.06-0.4,0.17c-0.34,0.43,0.18,0.57-0.24,0.84c-0.6,0.37-1.84-0.38-2.44,0.04c-0.54,0.37,0.16,1.44-0.79,1.46
						c-0.21,0-0.09,0.32,0.07,0.33c0.89,0.08,0.79-0.09,0.96-0.82c0.28-1.19,2.05-0.37,3.04-0.64c0.12-0.03,0.13-0.17,0.07-0.26
						c-0.26-0.42,0.04-0.65,0.44-0.84c0.11-0.05,0.13-0.15,0.07-0.26c-0.11-0.19-0.48-0.79-0.25-1.06c0.05-0.06,0.93-0.12,1.06-0.12
						c0.77-0.04,1.54-0.08,2.31-0.04c0.11,0.01,0.19-0.12,0.15-0.22c-0.11-0.25,0.89-0.41,1.11-0.46c0.09-0.02,0.13-0.14,0.09-0.21
						c-0.48-1.19,1.28-0.75,2.01-0.63c0.14,0.02,0.24-0.09,0.2-0.22c-0.11-0.4-1-0.8,0.05-0.95c0.21-0.03,0.49,0.06,0.8,0.19
						c0.48,0.82,1.29,1.6,1.83,1.89C172.4,391.1,173.1,390.86,172.57,390.05z M172.24,390.27c0.22,0.29-0.47,0.06-0.55,0.02
						c-0.41-0.18-0.67-0.62-0.92-0.98c0.21,0.12,0.41,0.22,0.54,0.29C171.69,389.77,171.99,389.93,172.24,390.27z"/>
					<path id="XMLID_00000059306948651897756290000006089830729083700867_" d="M183.56,380.97c-0.13-0.52-0.15-1.08,0.33-1.14
						c0.23-0.03,0.07-0.34-0.11-0.35c-0.65-0.02-0.85,0.54-0.77,1.22c-0.3-0.13-0.58-0.23-0.8-0.27c-0.42-0.08-0.69-0.09-0.83,0.34
						c-0.08,0.26,0.12,0.42,0.11,0.65c-0.02,0.34,0.32,0.2-0.19,0.33c-0.13,0.03-0.44-0.05-0.59-0.06
						c-0.51-0.02-0.56,0.01-0.87,0.27c-0.32,0.27,0.47,0.4-0.46,0.25c-0.24-0.04-0.48-0.16-0.73-0.1c-0.34,0.08-0.52,0.18-0.47,0.56
						c0.03,0.17,0.39,0.4,0.39,0.51c-0.02,0.82-0.89,0.13-1.23,0c-0.09-0.03-0.21,0.02-0.21,0.13c-0.02,0.41,0.27,0.55-0.32,0.59
						c-0.07,0-0.48-0.22-0.61-0.23c-0.38-0.01-0.73,0.5-1.23,0.45c-0.14-0.01-0.18,0.11-0.14,0.22c0.14,0.37,0.34,0.6-0.41,0.92
						c-0.02,0.01-0.88-0.11-0.86-0.11c-0.22-0.01-0.08,0.35,0.09,0.36c0.34,0.03,1.5,0.51,1.84,0.05c0.25-0.34-0.24-0.73-0.12-0.95
						c-0.08,0.14,0.66-0.2,0.74-0.23c0.12-0.04,0.42-0.17,0.58-0.16c0.1,0,0.19,0.17,0.3,0.17c0.14,0,0.3,0.07,0.43-0.01
						c0.1-0.06,0.16-0.24,0.21-0.28c0.13-0.09-0.17-0.19,0.09-0.28c0.19-0.06,0.35,0.13,0.52,0.18c0.28,0.09,0.7,0.29,0.94-0.01
						c0.31-0.39-0.26-0.66-0.21-0.92c0.12-0.59,0.96-0.14,1.34-0.4c0.06-0.04,0.07-0.12,0.05-0.18c-0.24-0.81,1.23-0.18,1.69-0.26
						c0.08-0.02,0.17-0.07,0.16-0.17c-0.01-0.08-0.18-0.5-0.18-0.51c0.12-0.49,0.78-0.43,1.09-0.35c0.3,0.99,1.08,1.98,1.93,1.71
						c0.06-0.02,0.11-0.08,0.11-0.15C185.11,382.1,184.35,381.42,183.56,380.97z M183.86,381.78c-0.03-0.05-0.07-0.13-0.11-0.23
						c0.29,0.21,0.55,0.46,0.6,0.59C184.52,382.63,183.94,381.91,183.86,381.78z"/>
				</g>
				<g id="XMLID_00000011015329832923115570000009806976808522624658_">
					<path id="XMLID_00000070084363949610465840000012067942383202664885_" d="M151.04,362.64c-0.33-0.5-0.94-0.7-1.46-0.94
						c-0.21-0.1-0.45-0.23-0.71-0.36c-0.33-0.53-0.77-1.39-0.19-1.5c0.35-0.07,1.02,0.3,1.39,0.41c0.21,0.06,0.16-0.24,0.01-0.3
						c-0.64-0.25-1.86-1.04-2.12,0.04c-0.07,0.29,0,0.64,0.15,1c-0.32-0.12-0.64-0.2-0.94-0.17c-0.3,0.03-0.56,0.04-0.66,0.39
						c-0.06,0.19,0.03,0.28,0.04,0.42c0.02,0.22,0.24,0.29,0.3,0.31c-0.03-0.01-0.13-0.02-0.34-0.03c-0.45-0.02-1.68-0.32-1.97,0.24
						c-0.12,0.23,0.15,0.55,0.11,0.64c-0.02,0.04-0.9,0.34-1.05,0.43c-0.07,0.04-0.02,0.29-0.06,0.31c-0.13,0.08-1.04-0.01-1.3,0.01
						c-0.72,0.06-2.49-0.21-2.26,0.89c0.03,0.12,0.12,0.1,0.14,0.3c0.02,0.16,0.04,0.23,0.05,0.27c-0.03,0-0.08,0.02-0.17,0.15
						c-0.06,0.08-0.31,0.06-0.4,0.17c-0.34,0.43,0.18,0.57-0.24,0.84c-0.6,0.37-1.84-0.38-2.44,0.04c-0.54,0.37,0.16,1.44-0.79,1.46
						c-0.21,0-0.09,0.31,0.07,0.33c0.89,0.08,0.79-0.09,0.96-0.82c0.28-1.19,2.05-0.37,3.04-0.64c0.11-0.03,0.13-0.17,0.07-0.26
						c-0.26-0.42,0.04-0.65,0.44-0.84c0.11-0.05,0.13-0.15,0.07-0.26c-0.11-0.19-0.48-0.79-0.25-1.06c0.05-0.06,0.93-0.12,1.05-0.12
						c0.77-0.04,1.54-0.08,2.31-0.04c0.11,0.01,0.19-0.12,0.15-0.22c-0.11-0.25,0.89-0.41,1.11-0.46c0.09-0.02,0.13-0.13,0.09-0.21
						c-0.48-1.19,1.28-0.75,2.01-0.63c0.14,0.02,0.24-0.09,0.2-0.22c-0.11-0.4-1-0.8,0.05-0.95c0.21-0.03,0.49,0.06,0.8,0.19
						c0.48,0.82,1.29,1.6,1.83,1.89C150.87,363.69,151.58,363.45,151.04,362.64z M150.72,362.85c0.22,0.29-0.47,0.06-0.55,0.02
						c-0.41-0.18-0.67-0.63-0.92-0.98c0.21,0.12,0.4,0.22,0.54,0.29C150.17,362.36,150.46,362.51,150.72,362.85z"/>
					<path id="XMLID_00000180351450846844275160000013555175860354720686_" d="M133.16,370.17c-0.13-0.52-0.15-1.08,0.33-1.14
						c0.23-0.03,0.07-0.34-0.11-0.35c-0.65-0.02-0.85,0.54-0.77,1.22c-0.3-0.13-0.58-0.23-0.8-0.27c-0.42-0.08-0.69-0.09-0.83,0.34
						c-0.08,0.26,0.12,0.42,0.11,0.65c-0.02,0.34,0.32,0.2-0.19,0.33c-0.13,0.03-0.44-0.06-0.59-0.06
						c-0.51-0.02-0.56,0.01-0.87,0.27c-0.32,0.27,0.47,0.4-0.46,0.25c-0.24-0.04-0.48-0.16-0.73-0.1c-0.34,0.08-0.52,0.18-0.47,0.56
						c0.03,0.17,0.39,0.4,0.39,0.51c-0.02,0.82-0.89,0.13-1.23,0c-0.09-0.03-0.21,0.02-0.21,0.13c-0.02,0.41,0.27,0.55-0.32,0.59
						c-0.07,0-0.48-0.22-0.61-0.23c-0.38-0.01-0.73,0.5-1.22,0.45c-0.14-0.01-0.18,0.11-0.14,0.22c0.14,0.37,0.34,0.6-0.41,0.92
						c-0.02,0.01-0.88-0.11-0.86-0.11c-0.21-0.01-0.08,0.35,0.09,0.36c0.34,0.03,1.5,0.51,1.84,0.05c0.25-0.34-0.24-0.73-0.12-0.95
						c-0.08,0.14,0.66-0.2,0.74-0.23c0.12-0.04,0.42-0.17,0.58-0.16c0.1,0.01,0.19,0.17,0.3,0.17c0.14,0,0.3,0.07,0.43-0.01
						c0.1-0.06,0.16-0.24,0.21-0.28c0.13-0.09-0.17-0.19,0.09-0.28c0.19-0.06,0.35,0.13,0.53,0.18c0.28,0.09,0.7,0.29,0.94-0.01
						c0.31-0.39-0.26-0.66-0.21-0.92c0.12-0.59,0.96-0.14,1.34-0.4c0.06-0.04,0.07-0.12,0.05-0.18c-0.24-0.81,1.23-0.18,1.69-0.26
						c0.08-0.02,0.17-0.07,0.16-0.17c-0.01-0.07-0.18-0.5-0.18-0.51c0.12-0.49,0.78-0.43,1.09-0.35c0.3,0.98,1.08,1.98,1.93,1.71
						c0.06-0.02,0.11-0.08,0.11-0.15C134.71,371.3,133.95,370.63,133.16,370.17z M133.47,370.98c-0.03-0.05-0.07-0.13-0.11-0.23
						c0.29,0.21,0.55,0.46,0.6,0.59C134.12,371.83,133.55,371.12,133.47,370.98z"/>
				</g>
				<g id="XMLID_00000171688476864582163940000006175749738787973040_">
					<path id="XMLID_00000115475593312402680760000004946724462920815495_" d="M146.15,375.45c-0.33-0.5-0.94-0.7-1.46-0.94
						c-0.21-0.1-0.45-0.23-0.71-0.36c-0.33-0.53-0.77-1.39-0.19-1.5c0.35-0.07,1.02,0.3,1.39,0.41c0.21,0.06,0.16-0.24,0.01-0.3
						c-0.64-0.25-1.86-1.04-2.12,0.04c-0.07,0.29,0,0.64,0.15,1c-0.32-0.12-0.64-0.2-0.94-0.17c-0.3,0.03-0.56,0.04-0.66,0.39
						c-0.06,0.19,0.03,0.28,0.04,0.42c0.02,0.22,0.24,0.29,0.3,0.31c-0.03-0.01-0.13-0.02-0.34-0.03c-0.45-0.02-1.68-0.32-1.97,0.24
						c-0.12,0.23,0.15,0.55,0.11,0.64c-0.02,0.04-0.9,0.34-1.05,0.43c-0.07,0.04-0.02,0.29-0.06,0.31c-0.13,0.08-1.04-0.01-1.3,0.01
						c-0.72,0.06-2.49-0.21-2.26,0.9c0.02,0.12,0.12,0.1,0.14,0.3c0.02,0.16,0.04,0.23,0.05,0.27c-0.03,0-0.08,0.02-0.17,0.15
						c-0.06,0.08-0.31,0.06-0.4,0.17c-0.34,0.43,0.18,0.57-0.24,0.84c-0.6,0.37-1.84-0.38-2.45,0.04c-0.54,0.37,0.16,1.44-0.79,1.46
						c-0.21,0-0.09,0.31,0.07,0.33c0.89,0.08,0.79-0.09,0.96-0.82c0.28-1.19,2.05-0.37,3.04-0.64c0.11-0.03,0.13-0.17,0.07-0.26
						c-0.26-0.42,0.04-0.65,0.44-0.84c0.11-0.05,0.13-0.16,0.07-0.26c-0.11-0.19-0.48-0.79-0.25-1.06c0.05-0.06,0.93-0.12,1.06-0.12
						c0.77-0.04,1.54-0.08,2.31-0.04c0.11,0.01,0.19-0.12,0.15-0.22c-0.11-0.25,0.89-0.41,1.11-0.46c0.09-0.02,0.13-0.14,0.1-0.21
						c-0.48-1.19,1.28-0.75,2.01-0.64c0.14,0.02,0.24-0.09,0.2-0.22c-0.12-0.4-1-0.8,0.05-0.95c0.21-0.03,0.49,0.06,0.8,0.19
						c0.48,0.82,1.29,1.6,1.83,1.89C145.98,376.5,146.69,376.26,146.15,375.45z M145.83,375.67c0.22,0.29-0.47,0.06-0.55,0.02
						c-0.41-0.18-0.68-0.63-0.92-0.98c0.21,0.12,0.4,0.22,0.54,0.29C145.28,375.17,145.57,375.33,145.83,375.67z"/>
					<path id="XMLID_00000091719008643863009480000010625610369731826338_" d="M157.14,366.37c-0.13-0.52-0.15-1.08,0.33-1.14
						c0.23-0.03,0.07-0.34-0.11-0.35c-0.65-0.02-0.85,0.54-0.77,1.22c-0.3-0.13-0.58-0.23-0.8-0.27c-0.42-0.08-0.69-0.09-0.83,0.34
						c-0.08,0.26,0.12,0.42,0.11,0.65c-0.02,0.34,0.32,0.2-0.19,0.33c-0.13,0.03-0.44-0.05-0.59-0.06
						c-0.51-0.02-0.56,0.01-0.87,0.27c-0.32,0.27,0.47,0.39-0.46,0.25c-0.24-0.04-0.48-0.16-0.73-0.1
						c-0.34,0.08-0.52,0.18-0.47,0.56c0.02,0.17,0.39,0.4,0.39,0.51c-0.02,0.82-0.89,0.13-1.23,0c-0.09-0.03-0.21,0.02-0.21,0.13
						c-0.02,0.41,0.27,0.55-0.32,0.59c-0.07,0-0.48-0.22-0.61-0.23c-0.38-0.01-0.73,0.5-1.23,0.45c-0.14-0.01-0.18,0.11-0.14,0.22
						c0.14,0.37,0.34,0.6-0.41,0.92c-0.02,0.01-0.88-0.11-0.86-0.11c-0.21-0.01-0.08,0.35,0.09,0.36c0.34,0.03,1.5,0.51,1.84,0.05
						c0.25-0.34-0.24-0.73-0.12-0.95c-0.08,0.14,0.66-0.2,0.74-0.23c0.12-0.04,0.42-0.17,0.58-0.16c0.1,0.01,0.19,0.17,0.3,0.17
						c0.14,0,0.3,0.07,0.43-0.01c0.1-0.06,0.16-0.24,0.21-0.28c0.13-0.09-0.17-0.19,0.09-0.28c0.19-0.06,0.35,0.12,0.53,0.18
						c0.28,0.09,0.7,0.29,0.94-0.01c0.31-0.39-0.26-0.66-0.21-0.92c0.12-0.59,0.96-0.14,1.34-0.4c0.06-0.04,0.07-0.11,0.05-0.18
						c-0.24-0.81,1.23-0.18,1.69-0.26c0.08-0.02,0.17-0.07,0.16-0.17c-0.01-0.07-0.18-0.5-0.18-0.51c0.12-0.49,0.78-0.43,1.09-0.35
						c0.3,0.98,1.08,1.98,1.93,1.71c0.06-0.02,0.11-0.08,0.11-0.15C158.7,367.5,157.94,366.83,157.14,366.37z M157.45,367.18
						c-0.03-0.05-0.07-0.13-0.11-0.23c0.29,0.21,0.55,0.46,0.6,0.59C158.1,368.03,157.53,367.31,157.45,367.18z"/>
				</g>
				<g id="XMLID_00000146494846804585622300000013120206459514921350_">
					<path id="XMLID_00000137122459923288363640000010040380026609021612_" d="M148.87,384.27c-0.33-0.5-0.94-0.7-1.46-0.94
						c-0.21-0.1-0.45-0.23-0.71-0.36c-0.33-0.53-0.77-1.39-0.19-1.5c0.35-0.07,1.02,0.3,1.39,0.41c0.21,0.06,0.16-0.24,0.01-0.3
						c-0.64-0.25-1.86-1.04-2.12,0.04c-0.07,0.29,0,0.64,0.15,1c-0.32-0.12-0.64-0.2-0.94-0.17c-0.3,0.03-0.56,0.04-0.66,0.39
						c-0.06,0.19,0.02,0.28,0.04,0.42c0.02,0.22,0.24,0.29,0.3,0.31c-0.04-0.01-0.13-0.02-0.34-0.03c-0.45-0.02-1.68-0.32-1.97,0.24
						c-0.12,0.23,0.15,0.55,0.11,0.64c-0.02,0.04-0.9,0.34-1.05,0.43c-0.07,0.04-0.02,0.29-0.06,0.31c-0.13,0.08-1.04-0.01-1.3,0.01
						c-0.72,0.06-2.49-0.21-2.26,0.89c0.03,0.12,0.12,0.1,0.14,0.3c0.02,0.16,0.04,0.23,0.05,0.27c-0.03,0-0.08,0.02-0.17,0.15
						c-0.06,0.08-0.31,0.06-0.4,0.17c-0.34,0.43,0.18,0.57-0.24,0.84c-0.6,0.37-1.84-0.38-2.44,0.03c-0.54,0.37,0.16,1.44-0.79,1.46
						c-0.21,0-0.09,0.31,0.07,0.33c0.89,0.08,0.79-0.09,0.96-0.82c0.28-1.19,2.05-0.37,3.04-0.64c0.12-0.03,0.13-0.17,0.07-0.26
						c-0.26-0.42,0.04-0.65,0.44-0.84c0.11-0.05,0.13-0.15,0.07-0.26c-0.11-0.19-0.48-0.79-0.25-1.06c0.05-0.06,0.93-0.12,1.05-0.12
						c0.77-0.04,1.54-0.08,2.31-0.04c0.11,0.01,0.19-0.12,0.15-0.22c-0.11-0.25,0.89-0.41,1.11-0.46c0.09-0.02,0.13-0.13,0.09-0.21
						c-0.48-1.19,1.28-0.75,2.01-0.64c0.14,0.02,0.24-0.09,0.2-0.22c-0.11-0.4-1-0.8,0.05-0.95c0.21-0.03,0.49,0.06,0.8,0.19
						c0.48,0.82,1.29,1.6,1.83,1.88C148.7,385.32,149.4,385.08,148.87,384.27z M148.54,384.48c0.22,0.29-0.47,0.06-0.55,0.02
						c-0.41-0.18-0.67-0.63-0.92-0.98c0.21,0.12,0.4,0.22,0.54,0.29C147.99,383.99,148.29,384.14,148.54,384.48z"/>
					<path id="XMLID_00000151513503236281731780000002759892014128437426_" d="M157.57,375.99c-0.13-0.52-0.15-1.08,0.33-1.14
						c0.23-0.03,0.07-0.34-0.11-0.35c-0.65-0.02-0.85,0.54-0.77,1.22c-0.3-0.13-0.58-0.23-0.8-0.27c-0.42-0.08-0.69-0.09-0.83,0.34
						c-0.08,0.26,0.12,0.42,0.11,0.65c-0.02,0.34,0.32,0.2-0.19,0.33c-0.13,0.03-0.44-0.06-0.59-0.06
						c-0.51-0.02-0.56,0.01-0.87,0.27c-0.32,0.27,0.47,0.4-0.46,0.25c-0.24-0.04-0.48-0.16-0.73-0.1c-0.34,0.08-0.52,0.18-0.47,0.56
						c0.02,0.17,0.39,0.4,0.39,0.51c-0.02,0.82-0.89,0.13-1.23,0c-0.09-0.03-0.21,0.02-0.21,0.13c-0.02,0.41,0.27,0.55-0.32,0.59
						c-0.07,0-0.48-0.22-0.61-0.23c-0.38-0.01-0.73,0.5-1.22,0.45c-0.14-0.01-0.18,0.11-0.14,0.22c0.14,0.37,0.34,0.6-0.41,0.92
						c-0.02,0.01-0.88-0.11-0.88-0.11c-0.2,0-0.06,0.35,0.11,0.36c0.34,0.02,1.5,0.51,1.84,0.05c0.25-0.34-0.24-0.73-0.12-0.95
						c-0.08,0.14,0.66-0.2,0.74-0.23c0.12-0.04,0.42-0.17,0.58-0.16c0.1,0.01,0.19,0.17,0.3,0.17c0.14,0,0.3,0.07,0.43-0.01
						c0.1-0.06,0.16-0.24,0.21-0.28c0.13-0.09-0.17-0.19,0.09-0.28c0.19-0.06,0.35,0.13,0.53,0.18c0.28,0.09,0.7,0.29,0.94-0.01
						c0.31-0.39-0.26-0.66-0.21-0.92c0.12-0.59,0.96-0.14,1.34-0.4c0.06-0.04,0.07-0.11,0.05-0.18c-0.24-0.81,1.23-0.18,1.69-0.26
						c0.08-0.02,0.17-0.07,0.16-0.17c-0.01-0.08-0.18-0.5-0.18-0.51c0.12-0.49,0.78-0.43,1.09-0.35c0.3,0.98,1.08,1.98,1.93,1.71
						c0.06-0.02,0.11-0.08,0.11-0.15C159.13,377.12,158.37,376.45,157.57,375.99z M157.88,376.8c-0.03-0.05-0.07-0.13-0.11-0.23
						c0.29,0.21,0.55,0.46,0.6,0.59C158.53,377.65,157.96,376.94,157.88,376.8z"/>
					<path id="XMLID_00000057870365323973675750000004685611850773776006_" d="M167.54,369.28c0.01-0.07,0.01-0.13-0.01-0.2
						c-0.14-0.5-0.72-0.13-0.82,0.18c-0.08,0.26,0.12,0.42,0.11,0.65c-0.02,0.34,0.32,0.2-0.19,0.33c-0.13,0.03-0.44-0.06-0.59-0.06
						c-0.51-0.02-0.56,0.01-0.87,0.27c-0.32,0.27,0.47,0.4-0.46,0.25c-0.24-0.04-0.48-0.16-0.73-0.1c-0.34,0.08-0.52,0.18-0.47,0.56
						c0.03,0.17,0.39,0.4,0.39,0.51c-0.02,0.82-0.89,0.13-1.23,0c-0.09-0.03-0.21,0.02-0.21,0.13c-0.02,0.41,0.27,0.55-0.32,0.59
						c-0.07,0-0.48-0.22-0.61-0.23c-0.38-0.01-0.73,0.5-1.23,0.45c-0.14-0.01-0.18,0.11-0.14,0.22c0.14,0.37,0.34,0.6-0.41,0.92
						c-0.02,0.01-0.88-0.11-0.88-0.11c-0.2,0-0.06,0.35,0.11,0.36c0.34,0.03,1.5,0.51,1.84,0.05c0.25-0.34-0.24-0.73-0.12-0.95
						c-0.08,0.14,0.66-0.2,0.74-0.23c0.12-0.04,0.42-0.17,0.58-0.16c0.1,0.01,0.19,0.17,0.3,0.17c0.14,0,0.3,0.07,0.43-0.01
						c0.1-0.06,0.16-0.24,0.21-0.28c0.13-0.09-0.17-0.19,0.09-0.28c0.19-0.06,0.35,0.13,0.52,0.18c0.28,0.09,0.7,0.29,0.94-0.01
						c0.31-0.39-0.26-0.66-0.21-0.92c0.12-0.59,0.96-0.14,1.34-0.4c0.06-0.04,0.07-0.11,0.05-0.18c-0.24-0.81,1.23-0.18,1.69-0.26
						c0.08-0.02,0.17-0.07,0.16-0.17c-0.05-0.38-0.17-0.64-0.07-1.04C167.51,369.44,167.53,369.36,167.54,369.28z"/>
				</g>
			</g>
		</g>
	</g>
</g>
<g id="Pencil">
	<g id="Pencil_00000040559532524167899470000001959456400257600430_">
		<path id="Shadow_00000163779011364541479820000013500415845997019029_" class="st15" d="M186.58,434.86
			c0.78,2.12,3.04,3.43,6.8,3.93l53.63-31.4l6.97-7.06c0.4-0.4-0.02-1.07-0.56-0.89l-12.84,4.25L186.58,434.86z"/>
		<g id="XMLID_00000130636714356857728370000010852759020181721985_">
			<g id="XMLID_00000095326548977411142880000011854109391481309577_">
				<path id="XMLID_00000043455121146496455690000006933057965304579968_" class="st21" d="M241.09,398.89l11.43-2.24
					c0.33-0.06,0.56,0.33,0.33,0.58l-7.75,8.78L241.09,398.89z"/>
				<path id="XMLID_00000056398837053608070910000005211980834672838053_" class="st6" d="M252.85,397.24
					c0.22-0.25,0-0.65-0.33-0.58l-2.23,0.44l0,0c0.62,0.39,0.98,1.09,0.92,1.82l-0.02,0.2L252.85,397.24z"/>
				<path id="XMLID_00000083085571661799600770000017774366335544933248_" class="st7" d="M202.49,430.45l0.93-0.54l1.13-0.64
					l40.54-23.25c0.42-1.24,0.22-2.6-0.32-3.79c-0.81-1.81-2.38-3.24-3.69-3.33l-40.52,23.24l-2.16,1.24
					C199.86,422.65,203.93,429.7,202.49,430.45z"/>
				<path id="XMLID_00000133513959021523411060000012063824208862570166_" class="st17" d="M206.06,428.42l2.09-1.2
					c0.62-0.33,0.26-1.84-0.46-3.41c-0.95-2.08-2.83-4.09-3.64-3.66l-1.54,0.88l-0.54,0.33c0.82-0.43,2.69,1.58,3.65,3.66
					c0.69,1.5,1.04,2.96,0.52,3.36l-0.01,0C206.1,428.4,206.08,428.41,206.06,428.42z"/>
				<path id="XMLID_00000121967726110197484040000018274131365073273985_" class="st7" d="M206.57,428.12
					c1.43-0.76-2.67-7.82-4.1-7.06l-2.09,1.2c1.43-0.76,5.53,6.3,4.1,7.06L206.57,428.12z"/>
				<path id="XMLID_00000084500880746845790950000001987329666725027987_" class="st17" d="M202.49,430.45l2.06-1.18
					c1.41-0.74-2.49-7.58-3.98-7.13c-0.03,0-0.06,0.02-0.09,0.03l-2.07,1.2C199.86,422.65,203.93,429.7,202.49,430.45z"/>
				<path id="XMLID_00000089559978309925276100000014768481424504541367_" class="st22" d="M252.9,396.85l-0.39-0.2l-8.29,4.53
					l-42.87,24.6c-0.08-0.13-0.15-0.14-0.2-0.05c1.22,1.9,2.14,4.29,1.34,4.71l0.93-0.54l1.13-0.64l40.54-23.25l0,0l7.75-8.78
					C252.95,397.12,252.96,396.97,252.9,396.85z"/>
				<path id="XMLID_00000160876909484661021180000007164128676798089149_" class="st23" d="M193.73,435.46l8.76-5.01
					c0.61-0.32,0.27-1.82-0.43-3.37c-0.95-2.08-2.81-4.12-3.64-3.7c0,0,0,0-0.01,0l-8.79,5.03c-1.74,1.01-0.14,4.8,1.81,6.49
					C192.15,435.54,192.96,435.82,193.73,435.46z"/>
			</g>
			<path id="XMLID_00000100378893543418330110000006666995073582239906_" class="st8" d="M194.26,432.74
				c-0.5-1.97-2.1-3.91-3.57-4.32c-0.54-0.15-0.99-0.08-1.31,0.18c-1.32,1.22,0.22,4.7,2.06,6.3c0.71,0.63,1.5,0.91,2.26,0.58
				C194.34,435.09,194.6,434.08,194.26,432.74z"/>
		</g>
	</g>
</g>
</svg>
