<?xml version="1.0" encoding="utf-8"?>
<!-- Generator: Adobe Illustrator 25.2.1, SVG Export Plug-In . SVG Version: 6.00 Build 0)  -->
<svg version="1.1" xmlns="http://www.w3.org/2000/svg" xmlns:xlink="http://www.w3.org/1999/xlink" x="0px" y="0px"
	 viewBox="0 0 500 500" style="enable-background:new 0 0 500 500;" xml:space="preserve">
<style type="text/css">
	.st0{fill:#F5F5F5;}
	.st1{fill:#EBEBEB;}
	.st2{display:none;}
	.st3{display:inline;}
	.st4{fill:#407BFF;}
	.st5{opacity:0.9;fill:#FFFFFF;}
	.st6{fill:#263238;}
	.st7{opacity:0.7;}
	.st8{fill:#FFFFFF;}
	.st9{opacity:0.2;fill:#FFFFFF;}
	.st10{opacity:0.2;enable-background:new    ;}
	.st11{fill:#EBB376;}
	.st12{fill:#E9B376;}
	.st13{opacity:0.7;fill:#FFFFFF;}
	.st14{opacity:0.1;enable-background:new    ;}
	.st15{fill:#D58745;}
</style>
<g id="Background_Complete">
	<g>
		<g>
			<path class="st0" d="M196.17,414.93c-3.87,0-7.38-1.5-9.9-4.25c-7.02-7.62-2.44-19.09,2.96-29.3
				c4.75-8.98,12.32-20.77,23.14-36.03c19.7-27.8,47.18-62.9,73.76-96.84c20.93-26.73,40.76-52.04,56.43-73.27
				c-0.43,0.47-0.87,0.95-1.31,1.43c-20.7,22.68-45.62,51.56-72.01,82.14c-29.26,33.91-59.52,68.96-83.72,95.07
				c-40.6,43.8-49.48,46.53-56.88,45.56c-4.14-0.55-7.56-3.02-9.38-6.79c-6.88-14.24,10.07-39.72,106.67-160.39
				c24.9-31.11,50.65-63.27,69.79-88.92c7.13-9.56,12.66-17.31,16.93-23.59c-4.86,4.82-10.71,10.86-17.74,18.44
				c-20.47,22.06-45.82,51.49-70.33,79.95c-27.46,31.89-55.86,64.86-78.76,89.11c-35.19,37.27-46.94,43.24-56.33,41.2
				c-4.93-1.07-8.62-4.61-10.12-9.72c-2.87-9.8,1.29-24.18,30.92-62.55c19.6-25.38,46.31-56.02,72.14-85.65
				c22.42-25.72,43.6-50.02,59.73-70.3c11.31-14.22,17.65-23.44,21.2-29.36c-6.19,4.14-16.13,12.19-31.73,27.79
				c-20.42,20.43-43.77,46.89-66.36,72.48c-58.07,65.79-74.23,82.22-87.32,79.67c-4.42-0.86-7.98-3.99-9.54-8.38
				c-6.11-17.26,15.5-48.19,69.54-115.52c7.68-9.57,16.23-20.21,23.38-29.52c-2.24,1.75-4.66,3.7-7.25,5.85
				c-13.03,10.79-26.41,23.45-31.12,29.44c-3.41,4.34-9.7,5.09-14.04,1.68c-4.34-3.41-5.09-9.7-1.68-14.04
				c6.18-7.86,21.94-22.69,37.47-35.25c30.11-24.36,38.42-24.16,44.35-21.86c4.13,1.6,8.35,5.91,7.83,13.23
				c-0.65,9.09-11.76,23.67-43.33,63c-15.55,19.37-33.17,41.32-46.31,60.02c-5.4,7.69-9.34,13.85-12.21,18.75
				c2.75-2.68,5.95-5.91,9.68-9.81c13.05-13.66,28.85-31.55,45.57-50.5c23.74-26.9,48.29-54.72,69.73-75.9
				c28.77-28.42,44.8-38.2,57.17-34.89c4.9,1.31,8.53,4.76,9.96,9.45c2.6,8.52-0.9,19.84-26.48,52.49
				c-16.69,21.31-39.26,47.2-63.16,74.61c-24.82,28.47-50.49,57.91-69.55,82.36c-12.62,16.19-19.84,27.05-23.94,34.26
				c6.59-5.7,16.46-15.17,31.12-30.9c21.86-23.45,48.52-54.4,74.29-84.32c95.9-111.34,115.4-129.71,130.41-122.85
				c3.52,1.61,6.07,4.74,6.98,8.58c1.99,8.36-2.56,20.5-32.23,60.65c-19.65,26.6-46.8,60.5-73.05,93.29
				c-25.44,31.78-51.76,64.65-71.39,91.03c-6.28,8.43-11.34,15.5-15.42,21.42c5.48-5.57,12.08-12.51,20.03-21.16
				c23.26-25.33,51.77-58.36,79.33-90.3c28.02-32.47,54.49-63.14,76-86.51c35.92-39.02,43.47-41.79,50.23-41.45
				c3.65,0.19,6.93,1.98,8.99,4.93c8.5,12.16-2.94,30.23-87.44,138.12c-24.28,31-49.38,63.05-68.35,89.3
				c-10.4,14.4-17.31,24.81-21.9,32.33c5.04-4.73,11.53-11.24,19.88-20.19c18.18-19.48,40.19-45.14,61.49-69.95
				c22.41-26.11,45.58-53.12,63.88-72.42c26.62-28.07,38.35-35.56,48.27-30.81c3.62,1.73,6.13,4.88,7.06,8.85
				c3.27,13.89-14.96,39-64.03,101.96c-14.92,19.14-30.34,38.93-41.81,55.06c-5.57,7.84-9.46,13.79-12.17,18.27
				c3.77-2.91,8.63-7.04,14.83-12.92c12.9-12.23,26.95-27.48,39.35-40.94c7.98-8.66,14.86-16.13,20.25-21.51
				c3.12-3.12,5.48-5.27,7.42-6.77c7.53-5.84,12.94-3.44,15.49-1.5c10.65,8.13,4.11,24.92-9.9,49.38
				c-9.26,16.17-19.5,31.17-19.93,31.8c-3.12,4.56-9.34,5.73-13.9,2.61c-4.56-3.12-5.73-9.34-2.61-13.9
				c0.08-0.11,7.31-10.72,14.88-23.3c-38.48,41.66-61.44,64.01-77.45,64.02c-3.2,0-6.11-0.89-8.82-2.7
				c-3.03-2.02-5.04-5.2-5.65-8.95c-1.14-7.02,1.84-16.61,20.14-42.68c11.93-16.99,28.29-37.98,44.1-58.28
				c14.92-19.14,30.34-38.92,41.8-55.06c1.63-2.29,3.11-4.42,4.47-6.4c-3.47,3.5-7.46,7.66-12.06,12.61
				c-17.1,18.41-38.11,42.9-58.43,66.58c-22.31,26-45.37,52.88-64.3,72.98c-28.51,30.28-39.29,36.45-47.45,36.59
				C196.34,414.93,196.25,414.93,196.17,414.93z M137.89,386.6C137.89,386.6,137.89,386.6,137.89,386.6L137.89,386.6z M98.65,333.5
				L98.65,333.5L98.65,333.5z M87.4,256.22L87.4,256.22L87.4,256.22z"/>
		</g>
		<g>
			<path class="st1" d="M207.41,406.42c-0.85,0-1.65-0.1-2.4-0.3c-2.07-0.55-3.46-1.84-4.03-3.72
				c-3.83-12.57,30.66-53.35,87.92-119.03c49.45-56.72,105.49-121.01,100.69-137.4c-0.38-1.31-1.01-1.6-1.51-1.71
				c-3.71-0.81-14.62,5.12-45.54,37.86c-22.71,24.06-51.03,56.93-78.41,88.72c-26.64,30.94-54.2,62.92-75.73,85.74
				c-32.17,34.08-40.65,36.78-44.7,34.93c-1.16-0.53-1.94-1.5-2.25-2.82c-2.94-12.37,37.19-63.66,103.64-146.66
				c27.2-33.98,55.32-69.11,75.45-96.5c27.34-37.21,31.32-48.65,29.85-51.7c-0.12-0.26-0.25-0.35-0.52-0.39
				c-3.27-0.41-14.06,6.5-46.94,41.98c-24.06,25.96-54.25,60.94-83.44,94.77C152.41,307.88,110.81,355.2,100.29,355.2
				c-0.06,0-0.11,0-0.17,0c-1.04-0.05-1.9-0.51-2.46-1.32c-2.24-3.2-0.92-10.88,23.69-45.08c16.55-23.01,39.35-52.12,63.48-82.93
				c26.5-33.83,53.89-68.82,73.43-96.39c27.96-39.46,28.93-48.82,27.03-50.89c-0.22-0.24-0.62-0.57-1.51-0.54
				c-12.84,0.23-60.86,56.19-103.22,105.56c-22.34,26.03-45.44,52.96-63.6,72.1c-27.24,28.72-34.71,30.77-38.43,28.99
				c-1.27-0.61-2.12-1.69-2.46-3.13c-2.46-10.46,23.13-44.32,62.46-94.78c29.83-38.28,63.64-81.66,61.96-92.05
				c-0.12-0.77-0.44-1.06-0.67-1.21c-10.29-6.84-50.45,36.75-74.45,62.81c-23.61,25.63-28.95,30.93-31.75,28.78
				c-2.95-2.25-4.9-8.68,12.12-38.4c9.09-15.88,19.46-31.08,19.57-31.23c0.47-0.68,1.4-0.86,2.08-0.39c0.68,0.47,0.86,1.4,0.39,2.08
				c-0.1,0.15-10.41,15.26-19.45,31.04c-15.17,26.48-14.27,32.76-13.17,34.24c3.23-1.28,15.82-14.94,27.99-28.16
				c36.06-39.14,66.84-70.92,78.32-63.27c1.06,0.71,1.74,1.82,1.97,3.23c1.89,11.68-29.41,51.85-62.55,94.37
				c-30.11,38.63-64.23,82.41-61.91,92.25c0.13,0.57,0.38,0.9,0.83,1.12c2.07,0.99,9.37-1.37,34.96-28.35
				c18.11-19.09,41.18-45.99,63.5-71.99c46.93-54.69,91.26-106.36,105.45-106.61c1.53-0.05,2.83,0.49,3.77,1.51
				c9.12,9.9-31.81,63.71-100.31,151.17c-24.11,30.79-46.89,59.87-63.41,82.84c-24.14,33.57-24.59,40.28-23.66,41.61
				c0.09,0.05,2.04,0.95,12.3-8.2c6.67-5.95,15.57-14.95,27.19-27.51c21.67-23.42,48.84-54.91,77.61-88.24
				c72.69-84.23,121.25-139.28,133.05-137.76c1.27,0.17,2.27,0.9,2.83,2.06c5.45,11.29-36.28,64.72-105.66,151.38
				c-49.63,62-105.88,132.26-103.07,144.09c0.12,0.52,0.35,0.68,0.58,0.79c2.34,1.06,10.79-1.97,41.27-34.26
				c21.49-22.77,49.02-54.73,75.64-85.64c67.97-78.92,113.52-130.45,126.85-127.55c1.29,0.28,2.98,1.16,3.76,3.8
				c5.26,17.97-46.5,77.35-101.31,140.22c-44.7,51.28-90.93,104.3-87.31,116.18c0.18,0.6,0.57,1.33,1.94,1.7
				c16.66,4.46,71.36-57.5,115.3-107.29c43.14-48.88,70.05-78.74,79.33-76.95c1.04,0.2,2.43,0.86,3.14,2.87
				c5.52,15.58-33.62,64.34-68.15,107.36c-20.76,25.86-40.37,50.29-40.83,56.62c-0.1,1.44,0.35,1.62,0.5,1.68
				c7.52,2.9,55.97-37.39,68.63-53.5c0.51-0.65,1.46-0.77,2.11-0.25c0.65,0.51,0.76,1.46,0.25,2.11
				c-10.2,12.98-61.32,58.59-72.07,54.44c-1-0.39-2.64-1.51-2.41-4.69c0.5-6.91,16.08-26.65,41.48-58.29
				c30.65-38.18,72.62-90.47,67.66-104.48c-0.25-0.71-0.57-0.86-0.88-0.92c-2.35-0.46-9,2.93-27.28,21.69
				c-13.79,14.15-31,33.65-49.23,54.3C276.23,351.29,227.58,406.41,207.41,406.42z"/>
		</g>
	</g>
</g>
<g id="Background_Simple" class="st2">
	<g class="st3">
		<path class="st4" d="M85.54,120.64c27.92-59.45,127.06-51.06,165.32-9.26c38.26,41.81,50.7,68.6,85.21,52.98
			c34.51-15.62,78.52-11.44,81.04,38.16S379.2,310.79,315.02,328.14c-64.18,17.35-64.16,78.76-149.1,66.37
			c-46.31-6.76-47.37-56.86-40.83-98.3C131.64,254.77,53.17,189.58,85.54,120.64z"/>
		<path class="st5" d="M85.54,120.64c27.92-59.45,127.06-51.06,165.32-9.26c38.26,41.81,50.7,68.6,85.21,52.98
			c34.51-15.62,78.52-11.44,81.04,38.16S379.2,310.79,315.02,328.14c-64.18,17.35-64.16,78.76-149.1,66.37
			c-46.31-6.76-47.37-56.86-40.83-98.3C131.64,254.77,53.17,189.58,85.54,120.64z"/>
	</g>
</g>
<g id="Shadow_1_">
	<ellipse id="_x3C_Path_x3E__359_" class="st0" cx="250" cy="416.24" rx="193.89" ry="11.32"/>
</g>
<g id="Clouds">
	<g>
		<g>
			<g>
				<path class="st6" d="M414.1,228.54c0-4.61-3.74-8.35-8.35-8.35c-0.83,0-1.64,0.13-2.4,0.35c0.12-0.84,0.19-1.69,0.19-2.56
					c0-9.76-7.92-17.68-17.68-17.68c-1.11,0-2.2,0.11-3.26,0.3c-2.72-4.45-7.6-7.43-13.2-7.43c-8.47,0-15.33,6.8-15.46,15.24
					c-0.09,0-0.17-0.01-0.26-0.01c-7.87,0-14.24,6.38-14.24,14.24c0,7.87,6.38,14.24,14.24,14.24H406l-0.01-0.01
					C410.49,236.75,414.1,233.07,414.1,228.54z"/>
			</g>
			<g class="st7">
				<path class="st8" d="M414.1,228.54c0-4.61-3.74-8.35-8.35-8.35c-0.83,0-1.64,0.13-2.4,0.35c0.12-0.84,0.19-1.69,0.19-2.56
					c0-9.76-7.92-17.68-17.68-17.68c-1.11,0-2.2,0.11-3.26,0.3c-2.72-4.45-7.6-7.43-13.2-7.43c-8.47,0-15.33,6.8-15.46,15.24
					c-0.09,0-0.17-0.01-0.26-0.01c-7.87,0-14.24,6.38-14.24,14.24c0,7.87,6.38,14.24,14.24,14.24H406l-0.01-0.01
					C410.49,236.75,414.1,233.07,414.1,228.54z"/>
			</g>
		</g>
		<g>
			<polygon class="st4" points="361.52,252.89 356.28,254.09 362,241.24 349.4,256.6 354.64,255.4 348.92,268.24 			"/>
		</g>
		<g>
			<polygon class="st4" points="377.53,252.89 372.29,254.09 378.01,241.24 365.41,256.6 370.65,255.4 364.93,268.24 			"/>
		</g>
		<g>
			<polygon class="st4" points="393.54,252.89 388.3,254.09 394.02,241.24 381.42,256.6 386.66,255.4 380.94,268.24 			"/>
		</g>
		<g class="st7">
			<polygon class="st8" points="361.52,252.89 356.28,254.09 362,241.24 349.4,256.6 354.64,255.4 348.92,268.24 			"/>
		</g>
		<g class="st7">
			<polygon class="st8" points="377.53,252.89 372.29,254.09 378.01,241.24 365.41,256.6 370.65,255.4 364.93,268.24 			"/>
		</g>
		<g class="st7">
			<polygon class="st8" points="393.54,252.89 388.3,254.09 394.02,241.24 381.42,256.6 386.66,255.4 380.94,268.24 			"/>
		</g>
	</g>
	<g>
		<g>
			<g>
				<path class="st6" d="M165.23,187.2c0-3.81-3.09-6.9-6.9-6.9c-0.69,0-1.35,0.1-1.98,0.29c0.1-0.69,0.15-1.4,0.15-2.12
					c0-8.07-6.55-14.62-14.62-14.62c-0.92,0-1.82,0.09-2.69,0.25c-2.25-3.68-6.29-6.14-10.91-6.14c-7,0-12.68,5.62-12.78,12.6
					c-0.07,0-0.14-0.01-0.21-0.01c-6.5,0-11.78,5.27-11.78,11.78c0,6.5,5.27,11.78,11.78,11.78h43.25l-0.01-0.01
					C162.24,193.99,165.23,190.95,165.23,187.2z"/>
			</g>
			<g class="st7">
				<path class="st8" d="M165.23,187.2c0-3.81-3.09-6.9-6.9-6.9c-0.69,0-1.35,0.1-1.98,0.29c0.1-0.69,0.15-1.4,0.15-2.12
					c0-8.07-6.55-14.62-14.62-14.62c-0.92,0-1.82,0.09-2.69,0.25c-2.25-3.68-6.29-6.14-10.91-6.14c-7,0-12.68,5.62-12.78,12.6
					c-0.07,0-0.14-0.01-0.21-0.01c-6.5,0-11.78,5.27-11.78,11.78c0,6.5,5.27,11.78,11.78,11.78h43.25l-0.01-0.01
					C162.24,193.99,165.23,190.95,165.23,187.2z"/>
			</g>
		</g>
		<g>
			<g>
				<g>
					<path class="st4" d="M152.47,204.23c2.82-0.98-3.09-7.05-3.09-7.05S149.65,205.2,152.47,204.23z"/>
				</g>
				<g>
					<path class="st4" d="M154.45,208.73c0,0,0.27,8.03,3.09,7.05C160.36,214.81,154.45,208.73,154.45,208.73z"/>
				</g>
				<g>
					<path class="st4" d="M159.52,220.29c0,0,0.27,8.03,3.09,7.05C165.44,226.36,159.52,220.29,159.52,220.29z"/>
				</g>
				<g>
					<path class="st4" d="M143.1,204.3c2.82-0.98-3.1-7.05-3.1-7.05S140.28,205.28,143.1,204.3z"/>
				</g>
				<g>
					<path class="st4" d="M145.08,208.8c0,0,0.27,8.03,3.1,7.05C150.99,214.88,145.08,208.8,145.08,208.8z"/>
				</g>
				<g>
					<path class="st4" d="M150.15,220.36c0,0,0.27,8.03,3.09,7.05C156.07,226.43,150.15,220.36,150.15,220.36z"/>
				</g>
				<g>
					<path class="st4" d="M133.73,204.37c2.82-0.98-3.09-7.05-3.09-7.05S130.91,205.35,133.73,204.37z"/>
				</g>
				<g>
					<path class="st4" d="M135.71,208.88c0,0,0.27,8.03,3.09,7.05C141.63,214.95,135.71,208.88,135.71,208.88z"/>
				</g>
				<g>
					<path class="st4" d="M140.78,220.43c0,0,0.27,8.03,3.09,7.05C146.7,226.51,140.78,220.43,140.78,220.43z"/>
				</g>
				<g>
					<path class="st4" d="M121.27,197.39c0,0,0.27,8.03,3.09,7.05C127.18,203.47,121.27,197.39,121.27,197.39z"/>
				</g>
				<g>
					<path class="st4" d="M126.34,208.95c0,0,0.27,8.03,3.09,7.05C132.26,215.02,126.34,208.95,126.34,208.95z"/>
				</g>
				<g>
					<path class="st4" d="M131.41,220.5c0,0,0.27,8.03,3.09,7.05C137.33,226.58,131.41,220.5,131.41,220.5z"/>
				</g>
			</g>
			<g class="st7">
				<g>
					<path class="st8" d="M152.47,204.23c2.82-0.98-3.09-7.05-3.09-7.05S149.65,205.2,152.47,204.23z"/>
				</g>
				<g>
					<path class="st8" d="M154.45,208.73c0,0,0.27,8.03,3.09,7.05C160.36,214.81,154.45,208.73,154.45,208.73z"/>
				</g>
				<g>
					<path class="st8" d="M159.52,220.29c0,0,0.27,8.03,3.09,7.05C165.44,226.36,159.52,220.29,159.52,220.29z"/>
				</g>
				<g>
					<path class="st8" d="M143.1,204.3c2.82-0.98-3.1-7.05-3.1-7.05S140.28,205.28,143.1,204.3z"/>
				</g>
				<g>
					<path class="st8" d="M145.08,208.8c0,0,0.27,8.03,3.1,7.05C150.99,214.88,145.08,208.8,145.08,208.8z"/>
				</g>
				<g>
					<path class="st8" d="M150.15,220.36c0,0,0.27,8.03,3.09,7.05C156.07,226.43,150.15,220.36,150.15,220.36z"/>
				</g>
				<g>
					<path class="st8" d="M133.73,204.37c2.82-0.98-3.09-7.05-3.09-7.05S130.91,205.35,133.73,204.37z"/>
				</g>
				<g>
					<path class="st8" d="M135.71,208.88c0,0,0.27,8.03,3.09,7.05C141.63,214.95,135.71,208.88,135.71,208.88z"/>
				</g>
				<g>
					<path class="st8" d="M140.78,220.43c0,0,0.27,8.03,3.09,7.05C146.7,226.51,140.78,220.43,140.78,220.43z"/>
				</g>
				<g>
					<path class="st8" d="M121.27,197.39c0,0,0.27,8.03,3.09,7.05C127.18,203.47,121.27,197.39,121.27,197.39z"/>
				</g>
				<g>
					<path class="st8" d="M126.34,208.95c0,0,0.27,8.03,3.09,7.05C132.26,215.02,126.34,208.95,126.34,208.95z"/>
				</g>
				<g>
					<path class="st8" d="M131.41,220.5c0,0,0.27,8.03,3.09,7.05C137.33,226.58,131.41,220.5,131.41,220.5z"/>
				</g>
			</g>
		</g>
	</g>
</g>
<g id="Symbols">
	<g>
		<path class="st4" d="M361.99,156.68c0.82-2.53-0.79-4.95-4.27-6.08c-3.34-1.08-6.19-0.61-8.49,1.09l-3.46-4.27
			c3.64-2.61,8.38-3.37,14.02-1.54c6.64,2.15,10.08,6.61,8.4,11.81c-2.39,7.36-10.33,5.53-12.06,10.86l-5.73-1.86
			C352.58,160.01,360.53,161.19,361.99,156.68z M347.33,173.73c0.63-1.94,2.62-2.99,4.74-2.3c2.08,0.67,3.07,2.69,2.44,4.63
			c-0.63,1.94-2.63,3.04-4.71,2.37C347.67,177.74,346.7,175.67,347.33,173.73z"/>
	</g>
	<g>
		<path class="st4" d="M105.85,239.84c0.52-1.69-0.58-3.28-2.91-3.99c-2.24-0.68-4.12-0.33-5.63,0.83l-2.35-2.79
			c2.39-1.78,5.53-2.34,9.31-1.19c4.44,1.35,6.78,4.28,5.72,7.75c-1.5,4.92-6.8,3.8-7.89,7.37l-3.83-1.17
			C99.63,242.17,104.93,242.86,105.85,239.84z M96.3,251.35c0.4-1.3,1.71-2.02,3.12-1.59c1.39,0.42,2.07,1.75,1.68,3.05
			c-0.4,1.3-1.71,2.05-3.1,1.63C96.58,254.01,95.91,252.65,96.3,251.35z"/>
	</g>
	<g>
		<path class="st4" d="M163.22,131.2l4.37-1.66l4.52,14.09l-2.92,1.11L163.22,131.2z M170.08,149.83c-0.48-1.27,0.14-2.65,1.52-3.18
			c1.36-0.52,2.71,0.12,3.2,1.38c0.48,1.27-0.1,2.67-1.45,3.19C171.96,151.75,170.57,151.1,170.08,149.83z"/>
	</g>
	<g>
		<path class="st4" d="M109.84,365.59c0.17-2.11,1.98-3.63,4.28-3.44c2.25,0.19,3.73,1.98,3.56,4.09s-1.93,3.69-4.18,3.5
			C111.19,369.54,109.67,367.69,109.84,365.59z M112.72,334.82l7.25,0.6l-3.11,22.82l-4.85-0.4L112.72,334.82z"/>
	</g>
	<g>
		<path class="st4" d="M301.93,263.35l4.55-1.06l2.58,14.57l-3.04,0.71L301.93,263.35z M306.22,282.74
			c-0.31-1.32,0.49-2.61,1.94-2.95c1.41-0.33,2.67,0.48,2.98,1.8c0.31,1.32-0.46,2.63-1.87,2.96
			C307.83,284.89,306.53,284.06,306.22,282.74z"/>
	</g>
</g>
<g id="Doodles">
	<g>
		<g>
			<path class="st6" d="M312.4,159.78c-0.11,0-0.22-0.04-0.29-0.13c-0.08-0.08-7.71-8.32-2.71-14.07c0.65-0.74,1.36-1.29,2.11-1.63
				c-1.11-2.6-1.89-6.06-2.19-10.12c-0.16-2.16,0.78-3.62,2.66-4.11c1.04-0.27,2.35-0.21,3.74,0.08c0.02-1.12,0.26-2.14,0.8-2.91
				c0.87-1.25,2.82-2.33,7.13-0.35c0.2,0.09,0.29,0.33,0.2,0.54c-0.09,0.2-0.33,0.29-0.54,0.2c-2.1-0.96-4.87-1.74-6.13,0.08
				c-0.47,0.68-0.68,1.61-0.67,2.64c3.44,0.93,7.11,3.18,8.16,5.47c0.61,1.32,0.26,2.51-0.97,3.37c-1.48,1.03-3.17,0.74-4.74-0.83
				c-1.72-1.72-3.03-4.74-3.23-7.39c-1.3-0.3-2.55-0.37-3.56-0.1c-1.5,0.39-2.19,1.48-2.05,3.26c0.3,3.98,1.07,7.39,2.15,9.91
				c1.11-0.29,2.27-0.15,3.41,0.42c1.81,0.91,3.15,2.79,2.88,4.01c-0.06,0.29-0.33,0.97-1.42,1c-2.09,0.07-3.91-1.57-5.3-4.44
				c-0.6,0.27-1.22,0.72-1.83,1.42c-4.52,5.2,2.61,12.91,2.68,12.99c0.15,0.16,0.15,0.42-0.02,0.57
				C312.6,159.74,312.5,159.78,312.4,159.78z M312.61,144.43c1.23,2.5,2.82,3.96,4.5,3.88c0.58-0.02,0.63-0.27,0.66-0.37
				c0.15-0.67-0.75-2.26-2.46-3.12C314.69,144.51,313.72,144.19,312.61,144.43z M316.56,130.83c0.25,2.37,1.45,5.07,2.98,6.6
				c0.89,0.89,2.26,1.75,3.7,0.74c0.91-0.63,1.13-1.41,0.69-2.37C323.07,133.92,319.76,131.77,316.56,130.83z"/>
		</g>
		<g>
			<path class="st6" d="M307.02,246.3c-2.59,0-5.15-0.91-6.29-3.2c-0.92-1.86-0.56-4.05-0.15-5.75c0.61-2.48,2.51-9.04,6.47-13.01
				c-3.89,1.58-7.98,5.91-9.57,8.71c-0.11,0.19-0.36,0.26-0.55,0.15c-0.19-0.11-0.26-0.36-0.15-0.55c1.59-2.8,6.61-8.47,11.54-9.56
				c0.08-0.02,0.16-0.03,0.23-0.05c1.25-0.91,2.66-1.56,4.26-1.81c2.55-0.39,5.11,0.56,6.52,2.42c1.24,1.64,1.45,3.67,1.15,5.48
				c0.66,0.23,1.16,0.58,1.53,1.05c0.8,1.02,0.87,2.5,0.21,4.4c-1.9,5.46-6.74,9.92-12.35,11.35
				C308.97,246.17,307.99,246.3,307.02,246.3z M308.87,223.82c-4.66,3.53-6.85,11.07-7.5,13.73c-0.38,1.56-0.72,3.57,0.09,5.19
				c1.36,2.75,5.21,3.18,8.22,2.42c5.35-1.37,9.97-5.62,11.78-10.83c0.56-1.62,0.53-2.85-0.09-3.64c-0.25-0.32-0.6-0.57-1.06-0.75
				c-0.12,0.46-0.26,0.89-0.42,1.29c-1.76,4.29-7.06,10.6-12.42,11.28c-0.22,0.03-0.42-0.13-0.45-0.35
				c-0.03-0.22,0.13-0.42,0.35-0.45c4.99-0.63,10.13-6.78,11.77-10.78c0.15-0.37,0.29-0.78,0.39-1.2c-0.38-0.07-0.81-0.11-1.3-0.11
				c-0.81-0.01-1.63,0.04-2.44,0.14c0.08,4.06-2.7,7.96-6.59,9.17c-1.29,0.4-2.77,0.31-3.77-0.23c-0.66-0.36-1.11-0.9-1.29-1.57
				c-0.36-1.29,0.33-2.72,1.94-4.04c2.52-2.07,5.63-3.46,8.86-4.01c-0.21-1.89-1.1-3.55-2.42-4.49
				C311.49,223.84,310.26,223.59,308.87,223.82z M314.98,229.88c-3.06,0.54-6,1.86-8.39,3.82c-0.78,0.64-2.04,1.91-1.68,3.2
				c0.13,0.46,0.43,0.83,0.9,1.08c0.8,0.44,2.07,0.51,3.14,0.17C312.42,237.08,314.99,233.5,314.98,229.88z M310.24,222.94
				c1.01,0.07,1.93,0.39,2.74,0.98c1.5,1.07,2.51,2.93,2.75,5.03c0.83-0.11,1.67-0.16,2.51-0.14c0.53,0.01,1.01,0.05,1.45,0.13
				c0.25-1.6,0.06-3.37-1.01-4.79c-1.23-1.62-3.49-2.45-5.75-2.1C311.96,222.19,311.07,222.5,310.24,222.94z"/>
		</g>
		<g>
			<path class="st6" d="M186.92,204.72c-0.1,0-0.21-0.04-0.29-0.12c-0.16-0.16-0.16-0.41,0-0.57c1.53-1.54,1.44-3.39,1.08-4.67
				c-0.13-0.46-0.3-0.91-0.52-1.35c-2.66,1.09-5.78,1.49-7.98,1.36c-2.26-0.14-3.73-0.8-4.14-1.86c-0.34-0.87,0.05-1.89,1.15-3.02
				c1.6-1.65,3.69-2.25,5.88-1.69c2.15,0.55,4.2,2.17,5.43,4.18c1.6-0.75,2.94-1.77,3.63-3.06c1.45-2.7,1.51-6.05,0.2-8.97
				c-0.91,0.12-1.73,0.17-2.41,0.15c-4.54-0.12-9.12-2.44-10.19-4.44c-0.38-0.7-0.23-1.21-0.04-1.51c0.48-0.76,1.81-1.09,3.93-0.99
				c3.82,0.18,7.08,2.18,8.95,5.49c0.08,0.14,0.15,0.28,0.23,0.42c4.03-0.61,9.46-2.48,11.32-5.66c0.9-1.54,0.82-3.23-0.24-5.03
				c-1.47-2.49-4.22-2.57-5.73-2.39c-0.57,0.07-1.15,0.19-1.7,0.35c0.26,0.67,0.45,1.4,0.57,2.16c0.3,2.01-0.39,5.55-2.17,6.52
				c-0.67,0.37-1.79,0.53-3.27-0.77c-1.61-1.41-1.58-2.89-1.27-3.89c0.57-1.84,2.59-3.57,5.05-4.51c-1.11-2.21-3.09-3.72-5.49-4.09
				c-0.22-0.03-0.37-0.24-0.34-0.46c0.03-0.22,0.24-0.37,0.46-0.34c2.71,0.41,4.92,2.13,6.14,4.62c0.63-0.19,1.28-0.33,1.93-0.41
				c2.94-0.35,5.25,0.64,6.52,2.78c1.22,2.07,1.3,4.04,0.24,5.85c-1.96,3.32-7.48,5.31-11.67,6c1.31,3.1,1.22,6.62-0.32,9.47
				c-0.79,1.46-2.24,2.58-3.95,3.39c0.24,0.47,0.43,0.96,0.56,1.46c0.58,2.09,0.12,4.03-1.29,5.45
				C187.12,204.68,187.02,204.72,186.92,204.72z M180.5,193.39c-1.14,0-2.47,0.38-3.7,1.65c-0.59,0.61-1.24,1.48-0.97,2.17
				c0.28,0.73,1.57,1.23,3.43,1.35c2.15,0.13,5.06-0.28,7.53-1.26c-1.13-1.79-2.96-3.23-4.89-3.72
				C181.48,193.47,181.01,193.39,180.5,193.39z M181.94,178.95c-1.96,0-2.43,0.47-2.53,0.63c-0.11,0.17-0.08,0.4,0.07,0.69
				c0.83,1.56,4.95,3.9,9.5,4.01c0.57,0.01,1.25-0.02,2.01-0.1c-0.02-0.04-0.05-0.09-0.07-0.13c-1.73-3.06-4.75-4.91-8.29-5.08
				C182.38,178.95,182.15,178.95,181.94,178.95z M194.73,171.61c-2.24,0.85-4.11,2.4-4.6,4.01c-0.35,1.11,0,2.13,1.03,3.04
				c0.91,0.8,1.7,1.02,2.35,0.66c1.4-0.77,2.02-3.93,1.76-5.69C195.16,172.91,194.98,172.24,194.73,171.61z"/>
		</g>
		<g>
			<path class="st6" d="M131.31,343.84c-0.95,0-1.93-0.19-2.92-0.57c-0.21-0.08-0.31-0.31-0.23-0.52c0.08-0.21,0.31-0.31,0.52-0.23
				c2.21,0.84,4.34,0.64,6.17-0.59c2.52-1.69,4.27-5.22,4.35-8.79c0.01-0.29,0.01-0.61-0.01-0.94c-1.17,0.93-2.73,1.38-4.58,1.3
				c-1.52-0.06-2.79-0.65-3.47-1.61c-0.61-0.85-0.74-1.63-0.38-2.33c0.85-1.67,4.29-2.06,5.55-2.07c0.01,0,0.02,0,0.02,0
				c1.22,0,2.42,0.82,3.06,2.09c0.14,0.27,0.25,0.56,0.33,0.84c0.18-0.27,0.33-0.55,0.47-0.87c0.97-2.24,0.6-5.29-0.76-7.44
				c-1.02,2.27-4.9,3.36-7.29,2.95c-1.79-0.31-2.71-1.42-2.44-2.96c0.19-1.12,1.08-2.12,2.43-2.75c2.47-1.14,4.83-0.88,6.66,0.74
				c-0.25-0.96-0.96-1.97-2.15-3.02c-2.55-2.28-5.04-3.38-7.39-3.29c-0.22,0.01-0.41-0.16-0.42-0.39c-0.01-0.22,0.16-0.41,0.39-0.42
				c2.58-0.12,5.25,1.07,7.97,3.5c1.76,1.57,2.6,3.11,2.51,4.59c1.86,2.4,2.43,6.07,1.25,8.81c-0.26,0.61-0.59,1.14-0.99,1.6
				c0.08,0.6,0.08,1.17,0.07,1.68c-0.09,3.82-1.99,7.61-4.71,9.44C134.06,343.43,132.72,343.84,131.31,343.84z M136.33,328.31
				c-0.01,0-0.01,0-0.02,0c-1.62,0.01-4.28,0.54-4.84,1.62c-0.21,0.41-0.1,0.89,0.32,1.49c0.54,0.75,1.58,1.22,2.85,1.27
				c1.84,0.07,3.37-0.44,4.43-1.48c-0.08-0.43-0.21-0.86-0.41-1.26C138.25,329.13,137.37,328.31,136.33,328.31z M135.05,319.48
				c-0.83,0-1.7,0.21-2.59,0.62c-0.52,0.24-1.76,0.94-1.97,2.15c-0.23,1.38,0.84,1.86,1.78,2.02c2.5,0.43,6.2-0.95,6.56-2.96
				c-0.12-0.14-0.25-0.28-0.38-0.41C137.48,319.96,136.32,319.48,135.05,319.48z"/>
		</g>
		<g>
			<path class="st6" d="M146.85,262.35c-1.78,0-3.7-0.64-5.28-1.87c-2.95-2.28-4.01-5.89-2.91-9.91c0.06-0.22,0.12-0.44,0.19-0.66
				c-1.14-0.68-2.18-1.07-2.99-0.81c-0.73,0.24-1.28,1.02-1.67,2.38c-0.06,0.21-0.28,0.33-0.5,0.28c-0.22-0.06-0.34-0.29-0.28-0.5
				c0.47-1.64,1.19-2.6,2.19-2.93c1.03-0.34,2.21,0.04,3.49,0.78c0.32-0.94,0.7-1.79,1.31-2.54c2.07-2.54,6.3-1.65,9.21,0.69
				c1.65,1.33,2.58,2.86,2.72,4.34c0.41-0.25,0.89-0.32,1.41-0.18c0.71,0.19,1.4,0.76,1.76,1.45c1.24,2.4-0.3,5.34-2.52,6.59
				c-0.39,0.22-0.87,0.42-1.41,0.6c-0.42,0.62-0.96,1.13-1.64,1.52C149.02,262.1,147.96,262.35,146.85,262.35z M139.55,250.37
				c-0.04,0.14-0.08,0.28-0.12,0.42c-1.01,3.68-0.05,6.98,2.63,9.05c2.29,1.77,5.42,2.21,7.46,1.04c0.23-0.13,0.45-0.28,0.64-0.45
				c-1.96,0.39-4.28,0.37-5.93-0.56c-1.27-0.71-1.97-1.89-2.02-3.39c-0.01-0.22,0.17-0.41,0.39-0.42c0.25,0.01,0.41,0.17,0.42,0.39
				c0.04,1.22,0.58,2.13,1.61,2.71c1.72,0.97,4.42,0.81,6.4,0.22c0.59-1.02,0.8-2.37,0.6-3.95l-0.06-0.45
				c-0.02-0.16-0.05-0.33-0.07-0.5c-0.03,0.04-0.05,0.07-0.08,0.11c-2.38,3-6.07,0.15-9.33-2.36
				C141.23,251.58,140.37,250.92,139.55,250.37z M153.22,252.16c-0.18,0-0.34,0.05-0.49,0.14c-0.68,0.45-0.52,1.53-0.37,2.57
				l0.06,0.46c0.18,1.39,0.07,2.63-0.32,3.66c0.17-0.08,0.32-0.15,0.47-0.23c1.85-1.04,3.2-3.56,2.2-5.52
				c-0.25-0.49-0.75-0.91-1.24-1.04C153.42,252.18,153.32,252.16,153.22,252.16z M139.79,249.56c0.89,0.59,1.83,1.3,2.78,2.04
				c3.81,2.94,6.44,4.71,8.2,2.5c1.74-2.19,0.28-4.64-1.67-6.2c-2.54-2.04-6.35-2.93-8.07-0.81
				C140.46,247.79,140.1,248.62,139.79,249.56z"/>
		</g>
		<g>
			<path class="st6" d="M373.78,355.86c-1.8,0-3.64-0.29-5.38-0.57l-0.35-0.06c-0.22-0.03-0.37-0.24-0.34-0.46
				c0.04-0.22,0.24-0.38,0.46-0.34l0.35,0.06c3.9,0.62,8.31,1.32,11.34-1.55c1.5-1.42,2.32-3.35,2.38-5.57
				c0.05-2.01-0.55-4.15-1.62-6c-0.25,2.69-1.5,5.38-3.65,7.39c-3.06,2.86-7.62,3.9-11.62,2.65c-4.11-1.28-6.37-4.7-5.63-8.5
				c0.49-2.49,2.19-4.78,4.67-6.28c0.37-0.22,0.76-0.43,1.15-0.61c0.1-0.72,0.28-1.37,0.54-1.9c0.92-1.87,2.59-3,4.72-3.17
				c2.97-0.24,6.4,1.39,8.16,3.87c1.07,1.5,1.62,3.29,1.7,5.13c1.56,2.18,2.45,4.91,2.39,7.45c-0.06,2.44-0.97,4.56-2.63,6.14
				C378.52,355.33,376.19,355.86,373.78,355.86z M365.47,336.96c-0.22,0.11-0.44,0.23-0.65,0.36c-2.28,1.38-3.85,3.48-4.29,5.75
				c-0.76,3.9,2,6.62,5.07,7.57c3.72,1.16,7.97,0.19,10.82-2.47c2.07-1.94,3.47-4.93,3.45-7.93c-0.27-0.36-0.56-0.71-0.88-1.04
				c-3.17-3.32-8.46-4.33-12.69-2.63c-0.16,2.02,0.35,4.47,1.53,5.69c0.84,0.86,1.91,1,3.19,0.41c0.52-0.24,0.96-0.76,1.12-1.32
				c0.08-0.27,0.11-0.67-0.13-1.04c-0.13-0.19-0.08-0.44,0.11-0.56c0.19-0.12,0.44-0.08,0.56,0.11c0.33,0.48,0.41,1.09,0.24,1.71
				c-0.22,0.79-0.82,1.49-1.56,1.83c-2.02,0.93-3.35,0.2-4.11-0.58C365.96,341.5,365.38,339.09,365.47,336.96z M370.6,334.96
				c3.33,0,6.68,1.28,8.98,3.69c0.06,0.06,0.11,0.12,0.17,0.18c-0.2-1.23-0.67-2.44-1.45-3.54c-1.58-2.23-4.78-3.75-7.43-3.53
				c-1.29,0.1-3.05,0.66-4.06,2.72c-0.17,0.34-0.29,0.74-0.38,1.19C367.76,335.19,369.18,334.96,370.6,334.96z"/>
		</g>
	</g>
</g>
<g id="Speech_bubble_4">
	<g>
		<g>
			<g>
				<path class="st4" d="M374.11,316.33l-24.59-15.18c-3.83-2.37-5.02-7.39-2.66-11.22l3.34-5.41c2.37-3.83,7.39-5.02,11.22-2.66
					l24.59,15.18c3.83,2.37,5.02,7.39,2.66,11.22l-3.34,5.41C382.97,317.51,377.95,318.7,374.11,316.33z"/>
			</g>
		</g>
		<g class="st7">
			<g>
				<path class="st8" d="M374.11,316.33l-24.59-15.18c-3.83-2.37-5.02-7.39-2.66-11.22l3.34-5.41c2.37-3.83,7.39-5.02,11.22-2.66
					l24.59,15.18c3.83,2.37,5.02,7.39,2.66,11.22l-3.34,5.41C382.97,317.51,377.95,318.7,374.11,316.33z"/>
			</g>
		</g>
		<g>
			<g>
				<path class="st6" d="M355.91,295.27c0.18-0.3,0.56-0.38,0.85-0.19c0.31,0.19,0.4,0.56,0.22,0.86c-0.18,0.29-0.56,0.38-0.87,0.2
					C355.82,295.94,355.74,295.55,355.91,295.27z M360.92,291.68c0.45-0.74,0.17-1.62-0.87-2.26c-0.87-0.54-1.68-0.64-2.46-0.38
					l-0.29-0.74c0.97-0.33,2.05-0.2,3.2,0.51c1.43,0.88,1.93,2.13,1.25,3.23c-1.08,1.75-3,0.67-3.9,2.13l-0.76-0.47
					C358.13,292.02,360.09,293.01,360.92,291.68z"/>
			</g>
			<g>
				<path class="st6" d="M360.16,297.89c0.18-0.3,0.56-0.38,0.86-0.19c0.31,0.19,0.39,0.55,0.21,0.85c-0.18,0.29-0.55,0.39-0.86,0.2
					C360.07,298.57,359.98,298.18,360.16,297.89z M364.39,291.3l0.86,0.53l-3.24,4.91l-0.56-0.35L364.39,291.3z"/>
			</g>
			<g>
				<path class="st6" d="M364.28,300.43c0.18-0.3,0.56-0.38,0.85-0.19c0.31,0.19,0.4,0.56,0.22,0.86c-0.18,0.29-0.56,0.38-0.87,0.2
					C364.18,301.11,364.1,300.72,364.28,300.43z M369.28,296.84c0.45-0.73,0.17-1.62-0.87-2.26c-0.87-0.54-1.68-0.64-2.46-0.38
					l-0.29-0.74c0.97-0.33,2.05-0.2,3.2,0.51c1.43,0.88,1.93,2.13,1.25,3.23c-1.08,1.75-3,0.67-3.9,2.13l-0.76-0.47
					C366.49,297.18,368.46,298.18,369.28,296.84z"/>
			</g>
			<g>
				<path class="st6" d="M368.52,303.05c0.18-0.3,0.56-0.38,0.86-0.19c0.31,0.19,0.39,0.55,0.21,0.85c-0.18,0.29-0.55,0.39-0.86,0.2
					C368.43,303.73,368.35,303.34,368.52,303.05z M372.75,296.46l0.86,0.53l-3.24,4.91l-0.56-0.35L372.75,296.46z"/>
			</g>
			<g>
				<path class="st6" d="M372.64,305.59c0.18-0.3,0.56-0.38,0.85-0.19c0.31,0.19,0.4,0.56,0.22,0.86c-0.18,0.29-0.56,0.38-0.87,0.2
					C372.55,306.27,372.46,305.88,372.64,305.59z M377.65,302c0.45-0.74,0.17-1.62-0.87-2.26c-0.87-0.54-1.68-0.64-2.46-0.38
					l-0.29-0.74c0.97-0.33,2.05-0.2,3.2,0.51c1.43,0.88,1.93,2.13,1.25,3.22c-1.08,1.75-3,0.67-3.9,2.13l-0.75-0.47
					C374.86,302.34,376.82,303.34,377.65,302z"/>
			</g>
			<g>
				<path class="st6" d="M376.89,308.21c0.18-0.3,0.56-0.38,0.86-0.19c0.31,0.19,0.39,0.55,0.21,0.85c-0.18,0.29-0.55,0.39-0.86,0.2
					C376.8,308.89,376.71,308.5,376.89,308.21z M381.11,301.62l0.86,0.53l-3.24,4.91l-0.56-0.35L381.11,301.62z"/>
			</g>
		</g>
		<g>
			<g>
				<polygon class="st4" points="354.98,304.05 345.84,305.54 351.61,300.42 				"/>
			</g>
		</g>
		<g class="st7">
			<g>
				<polygon class="st8" points="354.98,304.05 345.84,305.54 351.61,300.42 				"/>
			</g>
		</g>
	</g>
</g>
<g id="Speech_bubble_3">
	<g>
		<g>
			<path class="st4" d="M323.24,197.62l-37.57,10.1c-4.35,1.17-8.82-1.41-9.99-5.76l-1.65-6.14c-1.17-4.35,1.41-8.82,5.76-9.99
				l37.57-10.1c4.35-1.17,8.82,1.41,9.99,5.76l1.65,6.14C330.17,191.98,327.59,196.45,323.24,197.62z"/>
		</g>
		<g class="st7">
			<path class="st8" d="M323.24,197.62l-37.57,10.1c-4.35,1.17-8.82-1.41-9.99-5.76l-1.65-6.14c-1.17-4.35,1.41-8.82,5.76-9.99
				l37.57-10.1c4.35-1.17,8.82,1.41,9.99,5.76l1.65,6.14C330.17,191.98,327.59,196.45,323.24,197.62z"/>
		</g>
		<g>
			<path class="st6" d="M284.26,193.31l1.52,0.39l-0.12,0.51l-1.54-0.42l0.41,1.51l-0.49,0.13l-0.39-1.52l-1.12,1.14l-0.38-0.38
				l1.13-1.1l-1.53-0.39l0.13-0.53l1.54,0.43l-0.42-1.51l0.49-0.13l0.41,1.51l1.12-1.15l0.37,0.39L284.26,193.31z"/>
			<path class="st6" d="M297.13,193.23c0.49,1.81,0.1,3.06-1,3.35c-0.69,0.19-1.28-0.11-1.52-0.84c-0.23,0.85-0.88,1.48-1.82,1.73
				c-1.51,0.41-2.95-0.44-3.38-2.05c-0.43-1.6,0.39-3.04,1.91-3.45c0.92-0.25,1.78-0.04,2.41,0.55l-0.29-1.08l0.69-0.19l1.08,4.04
				c0.16,0.6,0.52,0.73,0.88,0.63c0.66-0.18,0.87-1.11,0.48-2.55c-0.67-2.5-2.92-3.68-5.5-2.99c-2.61,0.7-3.92,2.93-3.24,5.45
				c0.68,2.53,2.91,3.82,5.5,3.13c0.64-0.17,1.39-0.53,1.92-1.02l0.32,0.47c-0.55,0.5-1.38,0.9-2.09,1.09
				c-2.93,0.79-5.47-0.69-6.23-3.51c-0.76-2.83,0.74-5.36,3.68-6.15C293.82,189.08,296.38,190.44,297.13,193.23z M294.18,194.15
				c-0.35-1.29-1.44-1.89-2.59-1.58c-1.18,0.32-1.81,1.39-1.46,2.67c0.34,1.28,1.43,1.91,2.61,1.59
				C293.88,196.53,294.53,195.45,294.18,194.15z"/>
			<path class="st6" d="M302.66,189.58l0.32,2.31l1.51-0.41l0.16,0.59l-1.59,0.43l0.3,2.09l-0.58,0.15l-0.3-2.09l-2.18,0.59
				l0.29,2.09l-0.58,0.15l-0.3-2.09l-1.51,0.41l-0.16-0.59l1.59-0.43l-0.32-2.31l-1.52,0.41l-0.16-0.59l1.6-0.43l-0.3-2.09
				l0.59-0.16l0.29,2.09l2.2-0.59l-0.3-2.09l0.58-0.15l0.3,2.09l1.5-0.4l0.16,0.59L302.66,189.58z M302.08,189.73l-2.18,0.59
				l0.31,2.32l2.19-0.59L302.08,189.73z"/>
			<path class="st6" d="M312.44,192.27l-1.32-0.79c-0.45,0.84-1.21,1.41-2.22,1.68c-1.46,0.39-2.71-0.09-3.01-1.22
				c-0.24-0.88,0.1-1.67,1.25-2.83c-0.92-0.55-1.26-0.94-1.41-1.52c-0.25-0.95,0.31-1.79,1.46-2.09c1.05-0.28,1.89,0.09,2.13,1.01
				c0.2,0.75-0.11,1.39-1.13,2.42l2.61,1.56c0.12-0.45,0.16-0.98,0.11-1.57l0.67,0.03c0.04,0.71-0.03,1.34-0.2,1.89l1.36,0.81
				L312.44,192.27z M306.43,187.4c0.12,0.44,0.36,0.7,1.23,1.21c0.91-0.91,1.16-1.37,1.02-1.91c-0.15-0.55-0.64-0.82-1.34-0.63
				C306.59,186.27,306.27,186.8,306.43,187.4z M310.55,191.15l-2.87-1.71c-1.01,1-1.25,1.57-1.07,2.23
				c0.22,0.81,1.08,1.15,2.16,0.86C309.59,192.31,310.19,191.85,310.55,191.15z"/>
			<path class="st6" d="M311.54,186.5c-0.33-1.21,0.14-2.21,1.14-2.48c0.99-0.27,1.9,0.35,2.23,1.57c0.33,1.23-0.15,2.21-1.14,2.48
				C312.76,188.35,311.86,187.72,311.54,186.5z M314.37,185.74c-0.26-0.97-0.87-1.42-1.57-1.24c-0.7,0.19-0.99,0.9-0.74,1.85
				c0.26,0.96,0.86,1.42,1.57,1.24C314.33,187.41,314.63,186.71,314.37,185.74z M317.21,182.87l0.63-0.17l-3.09,8.83l-0.63,0.17
				L317.21,182.87z M317.05,188.79c-0.33-1.21,0.15-2.21,1.14-2.48c1-0.27,1.9,0.36,2.23,1.57c0.33,1.21-0.14,2.21-1.14,2.48
				C318.29,190.63,317.38,190.01,317.05,188.79z M319.89,188.03c-0.26-0.96-0.86-1.42-1.57-1.24c-0.69,0.19-1,0.88-0.74,1.85
				c0.26,0.97,0.87,1.42,1.57,1.24C319.85,189.7,320.14,188.99,319.89,188.03z"/>
		</g>
		<g>
			<polygon class="st4" points="293.31,204.59 289.24,212.9 288.41,205.24 			"/>
		</g>
		<g class="st7">
			<polygon class="st8" points="293.31,204.59 289.24,212.9 288.41,205.24 			"/>
		</g>
	</g>
</g>
<g id="Speech_bubble_2">
	<g>
		<g>
			<g>
				<polygon class="st4" points="199.69,117.29 218.08,98.35 286.65,105.01 297.73,152.09 265.68,169.21 247.13,163.29 
					239.71,171.3 244.39,175.97 233.65,184.66 239.71,175.97 231.86,171.3 236.62,161.57 205.06,150.51 				"/>
			</g>
			<g class="st7">
				<polygon class="st8" points="199.69,117.29 218.08,98.35 286.65,105.01 297.73,152.09 265.68,169.21 247.13,163.29 
					239.71,171.3 244.39,175.97 233.65,184.66 239.71,175.97 231.86,171.3 236.62,161.57 205.06,150.51 				"/>
			</g>
		</g>
		<g>
			<path class="st6" d="M254.76,155.86c-2.64,0-5.28-0.52-7.69-1.55c-0.98-0.42-2.41-1.12-3.39-2.33c-1.57-1.94-1.57-4.47-0.92-6.68
				c-0.1,0.01-0.2,0.02-0.31,0.03c-2.53,0.21-4.63-0.03-6.26-0.68c-0.61,0.34-1.22,0.64-1.8,0.91c0.41,0.47,0.79,1,1.13,1.61
				c0.66,1.17,0.8,2.23,0.41,3.06c-0.52,1.11-1.53,1.67-2.92,1.63c-2.3-0.07-5.47-1.85-7.27-3.62c-0.35,0.04-0.7,0.08-1.05,0.1
				c-3.33,0.23-6.48-0.5-8.89-2.05c-3.26-2.1-5.49-5.93-5.96-10.23c-0.41-3.68,0.41-7.73,2.36-11.71c0.52-1.07,1.11-2.09,1.75-3.07
				c-0.88,0.01-1.76-0.03-2.64-0.11c-0.32-0.03-1.17-0.12-1.51-0.78c-0.38-0.74,0.11-1.6,1.25-2.19c3.62-1.89,7.39-3.57,11.22-5.01
				c0.6-0.36,1.22-0.7,1.85-1c5.38-2.59,11.7-2.9,16.91-0.82c0.46,0.18,0.92,0.39,1.36,0.61c2.42-0.69,4.91-1.24,7.53-1.57
				c7.2-0.92,13.49-0.68,19.23,0.74c6.55,1.62,9.98,4.44,10.48,8.62c0.41,3.39-1.3,5.96-3.54,8.16c0.78,1.1,1.41,2.22,1.9,3.34
				c0.57,0.11,1.14,0.28,1.69,0.5c2.5,1,4.65,3.07,5.9,5.69c1.15,2.41,1.71,5.98-0.18,8.79c-1.09,1.61-2.88,2.83-5.49,3.71
				c-2.42,0.82-4.95,1.23-7.51,1.2c-1.24-0.01-3.07-0.13-4.66-0.97c-2.17-1.15-3.36-3.32-3.74-5.59c-0.28,0.61-0.71,1.23-1.3,1.86
				c1.64,1.04,2.83,3.08,2.22,5.04c-0.49,1.57-2.02,2.8-4.4,3.54C258.67,155.57,256.71,155.86,254.76,155.86z M243.64,145.19
				c-0.68,2.07-0.77,4.48,0.67,6.27c0.66,0.81,1.64,1.48,3.08,2.1c4.02,1.72,8.72,1.96,12.89,0.66c1.48-0.46,3.35-1.36,3.87-3.01
				c0.52-1.65-0.58-3.39-2.04-4.22c-1.83,1.69-4.16,2.83-6.62,3.24c-0.54,0.09-1.22,0.14-1.73-0.29c-0.65-0.54-0.6-1.51-0.18-2.14
				c0.38-0.57,0.98-0.9,1.58-1.17c2.44-1.11,4.71-1.35,6.56-0.71c0.08,0.03,0.17,0.06,0.25,0.1c0.05-0.05,0.1-0.1,0.14-0.15
				c1.03-1.08,1.52-2.11,1.45-3.07c-0.1-1.44-1.39-2.43-2.76-2.96c-0.05,0.12-0.1,0.24-0.16,0.35c-1.12,2.34-3.29,4.34-6.47,5.93
				c-0.94,0.47-2.07,0.96-3.25,0.96c-0.01,0-0.02,0-0.03,0c-1.34,0-2.53-0.66-3.03-1.69c-0.16-0.32-0.24-0.65-0.26-0.99
				C246.22,144.77,244.91,145.03,243.64,145.19z M226.78,148.07c1.67,1.44,4.27,2.9,6.26,2.97c1.09,0.03,1.79-0.35,2.16-1.16
				c0.34-0.74-0.02-1.67-0.38-2.33c-0.36-0.64-0.76-1.18-1.21-1.66c-0.04,0.02-0.08,0.04-0.12,0.05
				C231.02,147.02,228.84,147.71,226.78,148.07z M275.51,128.45c-0.9,0.82-1.85,1.59-2.77,2.34c-0.89,0.71-1.72,1.39-2.46,2.07
				c-3.02,2.78-4.78,5.45-5.39,8.17c-0.64,2.89,0.27,6.81,3.24,8.39c1.09,0.58,2.46,0.86,4.29,0.88c2.48,0.04,4.9-0.36,7.24-1.16
				c2.43-0.83,4.1-1.94,5.08-3.4c1.7-2.52,1.18-5.78,0.12-7.98c-1.16-2.43-3.16-4.36-5.47-5.29c-0.33-0.13-0.67-0.25-1.02-0.34
				c0.16,0.43,0.29,0.85,0.41,1.28c0.7,2.61,0.52,5.11-0.51,7.02c-1.25,2.33-3.83,3.68-6.15,3.2c-2.34-0.49-4.17-2.87-4.17-5.43
				c0-2.31,1.41-4.64,3.59-5.95c1.6-0.96,3.56-1.36,5.5-1.17C276.63,130.2,276.12,129.33,275.51,128.45z M259.53,146.38
				c-1.49,0-2.95,0.49-4.05,0.99c-0.49,0.22-0.97,0.48-1.24,0.88c-0.21,0.32-0.25,0.84,0.03,1.07c0.26,0.22,0.72,0.17,1.08,0.11
				c2.19-0.36,4.27-1.34,5.94-2.79C260.72,146.45,260.12,146.38,259.53,146.38z M211.24,129.13c-0.63,2.35-0.84,4.66-0.6,6.82
				c0.45,4.07,2.54,7.67,5.6,9.64c2.26,1.46,5.24,2.14,8.39,1.93c0.14-0.01,0.29-0.02,0.43-0.03c-0.28-0.35-0.49-0.7-0.62-1.01
				c-0.48-1.23-0.49-2.54-0.39-3.84c-0.17-0.01-0.35-0.03-0.52-0.04l-0.95-0.08c-2.73-0.24-6.15-0.82-8.38-3.2
				c-0.15-0.16-0.14-0.42,0.02-0.57c0.16-0.15,0.42-0.14,0.57,0.02c2.04,2.18,5.27,2.72,7.86,2.95l0.94,0.08
				c0.17,0.01,0.35,0.03,0.52,0.04c0.01-0.09,0.02-0.17,0.02-0.26l0.05-0.5c0.06-0.68,0.1-1.35,0.13-2.03
				c-1.32-0.17-2.46-0.7-3.24-1.56c-1.27-1.39-1.62-3.52-1.05-6.33c0.15-0.76,0.4-1.73,0.79-2.74c-0.89,0.52-1.8,0.99-2.74,1.4
				c-1.2,0.52-2.78,1.1-4.38,0.91c-0.98-0.12-1.77-0.53-2.23-1.17C211.38,129.41,211.31,129.27,211.24,129.13z M224.86,142.71
				c-0.09,1.2-0.08,2.4,0.34,3.47c0.13,0.34,0.43,0.76,0.84,1.19c2.12-0.31,4.36-0.98,6.93-2.08
				C230.79,143.44,227.85,142.98,224.86,142.71z M248.37,144.19c0,0.29,0.06,0.57,0.19,0.85c0.42,0.86,1.49,1.25,2.33,1.24
				c1.02-0.01,1.99-0.43,2.9-0.88c3.02-1.51,5.07-3.38,6.1-5.55c0.04-0.09,0.08-0.17,0.12-0.26c-0.09-0.02-0.18-0.05-0.26-0.07
				c-0.24-0.06-0.48-0.1-0.73-0.14c-2.13,1.41-4.62,2.65-7.52,3.75C250.43,143.54,249.39,143.89,248.37,144.19z M224.93,141.9
				c3.27,0.3,6.51,0.81,8.87,3.03c0.48-0.22,0.98-0.46,1.5-0.73c-0.06-0.04-0.12-0.07-0.18-0.11c-1.3-0.8-2.44-2.39-1.87-4.03
				c0.25-0.72,0.75-1.3,1.16-1.73c2.14-2.21,4.97-3.85,7.75-5.04c-0.01-0.05-0.02-0.11-0.03-0.16c-0.08-0.45-0.2-0.89-0.35-1.32
				c-1.33,0.78-2.84,1.46-4.48,1.48c-0.5-0.01-1-0.06-1.47-0.18c-2.5,2.61-5.36,5.13-9.05,5.82c-0.56,0.11-1.12,0.15-1.64,0.15
				c-0.03,0.68-0.07,1.37-0.13,2.05l-0.05,0.51C224.94,141.73,224.93,141.81,224.93,141.9z M237.11,144.1
				c1.43,0.44,3.22,0.58,5.27,0.41c0.22-0.02,0.44-0.04,0.65-0.06c0.23-0.61,0.51-1.18,0.8-1.7c0.81-1.4,1.83-2.67,2.81-3.89
				c0.94-1.16,1.9-2.36,2.66-3.65c0.7-1.18,1.23-2.46,1.59-3.79c-1.07,0.23-2.11,0.51-3.05,0.77l-0.19,0.05
				c-1.41,0.39-3.02,0.9-4.66,1.57c0.24,2.81-0.86,5.8-2.98,7.97C239.15,142.7,238.14,143.46,237.11,144.1z M251.8,131.24
				c-0.38,1.53-0.97,3.01-1.78,4.37c-0.79,1.34-1.78,2.56-2.73,3.75c-0.97,1.2-1.97,2.45-2.74,3.79c-0.21,0.37-0.41,0.76-0.59,1.18
				c1.19-0.17,2.42-0.43,3.69-0.78c0.29-1.25,1.34-2.45,2.59-3.22c2.55-1.57,5.63-2.21,8.59-1.8c0.61-0.41,1.19-0.84,1.73-1.28
				c0.12-1.79-0.4-3.66-1.85-4.86C256.86,130.84,254.29,130.82,251.8,131.24z M242.23,134.14c-2.62,1.15-5.26,2.7-7.25,4.76
				c-0.35,0.36-0.78,0.86-0.98,1.43c-0.4,1.15,0.46,2.42,1.53,3.07c0.19,0.12,0.4,0.23,0.62,0.33c1.16-0.67,2.32-1.49,3.32-2.51
				C241.35,139.28,242.36,136.64,242.23,134.14z M257.06,139.22c-2.24,0-4.48,0.62-6.4,1.8c-0.78,0.48-1.69,1.32-2.09,2.26
				c0.86-0.26,1.74-0.56,2.65-0.91c2.46-0.93,4.63-1.98,6.52-3.13C257.51,139.23,257.29,139.22,257.06,139.22z M276.12,131.85
				c-1.48,0-2.94,0.37-4.15,1.11c-1.94,1.17-3.2,3.23-3.2,5.26c0,2.19,1.54,4.22,3.52,4.63c1.94,0.4,4.2-0.79,5.27-2.79
				c0.93-1.74,1.09-4.02,0.44-6.43c-0.15-0.56-0.34-1.12-0.56-1.68C277,131.88,276.56,131.85,276.12,131.85z M261.06,139.08
				c1.19,0.46,2.35,1.24,2.93,2.35c0.03-0.19,0.07-0.38,0.11-0.57c0.64-2.89,2.49-5.7,5.63-8.59c0.76-0.7,1.61-1.38,2.5-2.11
				c0.96-0.77,1.92-1.55,2.81-2.37c-0.55-0.73-1.17-1.46-1.85-2.18c-4.91-5.19-13.31-9.26-21.03-6.68
				c-0.44,0.15-0.88,0.32-1.32,0.51c3.98,0.23,7.84,1.14,11.32,2.69c1.52,0.68,3.38,1.68,4.3,3.44c1.13,2.14,0.64,5.12-1.32,7.95
				c-1.03,1.5-2.29,2.87-3.79,4.13C261.3,138.13,261.2,138.61,261.06,139.08z M259.95,138.74c0.11,0.03,0.22,0.05,0.33,0.09
				c0.04-0.14,0.08-0.27,0.11-0.41C260.25,138.52,260.1,138.63,259.95,138.74z M225.15,138.28c0.47,0,0.96-0.04,1.47-0.13
				c3.34-0.63,6.01-2.9,8.36-5.32c-0.53-0.25-1.01-0.58-1.39-0.99c-1.29-1.38-1.56-3.7-0.66-5.66c0.34-0.74,0.83-1.44,1.46-2.09
				c-2.15-1.08-4.66-1.7-6.99-1.14c-1.15,1.32-2.42,2.52-3.81,3.59c0.4,0.98,0.65,2,0.82,2.89
				C224.97,132.34,225.22,135.31,225.15,138.28z M222.03,127.64c-0.65,1.33-1.01,2.67-1.21,3.66c-0.52,2.54-0.23,4.43,0.85,5.62
				c0.64,0.7,1.57,1.14,2.67,1.3c0.06-2.9-0.19-5.79-0.73-8.65c-0.15-0.78-0.36-1.68-0.69-2.54
				C222.63,127.24,222.33,127.45,222.03,127.64z M254.33,130.19c1.78,0,3.5,0.4,4.91,1.57c1.34,1.11,2.09,2.89,2.15,4.78
				c1.2-1.08,2.23-2.23,3.09-3.48c1.78-2.58,2.25-5.24,1.27-7.11c-0.81-1.55-2.52-2.46-3.92-3.08c-3.42-1.52-7.24-2.42-11.17-2.63
				c0.6,1.23,1.04,2.51,1.31,3.83c0.42,2.07,0.41,4.23,0.02,6.31C252.77,130.27,253.55,130.19,254.33,130.19z M242.47,131.38
				c0.19,0.51,0.34,1.04,0.44,1.6c1.6-0.65,3.17-1.15,4.55-1.53l0.19-0.05c1.07-0.29,2.25-0.62,3.48-0.86
				c0.44-2.07,0.46-4.23,0.05-6.3c-0.28-1.39-0.77-2.75-1.44-4.03c-0.14,0-0.28-0.01-0.42-0.01c-0.96,0.53-1.91,1.17-2.85,1.91
				c-2.19,1.73-4.13,3.81-5.98,5.88c0.64,0.79,1.22,1.67,1.67,2.63c1.63-1.05,3.76-2.85,4.63-5.46c0.07-0.21,0.3-0.32,0.51-0.25
				c0.21,0.07,0.33,0.3,0.25,0.51c-0.95,2.84-3.23,4.77-4.97,5.89C242.54,131.33,242.51,131.36,242.47,131.38z M236.47,132.43
				c0.26,0.04,0.53,0.06,0.81,0.06c1.5-0.02,2.92-0.68,4.18-1.43c-0.41-0.89-0.94-1.71-1.52-2.45c-0.09,0.1-0.17,0.19-0.26,0.29
				c-0.68,0.77-1.36,1.53-2.06,2.29l-0.24,0.26C237.08,131.77,236.78,132.1,236.47,132.43z M235.13,124.48
				c-0.65,0.63-1.14,1.31-1.47,2.03c-0.77,1.67-0.55,3.63,0.52,4.77c0.37,0.4,0.86,0.71,1.41,0.92c0.41-0.43,0.81-0.87,1.2-1.29
				l0.24-0.26c0.69-0.75,1.37-1.51,2.05-2.27c0.11-0.13,0.22-0.25,0.34-0.38c-0.7-0.79-1.44-1.46-2.12-2.02
				C236.65,125.44,235.92,124.93,235.13,124.48z M218.52,123.63c-1.78,0-3.74,0.81-5.1,1.86c-1.03,0.8-2.11,2.43-1.28,3.58
				c0.43,0.6,1.23,0.78,1.67,0.83c1.41,0.17,2.85-0.36,3.96-0.84c1.26-0.55,2.48-1.21,3.64-1.97c0.24-0.48,0.52-0.95,0.84-1.41
				c-0.47-0.74-1.1-1.36-1.93-1.71C219.76,123.73,219.15,123.63,218.52,123.63z M235.77,123.92c0.74,0.44,1.43,0.92,2.04,1.42
				c0.69,0.56,1.43,1.24,2.14,2.04c1.86-2.07,3.79-4.15,6.01-5.9c0.58-0.46,1.17-0.88,1.76-1.26c-4.08,0.14-7.56,1.01-10.34,2.61
				C236.78,123.17,236.24,123.53,235.77,123.92z M257.13,117.33c6.4,0,12.65,3.51,16.65,7.73c0.68,0.72,1.3,1.44,1.85,2.17
				c2.08-2.05,3.58-4.37,3.22-7.4c-0.45-3.8-3.68-6.39-9.87-7.92c-5.64-1.39-11.83-1.63-18.94-0.73c-2.28,0.29-4.47,0.75-6.61,1.33
				c2.69,1.58,4.96,3.84,6.53,6.45c0.64-0.31,1.29-0.57,1.94-0.79C253.63,117.59,255.38,117.33,257.13,117.33z M223.21,125.72
				c0.01,0.02,0.02,0.03,0.03,0.05c0.86-0.68,1.68-1.41,2.45-2.19C224.68,124.13,223.87,124.88,223.21,125.72z M218.54,122.83
				c0.73,0,1.44,0.12,2.08,0.39c0.91,0.38,1.6,1.02,2.14,1.77c0.7-0.85,1.57-1.61,2.64-2.17c0.5-0.26,1.02-0.46,1.55-0.61
				c0.78-0.91,1.49-1.87,2.12-2.88c0.25-0.39,0.7-1.18,1-2.09c-0.7,0.27-1.4,0.55-2.11,0.82c-3.64,1.4-8.21,2.92-13.02,3.16
				c-0.75,1.09-1.42,2.25-2.02,3.46c-0.04,0.08-0.08,0.17-0.12,0.26c0.04-0.03,0.08-0.06,0.12-0.09
				C214.4,123.7,216.56,122.83,218.54,122.83z M229.21,121.92c2.01,0,4.03,0.64,5.8,1.57c0.57-0.49,1.22-0.95,1.97-1.37
				c2.92-1.67,6.55-2.58,10.8-2.72c0.45-0.01,0.89-0.02,1.34-0.02c0.04-0.02,0.09-0.05,0.13-0.07c-1.63-2.7-4.05-5-6.91-6.51
				c-3.77,1.09-7.41,2.52-11.17,4c-0.05,0.02-0.1,0.04-0.15,0.06c-0.29,1.26-0.93,2.38-1.25,2.89c-0.48,0.76-1.01,1.5-1.57,2.21
				C228.53,121.94,228.87,121.92,229.21,121.92z M219.43,115.15c-2.72,1.13-5.4,2.38-8.01,3.73c-0.47,0.24-1.09,0.74-0.9,1.11
				c0.12,0.24,0.55,0.31,0.87,0.34c1.04,0.11,2.09,0.13,3.12,0.1C215.93,118.43,217.59,116.65,219.43,115.15z M222.63,113.89
				c-2.7,1.63-5.1,3.84-7.07,6.49c4.46-0.33,8.7-1.75,12.12-3.07c0.88-0.34,1.76-0.68,2.63-1.03c0.15-1.01,0-2.06-0.89-2.82
				c-1.5-1.29-3.97-0.6-5.7,0.03C223.35,113.62,222.99,113.75,222.63,113.89z M227.17,111.93c1,0,1.97,0.24,2.76,0.92
				c1.02,0.88,1.3,2,1.22,3.1c3.39-1.33,6.69-2.62,10.08-3.66c-0.16-0.07-0.33-0.14-0.49-0.21c-4.28-1.71-9.35-1.74-13.96-0.15
				C226.91,111.93,227.04,111.93,227.17,111.93z"/>
		</g>
	</g>
</g>
<g id="Speech_bubble_1">
	<g>
		<g>
			<polygon class="st4" points="131.08,296.22 139.03,300.95 135.53,294.07 			"/>
		</g>
		<g class="st7">
			<polygon class="st8" points="131.08,296.22 139.03,300.95 135.53,294.07 			"/>
		</g>
		<g>
			<path class="st4" d="M139.71,296.01l-33.37,6c-4.43,0.8-8.67-2.15-9.47-6.58l-1.12-6.26c-0.8-4.43,2.15-8.67,6.58-9.47l33.37-6
				c4.43-0.8,8.67,2.15,9.47,6.58l1.12,6.26C147.09,290.97,144.14,295.21,139.71,296.01z"/>
		</g>
		<g class="st7">
			<path class="st8" d="M139.71,296.01l-33.37,6c-4.43,0.8-8.67-2.15-9.47-6.58l-1.12-6.26c-0.8-4.43,2.15-8.67,6.58-9.47l33.37-6
				c4.43-0.8,8.67,2.15,9.47,6.58l1.12,6.26C147.09,290.97,144.14,295.21,139.71,296.01z"/>
		</g>
		<g>
			<g>
				<path class="st6" d="M105.28,290.11c-0.14-0.81,0.37-1.51,1.13-1.65c0.75-0.14,1.51,0.34,1.65,1.15
					c0.14,0.81-0.39,1.55-1.15,1.68C106.16,291.43,105.42,290.92,105.28,290.11z"/>
			</g>
			<g>
				<path class="st6" d="M112.09,288.89c-0.14-0.81,0.37-1.51,1.13-1.65c0.75-0.14,1.51,0.34,1.65,1.15
					c0.14,0.81-0.39,1.55-1.15,1.68C112.97,290.2,112.23,289.69,112.09,288.89z"/>
			</g>
			<g>
				<path class="st6" d="M118.89,287.66c-0.14-0.81,0.37-1.51,1.13-1.65c0.75-0.14,1.51,0.34,1.65,1.15
					c0.14,0.81-0.39,1.55-1.15,1.68C119.77,288.98,119.04,288.47,118.89,287.66z"/>
			</g>
			<g>
				<path class="st6" d="M125.7,286.44c-0.14-0.81,0.37-1.51,1.13-1.65c0.75-0.14,1.51,0.34,1.65,1.15
					c0.14,0.81-0.39,1.55-1.15,1.68C126.58,287.76,125.84,287.25,125.7,286.44z"/>
			</g>
			<g>
				<path class="st6" d="M132.51,285.22c-0.14-0.81,0.37-1.51,1.13-1.65c0.75-0.14,1.51,0.34,1.65,1.15
					c0.14,0.81-0.39,1.55-1.15,1.68C133.39,286.53,132.65,286.02,132.51,285.22z"/>
			</g>
		</g>
	</g>
</g>
<g id="Character">
	<g>
		<g>
			<path class="st6" d="M223.99,192.52c0,0-9.48-1.99-17.8,2.62c-8.33,4.61-7.69,27.33-13.88,29.42c-6.19,2.09-7.9,4.66-6.62,8.39
				c1.28,3.73-4.93,4.38-5.56,6.3c-0.63,1.92-1.06,4.48-1.06,4.48s5.61-2.08,8.75,2.99c3.14,5.07,9.38,12.38,16.01,12.17
				c6.63-0.21,13.06,3.42,18.49,5.66c5.43,2.24,12.9-5.96,17.81-9.12s4.86,1.02,10.02,0c5.16-1.02,6.21-4.87,6.21-4.87
				s-5.12-3.52-1.71-10.09c3.42-6.57-7.5-13.07-4.5-21.58C253.16,210.39,243.07,194.48,223.99,192.52z"/>
			<path class="st6" d="M260.39,247.66c-0.03,0-0.05,0-0.08-0.01c-0.11-0.02-2.72-0.55-3.9-2.37c-0.55-0.85-0.7-1.83-0.44-2.92
				c0.11-0.45,0.22-0.89,0.33-1.31c0.84-3.2,1.51-5.73-2.57-9.65c-3.77-3.63-3.79-6.14-3.83-10.31c-0.01-1.28-0.02-2.73-0.15-4.43
				c-0.02-0.22,0.15-0.42,0.37-0.43c0.22-0.01,0.42,0.15,0.43,0.37c0.13,1.72,0.14,3.19,0.16,4.48c0.04,4.09,0.06,6.35,3.58,9.74
				c4.42,4.25,3.66,7.12,2.79,10.44c-0.11,0.42-0.22,0.85-0.33,1.29c-0.2,0.87-0.09,1.64,0.33,2.29c0.99,1.53,3.35,2.02,3.38,2.02
				c0.22,0.04,0.36,0.26,0.32,0.48C260.75,247.53,260.58,247.66,260.39,247.66z"/>
			<path class="st6" d="M177.47,238.85c-0.18,0-0.34-0.12-0.39-0.3c-0.06-0.21,0.07-0.44,0.28-0.5c0.04-0.01,3.58-1.02,4.69-3.03
				c0.34-0.62,0.41-1.27,0.21-1.96c-1.26-4.22,1.67-7.55,8.7-9.9c5.05-1.69,5.58-6.17,6.18-11.35c0.23-1.94,0.46-3.95,0.94-5.98
				c2.02-8.51,7.06-12.42,14.98-11.6c0.22,0.02,0.38,0.22,0.36,0.44c-0.02,0.22-0.23,0.39-0.44,0.36
				c-7.55-0.78-12.17,2.82-14.11,10.98c-0.47,1.98-0.7,3.96-0.93,5.88c-0.61,5.23-1.2,10.18-6.73,12.03
				c-6.54,2.19-9.29,5.18-8.18,8.9c0.27,0.9,0.18,1.77-0.27,2.58c-1.27,2.31-5.02,3.38-5.18,3.42
				C177.54,238.85,177.5,238.85,177.47,238.85z"/>
		</g>
		<path class="st6" d="M337.26,317.95c-3.34-5.31-6.74-10.26-10.15-14.62c-7.5-9.59-20.63-12.79-31.62-7.54
			c-1.98,0.95-3.95,1.92-5.91,2.91c-44.64,22.59-81.66,55.66-81.66,55.66l1.43,2.74l0.01,0.02c-30.33,11.09-58.21,43.74-40.55,54.78
			c20.5,12.81,43.24,6.05,65.83-6.07l0,0.01c0,0,0.03-0.02,0.11-0.06c0.06-0.03,0.16-0.08,0.28-0.15
			c3.66-1.94,32.58-18.2,71.27-62.59c16.19,19.92,39.46,36.36,56.09,58.87c2.49,0.73,16.58,1.18,16.13-1.17
			C378.52,400.73,359.35,353.17,337.26,317.95z"/>
		<path class="st9" d="M378.52,400.73c0.45,2.35-13.63,1.89-16.13,1.17c-13.7-18.54-31.9-32.95-46.94-48.6
			c-3.22-3.35-6.3-6.75-9.15-10.27c-38.69,44.39-67.61,60.64-71.27,62.59c-0.11,0.06-0.21,0.11-0.28,0.15
			c-0.08,0.05-0.11,0.06-0.11,0.06c-18.51,9.93-37.13,16.26-54.52,11.16c-3.84-1.12-7.59-2.79-11.3-5.1
			c-17.67-11.03,10.2-43.69,40.55-54.78l-0.02-0.02l-1.43-2.74c0,0,4.91-4.37,13.29-11.03c14.54-11.56,39.58-29.97,67.7-44.29
			c0.23-0.11,0.44-0.23,0.66-0.34c1.96-0.99,3.92-1.96,5.91-2.91c10.98-5.25,24.13-2.06,31.61,7.55c3.42,4.36,6.82,9.31,10.15,14.62
			C359.35,353.17,378.52,400.73,378.52,400.73z"/>
		<path class="st10" d="M315.45,353.3c-3.22-3.35-6.3-6.75-9.15-10.27c-38.69,44.39-67.61,60.64-71.27,62.59
			c-0.11,0.06-0.21,0.11-0.28,0.15c-0.08,0.05-0.11,0.06-0.11,0.06c-18.51,9.93-37.13,16.26-54.52,11.16
			c1.93-16.68,19.89-46.72,41.1-73.66c14.54-11.56,39.58-29.97,67.7-44.29C294.72,307.62,303.39,323.6,315.45,353.3z"/>
		<g>
			<path class="st11" d="M258.85,209l-6.3-13.86l-11.08,7.37c0,0,3.04,10.31,11.87,11.05L258.85,209z"/>
			<polygon class="st11" points="243.96,188.53 237.02,196 241.47,202.51 252.55,195.14 			"/>
		</g>
		<path class="st12" d="M239.83,265.32c12.97-6.78,26.01-14.43,36.41-24.78c0,0-1,1.4-1,1.4c-0.18,0.32-0.26,0.68-0.29,0.93
			c-0.29-2.98-5.33-9.89-8.51-13.74c-5.1-6.28-10.91-12.39-16.52-18.26c-3.57-3.82,1.18-9.62,5.62-6.91
			c3.76,2.33,7.22,4.81,10.69,7.44c9.89,7.79,32.37,25.78,22.18,39.91c-10.73,12.8-24.62,22.31-39.46,29.62c0,0-1.56,0.72-1.56,0.72
			c-4.51,2.09-9.86,0.13-11.95-4.38C233.34,272.77,235.35,267.41,239.83,265.32L239.83,265.32z"/>
		<path class="st4" d="M258.5,281.21c0,0-7.14,4.08-14.48,7.12c-4.81,2.01-9.7,3.56-12.71,3.22l-0.66-2.3l-8.32-28.78
			c0,0,14.57,1.98,35.11-6.96C257.43,253.52,263.31,266.68,258.5,281.21z"/>
		<path class="st10" d="M244.02,288.33c-4.81,2.01-9.7,3.56-12.71,3.22l-0.66-2.3c0.99-4.66,3.61-10.12,8.7-15.76
			C239.34,273.5,244.17,279.83,244.02,288.33z"/>
		<path class="st4" d="M166.44,273.83c-1.71,5.59-3.59,9.69-6.48,23.36c-2.66,11.51-4.94,22.94-8.38,42.06l57.34,15.64
			c3.25-16.47,10.15-34.36,30.36-67.9c4.69-7.78,12-22.35,3.73-25.53c-2.21-0.85-14.99,3.33-17.44,2.54
			c-9.49-3.09-17.29-5.54-26.04-7.1c-2.9-0.52-5.93-0.96-8.84-1.33C180.2,254.2,169.51,263.81,166.44,273.83z"/>
		<g>
			<path class="st4" d="M193.81,252.51c0,0,3.73-1.09,11.95-0.77c11.96,0.46,20.71,13.77,20.71,13.77s1.28,11.64-3.2,19.27
				l-7.79-7.63l-10.68,6.94C204.8,284.09,191.89,262.23,193.81,252.51z"/>
			<path class="st13" d="M193.81,252.51c0,0,3.73-1.09,11.95-0.77c11.96,0.46,20.71,13.77,20.71,13.77s1.28,11.64-3.2,19.27
				l-7.79-7.63l-10.68,6.94C204.8,284.09,191.89,262.23,193.81,252.51z"/>
		</g>
		<g>
			<path class="st11" d="M210.77,231.1c-1.06,8-4.29,22.07-11.56,24.43c0,0,4.06,10.41,16.27,19.7c5.97-4.53,5.43-12.27,5.43-12.27
				s-4.47-5.34,0.7-13.11L210.77,231.1z"/>
			<path class="st14" d="M210.77,231.1c-1.06,8-4.29,22.07-11.56,24.43c0,0,4.06,10.41,16.27,19.7c5.97-4.53,5.43-12.27,5.43-12.27
				s-4.47-5.34,0.7-13.11L210.77,231.1z"/>
		</g>
		<g>
			<path class="st11" d="M211.24,212.17c-3.41,13.85-5.14,19.63-0.64,29.07c6.77,14.19,24.03,16.17,31.39,3.81
				c6.62-11.12,11.08-31.91-0.15-42.11C230.77,192.89,214.65,198.31,211.24,212.17z"/>
			<path class="st6" d="M242.67,227l2.86,0.17C245.53,227.17,243.56,228.84,242.67,227z"/>
			<path class="st15" d="M235.66,227.38c0,0,0.41,5.64,1.75,8.78c-1.86,0.89-4.12-0.67-4.12-0.67L235.66,227.38z"/>
			<path class="st6" d="M226.17,233.93c-0.51-0.35-1.09-0.67-1.73-0.96c-0.17-0.08-0.37,0.01-0.43,0.19
				c-0.07,0.18,0.02,0.39,0.19,0.47c4.67,2.07,5.6,6.5,5.61,6.54c0.04,0.2,0.22,0.32,0.4,0.29c0.18-0.04,0.3-0.22,0.26-0.42
				C230.44,239.88,229.69,236.32,226.17,233.93z"/>
			<path class="st6" d="M233.93,216.62c-0.18-0.01-0.36,0.05-0.5,0.18c-2.1,2.11-4.6,1.5-4.62,1.5c-0.37-0.09-0.73,0.13-0.8,0.51
				c-0.07,0.38,0.18,0.76,0.55,0.85c0.13,0.03,3.26,0.8,5.87-1.82c0.26-0.26,0.25-0.71-0.03-0.99
				C234.27,216.71,234.1,216.64,233.93,216.62z"/>
			<path class="st6" d="M243.53,218.97c-0.15-0.08-0.33-0.1-0.5-0.04c-0.35,0.12-0.53,0.52-0.39,0.9c1.31,3.76,4.35,4.67,4.48,4.71
				c0.36,0.1,0.72-0.12,0.81-0.5c0.08-0.38-0.15-0.77-0.51-0.88c-0.12-0.03-2.46-0.78-3.51-3.76
				C243.83,219.2,243.69,219.05,243.53,218.97z"/>
			<path class="st6" d="M242.67,227c0,0-1.06,1.96-3.33,0.08c0,0,1.43,3.46,4.27,0.75L242.67,227z"/>
			<path class="st6" d="M228.64,223.55l2.86,0.17C231.5,223.72,229.52,225.38,228.64,223.55z"/>
			<path class="st6" d="M228.64,223.55c0,0-1.06,1.96-3.33,0.08c0,0,1.43,3.46,4.27,0.75L228.64,223.55z"/>
			<path class="st6" d="M211.19,200.13c0,0,9.44-16.03,29.51-6.6c20.07,9.42,10,30.18,10,30.18l-4.07-2.69l0.11-7.94
				c0,0-2.09,4.09-6.59,5.39c0,0,4.26-3.09,5.72-6.54c0,0-3.87,4.45-8.69,4.57l-10.25-2.42c0,0,5.09-1.71,7.61-4.46
				c0,0-8.93,4.64-16.14,5.45l-7.39,8.85l-7.18-6.38C203.83,217.54,203.6,201.45,211.19,200.13z"/>
			<path class="st11" d="M203.4,221.71c0.63,3.3,2.62,5.92,4.77,7.33c3.25,2.12,5.97-0.87,5.98-4.85c0.02-3.58-1.66-9-5.36-9.5
				C205.15,214.2,202.67,217.93,203.4,221.71z"/>
			<path class="st14" d="M224.27,252.77c-5.44-1.23-10.61-5.15-13.67-11.55c-2.17-4.53-2.88-8.23-2.67-12.37
				c-0.03,0-0.06-0.03-0.08-0.06c0.5-4.87,0.92-10.07,0.99-14.1c0.6,0.08,1.13,0.31,1.62,0.63c0.26-1,0.52-2.06,0.79-3.16
				c0.57-2.33,1.51-4.42,2.72-6.23c2.23,0.45,4.34,1.54,4.34,1.54S227.23,231.9,224.27,252.77z"/>
		</g>
		<path class="st10" d="M204.69,270.48c0,0-15.21,23.81-35.55,14.31C169.14,284.78,180.51,262.47,204.69,270.48z"/>
		<path class="st12" d="M182.68,255.55c8.39-0.5,18.01-0.42,25.79-3.16c-0.48,0.36-1.01,0.96-1.29,1.46
			c-0.14,0.26-0.14,0.27-0.18,0.39c0.62-1.32,0.87-3.63,1.14-5.53c1.26-11.57,1.22-28.96,1.59-40.8c0.18-5.31,7.69-6.03,8.88-0.87
			c2.19,10.47,3.7,20.94,4.51,31.62c0.32,7.15,1.77,20.09-3.68,25.68c-8.43,7.89-25.85,9.32-36.82,9.23
			C170.84,272.89,170.92,256.12,182.68,255.55L182.68,255.55z"/>
		<path class="st4" d="M162.77,285.52c0,0,1.35-23.09,11.39-30.09c10.04-7,23.49-2.26,23.49-2.26s2.47,13.36-1.11,23.53
			C196.53,276.69,176.57,287.38,162.77,285.52z"/>
		<g>
			<path class="st11" d="M209.49,207.17l4.13-14.65l12.07,5.61c0,0-1.44,10.65-10.06,12.72L209.49,207.17z"/>
			<polygon class="st11" points="221.11,184.69 229.1,191.02 225.69,198.13 213.62,192.52 			"/>
		</g>
		<path class="st6" d="M291.13,304.96c-0.33-0.99-0.66-1.97-1-2.93c-5.65-16.04-25.51-21.87-38.97-11.48
			c-1.31,1.01-2.6,2.03-3.89,3.06c-24.9,19.88-45.54,42.47-56.37,55.15c0,0,0,0,0,0l-39.31-9.52c0,0-28.25,51.5,5.4,74.33
			c8.46,5.74,14.62,5.22,22.53,5.22c19.25,0,38.72-14.26,38.72-14.26l0-0.01l0.01,0.01c0,0,20.99-15.93,47.98-56.89
			c9.68,19.01,21.29,39.79,28.56,59.01c2.22,1.38,14.72,2.06,14.93-0.31C309.72,406.35,304.49,345.14,291.13,304.96z"/>
		<path class="st9" d="M291.13,304.96c-0.33-0.99-0.66-1.97-1-2.93c-5.65-16.04-25.51-21.87-38.97-11.48
			c-1.31,1.01-2.6,2.03-3.89,3.06c-24.9,19.88-45.54,42.47-56.37,55.15c0,0,0,0,0,0l-39.31-9.52c0,0-28.25,51.5,5.4,74.33
			c8.46,5.74,14.62,5.22,22.53,5.22c19.25,0,38.72-14.26,38.72-14.26l0-0.01l0.01,0.01c0,0,20.99-15.93,47.98-56.89
			c9.68,19.01,21.29,39.79,28.56,59.01c2.22,1.38,14.72,2.06,14.93-0.31C309.72,406.35,304.49,345.14,291.13,304.96z"/>
		<path class="st6" d="M322.37,418.6c-11.01,0-12.47-0.17-18.65-0.38c-5.3-0.19-6.57,0.47-10.82,0.38c-3.56-0.08-3.42-3.48-2.33-7.4
			c0.55-1.97,1.39-6.13,2.15-9.3l16.13-1.17c2.27,4.33,7.39,10.51,13.6,11.35C328.37,412.87,326.76,418.6,322.37,418.6z"/>
		<path class="st6" d="M392.04,418.6c-11.01,0-12.47-0.17-18.65-0.38c-5.3-0.19-6.57,0.47-10.82,0.38c-3.56-0.08-3.42-3.48-2.33-7.4
			c0.55-1.97,1.39-6.13,2.15-9.3l16.13-1.17c2.27,4.33,7.39,10.51,13.6,11.35C398.04,412.87,396.43,418.6,392.04,418.6z"/>
		<path class="st10" d="M190.89,348.77c0,0-10.33,12.19-14.38,18.81C176.51,367.58,176.23,350.89,190.89,348.77z"/>
	</g>
</g>
</svg>
