<?xml version="1.0" encoding="utf-8"?>
<!-- Generator: Adobe Illustrator 25.2.1, SVG Export Plug-In . SVG Version: 6.00 Build 0)  -->
<svg version="1.1" xmlns="http://www.w3.org/2000/svg" xmlns:xlink="http://www.w3.org/1999/xlink" x="0px" y="0px"
	 viewBox="0 0 500 500" style="enable-background:new 0 0 500 500;" xml:space="preserve">
<style type="text/css">
	.st0{fill:#E0E0E0;}
	.st1{display:none;}
	.st2{display:inline;}
	.st3{fill:#407BFF;}
	.st4{opacity:0.9;fill:#FFFFFF;}
	.st5{opacity:0.9;}
	.st6{fill:#FFFFFF;}
	.st7{fill:#F5F5F5;}
	.st8{opacity:0.2;}
	.st9{opacity:0.3;}
	.st10{fill:#263238;}
	.st11{opacity:0.5;fill:#FFFFFF;}
	.st12{fill:#FDBBB5;}
	.st13{opacity:0.2;enable-background:new    ;}
	.st14{fill:#FF7E78;}
	
		.st15{opacity:0.2;fill:none;stroke:#000000;stroke-width:0.75;stroke-linecap:round;stroke-linejoin:round;stroke-miterlimit:10;enable-background:new    ;}
	.st16{fill:#D7504D;}
</style>
<g id="Background_complete">
	<g>
		<path class="st0" d="M431.26,96.23c-4.07-15.65-12.27-30.55-24.19-40.06c-8.25-6.59-18.35-10.28-28.03-9.97l0,0
			c-0.01,0-0.01,0-0.02,0c-1.35,0.04-2.69,0.17-4.02,0.37c-22.64,2.79-32.63,17.5-31.81,31.03c0.86,14.31,10.64,27,22.03,33.93
			c7.46,4.53,15.63,7.09,23.31,11.08c7.67,4,15.2,9.92,18.79,18.59c3.34,8.06,4.29,19.38,11.73,22c4.27,1.5,8.77-1.17,11.18-5.16
			c2.41-3.99,3.15-9.03,3.66-13.94C435.54,128.29,435.34,111.89,431.26,96.23z"/>
	</g>
	<g>
		<path class="st0" d="M108.89,99.81c-0.88-6.82-3.57-16.23-16.42-11.48c-30.35,16.29-45.98,45.22-43.24,75.74
			c0.4,4.43,1.58,9.36,5.9,11.84c3.33,1.91,7.89,1.79,11.49,0.28c3.6-1.51,6.34-4.24,8.33-7.21c6.83-10.24,5.51-23.21,11.61-33.79
			c3.55-6.15,9.38-11.08,14.25-16.54C105.67,113.2,109.77,106.63,108.89,99.81z"/>
	</g>
	<ellipse class="st0" cx="427.79" cy="206.2" rx="11.56" ry="15.98"/>
	<g>
		<path class="st0" d="M259.43,35.12c-2.95-2.65-6.76-4.14-10.55-5.3c-16.06-4.94-33.58-5.03-49.7-0.26
			c-6.29,1.86-18.17,3.38-18.17,12.43c0.57,5.78,5.9,10.19,11.56,11.5c5.66,1.31,11.57,0.16,17.21-1.21
			c5.64-1.37,11.37-2.96,17.15-2.51c6.89,0.53,13.28,3.9,20.13,4.8c6.85,0.9,15.27-2.07,16.55-8.86
			C264.35,41.81,262.38,37.77,259.43,35.12z"/>
	</g>
	<g>
		<path class="st0" d="M74.29,333.88c-2.49-5.5-9.07-9.44-14.74-7.34l-3.13,0.99c-8.02,4.89-11.86,14.65-12.74,24
			c-0.46,4.82-0.11,10.13,3.08,13.76c4.12,4.69,11.85,4.77,17.14,1.45c5.29-3.32,8.45-9.19,10.32-15.15
			C76.03,345.83,76.79,339.38,74.29,333.88z"/>
	</g>
	<g>
		<path class="st0" d="M451.18,355.15c-0.65-2.44-1.57-4.98-3.57-6.54c-2-1.55-5.36-1.57-6.71,0.56l-1.99,2.83
			c-4.86,16.46-9.71,32.92-14.57,49.37c-1.05,3.56-1.76,8.2,1.31,10.3c3.02,2.06,7.07-0.2,9.77-2.67
			C449.93,395.73,456.24,374.15,451.18,355.15z"/>
	</g>
</g>
<g id="Background_simple" class="st1">
	<g class="st2">
		<path class="st3" d="M359.46,58.18c-3.33,4.7-5.41,10.61-5.86,17.56c-0.52,8.19,0.98,19.04,10.04,27.42
			c16.73,15.46,28.56,6.27,35.88,19.89c8.29,15.43,22.83,29.56,38.13,24.25c29.06-10.09,16.5-80.37-12.79-100.6
			C406.63,34.11,377.14,33.2,359.46,58.18z"/>
		<path class="st4" d="M359.46,58.18c-3.33,4.7-5.41,10.61-5.86,17.56c-0.52,8.19,0.98,19.04,10.04,27.42
			c16.73,15.46,28.56,6.27,35.88,19.89c8.29,15.43,22.83,29.56,38.13,24.25c29.06-10.09,16.5-80.37-12.79-100.6
			C406.63,34.11,377.14,33.2,359.46,58.18z"/>
	</g>
	<g class="st2">
		<g>
			<path class="st3" d="M54.04,116.73c4.21,3.19,9.81,5.9,14.89,4.41c5.07-1.49,10.81-4.63,15.94-10.58
				c9.25-11.78,16.98-24.74,22.96-38.48c2.18-5.01,4.16-10.44,3.2-15.81c-1.64-9.21-11.92-15.05-21.24-14.19
				c-9.32,0.85-17.43,6.87-23.59,13.91c-10.97,12.55-17.28,29.09-17.43,45.76C48.71,107.24,49.66,113.4,54.04,116.73z"/>
		</g>
		<g class="st5">
			<path class="st6" d="M54.04,116.73c4.21,3.19,9.81,5.9,14.89,4.41c5.07-1.49,10.81-4.63,15.94-10.58
				c9.25-11.78,16.98-24.74,22.96-38.48c2.18-5.01,4.16-10.44,3.2-15.81c-1.64-9.21-11.92-15.05-21.24-14.19
				c-9.32,0.85-17.43,6.87-23.59,13.91c-10.97,12.55-17.28,29.09-17.43,45.76C48.71,107.24,49.66,113.4,54.04,116.73z"/>
		</g>
	</g>
</g>
<g id="Shadow_2">
	<g>
		<g>
			<path class="st7" d="M464.87,444.5c0,10.13-96.2,18.35-214.87,18.35S35.13,454.64,35.13,444.5c0-10.14,96.2-18.35,214.87-18.35
				S464.87,434.37,464.87,444.5z"/>
		</g>
	</g>
</g>
<g id="Panic">
	<g>
		<g>
			<path class="st3" d="M416.2,335.37C416.2,335.37,416.2,335.37,416.2,335.37C416.31,335.67,416.26,335.52,416.2,335.37z"/>
		</g>
		<g>
			<g>
				<path class="st3" d="M428.13,327.71c-0.82-12.58-8.6-23.6-18.3-31.44c-0.43-0.34-0.87-0.65-1.3-0.99
					c-5.92-6.28-14.51-9.63-14.51-9.63c-7.29-4.39-15.71-7.38-23.85-10.04c-14.27-4.66-26.9-9.8-38.67-19.12
					c-2.03-1.61-8.33-8.61-7.27-10.23c1.28-1.95,10.08,1.51,12.2,2.48c3.69,1.67,7.39,3.35,11.08,5.02
					c2.06,0.93,4.19,1.88,6.46,1.93c2.26,0.04,4.71-1.07,5.51-3.19c0.75-1.96-0.12-4.26-1.61-5.74c-1.49-1.48-3.5-2.31-5.47-3.04
					c-8.79-3.25-15.6-7.41-24.96-7.96c-1.94-0.11-4.92-0.59-6.85-0.71c-7-0.45-8.58-1.74-7.07-3.72c0,0,3.72-4.83,13.27-4.78
					c9.99,0.05,19.72,3.38,29.08,6.87c-3.75-4.63-9.55-7.06-15.29-8.64c-5.74-1.58-11.7-2.52-17.12-4.99
					c-2.41-1.1-11.04-3.66-10.73-6.29c0,0,6.14-3.76,14.59-3.33c12.22,0.63,24.06,5.24,34.54,11.55c-1.81-5.1-6.34-8.78-11.18-11.19
					c-4.84-2.41-10.12-3.8-15.08-5.96c-2.55-1.11-10.28-4.28-9.2-6.84c0.75-1.76,7.8-1.51,9.71-1.66
					c13.29-1.06,26.94,4.71,35.43,14.99c-4.51-7.25-8.17-15.03-10.9-23.12c-0.48-1.42-0.93-2.93-0.4-4.4
					c0.29-0.78,0.89-1.45,1.7-1.67c1.45-0.4,2.57,0.73,3.43,1.8c5.02,6.32,8.04,13.94,11.76,21.11c2.8,3.23,6.2,5.9,10.6,5.09
					c2.62-0.48,4.84-2.2,6.23-4.47c2.89-4.73,2.21-10.33,0.62-15.35c-3.1-9.83-9.44-18.26-15.66-26.47
					c-4.22-5.57-8.68-11.34-14.97-14.38c-4.43-2.15-10.05-2.44-14.38-0.43c0,0,0-0.01,0-0.01c-4.85,3.19-9.4,6.64-12.35,9
					c-5.8,4.62-11.98,9.56-19.37,10.24c-0.95,0.09-2.13-0.03-2.51-0.91c-0.46-1.06,0.66-2.09,1.63-2.7
					c1.69-1.07,3.39-2.14,5.08-3.21c0.94-0.6,1.92-1.22,2.55-2.14c0.63-0.92,0.83-2.23,0.18-3.14c-0.61-0.84-1.79-1.11-2.81-0.89
					c-1.02,0.21-1.9,0.81-2.74,1.43c-3.73,2.75-7.05,6.05-9.81,9.76c-0.57,0.77-1.13,1.57-1.91,2.13c-0.77,0.57-1.81,0.87-2.7,0.52
					c-1.19-0.47-1.7-1.95-1.47-3.21c0.24-1.25,1.04-2.32,1.85-3.3c3.14-3.81,6.75-7.22,10.73-10.13c-2.93,0.29-5.51,2.03-7.72,3.96
					c-2.21,1.94-4.22,4.14-6.71,5.71c-1.11,0.69-2.64,1.22-3.64,0.38c-0.66-0.55-0.82-1.54-0.59-2.38c0.23-0.83,0.76-1.54,1.31-2.21
					c3.83-4.68,8.69-8.5,14.14-11.11c-2.59-0.64-5.34,0.23-7.65,1.57c-2.66,1.54-4.92,3.69-7.58,5.24c-0.73,0.42-1.7,0.41-2.35-0.14
					c-0.95-0.8-0.52-2.06,0.01-3.02c3.17-5.77,9.26-9.83,15.8-10.55c-4.22-0.11-8.42-0.71-12.5-1.78c-0.6-0.16-1.22-0.34-1.68-0.76
					c-0.46-0.42-0.69-1.15-0.35-1.68c0.31-0.49,0.97-0.62,1.55-0.67c4.08-0.37,8.16,0.52,12.25,0.92
					c9.44,0.92,20.76,1.33,29.28-2.82c0,0,5.46-2.18,10.88-4.76c0.67-2.75-0.92-5.83-2.9-8.02c-6.25-6.9-16.01-9.41-23.31-15.19
					c-7.18-5.68-11.52-14.09-16.39-21.85c-4.86-7.76-11-15.49-19.73-18.25c-3.83-1.21-8.51-1.17-11.31,1.72
					c-1.25,1.29-1.94,2.99-2.19,4.78c2.34,11.38,7.18,22.24,14.23,31.49c2.41,3.16,4.23,6.7,5.58,10.43
					c0.28,0.77,0.47,1.64,0.05,2.32c-0.48,0.8-1.63,0.98-2.51,0.65c-0.88-0.33-1.54-1.05-2.16-1.76c-4.2-4.8-7.83-10.08-10.81-15.71
					c3.44,9.34,2.03,20.31-3.65,28.48c-0.82,1.17-3.3,5.82-4.72,5.64c-2.06-0.26-1.2-6.45-0.95-8.5c0.47-4.01,1.56-7.94,1.82-11.96
					c0.26-4.03-0.41-8.33-3.01-11.42c0.13,9.13-1.35,18.5-5.53,26.62c-2.89,5.61-7.63,8.16-7.63,8.16
					c-1.81-0.79-0.22-7.32-0.02-9.29c0.44-4.42,2.08-8.62,3.21-12.92c1.14-4.3,1.75-8.96,0.18-13.11c-1.27,7.35-2.6,14.98-6.5,21.34
					c-4.95,8.06-10.91,8.75-10.91,8.75c-1.84,0.23-1.1-3.18,1.24-7.86c0.65-1.29,0.95-2.72,1.61-4.01
					c3.16-6.24,5.4-12.95,6.61-19.85c0.27-1.55,0.49-3.15,0.09-4.67c-0.4-1.52-1.55-2.94-3.1-3.2c-1.67-0.27-3.3,0.88-4.13,2.36
					c-0.82,1.47-1.01,3.21-1.18,4.89c-0.31,3.01-0.62,6.02-0.93,9.04c-0.18,1.73-1.25,8.71-2.99,8.8c-1.44,0.07-3.59-6.62-3.86-8.53
					c-1.58-11.09-0.15-21.17,2.2-32.13c0.4-1.85,0.78-3.73,1.13-5.62c-0.23-1.04-0.72-1.97-1.58-2.63
					c-1.51-1.17-3.61-1.09-5.52-0.96c-6.8,0.46-13.69,0.94-20.12,3.27c-0.74,0.27-1.47,0.6-2.13,1.05
					c-4.09,2.79-2.61,7.05-1.02,10.54c-0.03,0.01-0.05,0.02-0.08,0.03c4.21,7.92,7.65,15.52,9.73,23.82
					c0.42,1.69,1.04,7.66-0.04,7.65c-1.3-0.02-4.36-6.11-5.06-7.63c-1.21-2.64-2.42-5.27-3.62-7.91c-0.67-1.47-1.38-2.99-2.46-4.25
					c-1.08-1.27-2.66-2.22-3.79-1.92c-1.05,0.28-1.43,1.57-1.22,2.92c0.21,1.35,0.89,2.75,1.59,4.1c3.13,6.02,6.96,11.84,11.3,17.21
					c0.9,1.11,1.59,2.36,2.48,3.47c3.24,4.03,4.89,7,3.47,6.86c0,0-4.58-0.38-10.82-7.29c-4.92-5.45-8.38-12.11-11.71-18.53
					c0.2,3.71,2.17,7.79,4.4,11.52c2.23,3.74,4.8,7.37,6.56,11.24c0.78,1.72,4.08,7.4,3.01,8.17c0,0-4.29-2.06-8.24-6.9
					c-5.71-6.99-9.84-15.17-12.72-23.21c-0.9,2.8,0.01,6.62,1.52,10.15c1.51,3.53,3.58,6.95,5.23,10.45
					c0.85,1.8,3.49,7.21,2.08,7.51c-0.98,0.21-4.31-3.78-5.29-4.79c-6.82-6.98-11.42-16.58-11.95-24.92
					c-0.34,5.06-1.28,9.84-2.78,14.22c-0.22,0.64-0.47,1.3-1,1.63c-0.53,0.33-1.43,0.21-2.05-0.48c-0.58-0.65-0.7-1.51-0.73-2.25
					c-0.24-5.16,1.04-9.64,1.72-14.38c0.35-2.41,0.51-4.91,0.56-7.46c-0.28-2.02-0.87-4.03-1.8-4.89c-1.45-1.33-3.8-1.15-5.52-0.18
					c-1.71,0.97-2.96,2.57-4.28,4.03c-7.05,7.82-17.36,12.59-27.88,12.91c-6.27,0.19-13.46-0.84-17.72,4.18
					c-3.38,3.99-3.33,9.83-0.38,14.15c3.86,5.66,7.84,8.62,13.77,11.01c-0.09,0.12-0.16,0.24-0.25,0.36
					c8.9,2.58,15.15,6.87,17.9,8.76c6.61,4.53,14.88,6.79,22.81,6.34c1.85-0.1,3.69,0.15,5.48,0.61c0.38,0.1,0.77,0.25,0.92,0.6
					c0.19,0.41-0.05,0.9-0.42,1.16c-0.37,0.25-0.83,0.32-1.27,0.38c-3.01,0.36-6.05,0.37-9.06,0.04c4.58,1.15,8.52,4.64,10.2,9.06
					c0.24,0.63,1.4,2.85,0.95,3.36c-0.65,0.74-2.85-1.26-3.59-1.9c-1.45-1.26-2.7-2.74-4.21-3.92c-1.51-1.18-3.38-2.07-5.29-1.87
					c3.62,2.4,6.9,5.48,8.96,9.3c1.43,2.64,1.16,5.18,1.16,5.18c-0.8,0.5-2.93-1.88-3.65-2.48c-1.62-1.36-2.83-3.12-4.21-4.72
					c-1.38-1.6-3.04-3.09-5.1-3.58c2.54,2.46,5.18,5.03,6.63,8.26c1.84,4.1,0.51,6.62,0.51,6.62c-0.4,0.79-1.54-0.42-2.75-2.59
					c-0.33-0.6-0.81-1.1-1.14-1.71c-1.6-2.91-3.64-5.59-6.02-7.91c-0.53-0.52-1.11-1.04-1.81-1.29c-0.7-0.25-1.57-0.18-2.08,0.36
					c-0.55,0.58-0.54,1.53-0.18,2.25c0.36,0.72,0.99,1.26,1.6,1.77c1.1,0.93,2.2,1.86,3.3,2.78c0.63,0.53,3.08,2.82,2.65,3.53
					c-0.36,0.59-3.56-0.36-4.38-0.77c-4.78-2.35-8.35-5.61-12.02-9.47c-8.77-9.23-19.19-12.29-31.75-10.56
					c-0.41,0.06-0.83,0.12-1.24,0.19c-2.96,0.53-5.78,1.32-8.19,2.27c-9.57,3.79-16.75,12.52-19.85,22.34
					c-1.78,5.63-2.27,11.97,0.29,17.29c1.65,3.45,4.85,6.25,8.44,7.36c-0.07,0.13-0.12,0.27-0.18,0.4
					c16.63,0.03,35.47-1.19,43.01-4.03c5.4-2.04,10.62-4.73,16.3-5.73c0.81-0.14,1.75-0.22,2.36,0.34c0.64,0.59,0.6,1.67,0.13,2.41
					c-0.47,0.74-1.24,1.21-2,1.65c-5.15,2.95-10.64,5.31-16.32,7c9.15-1.43,18.92,1.86,25.34,8.54c0.92,0.96,4.71,4.08,4.28,5.34
					c-0.62,1.83-6.1-0.09-7.94-0.68c-3.57-1.16-6.96-2.87-10.59-3.85c-3.63-0.98-7.68-1.15-10.97,0.66
					c8.36,1.55,16.64,4.61,23.29,9.92c4.6,3.67,6.05,8.45,6.05,8.45c-1.05,1.51-6.72-1.14-8.48-1.68c-3.96-1.21-7.49-3.47-11.2-5.3
					c-3.71-1.82-7.86-3.24-11.94-2.56c6.47,2.5,13.2,5.11,18.29,9.83c6.46,5.99,5.99,11.55,5.99,11.55
					c-0.13,1.73-3.1,0.43-6.95-2.57c-1.06-0.83-2.31-1.37-3.37-2.2c-5.12-4.03-10.84-7.3-16.91-9.66c-1.36-0.53-2.79-1.02-4.25-0.94
					c-1.46,0.08-2.97,0.88-3.48,2.24c-0.55,1.47,0.2,3.18,1.4,4.2c1.19,1.02,2.74,1.51,4.24,1.98c2.69,0.83,5.39,1.66,8.08,2.5
					c1.55,0.48,7.72,2.74,7.49,4.34c-0.2,1.33-6.7,2.07-8.5,1.97c-10.42-0.58-19.36-3.73-28.93-7.88
					c-7.8-3.39-16.23-6.69-24.55-6.38c-8.5,13.29-17.55,33.52-16.06,59.55c0.44,7.72,1.8,14.78,3.61,21.11
					c2.2-3.51,4.19-7.15,5.92-10.9c3.29-7.11,5.77-14.69,10.31-21.07c0.75-1.05,1.75-2.17,3.14-1.87c0.77,0.17,1.37,0.77,1.68,1.49
					c0.58,1.36,0.22,2.8-0.16,4.16c-2.17,7.76-5.24,15.27-9.13,22.32c7.49-10.1,20.07-16.22,32.65-15.87
					c1.81,0.05,8.44-0.54,9.23,1.08c1.14,2.36-5.99,5.73-8.33,6.9c-4.57,2.27-9.47,3.85-13.91,6.36c-4.44,2.51-8.53,6.2-9.99,11.09
					c9.57-6.46,20.5-11.39,31.98-12.58c7.94-0.83,13.91,2.42,13.91,2.42c0.41,2.46-7.59,5.3-9.8,6.45
					c-4.98,2.6-10.56,3.77-15.88,5.54c-5.33,1.77-10.68,4.35-13.99,8.89c8.65-3.75,17.64-7.63,27.06-7.9
					c11.95-0.35,16.8,5.48,16.8,5.48c1.52,1.79-2.6,3.36-9.17,4.13c-1.82,0.21-3.54,0.88-5.36,1.08
					c-8.79,0.98-17.44,3.26-25.56,6.75c-2.11,0.91-4.26,1.95-5.6,3.88c-0.44,0.64-0.76,1.37-0.9,2.14
					c-0.67,3.71,2.68,5.54,5.61,5.34c2.13-0.15,4.09-1.15,5.99-2.13c3.4-1.76,6.8-3.52,10.2-5.28c1.95-1.01,10.08-4.71,11.38-2.93
					c1.08,1.47-4.51,8.38-6.35,10c-10.63,9.36-21.67,16.85-35.5,19.92c-10.66,2.36-17.55,7.9-17.55,7.9
					c-4.04,2.59-6.37,8.31-7.27,13.13c-0.88,4.71-0.68,9.76,1.45,14.04c2.13,4.29,6.43,7.66,11.22,7.86
					c0.49,0.02,0.98-0.02,1.46-0.06c-0.01-0.03-0.02-0.05,0,0c6.61-1.42,13.76-4.17,20.38-7.24c9.91-4.59,19.01-8.27,28.98-10.01
					c1.72-0.3,7.72-0.48,7.62,0.6c-0.11,1.3-6.41,3.91-7.98,4.49c-2.72,1.01-5.44,2.03-8.15,3.04c-1.52,0.57-3.08,1.16-4.42,2.14
					c-1.34,0.99-2.41,2.49-2.19,3.64c0.2,1.07,1.47,1.54,2.83,1.43c1.36-0.11,2.81-0.69,4.21-1.29c6.23-2.69,12.31-6.08,17.99-10.03
					c1.17-0.82,2.47-1.41,3.64-2.23c4.26-2.94,7.33-4.37,7.1-2.96c0,0-0.71,4.54-8.06,10.27c-5.79,4.51-12.69,7.48-19.33,10.33
					c3.72,0.07,7.92-1.6,11.81-3.56c3.89-1.95,7.7-4.25,11.69-5.73c1.77-0.66,7.68-3.53,8.36-2.41c0,0-2.37,4.13-7.48,7.71
					c-7.38,5.19-15.84,8.71-24.07,11.01c2.73,1.1,6.6,0.47,10.23-0.78c3.63-1.25,7.19-3.07,10.81-4.46
					c1.86-0.72,7.44-2.96,7.64-1.52c0.14,0.99-4.09,4.02-5.16,4.93c-7.45,6.29-17.37,10.19-25.72,10.12
					c5.02,0.71,9.72,1.99,13.98,3.81c0.63,0.27,1.26,0.57,1.55,1.12c0.29,0.55,0.1,1.44-0.63,2.01c-0.69,0.53-1.56,0.59-2.3,0.57
					c-5.16-0.14-9.54-1.73-14.22-2.76c-5.76-1.27-12.09-1.63-18.69-1.18c15.42,7.97,77.23,24.19,122.42,24.19l122.7-2.8
					c13.29-1.22,31.47-10.51,43.85-18.76c4.99-3.33,5.83-10.27,1.86-14.78c-1.37-1.56-2.68-3.21-3.92-4.99
					c-0.96-1.37-3.56-6.86-2.6-7.66c1.15-0.97,5.95,2.8,7.08,3.78c1.97,1.72,3.95,3.43,5.92,5.15c1.1,0.96,2.24,1.94,3.63,2.38
					c1.39,0.44,3.11,0.21,3.99-0.95c0.83-1.07,0.71-2.65,0.07-3.84c-0.65-1.19-1.73-2.07-2.82-2.89c-4.83-3.63-10.2-6.54-15.88-8.61
					c-1.17-0.43-2.21-1.15-3.38-1.58c-4.24-1.57-6.72-3.27-5.42-4.22c0,0,4.16-3.09,12.04-0.93c6.21,1.7,11.56,5.73,16.69,9.61
					c-1.46-3.55-4.6-6.12-7.85-8.16c-3.25-2.04-6.76-3.72-9.65-6.24c-1.28-1.12-6.14-4.3-5.47-5.87c0,0,4.49-1.19,9.62,0.64
					c7.43,2.65,13.89,7.68,19.2,13.51c-0.18-3.48-2.3-6.59-4.84-8.98c-2.54-2.38-5.55-4.22-8.21-6.46
					c-1.37-1.15-5.56-4.54-4.42-5.92c0.79-0.95,5.09,0.51,6.3,0.77c7.36,1.57,13.92,6.43,17.68,12.93c0.13-0.56,0.25-1.12,0.37-1.69
					c-0.78-3.86-1.26-7.79-1.39-11.73c-0.03-0.81-0.03-1.66,0.32-2.38c0.35-0.73,1.19-1.29,1.96-1.07c0.49,0.14,0.82,0.54,1.08,0.99
					c0.21-2.56,0.34-5.19,0.41-7.88c-9.51-11.62-26.27-17.82-26.27-17.82c-6.7-3.87-19.35-7.33-25.77-8.5
					c-6.42-1.17-13.27-2.4-17.99-6.91c-0.61-0.58-1.21-1.43-0.85-2.19c0.43-0.92,1.76-0.77,2.73-0.48c1.69,0.5,3.38,1.01,5.07,1.51
					c0.94,0.28,1.92,0.56,2.89,0.45c0.98-0.12,1.96-0.74,2.19-1.7c0.21-0.89-0.3-1.83-1.03-2.38c-0.73-0.55-1.64-0.79-2.53-0.99
					c-3.98-0.88-8.08-1.17-12.15-0.85c-0.84,0.07-1.69,0.15-2.52-0.03c-0.82-0.18-1.62-0.7-1.91-1.49
					c-0.38-1.06,0.31-2.26,1.28-2.83c0.97-0.57,2.14-0.65,3.26-0.68c4.34-0.12,8.69,0.3,12.92,1.25c-1.88-1.77-4.53-2.48-7.09-2.82
					c-2.56-0.34-5.19-0.4-7.66-1.14c-1.1-0.33-2.34-1.04-2.36-2.19c-0.02-0.76,0.55-1.43,1.23-1.77c0.68-0.33,1.46-0.39,2.22-0.41
					c5.31-0.17,10.66,0.84,15.55,2.94c-1.08-2.09-3.25-3.41-5.47-4.16c-2.23-0.75-4.58-1.04-6.84-1.68
					c-1.16-0.33-2.55-1.19-2.24-2.35c0.22-0.8,1.14-1.16,1.96-1.34c5.66-1.24,11.88,0.44,16.13,4.37c-2.37-2.86-4.4-5.99-6.05-9.31
					c-0.24-0.49-0.48-1.01-0.47-1.55c0.01-0.55,0.37-1.12,0.91-1.21c0.43-0.07,0.83,0.19,1.17,0.48c0.97,0.85,1.8,1.85,2.54,2.91
					c5.19,7.43,12.86,19.41,22.93,23.67c0,0,8.19,4.19,14.21,6.37c0,0,9.7,4.06,14.41,4.67c-0.11-0.31-0.05-0.15,0.01,0
					c3.83,1.18,8.18,1.59,10.67-2.33C427.87,331.46,428.25,329.57,428.13,327.71z"/>
			</g>
			<g>
				<path class="st3" d="M80.02,406.93C80.02,406.93,80.02,406.93,80.02,406.93C80.03,406.95,80.04,406.98,80.02,406.93z"/>
			</g>
		</g>
		<g>
			<path class="st3" d="M63.7,247.34c-0.26-2.01-2.33-3.92-4.2-3.16c-4.66,0.46-9.45,5.22-12.83,12.31
				c-2.72,5.7-5.11,11.78-4.6,18.07c0.31,3.8,1.63,7.75,4.6,10.13c2.98,2.39,7.87,2.58,10.34-0.33c2.26-2.66,1.81-6.58,1.61-10.06
				c-0.41-7.2,0.84-14.5,3.63-21.15C63.03,251.29,63.95,249.34,63.7,247.34z"/>
		</g>
		<g>
			<path class="st3" d="M447.17,293.8c-4.59-5.74-10.84-9.99-17.52-13.07c-1.97-0.91-4.05-1.74-6.23-1.77
				c-2.17-0.03-4.48,0.89-5.56,2.78c-1.08,1.89-1.99,3.34,2.01,6.87c4.99,4.89,10.11,9.97,12.79,16.42
				c1.81,4.34,2.45,9.16,4.84,13.21c2.39,4.05,7.54,7.15,11.76,5.09c3.24-1.58,4.58-5.52,4.83-9.11
				C454.59,306.88,451.76,299.54,447.17,293.8z"/>
		</g>
		<ellipse transform="matrix(0.866 -0.5 0.5 0.866 -26.1535 217.2372)" class="st3" cx="392.29" cy="157.42" rx="6.61" ry="12.38"/>
		<g>
			<path class="st3" d="M160.05,73.21c-1.16-2.69-3.91-4.35-6.69-5.29c-6.63-2.25-14.3-1.2-20.08,2.76
				c-3.73,2.56-6.62,6.29-8.28,10.5c-1.99,5.06,1.15,10.62,6.5,11.58c5.83,1.05,13.41,0.44,18.29-1.74
				c4.28-1.91,7.81-5.46,9.71-9.75C160.61,78.73,161.15,75.75,160.05,73.21z"/>
		</g>
	</g>
</g>
<g id="Shadows_1">
	<g class="st8">
		<path d="M210,452.32h2.91c63.91-6.87,106.29-16.38,141.34-42.83c9.92-4.79,7.06-13.7,6.84-18.82l0,0
			c-0.07-1.58-0.45-3.14-1.16-4.56c-11.54-23.08-18.65-30.18-31.26-30.85c-1.14-0.06-2.26-0.18-3.36-0.22
			c7.43-6.47,11.13-16.79,9.94-27.99c-0.79-7.36-3.41-13.7-5.72-19.29l-0.84-2.03c-8.04-19.78-12.54-40.63-13.39-61.96
			c-0.4-10.08-1.15-28.85-16.47-37.57c-1.54-0.88-2.96-1.49-4.11-1.98c-0.14-0.06-0.29-0.13-0.45-0.19c-0.38-1.34-0.7-3.75-0.91-5.3
			l-0.04-0.3c-1.7-12.68-5.02-22.94-10.14-31.36c-7.12-11.7-18.06-19.92-30.02-22.57c-3.7-0.82-7.58-1.14-11.54-0.95
			c-8.82,0.42-17.98,3.24-28.84,8.88c-9.63,5-23.05,13.38-28.47,28.29c-2.4,6.6-2.71,13.1-2.99,18.83c-0.24,4.91-0.47,9.56-2,11.73
			c-1.07,1.51-3.83,3.32-6.51,5.07c-4.98,3.26-11.19,7.32-15.3,14.46c-4.05,7.05-4.48,14.33-4.82,20.18
			c-0.19,3.2-0.36,6.21-1.08,7.94c-0.74,1.78-2.85,4.25-4.89,6.65c-4.96,5.82-11.76,13.8-11.09,25.42
			c0.47,8.11,4.6,14.26,7.62,18.76c0.94,1.4,2.31,3.43,2.77,4.52c-0.27,0.68-0.82,1.76-1.24,2.6c-1.13,2.24-2.55,5.04-3.45,8.42
			c-2.51,9.38,0.13,17.62,2.24,24.24c1.08,3.39,2.11,6.59,2,8.67c-0.1,2.04-1.42,5.22-2.7,8.3c-2.66,6.41-6.31,15.2-3.87,25.25
			c1.8,7.45,6.19,12.6,9.72,16.73c0.62,0.72,1.23,1.44,1.82,2.17c1.12,1.39,2.18,2.88,3.19,4.44c5.92,9.15,10.35,24.1,19.68,29.71
			C184.19,451.28,198.64,450.03,210,452.32z"/>
	</g>
	<g class="st9">
		<path d="M334.72,376.2c-7.21-4.8-24.75-6.16-33.28-7.7c-4.26-0.77-8.93-2.9-9.19-7.83c-0.13-2.48,1.03-4.83,2.83-6.54
			c5.7-5.44,14.55-4.35,20.52-8.9c4.92-3.75,6.63-10.56,5.97-16.71c-0.66-6.15-3.29-11.89-5.62-17.62
			c-8.59-21.14-13.49-43.78-14.39-66.58c-0.39-9.72-1.08-21.36-9.54-26.17c-2.13-1.21-4.58-1.84-6.54-3.29
			c-4.33-3.2-5.07-9.26-5.79-14.6c-1.22-9.09-3.49-18.21-8.26-26.05c-4.77-7.84-12.29-14.31-21.25-16.29
			c-10.56-2.34-21.47,1.71-31.07,6.7c-9.14,4.75-18.37,11.1-21.89,20.79c-3.97,10.92,0.01,24.32-6.69,33.8
			c-5.44,7.7-16.42,10.28-21.11,18.45c-4.53,7.87-1.64,18.16-5.12,26.54c-3.92,9.43-15.53,15.81-14.95,26.01
			c0.53,9.15,11.14,15.77,10.48,24.91c-0.35,4.91-3.96,8.98-5.23,13.74c-2.65,9.9,5.2,19.8,4.7,30.04
			c-0.51,10.27-9.36,19.64-6.94,29.63c1.28,5.29,4.74,11.14,8.16,15.37c7.07,8.75,6.64,20.52,12.41,30.18
			c1.93,3.22,4.71,6.06,8.11,8.58c12.14,9.03,28.11,11.12,42.42,6.19c40.1-8.15,76.41-19.76,106.77-36.82
			c15.61-5.38,18.52-26.37,4.83-35.6C334.95,376.35,334.84,376.28,334.72,376.2z"/>
	</g>
</g>
<g id="Character">
	<g>
		<g>
			<path class="st10" d="M255.93,372.39l-57.45,13.38c-3.84,30.57,11.2,68.9,63.27,66.44c63.42-3,119.52-16.5,109.15-45.22
				C358.4,372.45,255.93,372.39,255.93,372.39z"/>
			<path class="st10" d="M255.93,372.39l-57.45,13.38c-3.84,30.57,11.2,68.9,63.27,66.44c63.42-3,119.52-16.5,109.15-45.22
				C358.4,372.45,255.93,372.39,255.93,372.39z"/>
			<path class="st10" d="M170.75,387.08c-3.84,30.57,9.15,69,61.23,66.54c85.43-4.04,137.91,4.91,143.44-25.11
				c5.53-30.03-110.41-33.29-110.41-33.29s3.46-9.28-3.31-29.17C205.35,369.7,170.75,387.08,170.75,387.08z"/>
			<g class="st9">
				<g>
					<path d="M371.98,416.84c-4.96-4.31-10.52-7.8-16.59-10.34c-5.91-2.47-12.14-4.03-18.44-5.14c-15.24-2.68-30.71-3.47-46.14-4.21
						c-9.56-0.46-19.14-0.99-28.63-2.31c-0.94-0.13-1.35,1.31-0.4,1.45c16.28,2.26,32.74,2.25,49.11,3.46
						c7.42,0.55,14.84,1.37,22.2,2.49c6.31,0.97,12.59,2.27,18.6,4.42c7.06,2.53,13.56,6.31,19.22,11.23
						C371.65,418.53,372.71,417.47,371.98,416.84L371.98,416.84z"/>
				</g>
			</g>
			<g class="st9">
				<g>
					<path d="M203.85,410.72c10.87-7.22,23.69-11.18,36.74-11.31c0.96-0.01,0.97-1.51,0-1.5c-13.3,0.13-26.42,4.15-37.5,11.51
						C202.3,409.96,203.05,411.26,203.85,410.72L203.85,410.72z"/>
				</g>
			</g>
			<g class="st9">
				<g>
					<path d="M204.47,401.5c4.69-0.66,9.43-1.03,14.16-1.1c0.96-0.02,0.97-1.52,0-1.5c-4.88,0.08-9.74,0.47-14.56,1.16
						C203.12,400.19,203.53,401.64,204.47,401.5L204.47,401.5z"/>
				</g>
			</g>
		</g>
		<g>
			<g>
				<path class="st10" d="M222.36,230.15l-8.17-3.91c-8.51,0.62-16.57,4.43-22.3,9.95c-5.73,5.51-9.2,12.62-10.42,19.91
					c-1,5.97-0.56,12.05-1.72,18c-1.16,5.95-4.35,12.08-10.47,15.05c-3.49,1.69-8.16,2.65-9.45,5.91c-0.88,2.24,0.33,4.68,1.97,6.54
					c3.31,3.77,8.33,6.23,13.63,7.51c5.3,1.28,10.89,1.45,16.41,1.3c5.71-0.16,11.66-0.72,16.49-3.4c7-3.89,10.15-11.49,10.35-18.62
					c0.2-6.86-1.83-13.57-3.75-20.2c-1.92-6.63-3.76-13.41-3.17-20.25C212.35,241.08,215.75,234.05,222.36,230.15z"/>
			</g>
			<path class="st3" d="M207.1,225.97c-0.36,0.05-2.3,2.15-2.3,2.15s8.94,9.22,10,8.77c1.06-0.44,1.52-1.98,1.52-1.98L207.1,225.97z
				"/>
			<path class="st11" d="M207.1,225.97c-0.36,0.05-2.3,2.15-2.3,2.15s8.94,9.22,10,8.77c1.06-0.44,1.52-1.98,1.52-1.98L207.1,225.97
				z"/>
		</g>
		<path class="st3" d="M269.2,267.64c17.56,9.09,23.43,44.92,23.43,44.92c-12.91,1.57-28.52,8.11-40.66,17.54
			c0,0-6.77-21.62-6.83-32.52C245.05,286.29,259.16,262.46,269.2,267.64z"/>
		<path class="st11" d="M269.2,267.64c17.56,9.09,23.43,44.92,23.43,44.92c-12.91,1.57-28.52,8.11-40.66,17.54
			c0,0-6.77-21.62-6.83-32.52C245.05,286.29,259.16,262.46,269.2,267.64z"/>
		<path class="st3" d="M260.44,263.4c-21.79-11.44-25.72-12.57-53.83-9.13c-15.1,1.98-26.88,14.06-28.49,29.2
			c-3.81,34.38-11.07,74.67-8.77,105.56c61.22,22,95.06-1.83,93.16-21.6c-15.95-36.47,11.54-22.67,7.62-91.1
			C270.62,265.49,267.65,267.17,260.44,263.4z"/>
		<path class="st11" d="M260.44,263.4c-21.79-11.44-25.72-12.57-53.83-9.13c-15.1,1.98-26.88,14.06-28.49,29.2
			c-3.81,34.38-11.07,74.67-8.77,105.56c61.22,22,95.06-1.83,93.16-21.6c-15.95-36.47,11.54-22.67,7.62-91.1
			C270.62,265.49,267.65,267.17,260.44,263.4z"/>
		<g class="st9">
			<g>
				<path d="M267.21,323.19c2.3-5.04,4.07-10.35,4.49-15.9c0.45-5.93-0.85-11.75-3.7-16.96c-0.04,0.3-0.08,0.61-0.12,0.91
					c0.64-0.67,1.28-1.35,1.92-2.02c0.66-0.7-0.39-1.76-1.06-1.06c-0.64,0.67-1.28,1.35-1.92,2.02c-0.24,0.25-0.28,0.61-0.12,0.91
					c2.73,4.99,3.93,10.53,3.49,16.2c-0.4,5.27-2.1,10.36-4.29,15.14C265.51,323.3,266.8,324.07,267.21,323.19L267.21,323.19z"/>
			</g>
		</g>
		<g>
			<path class="st10" d="M258.28,177.58c0.22-0.02,7.57-2.64,10.91,9.79s-3.02,42.55-2.9,42.74s-11.32-40.68-11.32-40.68
				L258.28,177.58z"/>
			<path class="st12" d="M248.03,242.76c-0.19,0.67-2.09,10.88,0.42,13.46c1.3,1.34,4.05,2.84,4.05,2.84s1.6,11.81-7.68,10.16
				c-9.28-1.64-25.77-16.06-25.77-16.06l5.78-0.27c0,0,6.22-9.91-1.89-23.6C219.97,224.27,248.03,242.76,248.03,242.76z"/>
			<path class="st13" d="M248.07,242.46l-22.49-11.54c-0.28,2.48,0.34,4.97,1.75,7.03c4.23,6.75,12.09,11.62,19.97,14.23
				C247.22,248.99,247.51,245.82,248.07,242.46z"/>
			<path class="st12" d="M215.27,206.02c3.62,18.46,4.74,26.36,15.25,34.66c15.79,12.51,37.24,4.07,39.08-15.12
				c1.69-17.26-4.51-44.55-23.35-49.46C227.41,171.19,211.56,187.58,215.27,206.02z"/>
			<g class="st8">
				<path class="st3" d="M262.94,191.71c-1.76-3.3-4.21-6.19-6.94-8.73c-2.35-2.18-5.07-4.19-8.23-4.7
					c-4.52-0.74-9.08,1.78-11.98,5.32c-2.9,3.54-4.44,7.98-5.81,12.34c-0.59,1.87-1.16,3.76-1.33,5.71
					c-0.17,1.95,0.08,3.99,1.04,5.69l-1.14,1.03c3.52,2.75,8.25,3.25,12.71,3.64c4.66,0.41,9.33,0.82,14,0.51
					c2.52-0.17,5.16-0.61,7.12-2.21c2.27-1.85,3.18-4.92,3.27-7.84C265.75,198.73,264.7,195.01,262.94,191.71z"/>
			</g>
			<path class="st10" d="M236.31,209.64c-0.05,2.01,0.91,3.73,2.15,3.84c1.24,0.12,2.29-1.42,2.34-3.42
				c0.05-2.01-0.91-3.73-2.15-3.84C237.41,206.1,236.36,207.63,236.31,209.64z"/>
			<path class="st10" d="M254.76,208.62c-0.05,1.95,0.92,3.62,2.16,3.73c1.24,0.12,2.28-1.37,2.33-3.31
				c0.05-1.95-0.92-3.62-2.16-3.73C255.85,205.19,254.81,206.67,254.76,208.62z"/>
			<path class="st10" d="M245.23,196.78c-0.24-0.02-0.48,0.06-0.67,0.24c-2.83,2.8-6.15,1.96-6.18,1.95
				c-0.49-0.13-0.98,0.17-1.07,0.67c-0.09,0.5,0.23,1.01,0.73,1.14c0.17,0.04,4.34,1.1,7.85-2.38c0.35-0.35,0.34-0.94-0.03-1.32
				C245.68,196.9,245.45,196.79,245.23,196.78z"/>
			<path class="st10" d="M255.27,195.39c-0.2,0.03-0.38,0.14-0.5,0.33c-0.25,0.39-0.14,0.97,0.25,1.28
				c3.83,3.17,7.32,1.92,7.47,1.86c0.42-0.16,0.6-0.67,0.42-1.15c-0.18-0.48-0.67-0.74-1.09-0.59c-0.14,0.05-2.86,0.98-5.9-1.54
				C255.71,195.43,255.48,195.36,255.27,195.39z"/>
			<path class="st14" d="M251.37,206.51c0,0,2.45,7.29,5.46,11.94c0.53,0.81,0.09,1.91-0.85,2.18c-2.4,0.69-5.07-0.28-5.07-0.28
				L251.37,206.51z"/>
			<path class="st10" d="M238.35,206.2l4.41-0.71C242.76,205.49,240.16,208.56,238.35,206.2z"/>
			<path class="st10" d="M256.66,205.32l4.41-0.71C261.07,204.6,258.47,207.67,256.66,205.32z"/>
			<g>
				<path class="st10" d="M226.59,242.88c3.2-4.4-0.74-14.4-5.44-20.32c9.34-1.38,29.95-42.56,29.95-42.56s0.14-4.5,0.13,1.22
					l8.87-0.1c3.65-9.27-12.61-12.85-12.61-12.85c-41.28-5.86-46.78,29.32-46.78,29.32c-0.56,5.36-1.89,11.95,1.67,20.28
					c1.6,3.76,5.97,11.08,13.05,17.34L226.59,242.88z"/>
			</g>
			<path class="st12" d="M211.42,220.55c1.95,4.04,5.41,6.74,8.67,7.81c4.91,1.62,8.08-6.24,6.74-11.38
				c-1.21-4.62-5.91-7.97-10.86-7.34C211.1,210.26,209.19,215.93,211.42,220.55z"/>
			<g class="st13">
				<g>
					<path d="M223.65,220.09c-0.01-2-0.79-3.98-2.2-5.4c-1.41-1.43-3.37-2.24-5.37-2.27c-0.97-0.02-0.97,1.48,0,1.5
						c1.61,0.03,3.18,0.68,4.31,1.83c1.14,1.15,1.76,2.73,1.76,4.34C222.15,221.06,223.65,221.06,223.65,220.09L223.65,220.09z"/>
				</g>
			</g>
			<path class="st10" d="M250.66,177.41c0.54,7.19-1.37,14.36-5.42,20.33c0,0,12.4-8.26,15.91-17.42L250.66,177.41z"/>
			<path class="st15" d="M249.3,203.84c-0.11,1.3-0.88,2.53-2,3.21"/>
			<g>
				<path class="st10" d="M254.29,226.02c-0.45-0.85-1.04-1.48-2-1.44c-1.29,0-2.65-0.24-3.69,0.35c-1.05,0.59-1.79,1.68-1.96,2.87
					c-0.11,0.84,0.09,1.77,0.74,2.31c0.62,0.52,1.5,0.58,2.3,0.47c0.8-0.11,1.58-0.37,2.38-0.39c0.53-0.02,1.09,0.06,1.56-0.19
					c0.44-0.23,0.7-0.7,0.85-1.17C254.77,227.91,254.75,226.87,254.29,226.02z"/>
			</g>
			<path class="st16" d="M252.73,227.62c-1.67-1.17-5.69-0.31-5.98-0.25c-0.04,0.14-0.09,0.28-0.11,0.42
				c-0.11,0.84,0.09,1.77,0.74,2.31c0.62,0.52,1.5,0.58,2.3,0.47c0.8-0.11,1.58-0.37,2.38-0.39c0.53-0.02,1.09,0.06,1.56-0.19
				c0.21-0.11,0.38-0.28,0.52-0.48C253.99,228.97,253.64,228.25,252.73,227.62z"/>
		</g>
		<g>
			<path class="st3" d="M201.67,258.65c18.92,5.57,23.31,47.17,23.31,47.17c-8.2,3.36-32.04,10.13-36.55,12.08
				c0,0-8.24-20.1-8.31-30.98C180.07,275.57,187.5,254.49,201.67,258.65z"/>
			<path class="st11" d="M201.67,258.65c18.92,5.57,23.31,47.17,23.31,47.17c-8.2,3.36-32.04,10.13-36.55,12.08
				c0,0-8.24-20.1-8.31-30.98C180.07,275.57,187.5,254.49,201.67,258.65z"/>
			<g class="st9">
				<g>
					<path d="M218.44,279.19c-1.56-7.37-5.29-14.74-12.3-18.24c-6.13-3.06-13.92-2.09-18.22,3.54c-0.59,0.77,0.72,1.51,1.3,0.76
						c4.08-5.34,11.72-5.64,17.2-2.44c6.06,3.54,9.17,10.15,10.57,16.79C217.19,280.53,218.64,280.13,218.44,279.19L218.44,279.19z"
						/>
				</g>
			</g>
			<g>
				<g>
					<path class="st10" d="M223.6,305.56c-11.66,4.18-23.31,8.38-35.39,11.15c-0.39,0.09-0.63,0.55-0.52,0.92
						c0.01,0.02,0.01,0.04,0.02,0.06c0.23,0.68,1.24,0.75,1.45,0c0.17-0.63-0.33-1.67-0.49-2.25c-0.49-1.82-0.99-3.63-1.49-5.44
						c-1.35-4.89-2.73-9.77-4.19-14.63c-0.28-0.92-1.73-0.53-1.45,0.4c1.42,4.7,2.75,9.43,4.06,14.16c0.5,1.81,1,3.62,1.49,5.43
						c0.15,0.54,0.29,1.08,0.44,1.62c0.04,0.16,0.06,0.36,0.13,0.51c0.11,0.23-0.1,0.36,0.05-0.19c0.48,0,0.96,0,1.45,0
						c-0.01-0.02-0.01-0.04-0.02-0.06c-0.17,0.31-0.35,0.62-0.52,0.92c12.09-2.77,23.74-6.98,35.39-11.15
						C224.9,306.69,224.51,305.24,223.6,305.56L223.6,305.56z"/>
				</g>
			</g>
		</g>
		<path class="st9" d="M194.97,325.2c0,0,8.86,37.79,27.07,33.18c18.21-4.61,19.87-57.48,20.42-67.62
			c0.55-10.14-2.64-24.02-2.64-24.02l-17.78,60.86L194.97,325.2z"/>
		<g>
			<path class="st12" d="M192.45,317.16c0,0,10.83,40.48,25.69,37.48c23.78-4.79,21.69-87.91,21.69-87.91s-10.24-1.65-11.97-0.92
				c-1.73,0.73-16.52,45.75-16.52,45.75L192.45,317.16z"/>
			<path class="st12" d="M254.52,239.55c-1.95-2.54-10.46,5.12-10.46,5.12s8.08-9.31,6.19-11.63c-2.61-3.21-3.49-1.94-3.49-1.94
				s-0.33-2.55-2.88-2.53c-1.58,0.01-7.62,4.91-12.06,13.97c0,0,0.72-3.18,2.34-8.21c0.65-2.01,2.7-3.86,2.86-6.43
				c0.23-3.6-6.19,0.29-8.38,5.9c-2.19,5.61-2.2,16.86-2.07,24.84c0.01,0.87,0.07,1.93,0.14,3.08l-0.02,10.11l12.73,1.79
				c0.36-3.89,2.94-7.22,4.24-9.86c2.1-4.24,0.16-9.28,1.26-11.03C247.87,248.07,256.47,242.09,254.52,239.55z"/>
			<g>
				<g>
					<path class="st14" d="M246.56,230.88c-2.6,2.27-5.18,4.6-7.12,7.49c-2.26,3.37-3.47,7.3-4.33,11.23
						c-0.21,0.94,1.24,1.34,1.45,0.4c0.84-3.81,1.99-7.6,4.18-10.87c1.86-2.78,4.39-5.01,6.88-7.19
						C248.35,231.31,247.29,230.25,246.56,230.88L246.56,230.88z"/>
				</g>
			</g>
			<g>
				<g>
					<path class="st14" d="M243.72,244.06c-0.91,1.35-1.9,2.68-2.7,4.1c-0.79,1.39-1.36,2.99-1.16,4.61
						c0.05,0.4,0.31,0.75,0.75,0.75c0.37,0,0.8-0.35,0.75-0.75c-0.18-1.49,0.36-2.85,1.11-4.11c0.78-1.32,1.69-2.57,2.55-3.84
						C245.55,244.01,244.26,243.26,243.72,244.06L243.72,244.06z"/>
				</g>
			</g>
			<g>
				<g>
					<path class="st14" d="M208.76,320.47c4-11.39,8.01-22.79,12.01-34.18c1.56-4.43,3.01-8.91,4.67-13.3
						c0.66-1.73,1.1-3.48,1.41-5.31c0.24-1.42,0.43-2.85,0.53-4.28c0.11-1.59-0.04-3.16-0.07-4.76c-0.13-6.28-0.19-12.68,0.69-18.91
						c0.43-3.03,1.11-6.03,2.94-8.56c0.86-1.19,1.94-2.32,3.17-3.13c0.37-0.25,1.6-1.08,2.05-0.76c0.35,0.25,0.01,1.27-0.06,1.53
						c-0.23,0.88-0.7,1.67-1.17,2.44c-0.92,1.53-1.54,2.96-2.07,4.67c-0.65,2.12-1.28,4.25-1.77,6.41
						c-0.18,0.79,0.98,1.37,1.37,0.58c2.13-4.3,4.86-8.45,8.47-11.66c0.77-0.68,1.78-1.67,2.81-1.91c1.13-0.27,2.13,0.83,2.29,1.95
						c0.08,0.52,0.72,0.63,1.1,0.45c1.05-0.51,2.84-0.37,3.04,1.27c0.17,1.42-1.04,3.15-1.72,4.29c-1.44,2.4-3.14,4.68-4.93,6.83
						c-0.62,0.73,0.33,1.71,1.06,1.06c1.52-1.36,3.15-2.63,4.86-3.74c0.83-0.53,5.77-3.18,4.33-0.15c-0.69,1.46-1.98,2.69-3.09,3.84
						c-1.33,1.39-2.72,2.73-4.01,4.15c-0.99,1.09-2.38,2.42-2.75,3.89c-0.44,1.79,0.02,3.8-0.01,5.62c-0.04,2.9-1.16,5.03-2.56,7.48
						c-1.31,2.3-2.41,4.66-2.72,7.32c-0.11,0.96,1.39,0.95,1.5,0c0.32-2.82,1.77-5.27,3.16-7.69c1.23-2.14,2.02-4.22,2.1-6.72
						c0.04-1.16-0.04-2.31-0.09-3.46c-0.04-0.85-0.16-1.85,0.24-2.64c0.92-1.8,2.73-3.36,4.12-4.78c1.42-1.45,2.89-2.86,4.15-4.44
						c0.78-0.98,1.74-2.21,1.71-3.53c-0.07-3.14-3.89-1.86-5.5-1c-2.36,1.27-4.53,2.99-6.52,4.77c0.35,0.35,0.71,0.71,1.06,1.06
						c2.33-2.78,4.69-5.81,6.24-9.11c0.79-1.67,1.35-3.51,0-5.08c-1.12-1.3-3-1.26-4.45-0.56c0.37,0.15,0.73,0.3,1.1,0.45
						c-0.21-1.44-1.34-2.7-2.76-3c-1.41-0.3-2.56,0.47-3.63,1.29c-4.33,3.29-7.54,8.16-9.92,12.97c0.46,0.19,0.91,0.39,1.37,0.58
						c0.43-1.88,0.97-3.74,1.52-5.58c0.5-1.66,0.98-3.2,1.89-4.68c0.78-1.28,1.56-2.58,1.77-4.09c0.23-1.7-0.72-2.97-2.51-2.51
						c-2.13,0.54-3.96,2.45-5.24,4.12c-3.52,4.58-3.78,10.97-4.04,16.52c-0.16,3.38-0.17,6.77-0.13,10.16
						c0.04,3.33,0.25,6.55-0.25,9.86c-0.78,5.09-2.94,10.06-4.64,14.9c-2.7,7.69-5.4,15.37-8.1,23.06
						c-1.17,3.34-2.35,6.69-3.52,10.03c-0.61,1.75-1.37,3.51-1.86,5.3c-0.02,0.09-0.06,0.17-0.09,0.26
						C206.99,320.98,208.44,321.38,208.76,320.47L208.76,320.47z"/>
				</g>
			</g>
		</g>
		<g>
			<g>
				<path class="st12" d="M267.35,234.22c1.6-2.54,10.23,3.86,10.23,3.86s-8.37-7.98-6.82-10.32c2.15-3.23,3.09-2.12,3.09-2.12
					s0.08-2.41,2.47-2.62c1.48-0.13,7.56,3.91,12.51,11.99c0,0-0.96-2.91-2.91-7.46c-0.78-1.82-2.86-3.37-3.24-5.75
					c-0.53-3.34,5.81-0.28,8.35,4.77c2.54,5.05,3.55,15.56,4.13,23.02c0.06,0.82,0.11,1.81,0.14,2.89l0.92,9.44l-11.73,2.8
					c-0.68-3.6-3.39-6.48-4.84-8.83c-2.33-3.77-0.97-8.66-2.16-10.19C274.3,241.59,265.75,236.76,267.35,234.22z"/>
				<g>
					<g>
						<path class="st14" d="M273.18,226.61c2.5,1.8,5.01,3.65,6.98,6.05c2.32,2.81,3.71,6.25,4.82,9.68c0.3,0.92,1.74,0.52,1.45-0.4
							c-1.17-3.64-2.67-7.21-5.09-10.2c-2.07-2.56-4.75-4.52-7.4-6.43C273.15,224.75,272.4,226.05,273.18,226.61L273.18,226.61z"/>
					</g>
				</g>
				<g>
					<g>
						<path class="st14" d="M276.73,238.42c0.9,1.09,1.86,2.16,2.68,3.31c0.76,1.07,1.39,2.26,1.35,3.61c-0.03,0.97,1.47,0.96,1.5,0
							c0.04-1.55-0.6-3.01-1.48-4.26c-0.91-1.3-1.98-2.5-2.99-3.72c-0.26-0.31-0.79-0.27-1.06,0
							C276.42,237.66,276.47,238.1,276.73,238.42L276.73,238.42z"/>
					</g>
				</g>
			</g>
			<path class="st12" d="M266.57,320.92c-0.48,0.24,9.71,26.54,26.55,22.19c16.83-4.36,13.38-25.28,12.03-30.73
				c-1.35-5.45-9.58-57.05-9.58-57.05l-13.35,4.45l0.41,54.44C276.97,316.26,271.58,318.46,266.57,320.92z"/>
			<g>
				<g>
					<path class="st14" d="M281.75,311.54c-0.19,5.35,0.11,10.71,0.42,16.05c0.06,0.96,1.56,0.97,1.5,0
						c-0.32-5.34-0.62-10.7-0.42-16.05C283.29,310.57,281.79,310.58,281.75,311.54L281.75,311.54z"/>
				</g>
			</g>
		</g>
	</g>
</g>
</svg>
